<svg xmlns="http://www.w3.org/2000/svg" width="154.667" height="154.667" viewBox="0 0 154.667 154.667">
  <g id="Grupo_61393" data-name="Grupo 61393" transform="translate(-473 -4579.933)">
    <g id="Grupo_61390" data-name="Grupo 61390" transform="translate(473 4579.933)">
      <path id="Trazado_105095" data-name="Trazado 105095" d="M2682.54,6466.171q3.8,0,7.58.373t7.507,1.114q3.727.739,7.362,1.843t7.146,2.557q3.51,1.453,6.861,3.244t6.51,3.9q3.158,2.111,6.1,4.521t5.623,5.1q2.687,2.687,5.1,5.623t4.521,6.1q2.111,3.157,3.9,6.509t3.245,6.861q1.454,3.509,2.557,7.145t1.844,7.362q.741,3.727,1.114,7.506t.373,7.581q0,3.8-.373,7.58t-1.114,7.508q-.742,3.726-1.844,7.361t-2.557,7.146q-1.455,3.51-3.245,6.861t-3.9,6.51q-2.111,3.158-4.521,6.1t-5.1,5.623q-2.686,2.689-5.623,5.1t-6.1,4.521q-3.159,2.111-6.51,3.9t-6.861,3.244q-3.509,1.454-7.146,2.557t-7.362,1.844q-3.725.743-7.507,1.114t-7.58.373q-3.8,0-7.58-.373t-7.507-1.114q-3.725-.741-7.362-1.844t-7.146-2.557q-3.51-1.455-6.86-3.244t-6.51-3.9q-3.159-2.109-6.1-4.521t-5.624-5.1q-2.686-2.687-5.1-5.623t-4.521-6.1q-2.111-3.16-3.9-6.51t-3.244-6.861q-1.455-3.509-2.557-7.146t-1.844-7.361q-.741-3.727-1.113-7.508t-.372-7.58q0-3.8.372-7.581t1.113-7.506q.741-3.725,1.844-7.362t2.557-7.145q1.453-3.511,3.244-6.861t3.9-6.509q2.111-3.159,4.521-6.1t5.1-5.623q2.688-2.688,5.624-5.1t6.1-4.521q3.158-2.109,6.51-3.9t6.86-3.244q3.51-1.455,7.146-2.557t7.362-1.843q3.726-.743,7.507-1.114T2682.54,6466.171Z" transform="translate(-2605.207 -6466.171)" fill="#a0a603"/>
      <circle id="Elipse_1225" data-name="Elipse 1225" cx="72.641" cy="72.641" r="72.641" transform="translate(4.693 4.693)" fill="#fff"/>
      <path id="shutterstock_793184827" d="M66.08,0A66.08,66.08,0,1,1,0,66.08,66.08,66.08,0,0,1,66.08,0Z" transform="translate(11.253 11.253)" fill="#aaaf31"/>
    </g>
    <g id="Grupo_61392" data-name="Grupo 61392" transform="translate(464.151 4492.803)">
      <path id="Trazado_131106" data-name="Trazado 131106" d="M46.776,137.423a1.59,1.59,0,0,1-1.044-2.792,30.992,30.992,0,0,1,30.021-5.983,1.592,1.592,0,0,1-1,3.022,27.814,27.814,0,0,0-26.935,5.363A1.569,1.569,0,0,1,46.776,137.423Z" transform="translate(21.71 8.721)" fill="#fff"/>
      <path id="Trazado_131107" data-name="Trazado 131107" d="M73.614,182.508a30.962,30.962,0,0,1-28.623-42.733,1.591,1.591,0,0,1,2.941,1.213,27.769,27.769,0,1,0,45.316-9.062,1.59,1.59,0,0,1,2.248-2.248,30.946,30.946,0,0,1-21.882,52.83Z" transform="translate(14.087 15.185)" fill="#fff"/>
      <path id="Trazado_131108" data-name="Trazado 131108" d="M48.182,137.425a1.6,1.6,0,0,1-1.04-2.8,22.382,22.382,0,0,1,21.54-4.311,1.591,1.591,0,0,1-.987,3.026,19.193,19.193,0,0,0-18.474,3.7A1.6,1.6,0,0,1,48.182,137.425Z" transform="translate(25.973 15.186)" fill="#fff"/>
      <path id="Trazado_131109" data-name="Trazado 131109" d="M67.15,168.019a22.359,22.359,0,0,1-21.761-27.454,1.591,1.591,0,0,1,3.1.725,19.168,19.168,0,1,0,37.83,4.38,18.963,18.963,0,0,0-4.166-11.934,1.591,1.591,0,0,1,2.49-1.982A22.121,22.121,0,0,1,89.5,145.669,22.373,22.373,0,0,1,67.15,168.019Z" transform="translate(20.551 21.076)" fill="#fff"/>
      <path id="Trazado_131110" data-name="Trazado 131110" d="M58.2,152.922a10.448,10.448,0,0,1-2.1-20.682,1.592,1.592,0,0,1,.641,3.119,7.253,7.253,0,1,0,8.449,5.113,1.592,1.592,0,0,1,3.062-.874A10.463,10.463,0,0,1,58.2,152.922Z" transform="translate(29.502 24.27)" fill="#fff"/>
      <path id="Trazado_131111" data-name="Trazado 131111" d="M56.261,140.475a1.6,1.6,0,0,1-1.559-1.269,14.034,14.034,0,0,1,2.043-10.625l2.413-3.671a1.622,1.622,0,0,1,1.471-.709,1.6,1.6,0,0,1,1.326.959,4.974,4.974,0,0,0,4.642,3.078,1.631,1.631,0,0,1,1.422.822,1.587,1.587,0,0,1-.064,1.644l-2.417,3.671a14.049,14.049,0,0,1-8.953,6.068A1.788,1.788,0,0,1,56.261,140.475Zm4.2-11.757-1.06,1.616a10.87,10.87,0,0,0-1.8,6.511,10.879,10.879,0,0,0,5.278-4.223l1.06-1.616A8.04,8.04,0,0,1,60.463,128.718Z" transform="translate(49.652 0)" fill="#fff"/>
      <path id="Trazado_131112" data-name="Trazado 131112" d="M64.943,148.247a1.569,1.569,0,0,1-.955-.322l-22.16-16.673a1.591,1.591,0,1,1,1.914-2.542L65.9,145.383a1.593,1.593,0,0,1-.959,2.865Z" transform="translate(9.627 12.704)" fill="#fff"/>
      <path id="Trazado_131113" data-name="Trazado 131113" d="M50.629,139.9a14.049,14.049,0,0,1-8.469-2.845l-3.509-2.639a1.592,1.592,0,0,1,.423-2.772,4.92,4.92,0,0,0,3.36-4.444A1.595,1.595,0,0,1,44.98,126l3.513,2.643a14.041,14.041,0,0,1,5.5,9.315,1.6,1.6,0,0,1-1.354,1.8A14.7,14.7,0,0,1,50.629,139.9Zm-8.1-6.551,1.543,1.164a10.893,10.893,0,0,0,6.39,2.2,10.9,10.9,0,0,0-3.884-5.528l-1.547-1.16A8.031,8.031,0,0,1,42.53,133.351Z" transform="translate(0 4.501)" fill="#fff"/>
      <path id="Trazado_131114" data-name="Trazado 131114" d="M51.482,158.637a1.591,1.591,0,0,1-1.326-2.47l18.445-28a1.591,1.591,0,1,1,2.659,1.749L52.812,157.92A1.584,1.584,0,0,1,51.482,158.637Z" transform="translate(35.981 9.844)" fill="#fff"/>
      <path id="Trazado_131115" data-name="Trazado 131115" d="M48.517,158.252a4.887,4.887,0,0,1-3.723-8.058l7.913-9.3a1.589,1.589,0,1,1,2.421,2.059l-7.913,9.3a1.706,1.706,0,0,0,1.3,2.812,1.714,1.714,0,0,0,1.265-.556l9.348-10.278a1.591,1.591,0,1,1,2.353,2.144l-9.348,10.274A4.888,4.888,0,0,1,48.517,158.252Z" transform="translate(16.968 48.885)" fill="#fff"/>
      <path id="Trazado_131116" data-name="Trazado 131116" d="M65.919,158.252a4.88,4.88,0,0,1-3.614-1.6l-9.352-10.274a1.593,1.593,0,0,1,2.357-2.144l9.348,10.278a1.706,1.706,0,0,0,1.261.556,1.706,1.706,0,0,0,1.3-2.812l-7.913-9.3a1.591,1.591,0,0,1,2.426-2.059l7.913,9.3a4.89,4.89,0,0,1-3.727,8.058Z" transform="translate(43.998 48.885)" fill="#fff"/>
      <path id="Trazado_131117" data-name="Trazado 131117" d="M102.97,147.175H44.258a1.592,1.592,0,1,1,0-3.183H102.97a1.592,1.592,0,0,1,0,3.183Z" transform="translate(14.087 59.962)" fill="#fff"/>
    </g>
  </g>
</svg>
