<svg xmlns="http://www.w3.org/2000/svg" width="36.874" height="36.874" viewBox="0 0 36.874 36.874">
  <g id="Grupo_62078" data-name="Grupo 62078" transform="translate(-1661.866 -817.49)">
    <circle id="Elipse_4784" data-name="Elipse 4784" cx="18.437" cy="18.437" r="18.437" transform="translate(1661.866 817.49)" fill="#6f7302"/>
    <path id="Trazado_131096" data-name="Trazado 131096" d="M1682.41,824.782c-1.423-1.5-1.9-1.5-2.108-1.5s-.684,0-2.107,1.5a28.547,28.547,0,0,0-2.668,3.346c-1.336,1.942-3.576,5.674-3.576,8.85a6.6,6.6,0,0,0,2.738,5.8,9.611,9.611,0,0,0,4.991,1.471v3.7a.622.622,0,1,0,1.244,0v-7.29l4.567-4.567a.622.622,0,0,0-.88-.879l-3.687,3.686V834l2.631-2.631a.622.622,0,0,0-.879-.88l-1.752,1.751v-4.77a.622.622,0,1,0-1.244,0v4.77l-1.751-1.751a.622.622,0,0,0-.88.88L1679.68,834V838.9l-3.686-3.686a.622.622,0,0,0-.88.879l4.566,4.567v2.343a8.339,8.339,0,0,1-4.284-1.249,5.422,5.422,0,0,1-2.2-4.779c0-2.752,2-6.128,3.187-7.9a18.8,18.8,0,0,1,3.919-4.529,18.773,18.773,0,0,1,3.92,4.529c1.19,1.768,3.187,5.144,3.187,7.9a5.4,5.4,0,0,1-4.737,5.812.622.622,0,0,0,.256,1.218,7.4,7.4,0,0,0,4-2.1,6.972,6.972,0,0,0,1.726-4.932c0-3.176-2.241-6.908-3.576-8.85a28.751,28.751,0,0,0-2.668-3.346Z" fill="#fff"/>
  </g>
</svg>
