<svg xmlns="http://www.w3.org/2000/svg" width="923.6" height="829.842" viewBox="0 0 923.6 829.842">
  <g id="Grupo_61397" data-name="Grupo 61397" transform="translate(779.484 -387.387)">
    <rect id="Rectángulo_18518" data-name="Rectángulo 18518" width="921.6" height="827.842" transform="translate(-778.484 388.387)" fill="none" stroke="#c3c3c3" stroke-miterlimit="10" stroke-width="2"/>
    <rect id="Rectángulo_18519" data-name="Rectángulo 18519" width="292.625" height="93.057" transform="translate(-186.507 403.383)" fill="#c3d3e2"/>
    <ellipse id="Elipse_1710" data-name="Elipse 1710" cx="270.286" cy="274.126" rx="270.286" ry="274.126" transform="translate(-578.05 531.523)" fill="#dfe7ed"/>
    <ellipse id="Elipse_1711" data-name="Elipse 1711" cx="197.326" cy="200.128" rx="197.326" ry="200.128" transform="translate(-506.04 602.951)" fill="#cddbe7"/>
    <path id="Trazado_131132" data-name="Trazado 131132" d="M-298.149,512.07c-165.809,0-300.222,134.414-300.222,300.222s134.414,300.223,300.222,300.223S2.074,978.1,2.074,812.292-132.341,512.07-298.149,512.07Zm0,571.432c-149.785,0-271.209-121.425-271.209-271.21s121.424-271.209,271.209-271.209S-26.94,662.508-26.94,812.292-148.364,1083.5-298.149,1083.5Z" transform="translate(-9.883 -6.786)" fill="#9cb8ce"/>
    <path id="Trazado_131133" data-name="Trazado 131133" d="M-293.095,604.177c-117.73,0-213.169,95.439-213.169,213.169s95.439,213.17,213.169,213.17,213.169-95.439,213.169-213.17S-175.365,604.177-293.095,604.177Zm0,405.739c-106.353,0-192.569-86.216-192.569-192.569s86.217-192.568,192.569-192.568,192.568,86.216,192.568,192.568S-186.742,1009.916-293.095,1009.916Z" transform="translate(-14.937 -11.84)" fill="#9cb8ce"/>
    <circle id="Elipse_1712" data-name="Elipse 1712" cx="104.718" cy="104.718" r="104.718" transform="translate(-412.407 702.592)" fill="#7d9cb2"/>
    <path id="Trazado_131134" data-name="Trazado 131134" d="M-192.4,736.02l-2.33,19.8,19.607,3.59-3.576-4.84,14.336-10.591-10.126-13.706-14.336,10.591Z" transform="translate(-32.03 -18.759)" fill="#fff"/>
    <path id="Trazado_131135" data-name="Trazado 131135" d="M-146.934,834.729l-17.122,10.205,9.09,17.74,1.662-5.783,17.13,4.924,4.708-16.378-17.13-4.924Z" transform="translate(-33.714 -24.491)" fill="#fff"/>
    <path id="Trazado_131136" data-name="Trazado 131136" d="M-417.737,834.729l17.122,10.205-9.09,17.74-1.662-5.783-17.13,4.924-4.708-16.378,17.13-4.924Z" transform="translate(-18.946 -24.491)" fill="#fff"/>
    <path id="Trazado_131137" data-name="Trazado 131137" d="M-352.689,938.228l18.957-6.16,7.359,18.525-5.446-2.559-7.579,16.132-15.424-7.247,7.579-16.132Z" transform="translate(-23.246 -29.832)" fill="#fff"/>
    <path id="Trazado_131138" data-name="Trazado 131138" d="M-216.389,942.023l-19.917-.809-2.08,19.824,4.552-3.935,11.657,13.483,12.892-11.145-11.656-13.483Z" transform="translate(-29.635 -30.334)" fill="#fff"/>
    <path id="Trazado_131139" data-name="Trazado 131139" d="M-271.164,701.808l-.356-17.82-17.038.341.356,17.82-6.016.12,14.808,13.344,14.263-13.925Z" transform="translate(-26.572 -16.22)" fill="#fff"/>
    <path id="Trazado_131140" data-name="Trazado 131140" d="M-387.013,759.485l19.568-3.8-2.541-19.77-3.524,4.878-14.448-10.437-9.979,13.814,14.448,10.437Z" transform="translate(-20.881 -18.764)" fill="#fff"/>
    <path id="Trazado_131141" data-name="Trazado 131141" d="M-435.14,583.612l47.58,16.534,19.54-46.427-13.891,6.187-68.7-133.477-39.339,17.52,68.7,133.477Z" transform="translate(-15.832 -2.087)" fill="#868789"/>
    <path id="Trazado_131142" data-name="Trazado 131142" d="M-18.463,721.637l-15.555,47.909L12.8,788.131,6.33,774.37l132.04-71.418L120.048,663.98-11.993,735.4Z" transform="translate(-40.849 -15.122)" fill="#868789"/>
    <path id="Trazado_131143" data-name="Trazado 131143" d="M-27.559,976.188-77.273,984.3l4.916,50.131,9.271-12.053,123.952,84.682,26.256-34.134L-36.83,988.241Z" transform="translate(-38.476 -32.253)" fill="#868789"/>
    <path id="Trazado_131144" data-name="Trazado 131144" d="M-492.813,1019.891l7.449-49.817-49.24-10.617,8.649,12.507-118.47,92.2,24.493,35.42,118.47-92.2Z" transform="translate(-7.356 -31.335)" fill="#868789"/>
    <path id="Trazado_131145" data-name="Trazado 131145" d="M-571.093,791.619l44.068-24.4-21.531-45.538-4.664,14.473-145.246-37.929-13.209,40.988,145.246,37.929Z" transform="translate(-3.666 -17.001)" fill="#868789"/>
    <circle id="Elipse_1713" data-name="Elipse 1713" cx="22.921" cy="22.921" r="22.921" transform="translate(-737.037 1137.387)" fill="#9cb8ce"/>
    <circle id="Elipse_1714" data-name="Elipse 1714" cx="22.921" cy="22.921" r="22.921" transform="translate(-470.972 1137.387)" fill="#cddbe7"/>
    <circle id="Elipse_1715" data-name="Elipse 1715" cx="22.921" cy="22.921" r="22.921" transform="translate(-164.579 1137.387)" fill="#858688"/>
    <text id="Cambios_hacia_patrones_de_producción_y_consumo_sostenible" data-name="Cambios hacia patrones de producción y consumo sostenible" transform="translate(-386.591 747.179)" fill="#fff" font-size="21.451" font-family="SegoeUI, Segoe UI"><tspan x="13.554" y="23">Cambios hacia </tspan><tspan x="25.599" y="48.742">patrones de </tspan><tspan x="20.409" y="74.484">producción y </tspan><tspan x="38.65" y="100.225">consumo </tspan><tspan x="34.293" y="125.967">sostenible</tspan></text>
    <text id="Objetivo_de_política_de_P_CS" data-name="Objetivo de política de P&amp;CS" transform="translate(-681.458 1139.597)" fill="#00223d" font-size="18.387" font-family="SegoeUI, Segoe UI"><tspan x="0" y="20">Objetivo de </tspan><tspan x="0" y="42.064">política de P&amp;CS</tspan></text>
    <text id="Estrategias_para_la_aplicación_de_las_políticas" data-name="Estrategias para la aplicación de las políticas" transform="translate(-419.105 1139.597)" fill="#00223d" font-size="18.387" font-family="SegoeUI, Segoe UI"><tspan x="0" y="20">Estrategias para la </tspan><tspan x="0" y="42.064">aplicación de las políticas</tspan></text>
    <text id="Estrategias_e_instrumentos_para_la_gestión_de_la_política" data-name="Estrategias e instrumentos para la gestión de la política" transform="translate(-113.026 1139.597)" fill="#00223d" font-size="18.387" font-family="SegoeUI, Segoe UI"><tspan x="0" y="20">Estrategias e instrumentos </tspan><tspan x="0" y="42.064">para la gestión de la política</tspan></text>
    <circle id="Elipse_1716" data-name="Elipse 1716" cx="60.674" cy="60.674" r="60.674" transform="translate(-369.261 547.487)" fill="#cddbe7" stroke="#a6d6f4" stroke-miterlimit="10" stroke-width="2"/>
    <circle id="Elipse_1717" data-name="Elipse 1717" cx="60.674" cy="60.674" r="60.674" transform="translate(-211.06 623.891)" fill="#cddbe7" stroke="#a6d6f4" stroke-miterlimit="10" stroke-width="2"/>
    <circle id="Elipse_1718" data-name="Elipse 1718" cx="60.674" cy="60.674" r="60.674" transform="translate(-522.968 623.891)" fill="#cddbe7" stroke="#a6d6f4" stroke-miterlimit="10" stroke-width="2"/>
    <circle id="Elipse_1719" data-name="Elipse 1719" cx="60.674" cy="60.674" r="60.674" transform="translate(-275.778 924.114)" fill="#cddbe7" stroke="#a6d6f4" stroke-miterlimit="10" stroke-width="2"/>
    <circle id="Elipse_1720" data-name="Elipse 1720" cx="60.674" cy="60.674" r="60.674" transform="translate(-459.148 924.114)" fill="#cddbe7" stroke="#a6d6f4" stroke-miterlimit="10" stroke-width="2"/>
    <circle id="Elipse_1721" data-name="Elipse 1721" cx="60.674" cy="60.674" r="60.674" transform="translate(-173.307 790.182)" fill="#cddbe7" stroke="#a6d6f4" stroke-miterlimit="10" stroke-width="2"/>
    <circle id="Elipse_1722" data-name="Elipse 1722" cx="60.674" cy="60.674" r="60.674" transform="translate(-564.316 790.182)" fill="#cddbe7" stroke="#a6d6f4" stroke-miterlimit="10" stroke-width="2"/>
    <text id="Gestión_e_integración_de_diferentes_actores" data-name="Gestión e integración
de diferentes actores" transform="translate(-137.177 444.498)" fill="#00223d" font-size="19" font-family="SegoeUI, Segoe UI"><tspan x="0" y="0">Gestión e integración</tspan><tspan x="0" y="23">de diferentes actores</tspan></text>
    <text transform="translate(-643.338 511.237)" font-size="10" font-family="ArialMT, Arial"/>    <text id="_1._Infraestructura_sostenible" data-name="1.
Infraestructura
sostenible" transform="translate(-434.801 580.797)" fill="#00223d" font-size="15.323" font-family="SegoeUI, Segoe UI"><tspan x="122.583" y="17">1.</tspan><tspan x="79.155" y="32.323">Infraestructura</tspan><tspan x="94.224" y="47.645">sostenible</tspan></text>
    <text id="_2._Regulación_ambiental" data-name="2.
Regulación
ambiental" transform="translate(-275.595 658.159)" fill="#00223d" font-size="15.323" font-family="SegoeUI, Segoe UI"><tspan x="122.583" y="17">2.</tspan><tspan x="91.19" y="32.323">Regulación</tspan><tspan x="94.826" y="47.645">ambiental</tspan></text>
    <text id="_3._Compras_responsables" data-name="3. 
Compras 
responsables" transform="translate(-238.597 824.091)" fill="#00223d" font-size="15.323" font-family="SegoeUI, Segoe UI"><tspan x="122.583" y="17">3. </tspan><tspan x="98.226" y="32.323">Compras </tspan><tspan x="84.359" y="47.645">responsables</tspan></text>
    <text id="_4._Capacitación_e_investigación" data-name="4.
Capacitación e
investigación" transform="translate(-341.744 958.631)" fill="#00223d" font-size="15.323" font-family="SegoeUI, Segoe UI"><tspan x="122.583" y="17">4.</tspan><tspan x="79.118" y="32.323">Capacitación e</tspan><tspan x="84.176" y="47.645">investigación</tspan></text>
    <text id="_5._Cultura_y_autogestión" data-name="5. 
Cultura y 
autogestión" transform="translate(-463.951 958.631)" fill="#00223d" font-size="15.323" font-family="SegoeUI, Segoe UI"><tspan x="58.934" y="17">5. </tspan><tspan x="34.492" y="32.323">Cultura y </tspan><tspan x="24.361" y="47.645">autogestión</tspan></text>
    <text id="_6._Encadenamiento" data-name="6. 
Encadenamiento" transform="translate(-563.687 829.37)" fill="#00223d" font-size="15.323" font-family="SegoeUI, Segoe UI"><tspan x="54.192" y="17">6. </tspan><tspan x="3.701" y="32.323">Encadenamiento</tspan></text>
    <text id="_7._Negocios_verdes" data-name="7.
Negocios
verdes" transform="translate(-525.1 654.794)" fill="#00223d" font-size="15.323" font-family="SegoeUI, Segoe UI"><tspan x="56.434" y="17">7.</tspan><tspan x="30.353" y="32.323">Negocios</tspan><tspan x="40.116" y="47.645">verdes</tspan></text>
    <text id="Fuentes_de_financiación_y_cooperación" data-name="Fuentes de financiación
y cooperación" transform="translate(-479.679 437.497) rotate(63.378)" fill="#fff" font-size="14" font-family="SegoeUI, Segoe UI"><tspan x="0" y="0">Fuentes de financiación</tspan><tspan x="0" y="14">y cooperación</tspan></text>
    <text id="Evaluación_y_seguimiento" data-name="Evaluación y 
seguimiento" transform="matrix(0.887, -0.463, 0.463, 0.887, 70.789, 675.593)" fill="#fff" font-size="14" font-family="SegoeUI, Segoe UI"><tspan x="-79.775" y="0">Evaluación y </tspan><tspan x="-76.46" y="14">seguimiento</tspan></text>
    <text id="Indicadores_de_seguimiento" data-name="Indicadores de
seguimiento" transform="translate(24.026 1046.416) rotate(34.681)" fill="#fff" font-size="14" font-family="SegoeUI, Segoe UI"><tspan x="-90.85" y="0">Indicadores de</tspan><tspan x="-76.46" y="14">seguimiento</tspan></text>
    <text id="Mesa_redonda_de_P_CS" data-name="Mesa redonda
de P&amp;CS" transform="translate(-631.929 1042.647) rotate(-38.014)" fill="#fff" font-size="14" font-family="SegoeUI, Segoe UI"><tspan x="0" y="0">Mesa redonda</tspan><tspan x="0" y="14">de P&amp;CS</tspan></text>
    <text id="Agendas_sectoriales" data-name="Agendas 
sectoriales" transform="translate(-696.138 701.641) rotate(14.436)" fill="#fff" font-size="14" font-family="SegoeUI, Segoe UI"><tspan x="0" y="0">Agendas </tspan><tspan x="0" y="14">sectoriales</tspan></text>
  </g>
</svg>
