<svg xmlns="http://www.w3.org/2000/svg" width="1030" height="467.651" viewBox="0 0 1030 467.651">
  <g id="Grupo_61451" data-name="Grupo 61451" transform="translate(-481 -8995)">
    <circle id="Elipse_1723" data-name="Elipse 1723" cx="182.5" cy="182.5" r="182.5" transform="translate(814 9057)" fill="#f0f2b9"/>
    <path id="Trazado_131217" data-name="Trazado 131217" d="M-105,7707.4H248.076v82.931" transform="translate(586 1521.892)" fill="none" stroke="#a0a603" stroke-width="1" stroke-dasharray="2"/>
    <text id="Plan_Estratégico_Nacional_de_Mercados_Verdes_PENMV_Período_2002_-_2012_" data-name="Plan Estratégico Nacional de Mercados Verdes (PENMV) Período 2002 - 2012
" transform="translate(517 9136)" fill="#00223d" font-size="18" font-family="SegoeUI, Segoe UI"><tspan x="0" y="19">Plan Estratégico Nacional de Mercados </tspan><tspan x="0" y="40.6">Verdes (PENMV) Período 2002 - 2012</tspan><tspan font-family="CerebriSans-Regular"><tspan x="0" y="62.2"></tspan></tspan></text>
    <text id="Problemáticas_y_limitaciones_para_el_desarrollo_de_negocios_verdes_" data-name="Problemáticas y limitaciones para el desarrollo de negocios verdes
" transform="translate(1171 9249)" fill="#00223d" font-size="18" font-family="SegoeUI, Segoe UI"><tspan x="0" y="19">Problemáticas y limitaciones para el </tspan><tspan x="0" y="40.6">desarrollo de negocios verdes</tspan><tspan font-family="CerebriSans-Regular"><tspan x="0" y="62.2"></tspan></tspan></text>
    <text id="Oportunidades_para_Negocios_Verdes_en_Colombia_" data-name="Oportunidades para Negocios Verdes en Colombia
" transform="translate(1171 9165)" fill="#00223d" font-size="18" font-family="SegoeUI, Segoe UI"><tspan x="0" y="19">Oportunidades para Negocios Verdes en </tspan><tspan x="0" y="40.6">Colombia</tspan></text>
    <text id="Política_de_Producción_Más_Limpia_PML_" data-name="Política de Producción Más Limpia (PML)
" transform="translate(527 9244)" fill="#00223d" font-size="18" font-family="SegoeUI, Segoe UI"><tspan x="0" y="19">Política de Producción Más Limpia </tspan><tspan x="0" y="40.6">(PML)</tspan><tspan font-family="CerebriSans-Regular"><tspan x="0" y="62.2"></tspan></tspan></text>
    <path id="Trazado_131214" data-name="Trazado 131214" d="M-105,7785.265H248.076V7707.4" transform="translate(586 1429.531)" fill="none" stroke="#a0a603" stroke-width="1" stroke-dasharray="2"/>
    <path id="Trazado_131215" data-name="Trazado 131215" d="M248.076,7785.265H-105V7707.4" transform="translate(1262.924 1436.546)" fill="none" stroke="#a0a603" stroke-width="1" stroke-dasharray="2"/>
    <path id="Trazado_131216" data-name="Trazado 131216" d="M248.076,7707.4H-105v77.863" transform="translate(1262.924 1532.413)" fill="none" stroke="#a0a603" stroke-width="1" stroke-dasharray="2"/>
    <g id="Grupo_61446" data-name="Grupo 61446" transform="translate(765.098 8995)">
      <g id="Grupo_61412" data-name="Grupo 61412" transform="translate(251.403)">
        <g id="Grupo_61411" data-name="Grupo 61411" transform="translate(42.544)">
          <path id="Trazado_131146" data-name="Trazado 131146" d="M284.234,33.92l39.1,4.332c-2.2,10.3-4.3,30.474-1.4,37.566,5.389,10.565,2.884,39.093-.728,57.163h0c-.762,4.232-1.539,7.864-2.108,12.257-.827,6.376-2.211,8.48-2.695,14.729-.5,6.376-3.856,8.081-5.394,8.087-3.141.012-4.936-1.175-3.068-9.4.907-3.986,1.185-11.2,1.7-15.2.822-6.455,2-11.324.241-11.12-1.15,1.426-1.995,7.1-3.354,18.579-1.113,9.4-2.555,16.968-3.263,26.176-.724,9.4-3.7,12.1-5.5,12.141-3.68.089-5.758-1.617-3.382-13.755,1.152-5.887,1.413-20.944,2.1-26.849.911-7.817,1.736-13.977,1.278-16.955-1.561-1.212-3.748,5.442-5.592,20.363-1.294,10.48-3.117,18.392-3.91,28.659-.81,10.477-4.493,13.464-6.739,13.5-4.585.062-7.19-1.861-4.349-15.383,1.378-6.556,1.655-22.839,2.455-29.421,1.288-10.613,2.829-19.99.206-19.307-1.063,1.464-2.005,5.551-3.747,16.329-1.471,9.1-3.193,16.5-4.205,25.424-1.032,9.111-4.443,11.59-6.47,11.539-4.14-.1-6.436-1.871-3.482-13.568,1.432-5.673,2-20.425,2.915-26.139,1.47-9.216,3.491-16.678,3.781-18.252,1.044-5.689,1.907-13.471,3.178-21.208-2.819-1.32-1.493,4.62-4.75,9.062-1.561,2.128,2.034,7.069-5.061,17.827-2.77,4.2-8.7,6.213-10.554,1.9,1.706-5.649,3.075-12.188,4.078-32.8,3.292-10.322,14.013-30.016,19.824-35.392C284.1,56.675,284.577,41.871,284.234,33.92Z" transform="translate(-251.425 5.737)" fill="#ead7b7"/>
          <g id="Grupo_61410" data-name="Grupo 61410" transform="translate(23.558)">
            <rect id="Rectángulo_18529" data-name="Rectángulo 18529" width="10.867" height="46.431" transform="translate(3.275 58.624) rotate(-84.119)" fill="#fff"/>
            <path id="Trazado_131147" data-name="Trazado 131147" d="M276.882,0l-5.306,51.513,53.468,5.508L330.917,0Z" transform="translate(-271.575)" fill="#d9ae79"/>
          </g>
        </g>
        <path id="Trazado_131148" data-name="Trazado 131148" d="M320.478,156.21a10.591,10.591,0,0,0-4.912.766v-.008c-5.991,2.454-7.473-.087-7.488-2.323l2.594-31.37a1.8,1.8,0,0,0-1.646-1.942l-31.448-2.6c-2.521-.408-4.387-2.255-.983-7.761h-.008a10.642,10.642,0,1,0-18.883-1.562H257.7c2.454,5.991-.088,7.473-2.323,7.488L224,114.3a1.794,1.794,0,0,0-1.91,1.474c0,.058.008.115,0,.174l-2.586,31.266a2.986,2.986,0,0,0,.353,1.511,2.033,2.033,0,0,0,1.721.932,9.6,9.6,0,0,0,4.167-.921l1.359-.558-.008.1a11.369,11.369,0,0,1,3.975-.368,11.542,11.542,0,0,1-1.9,23.006,11.382,11.382,0,0,1-3.86-1.016l-.008.095-1.25-.765a10.251,10.251,0,0,0-4.153-1.706c-.53-.043-1.875-.152-2.24,2.025l-2.6,31.421c0,.06-.023.113-.032.171a1.794,1.794,0,0,0,1.643,1.769l31.2,2.579a2.986,2.986,0,0,0,1.51-.352,2.033,2.033,0,0,0,.932-1.721,9.58,9.58,0,0,0-.922-4.167l-.557-1.36.1.008a11.369,11.369,0,0,1-.368-3.975,11.542,11.542,0,0,1,23.006,1.9,11.382,11.382,0,0,1-1.016,3.86l.094.008-.765,1.25a10.24,10.24,0,0,0-1.7,4.153c-.044.531-.153,1.875,2.025,2.24l31.42,2.6.067,0a1.8,1.8,0,0,0,1.942-1.645l2.6-31.449c.409-2.519,2.256-4.387,7.762-.982v-.009a10.639,10.639,0,1,0,6.473-19.648Z" transform="translate(-215.035 16.022)" fill="#529ad9"/>
        <path id="Trazado_131149" data-name="Trazado 131149" d="M255.5,91.876a82.479,82.479,0,0,1,3.531-8.827c3.656,4.567,16.648,2.159,12.607,13.773a40.755,40.755,0,0,1-4.6,8.136c-1.561,2.128,2.034,7.069-5.061,17.827-2.77,4.2-8.7,6.213-10.554,1.9C253.131,119.031,254.5,112.492,255.5,91.876Z" transform="translate(-208.881 14.046)" fill="#ead7b7"/>
      </g>
      <g id="Grupo_61414" data-name="Grupo 61414" transform="translate(230.782 236.14)">
        <path id="Trazado_131150" data-name="Trazado 131150" d="M285.65,282.18a7.282,7.282,0,0,0,10.282-.541l7.726-8.585a7.282,7.282,0,0,0-.541-10.282h0a7.281,7.281,0,0,0-10.282.542l-7.668,11.754c-2.69,2.989-2.5,4.422.484,7.112Z" transform="translate(-182.873 -192.014)" fill="#dec29b"/>
        <path id="Trazado_131151" data-name="Trazado 131151" d="M294.734,294.92a6.962,6.962,0,0,0,9.535-2.45l5.618-9.506a6.961,6.961,0,0,0-2.45-9.534h0a6.961,6.961,0,0,0-9.534,2.451l-4.965,12.466c-1.957,3.31-1.512,4.618,1.8,6.574Z" transform="translate(-181.436 -190.06)" fill="#dec29b"/>
        <path id="Trazado_131152" data-name="Trazado 131152" d="M301.087,302.933a6.037,6.037,0,0,0,8.074-2.767l4.209-8.6a6.035,6.035,0,0,0-2.767-8.074h0a6.034,6.034,0,0,0-8.074,2.767l-3.443,11.113c-1.466,2.994-.993,4.094,2,5.56Z" transform="translate(-180.335 -188.298)" fill="#dec29b"/>
        <path id="Trazado_131153" data-name="Trazado 131153" d="M333.277,269.385s-24.9,7.793-27.2,8.616-18.341-11.76-13.162-17.749C301.83,249.948,333.277,269.385,333.277,269.385Z" transform="translate(-181.415 -192.634)" fill="#d3af85"/>
        <path id="Trazado_131154" data-name="Trazado 131154" d="M331.241,267.628s-24.9,7.793-27.2,8.616S337.3,305.321,337.611,291.7A47.048,47.048,0,0,0,331.241,267.628Z" transform="translate(-179.378 -190.877)" fill="#dec29b"/>
        <path id="Trazado_131155" data-name="Trazado 131155" d="M279.3,272.48a7.28,7.28,0,0,0,10.293-.221l7.989-8.341a7.281,7.281,0,0,0-.222-10.294h0a7.279,7.279,0,0,0-10.293.222l-8.031,11.511c-2.781,2.9-2.64,4.341.264,7.122Z" transform="translate(-183.928 -193.587)" fill="#ead7b7"/>
        <path id="Trazado_131156" data-name="Trazado 131156" d="M284.311,261.043a7.281,7.281,0,0,0,8.708,5.495l21.8-5.319a7.281,7.281,0,0,0,5.5-8.708h0a7.28,7.28,0,0,0-8.706-5.5s-10.975,3.216-21.8,5.321a7.206,7.206,0,0,0-5.5,8.708Z" transform="translate(-182.728 -194.393)" fill="#ead7b7"/>
        <path id="Trazado_131157" data-name="Trazado 131157" d="M302.346,251.953c-2.215,4.506-1.579,8.038,2.424,11.069,4.487,3.4,8.738,6.588,13.758,6.691,4.364,9.23,14.116,10.468,14.116,10.468,4.506,2.217,10.841-2.613,13.058-7.118h0a9.093,9.093,0,0,0-4.146-12.171,264.211,264.211,0,0,1-27.04-13.086c-4.384-2.447-9.954-.36-12.171,4.146Z" transform="translate(-179.861 -194.404)" fill="#ead7b7"/>
        <path id="Trazado_131158" data-name="Trazado 131158" d="M286.695,255.134l.069-.049a10.18,10.18,0,0,1,14.183,2.436l3.7,5.169-9.22,2.251-6.748,7.045a7.267,7.267,0,0,1-1.54,1.223l-2.818-3.936A10.21,10.21,0,0,1,286.695,255.134Z" transform="translate(-183.01 -193.314)" fill="#dec29b"/>
        <path id="Trazado_131159" data-name="Trazado 131159" d="M334.036,260.12c-5.939,1.355-7.669,12.2-11.35,15.273-11.819,9.876-.075,36.531-.075,36.531-.013,9.88,7.485,21.411,18.15,25.02h0c12.609,4.267,21.7-4.632,18.586-18.359L347.34,267.193c-1.242-5.54-4.569-6.961-8.808-8.406Z" transform="translate(-177.099 -192.372)" fill="#ead7b7"/>
        <path id="Trazado_131160" data-name="Trazado 131160" d="M299.7,259.909a10.576,10.576,0,0,0-4.851,1.084v-.009c-5.818,2.839-7.463.4-7.623-1.831l.548-31.473A1.8,1.8,0,0,0,286,225.849l-31.551-.551c-2.542-.243-4.525-1.965-1.486-7.68h-.008a10.642,10.642,0,1,0-18.945-.33H234c2.837,5.818.4,7.461-1.831,7.623l-31.473-.549a1.794,1.794,0,0,0-1.81,1.6c0,.058.015.115.014.173l-.547,31.368a2.991,2.991,0,0,0,.45,1.485,2.032,2.032,0,0,0,1.778.818,9.6,9.6,0,0,0,4.1-1.191l1.32-.643v.1a11.391,11.391,0,0,1,3.942-.625,11.542,11.542,0,1,1-.4,23.081,11.35,11.35,0,0,1-3.919-.763v.1l-1.3-.683a10.247,10.247,0,0,0-4.254-1.431c-.532-.009-1.881-.03-2.1,2.166l-.551,31.523c0,.06-.015.116-.02.173a1.794,1.794,0,0,0,1.754,1.658l31.3.546a2.991,2.991,0,0,0,1.484-.45,2.032,2.032,0,0,0,.818-1.778,9.6,9.6,0,0,0-1.191-4.1l-.643-1.32h.1a11.391,11.391,0,0,1-.625-3.942,11.542,11.542,0,0,1,23.081.4,11.351,11.351,0,0,1-.763,3.919h.095l-.682,1.3A10.248,10.248,0,0,0,250.7,312.1c-.009.532-.03,1.881,2.166,2.1l31.523.551h.065a1.8,1.8,0,0,0,1.832-1.769l.549-31.551c.244-2.542,1.966-4.525,7.681-1.486v-.008a10.638,10.638,0,1,0,5.182-20.027Z" transform="translate(-197.397 -201.98)" fill="#529ad9"/>
        <path id="Trazado_131161" data-name="Trazado 131161" d="M308.835,307.678l-12.466-23.8-11.146-15.573a8.84,8.84,0,1,1,14.443-10.2l9.36,13.077,20.383,21.967c3.593,4.288,1.786,11.473-4.279,15.755S311.682,312.494,308.835,307.678Z" transform="translate(-182.817 -193.12)" fill="#ead7b7"/>
        <path id="Trazado_131162" data-name="Trazado 131162" d="M309.991,316.561c8.235,22.937,34.066,25.4,45.928,16.88s4.954-23.895.643-44.429c-2.389-11.376-16.159,10.784-37.646-8.7-9.234,1.8-14.792,6.245-19.662,9.743C299.254,290.053,303.186,297.605,309.991,316.561Z" transform="translate(-180.17 -188.732)" fill="#ead7b7"/>
        <path id="Trazado_131163" data-name="Trazado 131163" d="M359.562,315.832c.451,16.633,4.6,20.989,7.529,25.066l-29.36,21.095s.811-18.445-18.349-35.056C342.637,314.558,359.562,315.832,359.562,315.832Z" transform="translate(-176.766 -182.73)" fill="#ead7b7"/>
        <g id="Grupo_61413" data-name="Grupo 61413" transform="translate(153.482 143.667)">
          <rect id="Rectángulo_18530" data-name="Rectángulo 18530" width="38.047" height="11.046" transform="matrix(0.863, -0.504, 0.504, 0.863, 0, 19.194)" fill="#fff"/>
          <path id="Trazado_131164" data-name="Trazado 131164" d="M416.819,412.09l-49.174-83.578-38.03,22.22,36.1,61.357Z" transform="translate(-328.518 -324.247)" fill="#f3b840"/>
        </g>
      </g>
      <g id="Grupo_61421" data-name="Grupo 61421" transform="translate(26.653 229.967)">
        <g id="Grupo_61420" data-name="Grupo 61420" transform="translate(0 62.017)">
          <g id="Grupo_61418" data-name="Grupo 61418" transform="translate(16.008)">
            <g id="Grupo_61417" data-name="Grupo 61417" transform="translate(1.631 25.374)">
              <g id="Grupo_61415" data-name="Grupo 61415" transform="translate(10.743 18.97)">
                <path id="Trazado_131165" data-name="Trazado 131165" d="M98.64,299.5l-5.818-9.141a6.08,6.08,0,0,0-5.556-2.266c-4.853.016-11.54-.022-15.953-.054a6.076,6.076,0,0,0-4.063-.033l-.54,0a4.382,4.382,0,0,0-3.124,1.874C56,297.565,47.745,307.4,47.745,307.4c-1.919,2.621.616,7.865,3.237,9.783s11.5,8.742,13.423,6.12c0,0,.262-10.434,2.967-15.215,1.746-.959,4.4-4.992,6.547-8.729A53.782,53.782,0,0,0,86.9,297.947l4.229,5.061c2.009,2.4,5.307,3.065,7.368,1.479S100.647,301.906,98.64,299.5Z" transform="translate(-47.073 -287.675)" fill="#dec29b"/>
                <path id="Trazado_131166" data-name="Trazado 131166" d="M100.054,301.865A5.987,5.987,0,0,0,98.64,299.5l-5.818-9.141a6.08,6.08,0,0,0-5.556-2.266c-4.853.016-11.54-.022-15.953-.054a6.076,6.076,0,0,0-4.063-.033l-.54,0a4.382,4.382,0,0,0-3.124,1.874C56,297.565,47.745,307.4,47.745,307.4c-1.919,2.621.616,7.865,3.237,9.783s11.5,8.742,13.423,6.12a64.579,64.579,0,0,1,.809-8.12,24.505,24.505,0,0,1,1.734-7.4c1.846-1.2,4.437-5.868,6.5-10.167a59.559,59.559,0,0,0,14.193-2.634l5.081,5.231C94.819,302.372,97.882,303,100.054,301.865Z" transform="translate(-47.073 -287.675)" fill="#d3af85"/>
              </g>
              <g id="Grupo_61416" data-name="Grupo 61416" transform="translate(2.435 8.523)">
                <path id="Trazado_131167" data-name="Trazado 131167" d="M106.216,293.934,98.744,282.19a7.816,7.816,0,0,0-7.139-2.911c-6.235.021-14.826-.029-20.495-.07a7.8,7.8,0,0,0-5.219-.041l-.694-.006a5.625,5.625,0,0,0-4.012,2.408c-9.751,9.874-20.353,22.515-20.353,22.515-2.465,3.367.791,10.1,4.159,12.568s14.78,11.231,17.245,7.864c0,0,.337-13.406,3.814-19.548,2.242-1.232,5.649-6.414,8.411-11.214a69.142,69.142,0,0,0,16.672-1.818l5.433,6.5c2.58,3.087,6.818,3.938,9.466,1.9S108.8,297.022,106.216,293.934Z" transform="translate(-39.967 -278.739)" fill="#dec29b"/>
                <path id="Trazado_131168" data-name="Trazado 131168" d="M108.035,296.969a7.7,7.7,0,0,0-1.819-3.035L98.744,282.19a7.816,7.816,0,0,0-7.139-2.911c-6.235.021-14.826-.029-20.495-.07a7.8,7.8,0,0,0-5.219-.041l-.694-.006a5.625,5.625,0,0,0-4.012,2.408c-9.751,9.874-20.353,22.515-20.353,22.515-2.465,3.367.791,10.1,4.159,12.568s14.78,11.231,17.245,7.864a82.981,82.981,0,0,1,1.041-10.432,31.487,31.487,0,0,1,2.227-9.512c2.371-1.544,5.7-7.54,8.349-13.061a76.442,76.442,0,0,0,18.235-3.385l6.528,6.72C101.309,297.622,105.244,298.425,108.035,296.969Z" transform="translate(-39.967 -278.739)" fill="#d3af85"/>
              </g>
              <path id="Trazado_131169" data-name="Trazado 131169" d="M109.878,286.616l-9.212-12.334a8.639,8.639,0,0,0-8.113-2.619c-6.874.538-16.353,1.194-22.606,1.617a8.635,8.635,0,0,0-5.76.387l-.765.05a6.224,6.224,0,0,0-4.228,2.987c-9.935,11.7-20.582,26.512-20.582,26.512-2.439,3.918,1.709,11.077,5.626,13.517s17.228,11.162,19.667,7.245c0,0-.737-14.812,2.588-21.873,2.371-1.543,5.7-7.539,8.349-13.061a76.374,76.374,0,0,0,18.234-3.385l6.53,6.721c3.1,3.191,7.845,3.779,10.6,1.312S112.978,289.807,109.878,286.616Z" transform="translate(-37.884 -271.449)" fill="#dec29b"/>
            </g>
            <path id="Trazado_131170" data-name="Trazado 131170" d="M67.023,305.2a18.519,18.519,0,0,0,12.707,18.179c-12.712-1.581-22.51-15.612-22.464-25.043S67.023,305.2,67.023,305.2Z" transform="translate(-32.975 -242.024)" fill="#d3af85"/>
            <path id="Trazado_131171" data-name="Trazado 131171" d="M99.6,254.218c.316,3.943-3.262,7.6-7.991,8.171l-13.581,1.636c-4.728.569-8.816-2.166-9.132-6.109h0c-.314-3.943,3.263-7.6,7.992-8.171l16.476.158c4.728-.569,5.92.373,6.235,4.315Z" transform="translate(-31.011 -249.745)" fill="#ead7b7"/>
            <path id="Trazado_131172" data-name="Trazado 131172" d="M83.6,253.088a8.357,8.357,0,0,1,.1,11.083c-9.332,11.148-23,18.58-23,18.58-3,2.6-7.906,1.866-10.961-1.651h0c-3.056-3.517-3.1-8.479-.1-11.083,0,0,16.879-11.8,26.477-18.711,3.223-2.321,4.425-1.735,7.48,1.782Z" transform="translate(-34.639 -249.716)" fill="#ead7b7"/>
            <path id="Trazado_131173" data-name="Trazado 131173" d="M59.968,264.451c4.8,1.154,10.425-.78,10.2,4.155-.247,5.532-1.909,22.289-4.985,26.155-.99,8.295,4.765,23.088,4.765,23.088-1.153,4.8-17.62.445-22.423-.708h0c-4.8-1.153-11.436-7.022-10.284-11.826,0,0,5.922-19.024,12.126-34.343.534-1.32,5.793-7.673,10.6-6.52Z" transform="translate(-36.383 -247.281)" fill="#ead7b7"/>
            <path id="Trazado_131174" data-name="Trazado 131174" d="M52.253,294.449c5.988.233,11.084-1.048,11.954,3.589,2.913,15.54,13.1,25.247,19.374,24.788,9.692-.711-14.221,41.695-23.878,47.12h0c-11.415,6.416-21.825-.537-21.3-14.374L37.049,301.7c.2-5.584,6.777-5.557,10.614-7.724Z" transform="translate(-36.394 -242.264)" fill="#ead7b7"/>
            <path id="Trazado_131175" data-name="Trazado 131175" d="M83.928,368.714c8.121-7.1,13.782-15.742,18.694-23.139,1.878-2.828,8.245-14.031,13.583-21.278l5.542-18.283c.583-2.869,5.447-9.071,2.046-12.463s-10.633-1.32-14,2.109c-5.552,5.66-6.518,15.532-9.375,18.7-21.635,8.4-26.048,10.63-26.048,10.63-4.194,3.564-32.559,39.831-27.386,44.988S79.784,372.336,83.928,368.714Z" transform="translate(-34.82 -242.629)" fill="#ead7b7"/>
            <path id="Trazado_131176" data-name="Trazado 131176" d="M89.174,344.468c-3.8,23.672-28.322,30.747-41.338,24.662s-9.13-22.2-8.691-42.839c.243-11.432,14.2,9.024,31.433-13.719,7.693,8.09,6.966,9.859,20.8,4.3C91.381,316.867,92.311,324.905,89.174,344.468Z" transform="translate(-36.188 -239.119)" fill="#ead7b7"/>
            <path id="Trazado_131177" data-name="Trazado 131177" d="M39.215,352.467c2.586,16.164-.635,21.128-2.726,25.6l37.734,17.64s1.117-12.949,11.374-37.225A136.121,136.121,0,0,0,39.215,352.467Z" transform="translate(-36.489 -232.4)" fill="#ead7b7"/>
          </g>
          <g id="Grupo_61419" data-name="Grupo 61419" transform="translate(0 130.646)">
            <rect id="Rectángulo_18531" data-name="Rectángulo 18531" width="10.867" height="46.431" transform="translate(13.983 10.452) rotate(-74.114)" fill="#fff"/>
            <path id="Trazado_131178" data-name="Trazado 131178" d="M78.682,405.733l7.092-24.918L34.076,366.1,22.8,405.733Z" transform="translate(-22.797 -360.712)" fill="#1c5d71"/>
          </g>
        </g>
        <path id="Trazado_131179" data-name="Trazado 131179" d="M179.19,254.03a10.585,10.585,0,0,0-4.839,1.135v-.008c-5.787,2.9-7.457.477-7.641-1.751l.215-31.476a1.8,1.8,0,0,0-1.788-1.812l-31.556-.216c-2.544-.216-4.544-1.917-1.567-7.665h-.008a10.642,10.642,0,1,0-18.947-.129h-.008c2.9,5.787.478,7.457-1.75,7.641l-31.476-.215a1.793,1.793,0,0,0-1.793,1.615c0,.058.016.113.016.173l-.215,31.372a2.976,2.976,0,0,0,.466,1.479,2.031,2.031,0,0,0,1.786.8,9.6,9.6,0,0,0,4.085-1.235l1.313-.658v.1a11.371,11.371,0,0,1,3.935-.668,11.542,11.542,0,0,1-.158,23.084,11.374,11.374,0,0,1-3.926-.721v.095l-1.3-.669a10.247,10.247,0,0,0-4.27-1.385c-.532,0-1.881-.01-2.081,2.187l-.215,31.528c0,.06-.015.116-.019.174a1.793,1.793,0,0,0,1.771,1.638l31.306.215a2.977,2.977,0,0,0,1.479-.466,2.031,2.031,0,0,0,.8-1.786,9.6,9.6,0,0,0-1.235-4.085l-.658-1.313h.1a11.373,11.373,0,0,1-.666-3.935,11.542,11.542,0,1,1,23.083.158,11.374,11.374,0,0,1-.721,3.926h.095l-.669,1.3a10.247,10.247,0,0,0-1.385,4.27c0,.532-.011,1.881,2.189,2.081l31.527.215h.067a1.8,1.8,0,0,0,1.812-1.789l.216-31.555c.216-2.544,1.917-4.546,7.664-1.567v-.008a10.639,10.639,0,1,0,4.969-20.082Z" transform="translate(-13.554 -196.7)" fill="#529ad9"/>
      </g>
      <g id="Grupo_61429" data-name="Grupo 61429">
        <g id="Grupo_61427" data-name="Grupo 61427">
          <g id="Grupo_61425" data-name="Grupo 61425" transform="translate(35.33 18.914)">
            <g id="Grupo_61424" data-name="Grupo 61424" transform="translate(82.237 23.706)">
              <g id="Grupo_61422" data-name="Grupo 61422" transform="translate(0 8.737)">
                <path id="Trazado_131180" data-name="Trazado 131180" d="M114.884,96.6l10.344-3.224a6.082,6.082,0,0,0,3.639-4.771c1.253-4.688,3.039-11.132,4.223-15.382a6.079,6.079,0,0,0,1.093-3.914c.094-.334.146-.519.146-.519a4.381,4.381,0,0,0-.993-3.505C127.9,55.948,120.564,45.41,120.564,45.41c-2.028-2.537-7.752-1.461-10.289.566s-11.446,8.82-9.417,11.357c0,0,10,2.981,13.911,6.842.469,1.936,3.668,5.55,6.713,8.6a53.771,53.771,0,0,0-2.026,12.9l-5.991,2.759c-2.844,1.311-4.347,4.321-3.354,6.726S112.04,97.91,114.884,96.6Z" transform="translate(-100.559 -43.928)" fill="#dec29b"/>
                <path id="Trazado_131181" data-name="Trazado 131181" d="M112.234,97.349a6,6,0,0,0,2.65-.749l10.344-3.224a6.082,6.082,0,0,0,3.639-4.771c1.253-4.688,3.039-11.132,4.223-15.382a6.079,6.079,0,0,0,1.093-3.914c.094-.334.146-.519.146-.519a4.381,4.381,0,0,0-.993-3.505C127.9,55.948,120.564,45.41,120.564,45.41c-2.028-2.537-7.752-1.461-10.289.566s-11.446,8.82-9.417,11.357a64.333,64.333,0,0,1,7.626,2.9,24.491,24.491,0,0,1,6.693,3.609c.677,2.1,4.5,5.816,8.114,8.93a59.484,59.484,0,0,0-1.167,14.388L115.745,90.7C113.113,92.163,111.708,94.956,112.234,97.349Z" transform="translate(-100.559 -43.928)" fill="#d3af85"/>
              </g>
              <g id="Grupo_61423" data-name="Grupo 61423" transform="translate(1.088 1.744)">
                <path id="Trazado_131182" data-name="Trazado 131182" d="M119.893,105.615l13.289-4.142a7.812,7.812,0,0,0,4.675-6.129c1.61-6.025,3.9-14.3,5.426-19.764a7.808,7.808,0,0,0,1.4-5.027l.187-.668a5.626,5.626,0,0,0-1.276-4.5c-6.981-11.993-16.411-25.531-16.411-25.531-2.6-3.26-9.96-1.878-13.218.728s-14.7,11.33-12.1,14.59c0,0,12.851,3.83,17.871,8.791.6,2.487,4.713,7.129,8.625,11.051a69.106,69.106,0,0,0-2.6,16.567l-7.7,3.545c-3.655,1.682-5.584,5.551-4.309,8.64S116.239,107.3,119.893,105.615Z" transform="translate(-101.49 -37.946)" fill="#dec29b"/>
                <path id="Trazado_131183" data-name="Trazado 131183" d="M116.489,106.577a7.689,7.689,0,0,0,3.4-.962l13.289-4.142a7.812,7.812,0,0,0,4.675-6.129c1.61-6.025,3.9-14.3,5.426-19.764a7.808,7.808,0,0,0,1.4-5.027l.187-.668a5.626,5.626,0,0,0-1.276-4.5c-6.981-11.993-16.411-25.531-16.411-25.531-2.6-3.26-9.96-1.878-13.218.728s-14.7,11.33-12.1,14.59a82.766,82.766,0,0,1,9.8,3.731,31.485,31.485,0,0,1,8.6,4.637c.87,2.693,5.787,7.473,10.424,11.474a76.479,76.479,0,0,0-1.5,18.485L121,98.039C117.617,99.914,115.813,103.5,116.489,106.577Z" transform="translate(-101.49 -37.946)" fill="#d3af85"/>
              </g>
              <path id="Trazado_131184" data-name="Trazado 131184" d="M127.105,111.3l14.312-5.667a8.638,8.638,0,0,0,4.65-7.146c1.278-6.776,3.123-16.1,4.349-22.244a8.634,8.634,0,0,0,1.133-5.66c.1-.485.151-.752.151-.752a6.222,6.222,0,0,0-1.778-4.861c-8.691-12.649-20.21-26.8-20.21-26.8-3.143-3.379-11.138-1.247-14.517,1.9s-15.278,13.71-12.134,17.089c0,0,14.489,3.16,20.434,8.215.871,2.692,5.787,7.473,10.425,11.474a76.422,76.422,0,0,0-1.5,18.485l-8.193,4.544c-3.892,2.158-5.7,6.583-4.037,9.885S123.214,113.456,127.105,111.3Z" transform="translate(-100.225 -36.455)" fill="#dec29b"/>
            </g>
            <path id="Trazado_131185" data-name="Trazado 131185" d="M116.735,63.922a18.52,18.52,0,0,0-20.869,7.513c4.85-11.856,20.955-17.646,30.045-15.136S116.735,63.922,116.735,63.922Z" transform="translate(-19.116 -9.49)" fill="#d3af85"/>
            <path id="Trazado_131186" data-name="Trazado 131186" d="M136.1,114.261c-3.493-1.854-4.654-6.838-2.592-11.13L139.429,90.8c2.062-4.292,6.567-6.269,10.06-4.415h0c3.493,1.855,4.654,6.838,2.592,11.131l-8.993,13.807c-2.062,4.293-3.5,4.792-6.991,2.937Z" transform="translate(-12.923 -4.422)" fill="#ead7b7"/>
            <path id="Trazado_131187" data-name="Trazado 131187" d="M147.519,102.485a8.356,8.356,0,0,1-9.6-5.542c-4.861-13.7-4.32-29.247-4.32-29.247-.721-3.906,2.408-7.757,6.99-8.6h0c4.581-.845,8.88,1.637,9.6,5.542,0,0,1.588,20.532,2.663,32.311.361,3.956-.752,4.693-5.334,5.538Z" transform="translate(-12.752 -8.948)" fill="#ead7b7"/>
            <path id="Trazado_131188" data-name="Trazado 131188" d="M153.833,77.551c-3.434,3.551-4.625,9.375-8.763,6.679-4.64-3.023-18.229-12.969-20-17.582-6.642-5.067-22.308-7.625-22.308-7.625-3.551-3.433,8.57-15.4,12-18.954h0c3.434-3.551,11.86-6.282,15.41-2.849,0,0,13.378,14.765,23.421,27.893.865,1.131,3.666,8.888.233,12.438Z" transform="translate(-18.058 -12.886)" fill="#ead7b7"/>
            <path id="Trazado_131189" data-name="Trazado 131189" d="M137.77,54.577c-1.789,5.719-1.886,10.973-6.589,10.6-15.761-1.25-27.794,6.043-28.99,12.22-1.848,9.541-36.527-24.628-39.241-35.366h0c-3.208-12.7,6.224-20.927,19.444-16.805l52.351,12.78c5.338,1.648,3.592,8,4.68,12.265Z" transform="translate(-24.79 -14.829)" fill="#ead7b7"/>
            <path id="Trazado_131190" data-name="Trazado 131190" d="M58.5,66.343C63.23,76.037,70.1,83.762,75.952,90.437c2.238,2.552,11.386,11.627,16.986,18.673l16.2,10.129c2.615,1.313,7.332,7.63,11.494,5.233s4.055-9.919,1.624-14.062c-4.011-6.838-13.288-10.35-15.594-13.937-2.448-23.076-3.451-27.92-3.451-27.92-2.343-4.98-29.932-41.841-36.263-38.2S56.093,61.4,58.5,66.343Z" transform="translate(-25.547 -13.823)" fill="#ead7b7"/>
            <path id="Trazado_131191" data-name="Trazado 131191" d="M77.37,76.436c-21.856-9.853-22.272-35.375-13-46.348S88.192,27.08,108,32.9c10.971,3.223-12.422,11.344,5.025,33.926-9.822,5.31-11.338,4.147-9.584,18.957C103.436,85.782,95.433,84.578,77.37,76.436Z" transform="translate(-25.412 -14.751)" fill="#ead7b7"/>
            <path id="Trazado_131192" data-name="Trazado 131192" d="M81.111,25.5c-16.278-1.73-20.227-6.137-24-9.326L30.219,47.988S42.427,52.451,63.175,68.7A136.1,136.1,0,0,0,81.111,25.5Z" transform="translate(-30.219 -16.178)" fill="#ead7b7"/>
          </g>
          <g id="Grupo_61426" data-name="Grupo 61426">
            <rect id="Rectángulo_18532" data-name="Rectángulo 18532" width="46.431" height="10.867" transform="matrix(0.516, -0.857, 0.857, 0.516, 43.222, 57.938)" fill="#fff"/>
            <path id="Trazado_131193" data-name="Trazado 131193" d="M46.53,0H0V35.815L45.041,62.923,72.758,16.869Z" fill="#cdd5d7"/>
          </g>
        </g>
        <g id="Grupo_61428" data-name="Grupo 61428" transform="translate(100.013 112.312)">
          <path id="Trazado_131194" data-name="Trazado 131194" d="M187.217,152.482a10.593,10.593,0,0,0-4.819,1.212v-.008c-5.739,2.992-7.449.6-7.668-1.629l-.289-31.475a1.8,1.8,0,0,0-1.817-1.783l-31.555.289c-2.546-.177-4.575-1.844-1.689-7.638h-.008a10.642,10.642,0,1,0-18.946.173h-.008c2.992,5.74.6,7.448-1.629,7.669l-31.475.289a1.794,1.794,0,0,0-1.768,1.643c0,.058.019.113.019.173l.288,31.371a3,3,0,0,0,.49,1.472,2.033,2.033,0,0,0,1.8.77,9.6,9.6,0,0,0,4.065-1.3l1.3-.679v.1a11.367,11.367,0,0,1,3.925-.731,11.542,11.542,0,0,1,.212,23.083,11.352,11.352,0,0,1-3.938-.658v.095l-1.315-.648A10.271,10.271,0,0,0,88.1,172.96c-.532.006-1.881.02-2.046,2.221l.289,31.528c0,.06-.012.115-.015.173a1.8,1.8,0,0,0,1.8,1.611l31.306-.288a3,3,0,0,0,1.472-.489,2.037,2.037,0,0,0,.77-1.8,9.6,9.6,0,0,0-1.3-4.065l-.679-1.3h.1a11.366,11.366,0,0,1-.73-3.925,11.542,11.542,0,1,1,23.082-.212,11.361,11.361,0,0,1-.658,3.938h.1l-.648,1.314a10.236,10.236,0,0,0-1.318,4.292c0,.532.02,1.881,2.221,2.045l31.527-.289h.067a1.8,1.8,0,0,0,1.783-1.817l-.289-31.555c.175-2.548,1.844-4.575,7.638-1.689v-.008a10.639,10.639,0,1,0,4.646-20.159Z" transform="translate(-85.545 -96.065)" fill="#529ad9"/>
        </g>
      </g>
      <path id="Trazado_131195" data-name="Trazado 131195" d="M244.4,152.513c19.805-7.224,27.8-15.445,32.249-21.849L273.16,130l9.326-5.1-1.245,10.223-1.871-2.586C270.2,143.606,258.8,147.831,244.4,152.513Zm39.574-20.156-3.762,41.493,5.6.507,3.762-41.492ZM270.816,173l5.6.507,2.711-29.895-5.6-.509Zm-3.8-.345,2.131-23.5-5.6-.507-2.131,23.495Zm-9.4-.852,1.279-14.1-5.6-.509-1.279,14.1Zm-8.609-9.552-5.6-.507-.789,8.7,5.6.509Zm-5.96-32.091-1.9-.173-4.08,44.993,48.292,4.38.172-1.9L239.14,173.25Z" transform="translate(40.094 21.124)" fill="#fff"/>
      <g id="Grupo_61430" data-name="Grupo 61430" transform="translate(126.876 138.767)">
        <path id="Trazado_131196" data-name="Trazado 131196" d="M135.091,141.049A6.754,6.754,0,1,0,139,145.4l-3.077,3.235a2.649,2.649,0,0,1-1.944.822,3.044,3.044,0,0,1-3.007-2.929,2.649,2.649,0,0,1,.724-1.914Z" transform="translate(-105.6 -114.998)" fill="#fff"/>
        <path id="Trazado_131197" data-name="Trazado 131197" d="M144.047,134.78a17.562,17.562,0,1,0,5.827,6.87l-4.564,3.1a12.1,12.1,0,1,1-5.076-5.966Z" transform="translate(-107.155 -116.499)" fill="#fff"/>
        <path id="Trazado_131198" data-name="Trazado 131198" d="M145.649,134.079l-2.9,3.05-3.759,3.948-3.493,3.668-3.664,3.85a1.313,1.313,0,0,0,.166,1.844,1.484,1.484,0,0,0,1.011.421,1.151,1.151,0,0,0,.838-.346l3.526-3.708,3.6-3.774,3.763-3.957,2.912-3.058,3.616-3.8,6.4-6.718a1.316,1.316,0,0,0-.171-1.84,1.477,1.477,0,0,0-1.011-.421,1.144,1.144,0,0,0-.838.344l-6.381,6.7Z" transform="translate(-104.631 -117.925)" fill="#fff"/>
        <path id="Trazado_131199" data-name="Trazado 131199" d="M141.46,135.892l8.272-9.189-1.059-8.01-6.324,10.973Z" transform="translate(-102.951 -118.693)" fill="#fff"/>
        <path id="Trazado_131200" data-name="Trazado 131200" d="M154.753,140.632a21.64,21.64,0,1,1-7.861-8.551l.284-3.324.014-.185.1-.16.975-1.584a26.934,26.934,0,1,0,10.859,10.835Z" transform="translate(-108.522 -117.866)" fill="#fff"/>
        <path id="Trazado_131201" data-name="Trazado 131201" d="M160.926,130.67l-8.241-1.418-8.749,8.738,4.963.559Z" transform="translate(-102.533 -116.907)" fill="#fff"/>
      </g>
      <g id="Grupo_61431" data-name="Grupo 61431" transform="translate(255.762 267.448)">
        <path id="Trazado_131202" data-name="Trazado 131202" d="M249.059,253.56c1.563.728,4.525,2.408,5.877,5.157a11.282,11.282,0,0,0-4.52-3.67l-9.494-6.188a2.486,2.486,0,0,0-.426-.744l-.561-12.016c.869-2.556-1.529-5.219-.713-7.34,0,0-7.625,5.445-2.724,9.876-.115-1.721-.069-5.127,1.688-7.634a9.19,9.19,0,0,0-.823,2.494c-.007.035-.014.071-.02.108a13.068,13.068,0,0,0-.172,3.48l-.514,11.033a2.491,2.491,0,0,0-.407.692L225.4,255.541c-2.979.069-4.257,3.776-6.637,4.037,0,0,8.335,4.279,10.024-2.108-1.477.891-4.523,2.412-7.558,2a10.16,10.16,0,0,0,3.662-.775,1.747,1.747,0,0,0,.472-.181l.325-.161c.17-.079.343-.166.517-.257l10.763-5.363a3.938,3.938,0,0,0-.451,1.881l-1,26.24h6.129l-1-26.24a4,4,0,0,0-.4-1.784l9.35,4.92c1.811,2.047,5.339,1.2,6.815,2.953C256.4,260.7,255.3,251.4,249.059,253.56Zm-10.482-2.57a1.283,1.283,0,1,1,1.283-1.283A1.282,1.282,0,0,1,238.576,250.99Z" transform="translate(-218.763 -228.759)" fill="#fff"/>
      </g>
      <g id="Grupo_61445" data-name="Grupo 61445" transform="translate(108.738 263.561)">
        <g id="Grupo_61444" data-name="Grupo 61444">
          <g id="Grupo_61439" data-name="Grupo 61439" transform="translate(11.6 9.119)">
            <g id="Grupo_61432" data-name="Grupo 61432" transform="translate(39.391 23.112)">
              <path id="Trazado_131203" data-name="Trazado 131203" d="M149.984,259.683A6.68,6.68,0,1,1,143.3,253,6.68,6.68,0,0,1,149.984,259.683Z" transform="translate(-136.623 -253.003)" fill="#fff"/>
            </g>
            <g id="Grupo_61433" data-name="Grupo 61433" transform="translate(42.52 26.241)">
              <path id="Trazado_131204" data-name="Trazado 131204" d="M146.4,259.231a3.552,3.552,0,1,1-3.552-3.552A3.552,3.552,0,0,1,146.4,259.231Z" transform="translate(-139.299 -255.679)" fill="#fff"/>
            </g>
            <g id="Grupo_61434" data-name="Grupo 61434">
              <path id="Trazado_131205" data-name="Trazado 131205" d="M157.637,248.255,143,236.481c-7.339-4.434-18.7-3.037-27.277-3.037h0a12.789,12.789,0,0,0-12.789,12.789v12.56a4.234,4.234,0,0,0,4.233,4.235h3.769a7.571,7.571,0,1,1,15.143,0H141.43a7.571,7.571,0,0,1,15.143,0h.284a4.234,4.234,0,0,0,4.233-4.235v-4.416A7.151,7.151,0,0,0,157.637,248.255Z" transform="translate(-102.93 -233.234)" fill="#fff"/>
            </g>
            <g id="Grupo_61435" data-name="Grupo 61435" transform="translate(8.894 23.112)">
              <path id="Trazado_131206" data-name="Trazado 131206" d="M123.9,259.683a6.68,6.68,0,1,1-6.68-6.68A6.68,6.68,0,0,1,123.9,259.683Z" transform="translate(-110.537 -253.003)" fill="#fff"/>
            </g>
            <g id="Grupo_61436" data-name="Grupo 61436" transform="translate(12.022 26.241)">
              <path id="Trazado_131207" data-name="Trazado 131207" d="M120.317,259.231a3.552,3.552,0,1,1-3.552-3.552A3.552,3.552,0,0,1,120.317,259.231Z" transform="translate(-113.213 -255.679)" fill="#fff"/>
            </g>
            <g id="Grupo_61437" data-name="Grupo 61437" transform="translate(26.867 1.75)">
              <path id="Trazado_131208" data-name="Trazado 131208" d="M144.837,242.916l-4.579-3.931a15.462,15.462,0,0,0-5.841-3.167,31.722,31.722,0,0,0-7.336-1.086,1.133,1.133,0,0,0-1.17,1.134v7.311a1.134,1.134,0,0,0,1.134,1.134H144.32A.793.793,0,0,0,144.837,242.916Z" transform="translate(-125.91 -234.731)" fill="#529ad9"/>
            </g>
            <g id="Grupo_61438" data-name="Grupo 61438" transform="translate(7.523 1.75)">
              <path id="Trazado_131209" data-name="Trazado 131209" d="M111.493,244.311h11.844a2.127,2.127,0,0,0,2.128-2.127v-5.325a2.128,2.128,0,0,0-2.128-2.128h-6.519a7.453,7.453,0,0,0-7.453,7.453h0A2.127,2.127,0,0,0,111.493,244.311Z" transform="translate(-109.365 -234.731)" fill="#529ad9"/>
            </g>
          </g>
          <g id="Grupo_61440" data-name="Grupo 61440" transform="translate(22.044)">
            <rect id="Rectángulo_18533" data-name="Rectángulo 18533" width="7.435" height="8.168" rx="0.761" fill="#fff"/>
          </g>
          <g id="Grupo_61441" data-name="Grupo 61441" transform="translate(29.478 0.89)">
            <path id="Trazado_131210" data-name="Trazado 131210" d="M122.005,226.2h-3.783v1.65h3.783a.825.825,0,1,0,0-1.65Z" transform="translate(-118.222 -226.196)" fill="#fff"/>
          </g>
          <g id="Grupo_61442" data-name="Grupo 61442" transform="translate(29.478 5.21)">
            <path id="Trazado_131211" data-name="Trazado 131211" d="M122.005,229.891h-3.783v1.65h3.783a.825.825,0,1,0,0-1.65Z" transform="translate(-118.222 -229.891)" fill="#fff"/>
          </g>
          <g id="Grupo_61443" data-name="Grupo 61443" transform="translate(0 2.042)">
            <path id="Trazado_131212" data-name="Trazado 131212" d="M104.607,254.514a11.613,11.613,0,0,1-11.6-11.6v-4.133a11.613,11.613,0,0,1,11.6-11.6h10.444v4.085H104.608a7.524,7.524,0,0,0-7.516,7.515v4.133a7.524,7.524,0,0,0,7.515,7.515Z" transform="translate(-93.008 -227.181)" fill="#fff"/>
          </g>
        </g>
        <path id="Trazado_131213" data-name="Trazado 131213" d="M148.051,252.118h4.623s-.628-4.242-3.063-5.066h-1.56Z" transform="translate(-83.699 -221.779)" fill="#fff"/>
      </g>
    </g>
    <g id="Grupo_61447" data-name="Grupo 61447" transform="translate(813.69 9115.343)">
      <g id="Grupo_61401" data-name="Grupo 61401">
        <path id="Trazado_5390" data-name="Trazado 5390" d="M1892.6,6466.172q1.036,0,2.067.1t2.046.3q1.016.2,2.007.5t1.948.7q.957.4,1.87.884t1.775,1.064q.861.576,1.662,1.232t1.533,1.39q.732.732,1.389,1.532t1.232,1.663q.576.861,1.064,1.774t.885,1.871q.4.957.7,1.948t.5,2.006q.2,1.017.3,2.047t.1,2.066q0,1.036-.1,2.066t-.3,2.046q-.2,1.017-.5,2.007t-.7,1.948q-.4.957-.885,1.871t-1.064,1.774q-.576.861-1.232,1.662t-1.389,1.533q-.732.732-1.533,1.389t-1.662,1.233q-.862.576-1.775,1.064t-1.87.884q-.957.4-1.948.7t-2.007.5q-1.016.2-2.046.3t-2.067.1q-1.036,0-2.066-.1t-2.047-.3q-1.016-.2-2.007-.5t-1.948-.7q-.957-.4-1.87-.884t-1.775-1.064q-.861-.575-1.662-1.233t-1.533-1.389q-.732-.733-1.39-1.533t-1.233-1.662q-.575-.861-1.063-1.774t-.885-1.871q-.4-.957-.7-1.948t-.5-2.007q-.2-1.015-.3-2.046t-.1-2.066q0-1.036.1-2.066t.3-2.047q.2-1.015.5-2.006t.7-1.948q.4-.957.885-1.871t1.063-1.774q.576-.861,1.233-1.663t1.39-1.532q.732-.732,1.533-1.39t1.662-1.232q.861-.575,1.775-1.064t1.87-.884q.957-.4,1.948-.7t2.007-.5q1.016-.2,2.047-.3T1892.6,6466.172Z" transform="translate(-1871.517 -6466.172)" fill="#a0a603"/>
        <path id="Trazado_89795" data-name="Trazado 89795" d="M19.8,0A19.8,19.8,0,1,1,0,19.8,19.78,19.78,0,0,1,19.8,0Z" transform="translate(1.279 1.279)" fill="#fff"/>
        <circle id="Elipse_120" data-name="Elipse 120" cx="18.015" cy="18.015" r="18.015" transform="translate(3.068 3.068)" fill="#d8df25"/>
      </g>
      <text id="_1." data-name="1." transform="translate(20.31 27.656)" fill="#0f231a" font-size="17" font-family="SegoeUI-Bold, Segoe UI" font-weight="700"><tspan x="-7.193" y="0">1.</tspan></text>
    </g>
    <g id="Grupo_61448" data-name="Grupo 61448" transform="translate(813.69 9296.557)">
      <g id="Grupo_61401-2" data-name="Grupo 61401">
        <path id="Trazado_5390-2" data-name="Trazado 5390" d="M1892.6,6466.172q1.036,0,2.067.1t2.046.3q1.016.2,2.007.5t1.948.7q.957.4,1.87.884t1.775,1.064q.861.576,1.662,1.232t1.533,1.39q.732.732,1.389,1.532t1.232,1.663q.576.861,1.064,1.774t.885,1.871q.4.957.7,1.948t.5,2.006q.2,1.017.3,2.047t.1,2.066q0,1.036-.1,2.066t-.3,2.046q-.2,1.017-.5,2.007t-.7,1.948q-.4.957-.885,1.871t-1.064,1.774q-.576.861-1.232,1.662t-1.389,1.533q-.732.732-1.533,1.389t-1.662,1.233q-.862.576-1.775,1.064t-1.87.884q-.957.4-1.948.7t-2.007.5q-1.016.2-2.046.3t-2.067.1q-1.036,0-2.066-.1t-2.047-.3q-1.016-.2-2.007-.5t-1.948-.7q-.957-.4-1.87-.884t-1.775-1.064q-.861-.575-1.662-1.233t-1.533-1.389q-.732-.733-1.39-1.533t-1.233-1.662q-.575-.861-1.063-1.774t-.885-1.871q-.4-.957-.7-1.948t-.5-2.007q-.2-1.015-.3-2.046t-.1-2.066q0-1.036.1-2.066t.3-2.047q.2-1.015.5-2.006t.7-1.948q.4-.957.885-1.871t1.063-1.774q.576-.861,1.233-1.663t1.39-1.532q.732-.732,1.533-1.39t1.662-1.232q.861-.575,1.775-1.064t1.87-.884q.957-.4,1.948-.7t2.007-.5q1.016-.2,2.047-.3T1892.6,6466.172Z" transform="translate(-1871.517 -6466.172)" fill="#a0a603"/>
        <path id="Trazado_89795-2" data-name="Trazado 89795" d="M19.8,0A19.8,19.8,0,1,1,0,19.8,19.78,19.78,0,0,1,19.8,0Z" transform="translate(1.279 1.279)" fill="#fff"/>
        <circle id="Elipse_120-2" data-name="Elipse 120" cx="18.015" cy="18.015" r="18.015" transform="translate(3.068 3.068)" fill="#d8df25"/>
      </g>
      <text id="_2." data-name="2." transform="translate(20.31 27.443)" fill="#0f231a" font-size="17" font-family="SegoeUI-Bold, Segoe UI" font-weight="700"><tspan x="-7.193" y="0">2.</tspan></text>
    </g>
    <g id="Grupo_61449" data-name="Grupo 61449" transform="translate(1136.369 9296.557)">
      <g id="Grupo_61401-3" data-name="Grupo 61401" transform="translate(0)">
        <path id="Trazado_5390-3" data-name="Trazado 5390" d="M1892.6,6466.172q1.036,0,2.067.1t2.046.3q1.016.2,2.007.5t1.948.7q.957.4,1.87.884t1.775,1.064q.861.576,1.662,1.232t1.533,1.39q.732.732,1.389,1.532t1.232,1.663q.576.861,1.064,1.774t.885,1.871q.4.957.7,1.948t.5,2.006q.2,1.017.3,2.047t.1,2.066q0,1.036-.1,2.066t-.3,2.046q-.2,1.017-.5,2.007t-.7,1.948q-.4.957-.885,1.871t-1.064,1.774q-.576.861-1.232,1.662t-1.389,1.533q-.732.732-1.533,1.389t-1.662,1.233q-.862.576-1.775,1.064t-1.87.884q-.957.4-1.948.7t-2.007.5q-1.016.2-2.046.3t-2.067.1q-1.036,0-2.066-.1t-2.047-.3q-1.016-.2-2.007-.5t-1.948-.7q-.957-.4-1.87-.884t-1.775-1.064q-.861-.575-1.662-1.233t-1.533-1.389q-.732-.733-1.39-1.533t-1.233-1.662q-.575-.861-1.063-1.774t-.885-1.871q-.4-.957-.7-1.948t-.5-2.007q-.2-1.015-.3-2.046t-.1-2.066q0-1.036.1-2.066t.3-2.047q.2-1.015.5-2.006t.7-1.948q.4-.957.885-1.871t1.063-1.774q.576-.861,1.233-1.663t1.39-1.532q.732-.732,1.533-1.39t1.662-1.232q.861-.575,1.775-1.064t1.87-.884q.957-.4,1.948-.7t2.007-.5q1.016-.2,2.047-.3T1892.6,6466.172Z" transform="translate(-1871.517 -6466.172)" fill="#a0a603"/>
        <path id="Trazado_89795-3" data-name="Trazado 89795" d="M19.8,0A19.8,19.8,0,1,1,0,19.8,19.78,19.78,0,0,1,19.8,0Z" transform="translate(1.279 1.279)" fill="#fff"/>
        <circle id="Elipse_120-3" data-name="Elipse 120" cx="18.015" cy="18.015" r="18.015" transform="translate(3.068 3.068)" fill="#d8df25"/>
      </g>
      <text id="_3." data-name="3." transform="translate(20.631 27.443)" fill="#0f231a" font-size="17" font-family="SegoeUI-Bold, Segoe UI" font-weight="700"><tspan x="-7.193" y="0">3.</tspan></text>
    </g>
    <g id="Grupo_61450" data-name="Grupo 61450" transform="translate(1136.369 9122.357)">
      <g id="Grupo_61401-4" data-name="Grupo 61401" transform="translate(0 0)">
        <path id="Trazado_5390-4" data-name="Trazado 5390" d="M1892.6,6466.172q1.036,0,2.067.1t2.046.3q1.016.2,2.007.5t1.948.7q.957.4,1.87.884t1.775,1.064q.861.576,1.662,1.232t1.533,1.39q.732.732,1.389,1.532t1.232,1.663q.576.861,1.064,1.774t.885,1.871q.4.957.7,1.948t.5,2.006q.2,1.017.3,2.047t.1,2.066q0,1.036-.1,2.066t-.3,2.046q-.2,1.017-.5,2.007t-.7,1.948q-.4.957-.885,1.871t-1.064,1.774q-.576.861-1.232,1.662t-1.389,1.533q-.732.732-1.533,1.389t-1.662,1.233q-.862.576-1.775,1.064t-1.87.884q-.957.4-1.948.7t-2.007.5q-1.016.2-2.046.3t-2.067.1q-1.036,0-2.066-.1t-2.047-.3q-1.016-.2-2.007-.5t-1.948-.7q-.957-.4-1.87-.884t-1.775-1.064q-.861-.575-1.662-1.233t-1.533-1.389q-.732-.733-1.39-1.533t-1.233-1.662q-.575-.861-1.063-1.774t-.885-1.871q-.4-.957-.7-1.948t-.5-2.007q-.2-1.015-.3-2.046t-.1-2.066q0-1.036.1-2.066t.3-2.047q.2-1.015.5-2.006t.7-1.948q.4-.957.885-1.871t1.063-1.774q.576-.861,1.233-1.663t1.39-1.532q.732-.732,1.533-1.39t1.662-1.232q.861-.575,1.775-1.064t1.87-.884q.957-.4,1.948-.7t2.007-.5q1.016-.2,2.047-.3T1892.6,6466.172Z" transform="translate(-1871.517 -6466.172)" fill="#a0a603"/>
        <path id="Trazado_89795-4" data-name="Trazado 89795" d="M19.8,0A19.8,19.8,0,1,1,0,19.8,19.78,19.78,0,0,1,19.8,0Z" transform="translate(1.279 1.279)" fill="#fff"/>
        <circle id="Elipse_120-4" data-name="Elipse 120" cx="18.015" cy="18.015" r="18.015" transform="translate(3.068 3.068)" fill="#d8df25"/>
      </g>
      <text id="_4." data-name="4." transform="translate(20.631 27.643)" fill="#0f231a" font-size="17" font-family="SegoeUI-Bold, Segoe UI" font-weight="700"><tspan x="-7.193" y="0">4.</tspan></text>
    </g>
  </g>
</svg>
