<svg xmlns="http://www.w3.org/2000/svg" width="505" height="437.536" viewBox="0 0 505 437.536">
  <g id="Grupo_61559" data-name="Grupo 61559" transform="translate(-37.452 -62.877)">
    <path id="Trazado_131310" data-name="Trazado 131310" d="M499.266,367.5a38.169,38.169,0,0,0-38.058,38.058h0A69.642,69.642,0,0,1,391.77,475H128.658c-49.613,0-90.2-40.592-90.2-90.2h0c0-49.612,40.592-90.2,90.2-90.2h0a18.156,18.156,0,0,0,18.1-18.1h0a18.157,18.157,0,0,0-18.1-18.1h-47.2a44.135,44.135,0,0,1-44.006-44.006h0a44.136,44.136,0,0,1,43.923-44.006h42.939a38.169,38.169,0,0,0,38.057-38.058h0a69.643,69.643,0,0,1,69.439-69.438H452.065c49.613,0,90.2,40.593,90.2,90.2h0c0,49.612-40.592,90.2-90.2,90.2h0a18.156,18.156,0,0,0-18.1,18.1h0a18.156,18.156,0,0,0,18.1,18.1h47.2C556.848,279.492,556.848,367.5,499.266,367.5Z" transform="translate(0 0)" fill="#c6e3f1" fill-rule="evenodd"/>
    <path id="Trazado_131311" data-name="Trazado 131311" d="M199.9,124.256a1.266,1.266,0,0,0-1.012-2.2,1.249,1.249,0,0,0-.671.308q-.957.855-1.889,1.736a1.264,1.264,0,1,0,1.736,1.839q.905-.855,1.837-1.686ZM314.349,413.743a1.265,1.265,0,0,0-.726,2.28,1.251,1.251,0,0,0,.779.248l1.05-.017,1.32-.034.187-.007a1.265,1.265,0,1,0-.109-2.527l-1.451.039-1.05.018Zm9.988-.548a1.265,1.265,0,0,0,.274,2.515l1.151-.119,1.392-.162a1.265,1.265,0,0,0-.333-2.509l-1.334.156-1.151.119Zm9.892-1.445a1.265,1.265,0,0,0,.5,2.479l.75-.147,1.172-.246.583-.13a1.265,1.265,0,1,0-.561-2.466l-.555.122-1.144.24-.75.147Zm9.683-2.408a1.264,1.264,0,1,0,.765,2.41l1.024-.317,1.089-.354.325-.11a1.265,1.265,0,1,0-.824-2.391l-.3.1-1.06.343-1.023.318Zm9.364-3.432a1.264,1.264,0,1,0,1.026,2.311l.854-.372,1-.454.48-.223a1.265,1.265,0,1,0-1.085-2.286l-.451.21-.974.441-.853.373Zm8.906-4.479a1.266,1.266,0,0,0,.744,2.351,1.247,1.247,0,0,0,.536-.171l.377-.216.917-.545.9-.554a1.264,1.264,0,1,0-1.334-2.148l-.877.536-.889.529-.377.219Zm8.294-5.5a1.264,1.264,0,0,0,1.541,2.005l.551-.417.82-.638.649-.519a1.265,1.265,0,1,0-1.591-1.966l-.624.5-.795.618-.551.418Zm7.56-6.476a1.264,1.264,0,1,0,1.776,1.8l.511-.5.722-.72.577-.592a1.264,1.264,0,1,0-1.819-1.757l-.557.57-.7.7-.511.5Zm6.712-7.358a1.264,1.264,0,1,0,1.98,1.573l.367-.457.624-.794.586-.765a1.264,1.264,0,1,0-2.017-1.525l-.568.74-.6.771-.367.457Zm5.775-8.119a1.265,1.265,0,1,0,2.151,1.332l.2-.324.523-.857.606-1.019a1.265,1.265,0,0,0-2.2-1.257l-.575.969-.508.832-.2.324Zm4.786-8.745a1.265,1.265,0,1,0,2.287,1.081l.489-1.049.415-.914.165-.377a1.265,1.265,0,1,0-2.321-1l-.154.352-.4.889-.479,1.022Zm3.76-9.223a1.265,1.265,0,1,0,2.4.8l.3-.88.312-.956.188-.593a1.265,1.265,0,0,0-2.417-.747l-.179.567-.3.93-.3.88Zm2.733-9.6a1.265,1.265,0,1,0,2.471.542l.166-.737.213-.988.156-.772a1.264,1.264,0,1,0-2.48-.492l-.152.747-.207.962-.166.738Zm1.707-9.836a1.264,1.264,0,1,0,2.513.286l.075-.636.11-1.011.088-.895a1.265,1.265,0,1,0-2.519-.234l-.086.87-.107.985-.075.634Zm.687-9.961a1.266,1.266,0,0,0,2.437.494,1.293,1.293,0,0,0,.093-.463l.011-.59.007-1.023,0-.941a1.264,1.264,0,1,0-2.528.02l0,.915-.007,1-.011.59Zm-.317-9.981a1.265,1.265,0,0,0,2.52-.222l-.051-.611-.1-1.026-.094-.905a1.265,1.265,0,1,0-2.515.271l.091.88.093,1,.051.612Zm-1.306-9.9a1.264,1.264,0,1,0,2.484-.473l-.129-.7-.2-1.02-.163-.785a1.264,1.264,0,1,0-2.474.52l.156.761.195,1,.131.7Zm-2.277-9.723a1.264,1.264,0,1,0,2.425-.719l-.251-.864-.3-1-.181-.58a1.265,1.265,0,1,0-2.41.769l.175.555.3.98.251.862Zm-3.231-9.461a1.264,1.264,0,1,0,2.347-.938l-.447-1.107-.408-.978-.125-.289a1.265,1.265,0,0,0-2.319,1.011l.114.265.4.953.438,1.083Zm-4.15-9.078a1.265,1.265,0,0,0,2.239-1.177l-.242-.463-.5-.946-.461-.845a1.264,1.264,0,1,0-2.213,1.224l.449.822.489.921.241.464Zm-5.033-8.617a1.265,1.265,0,0,0,2.1-1.407l-.58-.877-.609-.9-.238-.342a1.265,1.265,0,1,0-2.072,1.451l.222.321.594.879.58.877ZM382,261.774a1.265,1.265,0,0,0,1.958-1.6l-.422-.519-.706-.852-.5-.6a1.266,1.266,0,0,0-2.222.716,1.253,1.253,0,0,0,.3.928l.487.575.688.83.421.521Zm-6.657-7.449a1.265,1.265,0,0,0,2.124-1.19,1.251,1.251,0,0,0-.334-.594l-.331-.336-.8-.8-.685-.665a1.266,1.266,0,0,0-2.107,1.2,1.252,1.252,0,0,0,.356.622l.666.647.782.775.331.335Zm-7.363-6.748a1.265,1.265,0,0,0,1.606-1.954l-.387-.322-.9-.731-.7-.557a1.265,1.265,0,1,0-1.562,1.99l.68.539.877.713.387.322Zm-7.983-6a1.263,1.263,0,1,0,1.4-2.1l-.678-.46-1-.658-.457-.295a1.265,1.265,0,1,0-1.358,2.134l.432.279.974.643.679.459Zm-8.528-5.229a1.264,1.264,0,1,0,1.216-2.217l-.234-.131-1.082-.587-.936-.493a1.264,1.264,0,0,0-1.168,2.243l.911.481,1.059.573.234.131Zm-8.967-4.441a1.264,1.264,0,1,0,1.022-2.313l-1.206-.525-1.143-.484a1.265,1.265,0,0,0-1.578,1.806,1.251,1.251,0,0,0,.606.529l1.118.474,1.181.513Zm-9.316-3.655a1.264,1.264,0,1,0,.823-2.39l-.183-.064q-1.115-.38-2.234-.748a1.266,1.266,0,0,0-1.523,1.769,1.25,1.25,0,0,0,.739.636c.735.241,1.465.488,2.2.735l.182.063Zm-9.589-3a1.265,1.265,0,0,0,.694-2.433q-1.224-.347-2.451-.684a1.265,1.265,0,0,0-.665,2.441c.809.221,1.614.447,2.422.676Zm-9.734-2.546A1.266,1.266,0,0,0,315,220.532a1.246,1.246,0,0,0-.551-.289c-.79-.144-1.677-.4-2.476-.577a1.264,1.264,0,1,0-.562,2.465c.788.181,1.669.43,2.451.573Zm-9.835-2.148a1.265,1.265,0,0,0,.492-2.482q-1.247-.248-2.494-.483a1.264,1.264,0,0,0-.473,2.484q1.238.235,2.475.481Zm-9.915-1.8a1.266,1.266,0,0,0,1.073-2.168,1.252,1.252,0,0,0-.662-.327q-1.255-.208-2.507-.4a1.264,1.264,0,1,0-.392,2.5q1.244.2,2.488.4Zm-9.968-1.493a1.265,1.265,0,0,0,.336-2.507q-1.256-.169-2.515-.331a1.265,1.265,0,0,0-.322,2.509q1.251.162,2.5.329Zm-10.012-1.224a1.264,1.264,0,1,0,.276-2.514c-.841-.091-1.681-.184-2.522-.27a1.266,1.266,0,0,0-.947,2.223,1.236,1.236,0,0,0,.687.292l2.507.268Zm-10.041-.987a1.267,1.267,0,0,0,.912-2.239,1.246,1.246,0,0,0-.691-.28c-.842-.075-1.685-.145-2.527-.215a1.265,1.265,0,0,0-.208,2.521q1.258.1,2.514.214Zm-10.1-.9a1.264,1.264,0,1,0,.276-2.514q-1.251-.134-2.5-.28a1.265,1.265,0,1,0-.3,2.511c.841.1,1.683.192,2.526.283ZM243.9,212.831a1.265,1.265,0,0,0,.4-2.5c-.824-.129-1.66-.255-2.478-.405a1.265,1.265,0,1,0-.436,2.491c.833.15,1.677.279,2.515.412Zm-10.017-1.87a1.266,1.266,0,0,0,1.244-2.046,1.249,1.249,0,0,0-.7-.424q-1.226-.269-2.446-.557a1.265,1.265,0,1,0-.584,2.461q1.242.29,2.486.565Zm-9.889-2.532a1.264,1.264,0,1,0,.722-2.423c-.8-.236-1.6-.482-2.389-.737a1.265,1.265,0,1,0-.779,2.407q1.219.392,2.446.753Zm-9.671-3.336a1.264,1.264,0,1,0,.942-2.346q-1.16-.463-2.306-.955a1.266,1.266,0,0,0-1.437,2.012,1.3,1.3,0,0,0,.434.309q1.176.506,2.368.98Zm-9.3-4.321a1.265,1.265,0,1,0,1.206-2.224q-1.092-.588-2.166-1.214a1.265,1.265,0,1,0-1.285,2.179c.739.432,1.491.853,2.245,1.259Zm-8.692-5.52a1.267,1.267,0,0,0,1.961-1.414,1.247,1.247,0,0,0-.437-.6c-.662-.5-1.309-1.006-1.951-1.528a1.264,1.264,0,0,0-1.6,1.954c.669.544,1.342,1.074,2.031,1.592Zm-7.675-6.928a1.265,1.265,0,1,0,1.876-1.7c-.555-.609-1.088-1.23-1.61-1.865a1.265,1.265,0,1,0-1.961,1.6c.55.669,1.111,1.323,1.7,1.965Zm-6.085-8.423a1.265,1.265,0,0,0,2.218-1.215c-.4-.718-.769-1.44-1.121-2.18a1.265,1.265,0,1,0-2.288,1.077c.373.785.77,1.555,1.192,2.318Zm-3.839-9.683a1.265,1.265,0,1,0,2.457-.6q-.3-1.187-.516-2.389a1.265,1.265,0,0,0-2.463-.122,1.243,1.243,0,0,0-.029.561c.154.858.34,1.709.55,2.555Zm-1.167-10.358a1.264,1.264,0,1,0,2.528.064c.019-.816.059-1.63.129-2.444a1.264,1.264,0,1,0-2.518-.228c-.078.864-.12,1.74-.139,2.608Zm1.668-10.3a1.265,1.265,0,1,0,2.415.753c.226-.738.5-1.611.8-2.315a1.265,1.265,0,1,0-2.363-.905c-.311.805-.6,1.644-.848,2.467Zm4.2-9.488a1.265,1.265,0,1,0,2.189,1.266q.617-1.073,1.282-2.113a1.265,1.265,0,0,0-2.13-1.365q-.695,1.092-1.341,2.212Zm5.889-8.463a1.266,1.266,0,0,0,1.067,2.062,1.248,1.248,0,0,0,.891-.461c.525-.643,1.062-1.269,1.606-1.895a1.265,1.265,0,1,0-1.9-1.67C190.412,130.289,189.858,130.948,189.315,131.611Z" transform="translate(26.335 11.122)" fill="#fff" fill-rule="evenodd"/>
    <g id="Grupo_61541" data-name="Grupo 61541" transform="translate(186.899 150.806)">
      <path id="Trazado_131312" data-name="Trazado 131312" d="M209,212.231a.8.8,0,0,1,1.354.859c-.09.144-31.859,49.507-6.767,78.281a.8.8,0,0,1-1.2,1.054C176.492,262.735,208.907,212.377,209,212.231Z" transform="translate(-157.782 -122.803)" fill="#000618" fill-rule="evenodd"/>
      <path id="Trazado_131313" data-name="Trazado 131313" d="M284.5,206.578a.8.8,0,1,1,1.353-.853c.052.081,18.2,28.247-.941,49.886a.8.8,0,0,1-1.2-1.06C302.053,233.823,284.553,206.657,284.5,206.578Z" transform="translate(-140.647 -124.026)" fill="#000618" fill-rule="evenodd"/>
      <path id="Trazado_131314" data-name="Trazado 131314" d="M214.124,184.225l-13.381,14.712a53.7,53.7,0,0,1,5.77,26.21c-.637,14.87-50.771,97.293,41.849,96.869s41.089-48.209,41.089-48.209,30.552-9.893,15.124-54.131S214.124,184.225,214.124,184.225Z" transform="translate(-157.774 -128.13)" fill="#000618" fill-rule="evenodd"/>
      <path id="Trazado_131315" data-name="Trazado 131315" d="M287.779,270.966c-.538-.539-.853-.832-.853-.832A19.916,19.916,0,0,0,289.7,268.9a83.446,83.446,0,0,0,7.913-10.451c12.632-19.636-.811-46.632-.811-46.632l-7.148-2.135s-14.234-5.1-18.057-6.372-48.009,1.486-60.542,25.066,1.428,57.764,1.428,57.764,52.1-1.682,55.078-1.895C269.772,284.088,278.337,280.752,287.779,270.966Z" transform="translate(-155.249 -124.458)" fill="#01020e" fill-rule="evenodd"/>
      <path id="Trazado_131316" data-name="Trazado 131316" d="M302.476,271.046c14.88,6.5,16.811,20.1,18.745,35.241,1.714,13.426,2.251,33.686-1.284,64.463s-59.784-40.6-59.784-40.6Z" transform="translate(-145.039 -111.678)" fill="#ef8871" fill-rule="evenodd"/>
      <path id="Trazado_131317" data-name="Trazado 131317" d="M233.186,271.876l-14.443-7.389s-15.261,3.8-23.069,13.612-31.453,93.693-32.345,103.953S169.388,431.4,182.1,431.4s19.041-85.466,19.041-85.466l10.385-32.034Z" transform="translate(-163.253 -112.91)" fill="#f4ad85" fill-rule="evenodd"/>
      <path id="Trazado_131318" data-name="Trazado 131318" d="M232.683,271.876l-14.443-7.389a57.162,57.162,0,0,0-10.546,4.051c1.871.9,3.333,3.215,3.162,8.336-.445,13.386-20.858,64.469-25.319,78.746s-8.031,22.753-8.031,22.753l-9.3-19.5c-.84,3.151-1.6,6.1-2.282,8.792,3.478,18.741,7.8,44.434,8.392,59.12,2.156,2.861,4.588,4.618,7.281,4.618,12.715,0,19.041-85.466,19.041-85.466l10.385-32.034Z" transform="translate(-162.75 -112.91)" fill="#ef8871" fill-rule="evenodd"/>
      <path id="Trazado_131319" data-name="Trazado 131319" d="M264.941,255.194s38.381,13.679,49.22,18.832c-.019.02-2.072,2.164-4.4,13.93-2.341,11.824,0,29-2.452,45.954-1.774,12.25-10.068,74.224-14.535,107.674l-94.612-7.633c-.029-1.491-.089-3.282-.176-5.314,7.77,6.05,15.218,6.32,10.609-11.353-8.032-30.785-6.471-84.323-3.793-100.384s6.665-32.966,2.873-49.25C210.218,265.356,264.941,255.194,264.941,255.194Z" transform="translate(-156.724 -114.657)" fill="#d84f50" fill-rule="evenodd"/>
      <path id="Trazado_131320" data-name="Trazado 131320" d="M289.413,262.958c9.6,3.6,19.353,7.393,24.012,9.608-.019.02-2.072,2.165-4.4,13.93-2.341,11.824,0,29-2.452,45.954-.355,2.453-.973,6.9-1.768,12.711-21.376,3.331-84.517,10.563-99.668,9.221a26.985,26.985,0,0,1-3.235-.488c0-16.705.971-31.3,2.163-38.454.068-.411.138-.823.208-1.234,5.348,15.785,72.681,24.608,72.681,24.608s11.166-24.7,8.265-33.842-16.289-8.891-16.289-8.891l.34-8.174s13.387-18.126,16.6-23.642C286.274,263.571,287.525,263.154,289.413,262.958Z" transform="translate(-155.988 -113.198)" fill="#c23e3e" fill-rule="evenodd"/>
      <path id="Trazado_131321" data-name="Trazado 131321" d="M294.613,265.14l.791.3c-1.7,6.878-3.989,14.947-7.179,19.7-2.876,4.285-6.235,8.234-11.112,11.061s-11.245,4.52-20.143,4.294a29.793,29.793,0,0,1-18.81-7.114,39.147,39.147,0,0,1-11.919-18.709c-2.451-8.551-4.759-11.4-5.545-12.173l.936-.207c1.1,1.285,3.246,4.564,5.42,12.149a38.287,38.287,0,0,0,11.649,18.3,28.971,28.971,0,0,0,18.29,6.915c8.724.221,14.954-1.43,19.7-4.182s8.021-6.61,10.835-10.8c3.133-4.67,5.4-12.7,7.086-19.535Zm15.766,6.287c.24.1.473.206.7.305-1.846,3.27-4.447,10.139-6.839,24.511-2.865,17.226.418,24.994,2.932,28.263-.027.393-.056.786-.088,1.18-2.7-3.059-6.771-10.968-3.673-29.582,2.349-14.119,5-21.17,6.967-24.678Zm-107.2,48.91q.089-.811.182-1.56c2.157-4.245,10.366-22.919,5.687-53.407.255-.08.523-.158.815-.241,5.38,34.868-6,54.535-6.268,54.989a.427.427,0,0,1-.091.116A.422.422,0,0,1,203.181,320.337Z" transform="translate(-155.747 -113.323)" fill="#b23539" fill-rule="evenodd"/>
      <path id="Trazado_131322" data-name="Trazado 131322" d="M257.827,220.633l.289,0a15.171,15.171,0,0,1,15.326,14.976l.192,30.729c5.572,2.036,12.237,4.5,18.48,6.889-9.823,21.211-21.407,35.228-39.922,31.213-25.361-5.5-24.458-26.795-32.182-34.646,7.215-1.563,15.679-3.263,23.024-4.7l-.183-29.132A15.223,15.223,0,0,1,257.827,220.633Z" transform="translate(-152.584 -121.154)" fill="#ef8871" fill-rule="evenodd"/>
      <path id="Trazado_131323" data-name="Trazado 131323" d="M269.313,229.927a14.847,14.847,0,0,1,.941,5.117l.192,30.729c5.572,2.036,12.237,4.5,18.48,6.889-7.224,15.6-15.4,27.309-26.59,30.814,17.79-12,12.322-26.816,8.53-28.378s-33.9-10-33.9-10l2.88-.564-.183-29.132a15.258,15.258,0,0,1,5.442-11.774C253.128,223.547,261.118,226.035,269.313,229.927Z" transform="translate(-149.397 -120.592)" fill="#ea745d" fill-rule="evenodd"/>
      <path id="Trazado_131324" data-name="Trazado 131324" d="M282.562,196.13c.3,0,.589.011.88.031l.008,0h0a11.846,11.846,0,1,1-9.482,3.665c.163,3.5,1.284,7.721,5.764,7.561l-1.029-6.75C278.287,197.9,280.674,196.3,282.562,196.13Z" transform="translate(-143.053 -125.759)" fill="#ea745d" fill-rule="evenodd"/>
      <path id="Trazado_131325" data-name="Trazado 131325" d="M210.845,207.376c-.285.078-.565.164-.841.261l-.008,0h0a11.845,11.845,0,1,0,10.112,1.056c.759,3.426.779,7.788-3.586,8.808l-.773-6.786C215.437,207.97,212.715,207.05,210.845,207.376Z" transform="translate(-155.951 -123.657)" fill="#ea745d" fill-rule="evenodd"/>
      <path id="Trazado_131326" data-name="Trazado 131326" d="M245.815,152.423h0a40.666,40.666,0,0,1,45.541,34.839l4.865,36.555a40.665,40.665,0,0,1-34.842,45.539h0a40.663,40.663,0,0,1-45.536-34.841l-4.866-36.555A40.663,40.663,0,0,1,245.815,152.423Z" transform="translate(-154.349 -134.041)" fill="#f4ad85" fill-rule="evenodd"/>
      <path id="Trazado_131327" data-name="Trazado 131327" d="M245.815,152.423h0A40.681,40.681,0,0,1,290.76,183.9a16.891,16.891,0,0,1-1.851,5.951l-18.733-1.094s-12.33,23.572-37.655,29.3c-6.808,1.54-8.944,8.4-7.553,14.92,3.387,15.876,17.015,38.627,50.579,31.716a40.193,40.193,0,0,1-14.168,4.67h0a40.664,40.664,0,0,1-45.536-34.841l-4.866-36.555A40.663,40.663,0,0,1,245.815,152.423Z" transform="translate(-154.349 -134.041)" fill="#ef8871" fill-rule="evenodd"/>
      <path id="Trazado_131328" data-name="Trazado 131328" d="M234.777,220.192a5.333,5.333,0,1,1-4.468,6.075A5.333,5.333,0,0,1,234.777,220.192Z" transform="translate(-150.66 -121.248)" fill="#ea745d" fill-rule="evenodd"/>
      <path id="Trazado_131329" data-name="Trazado 131329" d="M271.566,214.371a5.332,5.332,0,1,1-4.468,6.076A5.335,5.335,0,0,1,271.566,214.371Z" transform="translate(-143.745 -122.342)" fill="#ea745d" fill-rule="evenodd"/>
      <path id="Trazado_131330" data-name="Trazado 131330" d="M229.079,202.933a1.523,1.523,0,0,0-.378,3.022,15.444,15.444,0,0,0,4.366-.124,12.229,12.229,0,0,0,7.624-4.189,1.524,1.524,0,0,0-2.35-1.94C236.118,202.4,232.424,203.287,229.079,202.933Z" transform="translate(-151.201 -125.191)" fill="#01020e" fill-rule="evenodd"/>
      <path id="Trazado_131331" data-name="Trazado 131331" d="M287.638,278.027s1.548-.223,1.9.99-4.783,7.738-5.118,7.962-10.511-1.06-10.511-1.06-.537-.5-.423-.889a1.894,1.894,0,0,1,.492-.725Z" transform="translate(-142.536 -110.369)" fill="#000618" fill-rule="evenodd"/>
      <path id="Trazado_131332" data-name="Trazado 131332" d="M273.466,192.91c-3.327-.6-7.055-.059-9.506,2.465a1.524,1.524,0,1,1-2.185-2.124,12.224,12.224,0,0,1,7.94-3.557,15.458,15.458,0,0,1,4.357.232,1.523,1.523,0,0,1-.607,2.984Z" transform="translate(-144.814 -126.98)" fill="#01020e" fill-rule="evenodd"/>
      <path id="Trazado_131333" data-name="Trazado 131333" d="M223.9,219.119s.358,2.687.689,5.182-4.455,9.17-6.368,9.423l-1.212-9.1s-1.367-4.068-6.522-3.38c-18.24-16.083-20-45.228-5.1-62.444s51.035-23,57.647-21.734S277.6,148.2,277.6,148.2s4.735-5.512,10.056-3.683,26.2,31.077,27.252,38.945S302.8,208.953,302.8,208.953c-5.156.685-5.411,4.968-5.411,4.968l.753,5.661c-1.913.255-3.324-2.166-3.655-4.66s-.69-5.181-.69-5.181c-16.823-4.94-25.946-25.477-25.946-25.477S250.321,219.467,223.9,219.119Z" transform="translate(-157.214 -136.894)" fill="#000618" fill-rule="evenodd"/>
      <path id="Trazado_131334" data-name="Trazado 131334" d="M195.381,186.867a44.439,44.439,0,0,1,5.2-21.3c16.494,12.778,43.136,21.334,65.327-27.683a24.155,24.155,0,0,1,4.205,2.728C261.521,165.542,239.564,209.072,195.381,186.867Z" transform="translate(-157.214 -136.707)" fill="#0f1630" fill-rule="evenodd"/>
      <path id="Trazado_131335" data-name="Trazado 131335" d="M223.7,212.424s.358,2.687.689,5.182-4.455,9.17-6.368,9.423l-1.212-9.1s-1.367-4.068-6.522-3.38a44.765,44.765,0,0,1-13.832-23.386c.024.017,31.245,21.7,69.68-18.645,0,0,17.585,27.425,43.313,19.256a118.234,118.234,0,0,1-6.85,10.489c-5.156.685-5.411,4.968-5.411,4.968l.754,5.661c-1.914.255-3.325-2.166-3.657-4.66s-.69-5.181-.69-5.181c-16.823-4.94-25.946-25.477-25.946-25.477S250.119,212.772,223.7,212.424Z" transform="translate(-157.012 -130.199)" fill="#01020e" fill-rule="evenodd"/>
      <path id="Trazado_131336" data-name="Trazado 131336" d="M285.273,256.623l2.631.717s1.541-13.732,1.528-15.062a15.915,15.915,0,0,0-1.709-5.486c-1.015-2.243-4.736-10.72-4.936-10.991s-2.606,1.818-1.522,5.531,2.922,8.741,2.906,9.816-2.475,10.587-2.475,10.587Z" transform="translate(-141.123 -120.187)" fill="#ef8871" fill-rule="evenodd"/>
      <path id="Trazado_131337" data-name="Trazado 131337" d="M291.453,253.822a5.849,5.849,0,0,0-3.066-5.1c-2.637-1.6-8.866-6.533-10.194-7.11a4.643,4.643,0,0,0-4.426.69,78.151,78.151,0,0,0-7.61,5.522c-1.049,1.091-3.665,7.81-3.986,8.515s2.311,1.345,4.41-.245c0,0-1.1,2.2-1.452,2.952s-.839,6.428-.882,7.58,3.141.576,4.221-2.072c0,0-.173,1.907-.175,2.5s1.821.369,1.821.369,2.1,11.394,2.572,12.816,18.56,66.466,18.56,66.466l26.166-1.58s-28.544-63.838-28.733-64.776C287.061,272.319,291.488,260.574,291.453,253.822Z" transform="translate(-144.664 -117.266)" fill="#f4ad85" fill-rule="evenodd"/>
      <path id="Trazado_131338" data-name="Trazado 131338" d="M268.854,264.911l.112.6h0l.04.219,0,.021,0,.009.006.031.006.032.006.032.006.027v0l.007.033.011.067.007.034v0l.02.1.007.037c.56,3,1.964,10.43,2.338,11.561.348,1.055,10.385,37.093,15.549,55.65a75.037,75.037,0,0,0,9.992-4.918s-20.244-47.123-20.717-48.98.64-3.33.25-3.831-1.953-1.227-2.343-2.566-1.339-6.079-.725-7.975c.473-1.464,2.01-1.284,2.688-1.126a17.815,17.815,0,0,0,1.985.5c1.015.134.939-.486.939-.486.223-2.1,2.261-5.086,2.261-5.086-1.11-.6-2.829-3.463-2.829-3.463-1.133-.489-2.023-1.119-2.908-.494a21.907,21.907,0,0,0-3.356,3.408,33.173,33.173,0,0,1-.681,4.411C271.11,264.45,268.854,264.911,268.854,264.911Z" transform="translate(-143.403 -114.752)" fill="#ef8871" fill-rule="evenodd"/>
      <g id="Grupo_61540" data-name="Grupo 61540" transform="translate(0.388 208.993)">
        <path id="Trazado_131339" data-name="Trazado 131339" d="M171.166,416.394h189.7a5.525,5.525,0,0,0,5.3-5.7h0a5.525,5.525,0,0,0-5.3-5.7h-189.7a5.526,5.526,0,0,0-5.3,5.7h0A5.526,5.526,0,0,0,171.166,416.394Z" transform="translate(-163.15 -295.493)" fill="#000618" fill-rule="evenodd"/>
        <path id="Trazado_131340" data-name="Trazado 131340" d="M364.733,312.819H168.155a4.473,4.473,0,0,0-4.515,5.315l15.024,99.787a6.426,6.426,0,0,0,6.116,5.316H348.107a6.427,6.427,0,0,0,6.117-5.316l15.024-99.787A4.473,4.473,0,0,0,364.733,312.819Z" transform="translate(-163.58 -312.819)" fill="#000618" fill-rule="evenodd"/>
        <path id="Trazado_131341" data-name="Trazado 131341" d="M359.638,316.789H171.8a4.275,4.275,0,0,0-4.315,5.079l14.357,95.347a6.14,6.14,0,0,0,5.844,5.08H343.75a6.14,6.14,0,0,0,5.845-5.08l14.357-95.347A4.274,4.274,0,0,0,359.638,316.789Z" transform="translate(-162.856 -312.073)" fill="#0f1630" fill-rule="evenodd"/>
        <path id="Trazado_131342" data-name="Trazado 131342" d="M176.465,392.721l3.682,24.454a6.14,6.14,0,0,0,5.844,5.08H342.052a6.14,6.14,0,0,0,5.845-5.08l14.357-95.347A4.268,4.268,0,0,0,359.476,317C337.976,354.09,285.141,414.841,176.465,392.721Z" transform="translate(-161.158 -312.033)" fill="#000618" fill-rule="evenodd"/>
        <path id="Trazado_131343" data-name="Trazado 131343" d="M253.474,389.784c11.508,0,20.893-7.835,20.893-17.441S264.981,354.9,253.474,354.9s-20.892,7.835-20.892,17.439S241.967,389.784,253.474,389.784Z" transform="translate(-150.609 -304.908)" fill="#000618" fill-rule="evenodd"/>
        <path id="Trazado_131344" data-name="Trazado 131344" d="M252.68,358.429c5.845,0,10.951,2.636,13.706,6.562L242.1,381.556a12.388,12.388,0,0,1-5.291-9.876c0-7.318,7.108-13.252,15.875-13.252Zm12.9,20.979-7.294-4.015-12.165,8.357a18.473,18.473,0,0,0,6.562,1.182A16.987,16.987,0,0,0,265.576,379.408Z" transform="translate(-149.816 -304.246)" fill="#fff" fill-rule="evenodd"/>
      </g>
      <path id="Trazado_131345" data-name="Trazado 131345" d="M268.413,201.641h0a3.4,3.4,0,0,0-2.814,3.878l.695,4.366a3.4,3.4,0,0,0,3.879,2.814h0a3.4,3.4,0,0,0,2.814-3.88l-.694-4.365A3.4,3.4,0,0,0,268.413,201.641Z" transform="translate(-144.023 -124.731)" fill="#01020e" fill-rule="evenodd"/>
      <path id="Trazado_131346" data-name="Trazado 131346" d="M234.23,206.82h0a3.4,3.4,0,0,0-2.814,3.879l.7,4.365a3.4,3.4,0,0,0,3.88,2.814h0A3.4,3.4,0,0,0,238.8,214l-.694-4.365A3.4,3.4,0,0,0,234.23,206.82Z" transform="translate(-150.448 -123.758)" fill="#01020e" fill-rule="evenodd"/>
      <path id="Trazado_131347" data-name="Trazado 131347" d="M266.9,234.369a.812.812,0,0,0-.252-1.306,1.43,1.43,0,0,0-1.594.537c-.007.012-2.788,4.021-11.375,1.883a1.474,1.474,0,0,0-1.544.715.783.783,0,0,0,.47,1.22C262.976,240,266.894,234.384,266.9,234.369Z" transform="translate(-146.57 -118.832)" fill="#ef8871" fill-rule="evenodd"/>
      <path id="Trazado_131348" data-name="Trazado 131348" d="M288.632,278.263a.764.764,0,0,1,.609.732c.083.669-3.962,5.926-15.282,6.324,0,0-.271-.084-.312-.258s.137-.368.137-.368l-.058-.211s-.407.292-.407.641,1.674,7.34,2.009,9.1,3.774,1.351,6.683.646,9.844-3.132,11.665-6.891a3.637,3.637,0,0,0-.056-1.758c-.279-.809-3.792-7.319-3.974-7.71a1.086,1.086,0,0,0-1.129-.507Z" transform="translate(-142.564 -110.374)" fill="#0f1630" fill-rule="evenodd"/>
      <path id="Trazado_131349" data-name="Trazado 131349" d="M279.334,283.667a31.965,31.965,0,0,1-5.374.622s-.271-.084-.312-.258.137-.368.137-.368l-.058-.211s-.407.292-.407.642,1.674,7.34,2.009,9.1,3.774,1.351,6.683.646c.412-.1.909-.234,1.46-.4l-4.137-9.765Z" transform="translate(-142.564 -109.346)" fill="#000618" fill-rule="evenodd"/>
    </g>
    <g id="Grupo_61542" data-name="Grupo 61542" transform="translate(108.922 474.999)">
      <path id="Trazado_131350" data-name="Trazado 131350" d="M119.253,419.136H432.6a7.177,7.177,0,0,1,7.155,7.156h0a7.177,7.177,0,0,1-7.155,7.156H119.253a7.177,7.177,0,0,1-7.156-7.156h0A7.178,7.178,0,0,1,119.253,419.136Z" transform="translate(-94.891 -408.034)" fill="#000618" fill-rule="evenodd"/>
      <path id="Rectángulo_18619" data-name="Rectángulo 18619" d="M7.684,0h346.7a7.684,7.684,0,0,1,7.684,7.684v2.891a7.684,7.684,0,0,1-7.684,7.684H7.685A7.685,7.685,0,0,1,0,10.573V7.684A7.684,7.684,0,0,1,7.684,0Z" transform="translate(0 0)" fill="#be865e"/>
      <rect id="Rectángulo_18620" data-name="Rectángulo 18620" width="18.994" height="18.258" transform="translate(217.521 0)" fill="#915e40"/>
      <rect id="Rectángulo_18621" data-name="Rectángulo 18621" width="9.867" height="18.258" transform="translate(246.382 0)" fill="#915e40"/>
      <rect id="Rectángulo_18622" data-name="Rectángulo 18622" width="4.934" height="18.258" transform="translate(266.61 0)" fill="#915e40"/>
      <rect id="Rectángulo_18623" data-name="Rectángulo 18623" width="21.247" height="18.258" transform="translate(288.44 0)" fill="#915e40"/>
      <rect id="Rectángulo_18624" data-name="Rectángulo 18624" width="10.623" height="18.258" transform="translate(325.704 0)" fill="#915e40"/>
      <rect id="Rectángulo_18625" data-name="Rectángulo 18625" width="177.952" height="10.853" rx="4.567" transform="translate(4.44 2.964)" fill="#d49d80"/>
    </g>
    <g id="Grupo_61543" data-name="Grupo 61543" transform="translate(215.628 86.801)">
      <path id="Trazado_131351" data-name="Trazado 131351" d="M199.184,101.3l3.906,22.484,50.69-40.771L200.851,96.031Z" transform="translate(-185.228 -83.016)" fill="#d5eaf5" fill-rule="evenodd"/>
      <path id="Trazado_131352" data-name="Trazado 131352" d="M202.472,120.455l19.548-15.723a31.436,31.436,0,0,1,.914-3.987l-16.424,4.413Z" transform="translate(-184.61 -79.683)" fill="#ecf6fc" fill-rule="evenodd"/>
      <path id="Trazado_131353" data-name="Trazado 131353" d="M255.988,83.016,187.436,95.7l13.956,5.607Z" transform="translate(-187.436 -83.016)" fill="#fff" fill-rule="evenodd"/>
      <path id="Trazado_131354" data-name="Trazado 131354" d="M252.523,83.016l-30.806,40.929-15.846-15.454Z" transform="translate(-183.971 -83.016)" fill="#fff" fill-rule="evenodd"/>
    </g>
    <g id="Grupo_61545" data-name="Grupo 61545" transform="translate(105.29 271.338)">
      <path id="Trazado_131355" data-name="Trazado 131355" d="M97.07,263.96a89.576,89.576,0,0,1,20.773-2.435h0a18.156,18.156,0,0,0,18.1-18.1h0a17.931,17.931,0,0,0-.182-2.554h28.628a7.877,7.877,0,0,1,7.854,7.854v55.4a.878.878,0,0,1-1.5.621l-13.382-13.384H104.924A7.876,7.876,0,0,1,97.07,283.5Z" transform="translate(-94.083 -237.881)" fill="#a6cae4" fill-rule="evenodd"/>
      <path id="Trazado_131356" data-name="Trazado 131356" d="M102.41,238.354h59.467a7.876,7.876,0,0,1,7.854,7.852v55.4a.877.877,0,0,1-1.5.62l-13.382-13.384H102.41a7.876,7.876,0,0,1-7.854-7.852V246.206A7.876,7.876,0,0,1,102.41,238.354Z" transform="translate(-94.556 -238.354)" fill="#a0a603" fill-rule="evenodd"/>
      <g id="Grupo_61544" data-name="Grupo 61544" transform="translate(10.429 5.069)">
        <path id="Trazado_131357" data-name="Trazado 131357" d="M136.451,251.715l9.839.039a8.915,8.915,0,0,1,6.419,2.782,9.554,9.554,0,0,1,2.644,6.615v.033c0,.04,0,.081-.006.122a9.43,9.43,0,0,1-2.671,6.441,8.947,8.947,0,0,1-6.416,2.744h-.03c-.038,0-.076,0-.113-.006l-9.734-.038-17.353,8.692a2.331,2.331,0,0,1-2.359-.132,2.42,2.42,0,0,1-.827-.9,2.465,2.465,0,0,1-.283-1.167l.116-31.87a2.472,2.472,0,0,1,.291-1.177,2.427,2.427,0,0,1,.83-.892,2.38,2.38,0,0,1,1.17-.378,2.339,2.339,0,0,1,1.194.259l.093.052,17.195,8.779Zm9.839,2.507-10.137-.039a1.239,1.239,0,0,1-.561-.137l-17.448-8.909-.114,31.747,17.477-8.755a1.225,1.225,0,0,1,.592-.148l10.028.039.133,0a6.486,6.486,0,0,0,4.646-1.99,6.97,6.97,0,0,0,1.973-4.746l0-.128a7.061,7.061,0,0,0-1.949-4.9A6.446,6.446,0,0,0,146.29,254.221Z" transform="translate(-101.037 -242.621)" fill="#fff" fill-rule="evenodd"/>
        <path id="Trazado_131358" data-name="Trazado 131358" d="M144.521,264.761v11.107a3.971,3.971,0,0,1-3.96,3.96h0a3.971,3.971,0,0,1-3.959-3.96v-10.8l5.674.021A7.567,7.567,0,0,0,144.521,264.761Z" transform="translate(-97.082 -238.46)" fill="#fff" fill-rule="evenodd"/>
        <rect id="Rectángulo_18626" data-name="Rectángulo 18626" width="1.857" height="16.271" transform="translate(36.953 10.336)" fill="#fff"/>
        <rect id="Rectángulo_18627" data-name="Rectángulo 18627" width="1.857" height="16.271" transform="translate(42.906 10.336)" fill="#fff"/>
        <path id="Trazado_131359" data-name="Trazado 131359" d="M114.283,255.358a1.237,1.237,0,0,1-.417,2.438l-9.5-1.655a1.236,1.236,0,1,1,.416-2.438l9.5,1.655Zm-.746,15.339a1.236,1.236,0,0,1,1.075,2.225l-6.261,3.022a1.235,1.235,0,1,1-1.074-2.225l6.259-3.022Zm1.075-22.391a1.236,1.236,0,1,1-1.075,2.225l-7.155-3.455a1.235,1.235,0,0,1,1.074-2.225l7.156,3.455Zm-.746,15.128a1.236,1.236,0,1,1,.417,2.437l-9.5,1.655a1.236,1.236,0,1,1-.416-2.438Z" transform="translate(-103.335 -242.225)" fill="#fff" fill-rule="evenodd"/>
      </g>
    </g>
    <g id="Grupo_61550" data-name="Grupo 61550" transform="translate(370.816 129.768)">
      <path id="Trazado_131360" data-name="Trazado 131360" d="M391.1,119.184h-61.87a8.193,8.193,0,0,0-8.17,8.17V184.99a.911.911,0,0,0,1.556.645l13.924-13.923H391.1a8.194,8.194,0,0,0,8.17-8.171V127.354A8.193,8.193,0,0,0,391.1,119.184Z" transform="translate(-317.507 -119.184)" fill="#a6cae4" fill-rule="evenodd"/>
      <path id="Trazado_131361" data-name="Trazado 131361" d="M388.108,119.184H326.24a8.194,8.194,0,0,0-8.171,8.17V184.99a.912.912,0,0,0,1.557.645l13.923-13.923h54.559a8.193,8.193,0,0,0,8.171-8.171V127.354A8.193,8.193,0,0,0,388.108,119.184Z" transform="translate(-318.069 -119.184)" fill="#a0a603" fill-rule="evenodd"/>
      <g id="Grupo_61548" data-name="Grupo 61548" transform="translate(15.311 13.367)">
        <g id="Grupo_61546" data-name="Grupo 61546">
          <path id="Trazado_131362" data-name="Trazado 131362" d="M338.915,142.211a5.888,5.888,0,1,0-5.888-5.886A5.9,5.9,0,0,0,338.915,142.211Z" transform="translate(-330.568 -130.436)" fill="#e5dec1" fill-rule="evenodd"/>
          <path id="Trazado_131363" data-name="Trazado 131363" d="M339.3,141.917h0a8.372,8.372,0,0,1,8.348,8.347v8.144a.937.937,0,0,1-.935.934H331.89a.936.936,0,0,1-.933-.934v-8.144A8.372,8.372,0,0,1,339.3,141.917Z" transform="translate(-330.957 -128.278)" fill="#e5dec1" fill-rule="evenodd"/>
        </g>
        <g id="Grupo_61547" data-name="Grupo 61547" transform="translate(30.897)">
          <path id="Trazado_131364" data-name="Trazado 131364" d="M364.921,142.211a5.888,5.888,0,1,0-5.886-5.886A5.9,5.9,0,0,0,364.921,142.211Z" transform="translate(-356.576 -130.436)" fill="#e5dec1" fill-rule="evenodd"/>
          <path id="Trazado_131365" data-name="Trazado 131365" d="M365.31,141.917h0a8.373,8.373,0,0,1,8.348,8.347v8.144a.937.937,0,0,1-.935.934H357.9a.935.935,0,0,1-.933-.934v-8.144A8.371,8.371,0,0,1,365.31,141.917Z" transform="translate(-356.965 -128.278)" fill="#e5dec1" fill-rule="evenodd"/>
        </g>
      </g>
      <g id="Grupo_61549" data-name="Grupo 61549" transform="translate(29.065 7.067)">
        <path id="Trazado_131366" data-name="Trazado 131366" d="M352.107,139.295a7.081,7.081,0,1,0-7.081-7.081A7.094,7.094,0,0,0,352.107,139.295Z" transform="translate(-342.067 -125.133)" fill="#fff" fill-rule="evenodd"/>
        <path id="Trazado_131367" data-name="Trazado 131367" d="M352.576,138.942h0a10.069,10.069,0,0,1,10.039,10.041v9.795a1.125,1.125,0,0,1-1.123,1.123H343.658a1.126,1.126,0,0,1-1.123-1.123v-9.795A10.07,10.07,0,0,1,352.576,138.942Z" transform="translate(-342.535 -122.537)" fill="#fff" fill-rule="evenodd"/>
      </g>
    </g>
    <path id="Trazado_131368" data-name="Trazado 131368" d="M426.751,264.583a21.022,21.022,0,1,1-14.864,6.157,20.959,20.959,0,0,1,14.864-6.157Zm18.744,22.142h-8.578a41.628,41.628,0,0,1-.715,6.813,25.6,25.6,0,0,1,6.3,2.3,18.673,18.673,0,0,0,3-9.115Zm-10.821,0h-6.8V292.5a41.944,41.944,0,0,1,6.134.59,39.352,39.352,0,0,0,.668-6.365Zm-9.044,0h-6.8a39.085,39.085,0,0,0,.666,6.365,41.959,41.959,0,0,1,6.133-.59v-5.775Zm-9.044,0h-8.58a18.687,18.687,0,0,0,3,9.115,25.561,25.561,0,0,1,6.3-2.3,41.625,41.625,0,0,1-.715-6.813Zm-8.58-2.244h8.58a42.334,42.334,0,0,1,.532-5.787,24.856,24.856,0,0,1-6.6-2.532,18.676,18.676,0,0,0-2.51,8.318Zm11.308-5.327a40.024,40.024,0,0,0-.485,5.327h6.8v-4.7a41.988,41.988,0,0,1-6.315-.622Zm14.873,0a41.988,41.988,0,0,1-6.315.622v4.7h6.8a39.823,39.823,0,0,0-.486-5.327Zm2.728,5.327h8.58a18.673,18.673,0,0,0-2.508-8.318,24.906,24.906,0,0,1-6.6,2.532,42.132,42.132,0,0,1,.532,5.787Zm-9.043-17.451v10.5a40.139,40.139,0,0,0,5.89-.58A25.759,25.759,0,0,0,432.137,272c-.8-1.751-2.269-4.243-4.265-4.967Zm0,27.714v9.432c2-.725,3.467-3.216,4.265-4.968a24.6,24.6,0,0,0,1.373-3.93,40.043,40.043,0,0,0-5.638-.535Zm-2.243,9.432v-9.432a40.076,40.076,0,0,0-5.639.535,24.37,24.37,0,0,0,1.376,3.93c.8,1.753,2.269,4.245,4.264,4.968Zm0-26.643v-10.5c-1.995.723-3.468,3.216-4.265,4.967a25.763,25.763,0,0,0-1.626,4.957,40.14,40.14,0,0,0,5.891.58Zm-13.868-3.241a22.844,22.844,0,0,0,5.785,2.2,28.052,28.052,0,0,1,1.782-5.424,16.571,16.571,0,0,1,2.075-3.47,18.848,18.848,0,0,0-9.643,6.7Zm24.194,2.2a22.846,22.846,0,0,0,5.785-2.2,18.989,18.989,0,0,0-1.712-1.967,18.78,18.78,0,0,0-7.93-4.728,16.677,16.677,0,0,1,2.077,3.47,28.284,28.284,0,0,1,1.78,5.424Zm5.19,21.17a23.6,23.6,0,0,0-5.436-1.938,27.205,27.205,0,0,1-1.534,4.413,16.578,16.578,0,0,1-2.078,3.471,18.781,18.781,0,0,0,7.931-4.727q.584-.586,1.117-1.22Zm-23.353-1.938a23.433,23.433,0,0,0-5.436,1.938q.531.633,1.118,1.22a18.756,18.756,0,0,0,7.93,4.727,16.627,16.627,0,0,1-2.077-3.47A27.156,27.156,0,0,1,417.793,295.724Z" transform="translate(69.224 37.914)" fill="#fff" fill-rule="evenodd"/>
    <path id="Trazado_131369" data-name="Trazado 131369" d="M77.748,185.635a7.645,7.645,0,0,1,3.02-3.147,4.669,4.669,0,0,0,2.284-3.065,19.791,19.791,0,0,0,.466-5.136A1.178,1.178,0,0,1,84.7,173.11H86.71a2.09,2.09,0,0,1,.606.1,4.354,4.354,0,0,1,2.186,2.037,7.641,7.641,0,0,1,.953,3.734,8.543,8.543,0,0,1-.394,2.548,6.772,6.772,0,0,0-.444,2.817.922.922,0,0,0,.343.048h5.055a6.63,6.63,0,0,1,1.715.213,4.045,4.045,0,0,1,2.031,1.208,3.91,3.91,0,0,1,.919,2.656,6.891,6.891,0,0,1-.183,1.518c.729,1.877.876,4.21-.6,5.747a4.672,4.672,0,0,1-1.607,4.191,4.957,4.957,0,0,1-4.859,3.608H83.161a7.794,7.794,0,0,1-4.45-1.81,2.671,2.671,0,0,1-.693,1.178l-.042.038a2.607,2.607,0,0,1-1.8.716H71.971a2.624,2.624,0,0,1-2.622-2.622v-13.3a2.622,2.622,0,0,1,.786-1.867l.038-.036a2.615,2.615,0,0,1,1.8-.716h4.211a2.613,2.613,0,0,1,1.566.522ZM78.8,198.7c1.062,1.072,2.843,2.476,4.359,2.476h9.265a2.715,2.715,0,0,0,2.7-2.248,1.177,1.177,0,0,1,.626-.814c.854-.428.88-1.834.758-2.619a1.166,1.166,0,0,1,.454-1.189c1.118-.822.739-2.61.261-3.672a1.155,1.155,0,0,1-.1-.859,5.145,5.145,0,0,0,.2-1.308,1.671,1.671,0,0,0-.331-1.107,1.779,1.779,0,0,0-.874-.485,4.288,4.288,0,0,0-1.106-.129H89.959a2.419,2.419,0,0,1-2.5-1.479c-.527-1.275-.034-3.191.355-4.441a6.213,6.213,0,0,0,.289-1.848,5.249,5.249,0,0,0-.645-2.574,2.667,2.667,0,0,0-.809-.938h-.785a18.414,18.414,0,0,1-.546,4.593,6.931,6.931,0,0,1-3.433,4.5c-1.743.938-2.782,3.218-3.08,5.113V198.7Zm-2.621-11.233H71.971a.246.246,0,0,0-.162.051l-.026.03a.26.26,0,0,0-.08.185v13.3a.268.268,0,0,0,.08.189.264.264,0,0,0,.188.078h4.211a.239.239,0,0,0,.158-.049l.029-.03a.27.27,0,0,0,.08-.189v-13.3a.267.267,0,0,0-.081-.188A.264.264,0,0,0,76.182,187.467Z" transform="translate(5.996 20.72)" fill="#fff" fill-rule="evenodd"/>
    <g id="Grupo_61551" data-name="Grupo 61551" transform="translate(417.439 95.569)">
      <rect id="Rectángulo_18628" data-name="Rectángulo 18628" width="6.693" height="6.693" rx="1.314" transform="translate(0 13.496)" fill="#fff"/>
      <rect id="Rectángulo_18629" data-name="Rectángulo 18629" width="6.693" height="6.693" rx="1.314" transform="translate(12.38 13.496)" fill="#a6cae4"/>
      <path id="Rectángulo_18630" data-name="Rectángulo 18630" d="M1.314,0H5.377A1.314,1.314,0,0,1,6.692,1.314V5.378A1.314,1.314,0,0,1,5.377,6.693H1.313A1.313,1.313,0,0,1,0,5.379V1.314A1.314,1.314,0,0,1,1.314,0Z" transform="translate(24.761 13.496)" fill="#fff"/>
      <rect id="Rectángulo_18631" data-name="Rectángulo 18631" width="6.693" height="6.693" rx="1.314" transform="translate(37.14 13.496)" fill="#a6cae4"/>
      <rect id="Rectángulo_18632" data-name="Rectángulo 18632" width="6.692" height="6.693" rx="1.314" transform="translate(49.521 13.496)" fill="#fff"/>
      <rect id="Rectángulo_18633" data-name="Rectángulo 18633" width="6.693" height="6.693" rx="1.314" transform="translate(61.901 13.496)" fill="#fff"/>
      <rect id="Rectángulo_18634" data-name="Rectángulo 18634" width="6.693" height="6.693" rx="1.314" transform="translate(74.28 13.496)" fill="#fff"/>
      <rect id="Rectángulo_18635" data-name="Rectángulo 18635" width="6.693" height="6.692" rx="1.314" transform="translate(37.588)" fill="#fff"/>
      <rect id="Rectángulo_18636" data-name="Rectángulo 18636" width="6.693" height="6.692" rx="1.314" transform="translate(49.969)" fill="#a6cae4"/>
      <rect id="Rectángulo_18637" data-name="Rectángulo 18637" width="6.693" height="6.692" rx="1.314" transform="translate(62.349)" fill="#fff"/>
      <path id="Rectángulo_18638" data-name="Rectángulo 18638" d="M1.314,0H5.377A1.314,1.314,0,0,1,6.692,1.314V5.378A1.314,1.314,0,0,1,5.378,6.692H1.313A1.313,1.313,0,0,1,0,5.378V1.314A1.314,1.314,0,0,1,1.314,0Z" transform="translate(49.521 27.996)" fill="#fff"/>
      <path id="Rectángulo_18639" data-name="Rectángulo 18639" d="M1.313,0H5.378A1.314,1.314,0,0,1,6.692,1.314V5.378A1.313,1.313,0,0,1,5.378,6.692H1.314A1.314,1.314,0,0,1,0,5.378V1.313A1.313,1.313,0,0,1,1.313,0Z" transform="translate(61.901 27.996)" fill="#a6cae4"/>
    </g>
    <path id="Trazado_131370" data-name="Trazado 131370" d="M147.855,193.757h0a9.2,9.2,0,0,1,12.973,0l.881.88.88-.88a9.2,9.2,0,0,1,12.974,0h0a9.2,9.2,0,0,1,0,12.974l-.88.88L161.71,220.585l-12.974-12.974-.88-.88A9.2,9.2,0,0,1,147.855,193.757Z" transform="translate(20.249 24.098)" fill="#fff" fill-rule="evenodd"/>
    <g id="Grupo_61557" data-name="Grupo 61557" transform="translate(116.718 366.764)">
      <g id="Grupo_61555" data-name="Grupo 61555" transform="translate(0 0)">
        <g id="Grupo_61552" data-name="Grupo 61552" transform="translate(18.176)">
          <path id="Trazado_131371" data-name="Trazado 131371" d="M135.174,322.166c-9.516-9.688-16.594,2.618-15.605,14.973.936,11.712,11.033,51.9,9.162,68.808h3.864C142.052,384.267,147.355,334.57,135.174,322.166Z" transform="translate(-119.476 -318.681)" fill="#63a9ba" fill-rule="evenodd"/>
          <path id="Trazado_131372" data-name="Trazado 131372" d="M129.887,405.112c9.2-34.172-2.448-81.408-2.488-81.568a.546.546,0,0,0-1.062.258c.039.16,11.706,47.45,2.432,81.31Z" transform="translate(-118.19 -317.846)" fill="#80b9c9" fill-rule="evenodd"/>
        </g>
        <g id="Grupo_61553" data-name="Grupo 61553" transform="translate(0 23.5)">
          <path id="Trazado_131373" data-name="Trazado 131373" d="M114.574,339.8c-10.026-5.313-12.556,6.278-8.646,15.869,3.24,7.947,17.552,31.456,22.963,46.56h5.1C134.422,381.356,126.411,346.071,114.574,339.8Z" transform="translate(-104.176 -338.463)" fill="#fff" fill-rule="evenodd"/>
          <path id="Trazado_131374" data-name="Trazado 131374" d="M131.344,401.514c-3.317-28.231-22.091-58.916-22.159-59.028a.457.457,0,1,0-.78.474c.067.11,18.721,30.6,22.033,58.554Z" transform="translate(-103.394 -337.748)" fill="#b8b8c1" fill-rule="evenodd"/>
        </g>
        <g id="Grupo_61554" data-name="Grupo 61554" transform="translate(31.09 37.294)">
          <path id="Trazado_131375" data-name="Trazado 131375" d="M152.036,351.016c9.719-4.245,11.258,6.735,6.941,15.4-2.921,5.861-13.449,20.868-20.539,33.634h-8.091C133.114,380.734,141.99,355.4,152.036,351.016Z" transform="translate(-130.347 -350.074)" fill="#3a7f80" fill-rule="evenodd"/>
          <path id="Trazado_131376" data-name="Trazado 131376" d="M132.779,399.373c6.9-23.4,22.79-45.447,22.854-45.536a.427.427,0,0,1,.695.5c-.064.088-15.787,21.907-22.67,45.039Z" transform="translate(-129.89 -349.4)" fill="#51a5a5" fill-rule="evenodd"/>
        </g>
      </g>
      <g id="Grupo_61556" data-name="Grupo 61556" transform="translate(12.327 78.151)">
        <path id="Rectángulo_18640" data-name="Rectángulo 18640" d="M1.538,0H35.716a1.538,1.538,0,0,1,1.538,1.538v8.873a1.539,1.539,0,0,1-1.539,1.539H1.538A1.538,1.538,0,0,1,0,10.412V1.538A1.538,1.538,0,0,1,1.538,0Z" fill="#2f365c"/>
        <path id="Trazado_131377" data-name="Trazado 131377" d="M121.854,390.146h22.074l5.764,5.2-4.708,18.135H120.8l-4.708-18.135Z" transform="translate(-114.264 -383.399)" fill="#2f365c" fill-rule="evenodd"/>
        <path id="Trazado_131378" data-name="Trazado 131378" d="M149.691,394.525l-.968,3.727H117.059l-.968-3.727Z" transform="translate(-114.264 -382.576)" fill="#121c39" fill-rule="evenodd"/>
      </g>
    </g>
    <circle id="Elipse_1780" data-name="Elipse 1780" cx="3.123" cy="3.123" r="3.123" transform="translate(321.185 106.053)" fill="#a6cae4"/>
    <circle id="Elipse_1781" data-name="Elipse 1781" cx="3.123" cy="3.123" r="3.123" transform="translate(372.046 284.958)" fill="#a6cae4"/>
    <circle id="Elipse_1782" data-name="Elipse 1782" cx="3.123" cy="3.123" r="3.123" transform="translate(435.399 415.234)" fill="#a6cae4"/>
    <circle id="Elipse_1783" data-name="Elipse 1783" cx="3.123" cy="3.123" r="3.123" transform="translate(71.342 390.25)" fill="#a6cae4"/>
    <path id="Trazado_131379" data-name="Trazado 131379" d="M384.569,185.461a3.123,3.123,0,1,0-3.123-3.123A3.129,3.129,0,0,0,384.569,185.461Z" transform="translate(64.659 21.868)" fill="#a6cae4" fill-rule="evenodd"/>
    <circle id="Elipse_1784" data-name="Elipse 1784" cx="3.123" cy="3.123" r="3.123" transform="translate(165.033 180.56)" fill="#a6cae4"/>
    <circle id="Elipse_1785" data-name="Elipse 1785" cx="3.123" cy="3.123" r="3.123" transform="translate(157.448 359.912)" fill="#fff"/>
    <circle id="Elipse_1786" data-name="Elipse 1786" cx="3.123" cy="3.123" r="3.123" transform="translate(455.922 344.296)" fill="#fff"/>
    <path id="Trazado_131380" data-name="Trazado 131380" d="M340.255,194.849a3.123,3.123,0,1,0-3.124-3.123A3.129,3.129,0,0,0,340.255,194.849Z" transform="translate(56.33 23.632)" fill="#fff" fill-rule="evenodd"/>
    <circle id="Elipse_1787" data-name="Elipse 1787" cx="3.123" cy="3.123" r="3.123" transform="translate(368.031 96.684)" fill="#fff"/>
    <circle id="Elipse_1788" data-name="Elipse 1788" cx="3.123" cy="3.123" r="3.123" transform="translate(493.845 175.206)" fill="#fff"/>
    <g id="Grupo_61558" data-name="Grupo 61558" transform="translate(408.582 409.124)">
      <path id="Trazado_131381" data-name="Trazado 131381" d="M383.921,384.49a10.209,10.209,0,1,1-7.22,2.991,10.182,10.182,0,0,1,7.22-2.991Zm4.4,5.809a6.226,6.226,0,1,0,1.822,4.4A6.211,6.211,0,0,0,388.324,390.3Z" transform="translate(-345.377 -348.672)" fill="#6f7304" fill-rule="evenodd"/>
      <path id="Trazado_131382" data-name="Trazado 131382" d="M371.155,415.315h0A16.059,16.059,0,0,0,387.17,399.3V382.61a1.42,1.42,0,0,0-1.418-1.416H356.559a1.42,1.42,0,0,0-1.417,1.416V399.3A16.059,16.059,0,0,0,371.155,415.315Z" transform="translate(-348.867 -349.291)" fill="#a0a603" fill-rule="evenodd"/>
      <path id="Trazado_131383" data-name="Trazado 131383" d="M380.435,397.3a15.884,15.884,0,0,1-.773,4.909,15.713,15.713,0,0,1-1.066,2.52,16.166,16.166,0,0,1-8.053,7.363A15.968,15.968,0,0,1,361.8,413.1a15.931,15.931,0,0,0,17.717-1.006,16.2,16.2,0,0,0,4.306-4.89,15.881,15.881,0,0,0,2.1-7.9V382.61a1.42,1.42,0,0,0-1.418-1.416h-4.065V397.3Z" transform="translate(-347.616 -349.291)" fill="#6f7304" fill-rule="evenodd"/>
      <path id="Trazado_131384" data-name="Trazado 131384" d="M357.276,410.592h27.759a2.141,2.141,0,0,0,2.135-2.135h0a2.141,2.141,0,0,0-2.135-2.136H357.276a2.141,2.141,0,0,0-2.134,2.136h0A2.141,2.141,0,0,0,357.276,410.592Z" transform="translate(-348.867 -344.568)" fill="#6f7304" fill-rule="evenodd"/>
      <path id="Rectángulo_18641" data-name="Rectángulo 18641" d="M2.271,0h.855A2.27,2.27,0,0,1,5.4,2.27V12.786a2.27,2.27,0,0,1-2.27,2.27H2.271A2.271,2.271,0,0,1,0,12.786V2.271A2.271,2.271,0,0,1,2.271,0Z" transform="translate(8.706 34.946)" fill="#e5dec1"/>
      <path id="Trazado_131385" data-name="Trazado 131385" d="M358.47,366.5h12.209a1.689,1.689,0,0,0,1.683-1.683h0a1.688,1.688,0,0,0-1.683-1.682H354.257a4.41,4.41,0,0,1-4.4-4.4h0a4.409,4.409,0,0,1,4.4-4.4h42.705a4.408,4.408,0,0,1,4.4,4.4h0a4.409,4.409,0,0,1-4.4,4.4H382.067a1.687,1.687,0,0,0-1.683,1.682h0a1.688,1.688,0,0,0,1.683,1.683H387.8a3.4,3.4,0,0,1,3.393,3.393h0a3.4,3.4,0,0,1-3.393,3.392h-9.479a6.766,6.766,0,0,0-6.744,6.745v3.092a1.6,1.6,0,0,1-1.593,1.592h0a1.6,1.6,0,0,1-1.593-1.592v-5.883a3.966,3.966,0,0,0-3.954-3.955H358.47a3.4,3.4,0,0,1-3.392-3.392h0A3.4,3.4,0,0,1,358.47,366.5Z" transform="translate(-349.86 -354.339)" fill="#fff" fill-rule="evenodd"/>
    </g>
  </g>
</svg>
