<svg xmlns="http://www.w3.org/2000/svg" xmlns:xlink="http://www.w3.org/1999/xlink" width="1076" height="370" viewBox="0 0 1076 370">
  <defs>
    <clipPath id="clip-path">
      <rect id="Rectángulo_18542" data-name="Rectángulo 18542" width="1076" height="370" fill="none"/>
    </clipPath>
  </defs>
  <g id="Grupo_62095" data-name="Grupo 62095" transform="translate(156 -775)">
    <g id="Grupo_61521" data-name="Grupo 61521" transform="translate(-156 775)" clip-path="url(#clip-path)">
      <g id="Grupo_61520" data-name="Grupo 61520" transform="translate(-67.297 -33.144)">
        <g id="Grupo_61519" data-name="Grupo 61519">
          <path id="Trazado_131218" data-name="Trazado 131218" d="M368.653,996.751a48.619,48.619,0,0,1-14.53.509,56.494,56.494,0,0,1-14.038-3.242,66.123,66.123,0,0,1-23.863-15.665,87.871,87.871,0,0,1-9.343-11.008c-1.5-1.9-2.745-3.978-4.108-5.977-1.287-2.049-2.5-4.15-3.752-6.229a217.594,217.594,0,0,1-12.326-26.528,140.633,140.633,0,0,0,10.36,27.584A96.721,96.721,0,0,0,314.2,980.375a63.019,63.019,0,0,0,25.164,15.746,52.392,52.392,0,0,0,14.667,2.53,50.945,50.945,0,0,0,7.411-.349A34.87,34.87,0,0,0,368.653,996.751Z" transform="translate(260.299 -729.017)" fill="#eaa36a"/>
          <path id="Trazado_131219" data-name="Trazado 131219" d="M352.486,982.009a66.243,66.243,0,0,1-15-1.465,57.38,57.38,0,0,1-14.016-4.843,26.6,26.6,0,0,1-3.275-1.73,33.954,33.954,0,0,1-3.163-1.932l-3.057-2.118c-1-.729-1.9-1.589-2.883-2.361a67.422,67.422,0,0,1-5.474-5.133,33.54,33.54,0,0,1-2.528-2.814q-1.242-1.438-2.548-2.859.923,1.669,1.908,3.328l1,1.652.506.823.584.766a47.128,47.128,0,0,0,5.043,5.877,45.85,45.85,0,0,0,12.635,9.067c1.2.523,2.355,1.135,3.58,1.581l3.69,1.295,3.789.944c1.266.294,2.563.442,3.841.647A41.093,41.093,0,0,0,352.486,982.009Z" transform="translate(261.457 -726.664)" fill="#eaa36a"/>
          <path id="Trazado_131220" data-name="Trazado 131220" d="M349.15,977.837a152.968,152.968,0,0,1-14.427-8.322,107.134,107.134,0,0,1-13.091-9.99,71.183,71.183,0,0,1-10.89-12.191,57.335,57.335,0,0,1-4.182-7.067,63.385,63.385,0,0,1-3.156-7.7,38.936,38.936,0,0,0,1.862,8.241,44.248,44.248,0,0,0,3.6,7.725,52.132,52.132,0,0,0,4.928,6.978,69.256,69.256,0,0,0,5.929,6.136,75.4,75.4,0,0,0,13.858,9.771A68.99,68.99,0,0,0,349.15,977.837Z" transform="translate(261.696 -728.686)" fill="#eaa36a"/>
          <g id="Grupo_61463" data-name="Grupo 61463" transform="translate(0 125.457)">
            <g id="Grupo_61458" data-name="Grupo 61458" transform="translate(592.718)">
              <g id="Grupo_61455" data-name="Grupo 61455" transform="translate(98.401 7.84)">
                <path id="Trazado_131221" data-name="Trazado 131221" d="M419.951,885.6s-8.339-22.516,71.357,3.931c39.312,10.363,348.713-11.408,360.149-19.271s73.264-4.526,71.834,79.34-339.9,62.275-356.1,60.845S490,1007.106,490,1007.106Z" transform="translate(-419.702 -867.427)" fill="#eaa36a"/>
                <path id="Trazado_131222" data-name="Trazado 131222" d="M910.473,981.681c-28.754,2.463.713-22-30.916-11.318-55.624,18.782-386.464-11.017-415.987-10.469l22.761,39.484h0s4.824.151,12.12.4l1.239.042c2.1.072,4.383.152,6.794.236l1.463.052c2.954.106,6.08.22,9.293.341q1.608.06,3.238.122t3.277.127c1.644.064,3.294.13,4.941.2,14.274.579,28.249,1.239,34.831,1.819C576.308,1003.842,890.3,1016.3,910.473,981.681Z" transform="translate(-416.035 -859.699)" fill="#e2915a"/>
                <path id="Trazado_131223" data-name="Trazado 131223" d="M468.237,902.026c15.248,3.538,321.081,7.883,368.017-9.021,25.1-9.04,40.552-14.908,48.354-20.122,16.448,8.395,32.4,27.052,34.722,63.993-18.336,7.892-338.632,24.693-384.768,18.868C477.942,948.6,452.989,898.489,468.237,902.026Z" transform="translate(-416.012 -866.971)" fill="#e6ae7b"/>
              </g>
              <g id="Grupo_61457" data-name="Grupo 61457" transform="translate(0)">
                <path id="Trazado_131224" data-name="Trazado 131224" d="M334.145,1061.7s-8.578-16.677-3.813-81.96,18.585-72.43,41.457-82.913,46.221-27.161,72.907-19.061,48.85,44.039,62.193,53.569-35.032,23.15-35.509,47.452,4.766,22.872,8.578,30.973,6.671,40.98,5.241,54.322C440.884,1048.832,334.145,1061.7,334.145,1061.7Z" transform="translate(-328.891 -858.903)" fill="#e2915a"/>
                <path id="Trazado_131225" data-name="Trazado 131225" d="M464.073,996.751a48.62,48.62,0,0,1-14.53.509,56.492,56.492,0,0,1-14.039-3.242,66.123,66.123,0,0,1-23.863-15.665,87.773,87.773,0,0,1-9.342-11.008c-1.5-1.9-2.745-3.978-4.109-5.977-1.286-2.049-2.5-4.15-3.752-6.229a217.594,217.594,0,0,1-12.326-26.528,140.7,140.7,0,0,0,10.36,27.584,96.7,96.7,0,0,0,17.15,24.181,63.007,63.007,0,0,0,25.163,15.746,52.406,52.406,0,0,0,14.669,2.53,50.937,50.937,0,0,0,7.41-.349A34.9,34.9,0,0,0,464.073,996.751Z" transform="translate(-324.443 -854.473)" fill="#eaa36a"/>
                <path id="Trazado_131226" data-name="Trazado 131226" d="M461.758,982.009a66.231,66.231,0,0,1-15-1.465,57.387,57.387,0,0,1-14.017-4.843,26.512,26.512,0,0,1-3.274-1.73,33.983,33.983,0,0,1-3.164-1.932l-3.057-2.118c-1-.729-1.9-1.589-2.883-2.361a67.427,67.427,0,0,1-5.474-5.133,33.739,33.739,0,0,1-2.528-2.814q-1.24-1.438-2.547-2.859.923,1.669,1.908,3.328l1,1.652.507.823.584.766a46.941,46.941,0,0,0,5.043,5.877,45.819,45.819,0,0,0,12.635,9.067c1.2.523,2.354,1.135,3.579,1.581l3.691,1.295,3.789.944c1.266.294,2.562.442,3.84.647A41.1,41.1,0,0,0,461.758,982.009Z" transform="translate(-322.127 -852.121)" fill="#eaa36a"/>
                <path id="Trazado_131227" data-name="Trazado 131227" d="M461.28,977.837a153.128,153.128,0,0,1-14.428-8.322,107.207,107.207,0,0,1-13.09-9.99,71.186,71.186,0,0,1-10.89-12.191,57.338,57.338,0,0,1-4.182-7.067,63.38,63.38,0,0,1-3.156-7.7,38.934,38.934,0,0,0,1.862,8.241,44.168,44.168,0,0,0,3.6,7.725,52.129,52.129,0,0,0,4.928,6.978,69.1,69.1,0,0,0,5.929,6.136,75.4,75.4,0,0,0,13.858,9.771A68.991,68.991,0,0,0,461.28,977.837Z" transform="translate(-321.649 -854.143)" fill="#eaa36a"/>
                <g id="Grupo_61456" data-name="Grupo 61456" transform="translate(113.66)">
                  <path id="Trazado_131228" data-name="Trazado 131228" d="M444.541,860.192s5.737,118.214,14.314,125.362c3.93,24.3,8.934,27.519,8.934,27.519s-3.574,36.453,18.227,49.318,30.377.715,27.875-14.652,2.986-36.1.42-47.175-7.568-41.457-9.355-50.749,0-15.237-11.792-22.361S444.541,860.192,444.541,860.192Z" transform="translate(-432.885 -860.192)" fill="#f4ba89"/>
                  <path id="Trazado_131229" data-name="Trazado 131229" d="M444.541,860.192s5.737,118.214,14.314,125.362c3.93,24.3,8.934,27.519,8.934,27.519s-3.574,36.453,18.227,49.318,26.07,2.145,23.569-13.223-.2-38.517-2.769-49.6-8.132-35.715-9.919-45.008,0-15.237-11.792-22.361S444.541,860.192,444.541,860.192Z" transform="translate(-432.885 -860.192)" fill="#e6ae7b"/>
                  <path id="Trazado_131230" data-name="Trazado 131230" d="M477.137,923.046c10.978,23.039,5.054,41.057,7.913,57.573,0,4.289,6.671,24.778,6.671,27.638-4.432,23.044,1.587,43.333,15.995,53.385-4.653,1.9-11.526.97-20.8-4.5-21.8-12.865-18.227-49.318-18.227-49.318s-5-3.217-8.935-27.519c-8.577-7.148-25.969-37.869-25.969-37.869S458.685,928.385,477.137,923.046Z" transform="translate(-433.784 -854.938)" fill="#eaa66e"/>
                  <path id="Trazado_131231" data-name="Trazado 131231" d="M504.687,1011.217c.853-1.566,3.136-2.3,4.545-1.2-.74,8.5-1.491,17.545-.238,25.244a28.6,28.6,0,0,1,.241,8,13.567,13.567,0,0,0-4.547-6.573C501.828,1033.017,503.614,1013.183,504.687,1011.217Z" transform="translate(-427.987 -847.713)" fill="#ffd3b6"/>
                </g>
              </g>
            </g>
            <g id="Grupo_61462" data-name="Grupo 61462">
              <g id="Grupo_61459" data-name="Grupo 61459" transform="translate(0 11.028)">
                <path id="Trazado_131232" data-name="Trazado 131232" d="M266.472,885.351s8.339-22.516-71.357,3.931c-39.312,10.363-329.926-8.22-341.362-16.083s-73.263-4.527-71.834,79.339,321.11,59.088,337.311,57.659,77.195-3.336,77.195-3.336Z" transform="translate(218.105 -870.369)" fill="#eaa36a"/>
                <path id="Trazado_131233" data-name="Trazado 131233" d="M193.286,999.412l22.981-39.864c-30.209-1.559-324.276,23.427-392,16.926-21.751-2.088,39.289,16.6,4.448,10.659,21.061,30.92,274.958,16.711,287.377,15.615,7.088-.626,22.75-1.343,38.126-1.95l1.646-.065c2.192-.086,4.372-.169,6.515-.249l3.18-.119,1.619-.06,4.443-.16,1.514-.054,1.43-.05,5.32-.185,1.282-.043,3.395-.115.069,0c5.319-.178,8.656-.283,8.656-.283Z" transform="translate(221.245 -862.921)" fill="#e2915a"/>
                <path id="Trazado_131234" data-name="Trazado 131234" d="M214.474,901.78a178.393,178.393,0,0,1-101.5-5.834c-25.1-9.039-288.278-14.907-296.081-20.121-16.447,8.395-32.4,27.052-34.722,63.992,18.338,7.892,319.845,21.506,365.981,15.682C204.769,948.352,229.722,898.243,214.474,901.78Z" transform="translate(218.128 -869.913)" fill="#e6ae7b"/>
              </g>
              <g id="Grupo_61461" data-name="Grupo 61461" transform="translate(387.439)">
                <path id="Trazado_131235" data-name="Trazado 131235" d="M328.609,1061.7s8.578-16.677,3.812-81.96-18.583-72.43-41.456-82.913-46.223-27.161-72.907-19.061-46.409,44.671-59.751,54.2,32.59,22.518,33.067,46.821-4.766,22.872-8.578,30.973-6.671,40.98-5.241,54.322C221.871,1048.832,328.609,1061.7,328.609,1061.7Z" transform="translate(-138.074 -858.903)" fill="#e2915a"/>
                <path id="Trazado_131236" data-name="Trazado 131236" d="M191.274,996.751a48.62,48.62,0,0,0,14.53.509,56.472,56.472,0,0,0,14.038-3.242,66.118,66.118,0,0,0,23.864-15.665,87.773,87.773,0,0,0,9.342-11.008c1.5-1.9,2.745-3.978,4.109-5.977,1.286-2.049,2.5-4.15,3.752-6.229a217.75,217.75,0,0,0,12.326-26.528,140.768,140.768,0,0,1-10.36,27.584,96.7,96.7,0,0,1-17.15,24.181,63.007,63.007,0,0,1-25.163,15.746,52.406,52.406,0,0,1-14.669,2.53,50.938,50.938,0,0,1-7.41-.349A34.9,34.9,0,0,1,191.274,996.751Z" transform="translate(-135.115 -854.473)" fill="#eaa36a"/>
                <path id="Trazado_131237" data-name="Trazado 131237" d="M191.274,982.009a66.231,66.231,0,0,0,15-1.465,57.388,57.388,0,0,0,14.017-4.843,26.59,26.59,0,0,0,3.274-1.73,33.979,33.979,0,0,0,3.164-1.932l3.057-2.118c1-.729,1.9-1.589,2.883-2.361a67.425,67.425,0,0,0,5.474-5.133,33.728,33.728,0,0,0,2.528-2.814q1.24-1.438,2.548-2.859-.923,1.669-1.908,3.328l-1,1.652-.507.823-.584.766a47.035,47.035,0,0,1-5.043,5.877,45.818,45.818,0,0,1-12.635,9.067c-1.2.523-2.354,1.135-3.579,1.581l-3.691,1.295-3.789.944c-1.266.294-2.562.442-3.84.647A41.1,41.1,0,0,1,191.274,982.009Z" transform="translate(-135.115 -852.121)" fill="#eaa36a"/>
                <path id="Trazado_131238" data-name="Trazado 131238" d="M191.274,977.837a153.132,153.132,0,0,0,14.428-8.322,107.211,107.211,0,0,0,13.09-9.99,71.184,71.184,0,0,0,10.89-12.191,57.333,57.333,0,0,0,4.182-7.067,63.375,63.375,0,0,0,3.156-7.7,38.935,38.935,0,0,1-1.862,8.241,44.169,44.169,0,0,1-3.6,7.725,52.131,52.131,0,0,1-4.928,6.978,69.1,69.1,0,0,1-5.929,6.136,75.4,75.4,0,0,1-13.858,9.771A68.991,68.991,0,0,1,191.274,977.837Z" transform="translate(-135.115 -854.143)" fill="#eaa36a"/>
                <g id="Grupo_61460" data-name="Grupo 61460">
                  <path id="Trazado_131239" data-name="Trazado 131239" d="M209.92,860.192s-5.736,118.214-14.314,125.362c-3.931,24.3-8.934,27.519-8.934,27.519s3.574,36.453-18.227,49.318-30.377.715-27.875-14.652-2.986-36.1-.422-47.175,7.569-41.457,9.356-50.749,0-15.237,11.792-22.361S209.92,860.192,209.92,860.192Z" transform="translate(-139.447 -860.192)" fill="#f4ba89"/>
                  <path id="Trazado_131240" data-name="Trazado 131240" d="M209.55,860.192s-5.736,118.214-14.314,125.362c-3.931,24.3-8.934,27.519-8.934,27.519s3.574,36.453-18.227,49.318-26.07,2.145-23.569-13.223.2-38.517,2.769-49.6,8.132-35.715,9.919-45.008,0-15.237,11.792-22.361S209.55,860.192,209.55,860.192Z" transform="translate(-139.077 -860.192)" fill="#e6ae7b"/>
                  <path id="Trazado_131241" data-name="Trazado 131241" d="M177.591,923.046c-10.978,23.039-5.054,41.057-7.913,57.573,0,4.289-6.671,24.778-6.671,27.638,4.432,23.044-1.587,43.333-15.995,53.385,4.653,1.9,11.526.97,20.8-4.5,21.8-12.865,18.227-49.318,18.227-49.318s5-3.217,8.934-27.519c8.578-7.148,25.97-37.869,25.97-37.869S196.043,928.385,177.591,923.046Z" transform="translate(-138.815 -854.938)" fill="#eaa66e"/>
                  <path id="Trazado_131242" data-name="Trazado 131242" d="M144.821,1011.217c-.853-1.566-3.136-2.3-4.545-1.2.74,8.5,1.491,17.545.238,25.244a28.6,28.6,0,0,0-.241,8,13.567,13.567,0,0,1,4.547-6.573C147.681,1033.017,145.894,1013.183,144.821,1011.217Z" transform="translate(-139.393 -847.713)" fill="#ffd3b6"/>
                </g>
              </g>
            </g>
          </g>
          <g id="Grupo_61475" data-name="Grupo 61475" transform="translate(400.738)">
            <g id="Grupo_61464" data-name="Grupo 61464" transform="translate(0 125.457)" style="mix-blend-mode: multiply;isolation: isolate">
              <path id="Trazado_131243" data-name="Trazado 131243" d="M474.426,898.552c-15.462-19.421-20.219-38.36-20.219-38.36s.47,9.672,1.34,23.639a53.725,53.725,0,0,0-10.852-4.779c-26.685-8.1-50.035,8.578-72.907,19.061s-36.691,17.631-41.457,82.913,3.813,81.96,3.813,81.96,62.578-7.543,111.8-4.232a159.73,159.73,0,0,0,31.255-36.787c.246-.4.182-8.428.258-8.9,4.081-25.32,36.317-17.936,15.376-71.04C482.119,914.866,476.993,901.326,474.426,898.552Z" transform="translate(-136.912 -860.192)" fill="#e5d3b5"/>
              <path id="Trazado_131244" data-name="Trazado 131244" d="M291.313,898.114c-22.872-10.484-46.223-27.161-72.907-19.061a53.726,53.726,0,0,0-10.852,4.779c.87-13.967,1.34-23.639,1.34-23.639s-5.45,15.246-20.912,34.667c-3.881,4.193-19.869,22.536-29.263,43.758-19.593,44.259,6.672,58.338,21.22,83.35,7.043,12.108,1.891,20.473,2.3,21.087,8.026,11.951,20.986,6.262,32.019,15.909,49.623-3.82,114.7,4.023,114.7,4.023s8.578-16.678,3.812-81.96S314.185,908.6,291.313,898.114Z" transform="translate(-151.721 -860.192)" fill="#e5d3b5"/>
            </g>
            <g id="Grupo_61472" data-name="Grupo 61472" transform="translate(284.724 61.859)">
              <g id="Grupo_61465" data-name="Grupo 61465" transform="translate(9.865)">
                <path id="Trazado_131245" data-name="Trazado 131245" d="M423.625,848.094s35.1-29.257,80.608-46.594c13.557,75.272-16.254,165.071-52.554,193.332C421.339,982.459,423.625,848.094,423.625,848.094Z" transform="translate(-423.586 -801.5)" fill="#88b216"/>
                <path id="Trazado_131246" data-name="Trazado 131246" d="M426.07,925.378s55.276-51.819,77.98-123.878C517.607,876.772,487.8,966.571,451.5,994.832,421.156,982.459,426.07,925.378,426.07,925.378Z" transform="translate(-423.403 -801.5)" fill="#83a00a"/>
              </g>
              <g id="Grupo_61471" data-name="Grupo 61471">
                <g id="Grupo_61466" data-name="Grupo 61466">
                  <path id="Trazado_131247" data-name="Trazado 131247" d="M414.482,930.389A188.152,188.152,0,0,0,429.7,917.774c4.85-4.525,9.6-9.171,14.113-14.055,4.561-4.837,8.869-9.908,13.091-15.051l6.155-7.864c1.972-2.681,3.879-5.41,5.824-8.115a274.8,274.8,0,0,0,20.5-34.31l2.27-4.463c.372-.747.77-1.481,1.122-2.238l1.009-2.291,4.039-9.168c1.428-3.025,2.484-6.2,3.673-9.321l3.5-9.4-3.244,9.492c-1.106,3.155-2.078,6.365-3.426,9.43l-3.8,9.3-.95,2.325c-.332.768-.711,1.515-1.064,2.273l-2.155,4.538a276.528,276.528,0,0,1-19.676,35.05c-1.884,2.776-3.733,5.581-5.649,8.337l-5.994,8.1c-4.119,5.3-8.334,10.547-12.816,15.563A221.19,221.19,0,0,1,417,933.917Z" transform="translate(-414.482 -801.5)" fill="#aad11c"/>
                </g>
                <g id="Grupo_61467" data-name="Grupo 61467" transform="translate(54.599 18.598)">
                  <path id="Trazado_131248" data-name="Trazado 131248" d="M466.441,871.217a.541.541,0,0,1-.536-.474c-3.071-24.182,1.664-51.361,1.713-51.633a.541.541,0,1,1,1.066.19c-.048.27-4.754,27.291-1.7,51.307a.541.541,0,0,1-.468.606A.5.5,0,0,1,466.441,871.217Z" transform="translate(-464.87 -818.664)" fill="#aad11c"/>
                </g>
                <g id="Grupo_61468" data-name="Grupo 61468" transform="translate(64.87 44.333)">
                  <path id="Trazado_131249" data-name="Trazado 131249" d="M474.89,854.521a.542.542,0,0,1-.031-1.082c.171-.01,17.226-1.109,26.177-10.85a.542.542,0,0,1,.8.734c-9.253,10.069-26.2,11.157-26.912,11.2Z" transform="translate(-474.348 -842.413)" fill="#aad11c"/>
                </g>
                <g id="Grupo_61469" data-name="Grupo 61469" transform="translate(15.744 44.333)">
                  <path id="Trazado_131250" data-name="Trazado 131250" d="M443.04,904a.537.537,0,0,1-.4-.178c-12.514-13.8-13.587-58.945-13.627-60.859a.544.544,0,0,1,.531-.554h.011a.542.542,0,0,1,.542.531c.01.465,1.1,46.652,13.345,60.154a.542.542,0,0,1-.4.906Z" transform="translate(-429.012 -842.413)" fill="#aad11c"/>
                </g>
                <g id="Grupo_61470" data-name="Grupo 61470" transform="translate(36.864 89.573)">
                  <path id="Trazado_131251" data-name="Trazado 131251" d="M466.794,892.086a110.286,110.286,0,0,1-17.849-1.439.542.542,0,0,1,.2-1.066c.3.057,30.606,5.53,47.294-5.33a.542.542,0,0,1,.591.908C488.527,890.692,476.628,892.086,466.794,892.086Z" transform="translate(-448.503 -884.164)" fill="#aad11c"/>
                </g>
              </g>
            </g>
            <path id="Trazado_131252" data-name="Trazado 131252" d="M438.514,834.219c-9.409,6.578-14.888,11.14-14.888,11.14S421.339,979.724,451.679,992.1c15.954-12.42,30.652-36.729,40.968-66.464A162.2,162.2,0,0,0,438.514,834.219Z" transform="translate(-128.997 -736.906)" fill="#99a86a" style="mix-blend-mode: multiply;isolation: isolate"/>
            <circle id="Elipse_1744" data-name="Elipse 1744" cx="162.317" cy="162.317" r="162.317" transform="translate(24.917 44.727)" fill="#67890a"/>
            <ellipse id="Elipse_1745" data-name="Elipse 1745" cx="104.244" cy="126.584" rx="104.244" ry="126.584" transform="translate(58.95 152.816) rotate(-47.136)" fill="#85a50e"/>
            <g id="Grupo_61474" data-name="Grupo 61474" transform="translate(41.969 62.335)">
              <path id="Trazado_131253" data-name="Trazado 131253" d="M422.4,1002.5l-.812,3.206a9.1,9.1,0,0,1-4.477,9.008c-.673.374-1.451.716-1.763,1.418a12.728,12.728,0,0,0-.312,1.428c-.393,1.257-1.9,1.771-3.217,1.844s-2.719-.089-3.876.54c-1.9,1.031-2.2,3.576-3.213,5.485-1.75,3.294-5.762,4.749-7.951,7.77a46.454,46.454,0,0,0-2.479,4.694,6.088,6.088,0,0,1-3.935,3.306c6.293,1.666,13.109-.514,18.416-4.287s9.376-8.995,13.351-14.152a22.638,22.638,0,0,0,2.838-4.33c1.282-2.816,1.36-6.012,1.415-9.105s.06-6.363-1.574-8.979A2.424,2.424,0,0,0,422.4,1002.5Z" transform="translate(-173.743 -785.356)" fill="#afd84c"/>
              <path id="Trazado_131254" data-name="Trazado 131254" d="M442.177,832.547l-9.886-.55a29.8,29.8,0,0,0-1.981,12.325l-6.222.491c1.417-5.64-4.37-11.749-10.077-10.64-1.717,3.835,5.882,7.371,4.035,11.145-.615,1.258-2.07,1.822-3.395,2.276-2.273.777-4.729,1.561-7.03.872s-4.069-3.555-2.749-5.562c1.09-1.657,3.948-2.9,2.985-4.632l-9.04,2.216c-3.119.764-6.376,1.6-8.764,3.747-2.447,2.2-3.626,5.473-4.372,8.678a47.031,47.031,0,0,0-1.189,12.462c.062,1.609.049,3.548-1.317,4.4-2.024,1.268-4.384-1.3-4.863-3.644s-.452-5.151-2.395-6.539c-.886-1.211-2.87-.691-3.952.349s-1.822,2.484-3.153,3.176c-1.448.753-3.2.419-4.817.612s-3.445,1.482-3.037,3.063a30.763,30.763,0,0,1,15.1,6.963,7.99,7.99,0,0,1-5.368,2.994c1.7,2.118,3.462,5.034,2.012,7.328-1.425,2.253-4.825,1.96-7.265.892s-4.934-2.677-7.547-2.157c-2.3,4.254.935,9.276,1.5,14.076.627,5.31-2.1,10.375-4.729,15.028-2.7,4.762-5.613,9.752-10.373,12.451-2.274,1.289-4.968,2.059-6.629,4.079a12.624,12.624,0,0,0-2.069,4.74l-8.065,28.763a8.31,8.31,0,0,0-.414,4.358c.475,1.758,2.03,2.989,3.567,3.965a34.657,34.657,0,0,0,14.157,5.1c2.563.325,5.385.455,7.285,2.205.918.844,1.536,2.01,2.58,2.692,1.7,1.113,3.948.618,5.91.082a30.154,30.154,0,0,0,7.672-2.861c2.211-1.323,4.071-3.206,6.39-4.331s5.445-1.269,7.168.647a19.88,19.88,0,0,1-6.341,11.754c-1.645,1.471-3.659,2.852-4.152,5-.475,2.071.633,4.129,1.492,6.071a29.173,29.173,0,0,1-1.995,26.677c-2.591,1.782-5.344,4.043-5.4,7.156-.024,1.307.458,2.588.405,3.893-.117,2.912-2.756,5.071-3.673,7.837-.738,2.229-.34,4.81-1.54,6.829a9.771,9.771,0,0,1-4.111,3.25l-8.941,4.733a4.711,4.711,0,0,0-1.665,1.228,3.065,3.065,0,0,0,.606,3.886,6.286,6.286,0,0,0,3.969,1.425c4.394.278,8.622-1.526,12.655-3.293l11.2-4.906,12.911-5.656a9.428,9.428,0,0,0,3.086-1.855c1.3-1.337,1.781-3.411,3.326-4.463,1.388-.945,3.212-.784,4.879-.982a10.86,10.86,0,0,0,7.884-5.074,29.026,29.026,0,0,0,1.5-3.078,3.1,3.1,0,0,0,.392-.24c1.206-.909,1.608-2.637,2.873-3.462s2.982-.49,4.347-1.132c2.222-1.048,2.53-4,2.856-6.435,1.631-12.148,10.943-21.731,20.411-29.517a12.854,12.854,0,0,1,4.922-2.907c1.585-.384,3.275-.171,4.847-.6,4.209-1.158,5.88-6.249,6.059-10.612a4.407,4.407,0,0,0-.371-2.372c-1.326-2.346-4.978-.84-6.806,1.141s-4.322,4.481-6.733,3.275c-2.547-1.274-1.739-5.207.048-7.425a16.2,16.2,0,0,1,9.849-5.756,8.066,8.066,0,0,0,3.06-.829c1.513-.958,1.941-2.916,2.644-4.563.982-2.3,2.684-4.205,3.916-6.378s1.97-4.906.857-7.144-4.7-3.12-6.133-1.076a55.841,55.841,0,0,1-8.6-13.876,8.091,8.091,0,0,1-.9-5.036c.418-1.685,2.33-3.089,3.9-2.351,1.479.695,1.742,2.647,1.815,4.28.128,2.844.358,5.888,2.121,8.123s5.649,2.977,7.361.7c-.982,4.875,9.641,6.911,7.609,11.45-.483,1.08-1.681,1.872-1.707,3.056-.021.983.781,1.753,1.426,2.495,5.128,5.9,2.208,14.848.855,22.545a48.511,48.511,0,0,0,4.234,29.516,162.422,162.422,0,0,0-30.91-176.558Zm-5.735,84.031a20.172,20.172,0,0,1-9.046,3.514,12.908,12.908,0,0,1-9.246-2.439c-1.208-.948-2.508-2.243-4.006-1.9-1.263.286-1.969,1.637-2.281,2.893a9.679,9.679,0,0,1-1.213,3.657,4.492,4.492,0,0,1-3.979,1.517,11.923,11.923,0,0,1-4.185-1.417,4.494,4.494,0,0,0-2.07-.644c-.542.017-1.058.236-1.6.3a3.425,3.425,0,0,1-3.2-1.695,5.3,5.3,0,0,1-.548-3.7,21.51,21.51,0,0,0,.844-3.92c-.014-3-3.077-5.142-6.026-5.705s-6.021-.109-8.964-.7-5.977-2.8-5.912-5.8c.025-1.135.493-2.215.6-3.345.132-1.349-.25-2.727.014-4.058a4.379,4.379,0,0,1,4.28-3.41l4.493-4.406a10.353,10.353,0,0,1,5.959-.677,2.45,2.45,0,0,1,1.456.674,2.477,2.477,0,0,1,.476,1.239,11.24,11.24,0,0,1-.121,4.288c-.446,1.988-1.44,3.918-1.242,5.946s2.47,4,4.184,2.9l1.317-4.426a2.9,2.9,0,0,1,4,2.816,14.467,14.467,0,0,0-.413,1.911,2.722,2.722,0,0,0,1.708,2.32,8,8,0,0,0,2.98.521,3,3,0,0,1,4.913-1.269c.946,1.08,1.008,2.786,2.1,3.724,1.334,1.15,3.493.566,5.006,1.469.8.476,1.325,1.318,2.123,1.794,1.6.955,3.846.221,5.362,1.3,1.032.734,1.412,2.1,2.328,2.971,1.491,1.421,3.869,1.145,5.88.695s4.289-.935,5.988.229C438.507,914.951,437.444,915.906,436.441,916.578Zm6.826-11.72a4.382,4.382,0,0,1-2.289-.355c-2.719-.99-5.322-2.481-8.2-2.724-1.8-.152-3.611.2-5.4.018s-3.715-1.074-4.288-2.784c-.362-1.08-.157-2.383-.879-3.265-.863-1.053-2.843-1.24-2.963-2.6a2.437,2.437,0,0,1,.411-1.327q2.461-4.574,5.019-9.094l.461-3.078c.232-.856,1.508-.662,2.285-.232,1.747.968,3.529,2.5,3.5,4.495-.026,1.571-1.2,2.939-1.285,4.508a4.3,4.3,0,0,0,2.432,3.846,8.469,8.469,0,0,0,4.689.708,3.343,3.343,0,0,1,2.443.35,3.01,3.01,0,0,1,.666.9l4.463,7.956a2.534,2.534,0,0,1,.405,1.094A1.7,1.7,0,0,1,443.267,904.858Z" transform="translate(-179.043 -799.427)" fill="#afd84c"/>
              <path id="Trazado_131255" data-name="Trazado 131255" d="M439.764,832.413,432.291,832a29.8,29.8,0,0,0-1.981,12.325l-6.222.491c1.417-5.64-4.37-11.749-10.077-10.64-1.717,3.835,5.882,7.371,4.035,11.145-.615,1.258-2.07,1.822-3.395,2.276-2.273.777-4.729,1.561-7.03.872s-4.069-3.555-2.749-5.562c1.09-1.657,3.948-2.9,2.985-4.632l-9.04,2.216c-3.119.764-6.376,1.6-8.764,3.747-2.447,2.2-3.626,5.473-4.372,8.678a47.031,47.031,0,0,0-1.189,12.462c.062,1.609.049,3.548-1.317,4.4-2.024,1.268-4.384-1.3-4.863-3.644s-.452-5.151-2.4-6.539c-.885-1.211-2.869-.692-3.951.349s-1.822,2.484-3.153,3.176c-1.448.753-3.2.419-4.817.612s-3.445,1.482-3.037,3.063a30.771,30.771,0,0,1,15.1,6.962,7.987,7.987,0,0,1-5.368,3c1.7,2.118,3.462,5.034,2.012,7.328-1.425,2.253-4.825,1.96-7.265.892s-4.934-2.677-7.547-2.157c-2.3,4.254.935,9.276,1.5,14.076.627,5.31-2.1,10.375-4.729,15.028-2.7,4.762-5.613,9.752-10.373,12.451-2.274,1.289-4.968,2.059-6.629,4.079a12.607,12.607,0,0,0-2.069,4.74l-8.065,28.763a8.31,8.31,0,0,0-.414,4.358c.475,1.758,2.03,2.989,3.567,3.965a34.671,34.671,0,0,0,14.157,5.1c2.563.325,5.385.455,7.285,2.205.918.844,1.536,2.01,2.58,2.692,1.7,1.113,3.948.618,5.91.082a30.154,30.154,0,0,0,7.672-2.861c2.211-1.323,4.071-3.206,6.39-4.331s5.445-1.269,7.168.647a19.88,19.88,0,0,1-6.341,11.754c-1.645,1.471-3.659,2.852-4.152,5-.475,2.071.633,4.129,1.492,6.071a28.735,28.735,0,0,1,1.585,17.838c18.808,1.234,37.032-2.039,52.88-9.938a87.543,87.543,0,0,1,11.507-11.083,12.854,12.854,0,0,1,4.922-2.907c1.466-.354,3.018-.22,4.487-.536,1.466-1.375,2.9-2.8,4.279-4.29.42-.454.828-.916,1.237-1.376a17.975,17.975,0,0,0,.9-5.013,4.407,4.407,0,0,0-.371-2.372c-1.326-2.346-4.978-.84-6.806,1.141s-4.322,4.481-6.733,3.275c-2.547-1.274-1.739-5.207.048-7.425a16.2,16.2,0,0,1,9.849-5.756,8.066,8.066,0,0,0,3.06-.829c1.513-.958,1.941-2.916,2.644-4.563.982-2.3,2.684-4.205,3.916-6.378s1.97-4.906.857-7.144-4.7-3.12-6.133-1.076a55.841,55.841,0,0,1-8.6-13.876,8.091,8.091,0,0,1-.9-5.036c.418-1.685,2.33-3.089,3.9-2.351,1.479.695,1.742,2.647,1.815,4.28.128,2.844.358,5.888,2.121,8.123s5.649,2.977,7.361.7c-.982,4.875,9.641,6.911,7.609,11.45-.483,1.08-1.681,1.872-1.707,3.056-.021.983.781,1.753,1.426,2.495a11.024,11.024,0,0,1,1.416,2.089C485.22,920.362,474.28,870.281,439.764,832.413Zm-3.322,84.165a20.172,20.172,0,0,1-9.046,3.514,12.908,12.908,0,0,1-9.246-2.439c-1.208-.948-2.508-2.243-4.006-1.9-1.263.286-1.969,1.636-2.281,2.893a9.679,9.679,0,0,1-1.213,3.657,4.492,4.492,0,0,1-3.979,1.517,11.923,11.923,0,0,1-4.185-1.417,4.494,4.494,0,0,0-2.07-.644c-.542.017-1.058.236-1.6.3a3.425,3.425,0,0,1-3.2-1.695,5.3,5.3,0,0,1-.548-3.7,21.51,21.51,0,0,0,.844-3.92c-.014-3-3.077-5.142-6.026-5.705s-6.021-.109-8.964-.7-5.977-2.8-5.912-5.8c.025-1.135.493-2.215.6-3.345.132-1.349-.25-2.729.014-4.058a4.379,4.379,0,0,1,4.28-3.41l4.493-4.406a10.353,10.353,0,0,1,5.959-.677,2.45,2.45,0,0,1,1.456.674,2.477,2.477,0,0,1,.476,1.239,11.24,11.24,0,0,1-.121,4.288c-.446,1.988-1.44,3.918-1.242,5.946s2.47,4,4.184,2.9l1.317-4.426a2.9,2.9,0,0,1,4,2.816,14.467,14.467,0,0,0-.413,1.911,2.722,2.722,0,0,0,1.708,2.32,8,8,0,0,0,2.98.521,3,3,0,0,1,4.913-1.269c.946,1.08,1.008,2.786,2.1,3.723,1.334,1.151,3.493.567,5.006,1.47.8.476,1.325,1.318,2.123,1.794,1.6.955,3.846.221,5.362,1.3,1.032.734,1.412,2.1,2.328,2.971,1.491,1.421,3.869,1.145,5.88.695s4.289-.935,5.988.229C438.507,914.951,437.444,915.906,436.441,916.578Zm6.826-11.72a4.382,4.382,0,0,1-2.289-.355c-2.719-.99-5.322-2.481-8.2-2.724-1.8-.152-3.611.2-5.4.018s-3.715-1.074-4.288-2.784c-.362-1.08-.156-2.383-.879-3.265-.863-1.053-2.843-1.24-2.963-2.6a2.437,2.437,0,0,1,.411-1.327q2.461-4.574,5.019-9.094l.461-3.078c.232-.856,1.508-.662,2.285-.232,1.747.968,3.529,2.5,3.5,4.494-.026,1.572-1.2,2.94-1.285,4.509a4.3,4.3,0,0,0,2.432,3.846,8.469,8.469,0,0,0,4.689.708,3.343,3.343,0,0,1,2.443.35,3.01,3.01,0,0,1,.666.9l4.463,7.956a2.534,2.534,0,0,1,.405,1.094A1.7,1.7,0,0,1,443.267,904.858Z" transform="translate(-179.043 -799.427)" fill="#d4ef62"/>
              <path id="Trazado_131256" data-name="Trazado 131256" d="M376.042,839.472l3.747.715a2.679,2.679,0,0,0,1.429.011,3.15,3.15,0,0,0,1.125-.955c1.94-2.137,4.775-3.177,7.5-4.143a14.482,14.482,0,0,1,3.842-.979c.686-.046,1.38.007,2.058-.106a4.312,4.312,0,0,0,2.4-1.273c.692-.729.958-2.17.03-2.562l-3.076-.775c-2.347-.481-4.226-2.176-6.341-3.3s-5.053-1.534-6.653.247c-.912,1.016-1.119,2.456-1.557,3.75a10.211,10.211,0,0,1-3.936,5.157,7.592,7.592,0,0,0-1.855,1.434,1.744,1.744,0,0,0-.137,2.163A2.458,2.458,0,0,0,376.042,839.472Z" transform="translate(-175.087 -800)" fill="#d4ef62"/>
              <path id="Trazado_131257" data-name="Trazado 131257" d="M365.633,840.673c-2.381-2.168-9.749-4.233-12.479-1.862-1.486,1.29-1.621,3.669-3.108,4.959a13.929,13.929,0,0,1-3.135,1.528,6.413,6.413,0,0,0-2.039,1.6,2.16,2.16,0,0,0-.638,1.745c.2.971,1.366,1.343,2.339,1.534l5.211,1.031a4.291,4.291,0,0,0,5.147-1.447l2.293-2.419c2.11-2.225,4.292-.943,6.532-2.352C367.7,843.767,367.085,842,365.633,840.673Z" transform="translate(-177.602 -798.946)" fill="#d4ef62"/>
              <path id="Trazado_131258" data-name="Trazado 131258" d="M376.008,812.353a31.756,31.756,0,0,0-23.651-5.219c-3.06.555-6.075,1.568-9.185,1.522-3.423-.049-6.678-1.374-9.916-2.488a85.49,85.49,0,0,0-18.375-4.121c-1.967-.218-4.26-.246-5.557,1.249-1.58,1.82-.676,4.59,0,6.9s.568,5.54-1.729,6.272c-2.192.7-4.063-1.557-5.639-3.232a15.827,15.827,0,0,0-8.073-4.585,6.653,6.653,0,0,0-3.385-.026c-1.485.463-2.583,1.7-3.913,2.505a7.717,7.717,0,0,1-9.995-2.143c-.948-1.378-1.47-3.119-2.821-4.107a7.285,7.285,0,0,0-3.874-1.037,108.687,108.687,0,0,0-11-.212q-2.888,1.556-5.7,3.228l-.418.247q-2.773,1.653-5.475,3.41c-.1.062-.191.126-.286.189q-5.6,3.665-10.882,7.768c.04.025.007.044-.077.059a162.983,162.983,0,0,0-45.592,55.636c.705,2.148,2.127,4.555,2.155,6.292.044,2.655,1.406,5.472,3.892,6.406-5.31,10.263-.994,24.4,9.143,29.943a9.387,9.387,0,0,1,2.837,1.933c1.023,1.211,1.2,2.9,1.5,4.453a23.4,23.4,0,0,0,5.239,10.793,2.873,2.873,0,0,0-.613,2.021,7.422,7.422,0,0,0,.684,2.1c1.079,2.7,1,5.7.915,8.607a10.64,10.64,0,0,1-1,5.063,20.581,20.581,0,0,1-3.151,3.4,11.335,11.335,0,0,0,.773,15.638c1.52,1.332,3.423,2.256,4.65,3.862,1.512,1.979,1.732,4.644,1.624,7.132a14.314,14.314,0,0,0,.119,3.959,3.815,3.815,0,0,0,2.445,2.9,4.034,4.034,0,0,1,1.145.35c.657.424.711,1.34.773,2.12a11.814,11.814,0,0,0,3.544,7.49,15.707,15.707,0,0,0,3.294,2.359,7.892,7.892,0,0,1,.459,1.6c.549,3.3-1.475,6.532-1.334,9.87.248,5.943,6.909,9.613,8.7,15.287.755,2.4.578,4.97.566,7.483-.049,9.707,2.859,19.937,10.145,26.348a49.5,49.5,0,0,0,7.2,4.962c4.848,2.937,9.783,5.912,15.268,7.336,2.92.759,6.651.753,8.235-1.815,1.454-2.357.085-5.59-2.118-7.268s-5.009-2.28-7.624-3.19-5.312-2.368-6.379-4.923c-1.038-2.486-.265-5.316.516-7.893a4.144,4.144,0,0,1,.71-1.542c1.1-1.288,3.265-.823,4.693-1.738,2.086-1.336,1.45-4.462,1.911-6.9.352-1.853,1.457-3.462,2.181-5.2s1.01-3.908-.164-5.385c-1.1-1.392-3.469-2.637-2.592-4.183a2.508,2.508,0,0,1,1.628-.989,15.666,15.666,0,0,1,7.64-.113c1.559.37,3.128.985,4.714.747,2.7-.4,4.441-3.135,5.08-5.784s.549-5.458,1.419-8.041c1.333-3.957,4.849-7.2,4.974-11.374a10.139,10.139,0,0,0,4.249.96,3.867,3.867,0,0,0,3.477-2.259c.6-1.65-.378-3.419-1.322-4.9l-3.593-5.639a12.451,12.451,0,0,0-3.087-3.686,7.359,7.359,0,0,0-1.283-.709c.014-.105.031-.21.037-.318.16-2.968-2.983-5.084-5.91-5.6-1.125-.2-2.466-.39-2.966-1.416a11.551,11.551,0,0,1-.375-1.452c-.554-1.657-2.674-2.057-4.418-2.18l-7.562-.537c-1.809-.128-4.16-.794-4.172-2.608-.006-1.161,1.033-2.015,1.617-3.019,1.424-2.448.049-5.539.293-8.361.295-3.4,2.966-6.38,2.725-9.785a8,8,0,0,0-4.044-5.927,23.621,23.621,0,0,0-7-2.475c-3.786-.906-7.666-1.817-11.535-1.38a5.052,5.052,0,0,1-2.735-.121c-2.118-1-1.533-4.529-3.41-5.936a4.989,4.989,0,0,0-1.673-.7l-10.64-3.012a2.441,2.441,0,0,0-1.94,0c-.812.507-.734,1.677-.961,2.606-.536,2.183-3.3,3.285-5.421,2.544a6.874,6.874,0,0,1-4.058-5.029c-.039-.163-.066-.326-.1-.489.537-.936,1.081-1.866,1.565-2.793,2.076-3.971,2.437-10.074-1.7-11.788l3.3-9.473c.9-2.57,1.211-6.366-1.41-7.1-2.264-.632-4.008,1.867-5.416,3.748s-4.7,3.26-5.734,1.151A11.624,11.624,0,0,1,231.5,889.913c.834,1.219,1.489,2.649,2.743,3.43a3.813,3.813,0,0,0,5.111-1.278c1.279-2.211.225-5.59,2.261-7.132,1.123-.851,2.706-.689,4.008-1.223,3.2-1.312,3.6-6.134,6.684-7.7,2.5-1.263,5.66.173,8.266-.849,2.557-1,3.7-3.971,5.836-5.7,2.475-2.008,5.933-2.12,9.119-2.138l13.751-.08c1.548-.009,3.505-.313,3.906-1.808.475-1.772-1.805-3.639-.916-5.241.448-.807,1.5-1.056,2.126-1.734,1.085-1.172.543-3.106,1.185-4.567,1.025-2.329,4.625-2.281,6.512-.575s2.57,4.328,3.391,6.736,2.085,4.968,4.459,5.883c2.583,1,5.634-.462,7.179-2.759s1.861-5.21,1.751-7.977a30.536,30.536,0,0,0-5.055-15.611c-.724-1.087-1.557-2.29-1.331-3.575.394-2.248,3.511-2.686,5.686-1.995s4.448,1.967,6.593,1.188c.557-2.723-.138-5.539-.028-8.317s1.478-5.921,4.2-6.493c3.073-.646,5.632,2.253,7.432,4.825,1.681,2.4,3.443,5.323,2.447,8.08-.537,1.489-1.809,2.619-2.374,4.1a9.587,9.587,0,0,0-.418,3.454q.008,4.068.014,8.138c2.842,1.742,6.484.168,9.421-1.41l21.316-11.446c3.752-2.015,7.611-4.118,10.268-7.446s3.815-8.238,1.626-11.891ZM219.077,929.327a4.675,4.675,0,0,1,.929,2.1,14.352,14.352,0,0,0-2.061.672A17.589,17.589,0,0,1,219.077,929.327Zm97.546-108.359c-.163,1.343-1.337,2.463-1.613,3.839-.215,1.068.311,2.734-.975,3.307a2.8,2.8,0,0,1-1.764-.059,6.92,6.92,0,0,0-4,.042c-2.615.987-3.661,4.085-4.158,6.835s-.924,5.823-3.094,7.584c-1.468,1.192-3.436,1.51-5.306,1.788l-8.959,1.327c-2.389.354-4.782.709-7.19.908a10.848,10.848,0,0,1-4.978-.442,4.235,4.235,0,0,1-2.817-3.8c.094-2.4,2.735-3.875,3.642-6.1.709-1.742.275-3.73.582-5.586a8.166,8.166,0,0,1,6.783-6.362,10.961,10.961,0,0,1,9.062,3.127c1.39,1.335,2.9,3.133,4.791,2.783,1.417-.261,2.3-1.648,2.968-2.926a4.036,4.036,0,0,1,1.162-1.567,3.923,3.923,0,0,1,2.384-.424c2.2.077,6.8,1.093,8.343-1.036,1.269-1.755-.244-3.5,2.18-4.8C315.374,818.49,316.881,818.83,316.623,820.969Z" transform="translate(-190.453 -801.939)" fill="#afd84c"/>
              <g id="Grupo_61473" data-name="Grupo 61473" transform="translate(63.992)">
                <path id="Trazado_131259" data-name="Trazado 131259" d="M264.965,931.006q1.3,2.323,2.7,4.615A7.55,7.55,0,0,0,264.965,931.006Z" transform="translate(-248.217 -791.151)" fill="#cbf253"/>
                <path id="Trazado_131260" data-name="Trazado 131260" d="M371.072,812.353a31.756,31.756,0,0,0-23.651-5.219c-3.06.555-6.075,1.568-9.185,1.522-3.423-.049-6.678-1.374-9.916-2.488a85.49,85.49,0,0,0-18.375-4.121c-1.967-.218-4.26-.246-5.557,1.249-1.58,1.82-.676,4.59,0,6.9s.568,5.54-1.729,6.272c-2.192.7-4.063-1.557-5.639-3.233a15.833,15.833,0,0,0-8.073-4.584,6.653,6.653,0,0,0-3.385-.026c-1.485.463-2.583,1.7-3.913,2.505a7.261,7.261,0,0,1-4.369.966q-1.983,1.884-3.866,3.91c-15.153,16.326-22.971,37.228-23.9,59.474,2.023-.135,4.224.425,6.13-.322,2.557-1,3.7-3.971,5.836-5.7,2.475-2.008,5.933-2.12,9.119-2.138l13.751-.08c1.548-.009,3.505-.313,3.906-1.808.475-1.772-1.805-3.639-.916-5.241.448-.807,1.5-1.056,2.126-1.734,1.084-1.172.543-3.106,1.185-4.567,1.025-2.329,4.625-2.281,6.512-.575s2.57,4.328,3.391,6.736,2.085,4.968,4.459,5.883c2.583,1,5.634-.462,7.179-2.759s1.861-5.21,1.751-7.977a30.536,30.536,0,0,0-5.055-15.611c-.724-1.087-1.557-2.29-1.331-3.575.394-2.248,3.511-2.686,5.686-1.995s4.448,1.967,6.593,1.188c.557-2.723-.138-5.539-.028-8.317s1.478-5.921,4.2-6.493c3.073-.646,5.632,2.253,7.432,4.825,1.681,2.4,3.443,5.323,2.447,8.08-.537,1.489-1.809,2.619-2.374,4.1a9.587,9.587,0,0,0-.418,3.454l.014,8.138c2.842,1.742,6.484.168,9.421-1.41l21.316-11.446c3.752-2.015,7.612-4.118,10.268-7.446s3.815-8.238,1.626-11.891Zm-59.385,8.616c-.163,1.343-1.337,2.463-1.613,3.839-.215,1.068.311,2.734-.975,3.307a2.8,2.8,0,0,1-1.764-.059,6.92,6.92,0,0,0-4,.042c-2.615.987-3.661,4.085-4.158,6.835s-.924,5.823-3.094,7.584c-1.468,1.192-3.436,1.51-5.306,1.788l-8.959,1.327c-2.389.354-4.782.709-7.19.908a10.848,10.848,0,0,1-4.978-.442,4.235,4.235,0,0,1-2.817-3.8c.094-2.4,2.735-3.875,3.642-6.1.709-1.742.275-3.73.582-5.586a8.166,8.166,0,0,1,6.783-6.362,10.964,10.964,0,0,1,9.062,3.127c1.39,1.335,2.9,3.133,4.791,2.783,1.417-.261,2.3-1.648,2.968-2.926a4.036,4.036,0,0,1,1.162-1.567,3.923,3.923,0,0,1,2.384-.424c2.2.077,6.8,1.093,8.343-1.036,1.269-1.755-.244-3.5,2.18-4.8C310.438,818.49,311.945,818.83,311.687,820.969Z" transform="translate(-249.509 -801.939)" fill="#d4ef62"/>
              </g>
              <path id="Trazado_131261" data-name="Trazado 131261" d="M225.879,901.73a2.664,2.664,0,0,0,1.146,1.978c2.518,2.323,5.338,4.776,8.759,4.94,2.409.115,4.924-.935,7.168-.052,2.749,1.081,3.684,4.439,5.63,6.663a8.559,8.559,0,0,0,6.69,2.869c.248-.01.545-.067.631-.3a.642.642,0,0,0-.018-.377c-1.413-5.3-8.255-7.841-9.436-13.2a2.588,2.588,0,0,0-.485-1.273,2.083,2.083,0,0,0-1-.49,24.175,24.175,0,0,0-5.636-.832,4.039,4.039,0,0,1-2.012-.38c-1.875-1.138-.689-4-1.072-5.734-.411-1.862-.741-4.819-2.836-4.831-2.362-.014-4.782,2.061-4.444,3.7.66,3.207-.466,3.594-2.538,6.176A2.184,2.184,0,0,0,225.879,901.73Z" transform="translate(-187.492 -794.519)" fill="#afd84c"/>
            </g>
          </g>
          <g id="Grupo_61491" data-name="Grupo 61491" transform="translate(409.167 107.996)">
            <g id="Grupo_61478" data-name="Grupo 61478" transform="translate(0)">
              <g id="Grupo_61476" data-name="Grupo 61476">
                <path id="Trazado_131262" data-name="Trazado 131262" d="M297.326,1092.509s23.634-83.557-40.293-135.066-75.948-84.2-84.024-113.366c-17.829,41.268-20.721,117.626,8.01,172.817S297.326,1092.509,297.326,1092.509Z" transform="translate(-159.5 -844.078)" fill="#779609"/>
              </g>
              <path id="Trazado_131263" data-name="Trazado 131263" d="M181.127,903.8s.544-35.07,36.965-52.137c-5.185,19.743-1.857,33.639,34.23,66.859s63.665,60.2,52.394,149.988C243.523,1057.606,181.127,903.8,181.127,903.8Z" transform="translate(-157.692 -843.444)" fill="#99a86a" style="mix-blend-mode: multiply;isolation: isolate"/>
              <g id="Grupo_61477" data-name="Grupo 61477" transform="translate(9.168)">
                <path id="Trazado_131264" data-name="Trazado 131264" d="M296.618,1092.509s23.634-83.557-40.293-135.066-75.948-84.2-84.024-113.366c-10.244,50.53-3.152,102.569,29.848,155.318C238.282,1057.149,296.618,1092.509,296.618,1092.509Z" transform="translate(-167.961 -844.078)" fill="#88b216"/>
              </g>
            </g>
            <g id="Grupo_61490" data-name="Grupo 61490" transform="translate(0.736 18.957)">
              <g id="Grupo_61479" data-name="Grupo 61479" transform="translate(8.221)">
                <path id="Trazado_131265" data-name="Trazado 131265" d="M300.905,1093.433c-5.2-2.723-10.221-5.8-15.134-9.023s-9.739-6.595-14.46-10.107a318.028,318.028,0,0,1-26.937-22.826,290.784,290.784,0,0,1-24.113-25.852,281.048,281.048,0,0,1-20.68-28.711,230.4,230.4,0,0,1-16.5-31.332,186.83,186.83,0,0,1-10.848-33.711,199.685,199.685,0,0,1-4.361-35.079,255.18,255.18,0,0,1,1.445-35.22,289.73,289.73,0,0,0,.154,35.138,199.03,199.03,0,0,0,5.209,34.595c5.5,22.68,15.223,44.163,27.656,63.888A304.6,304.6,0,0,0,246.1,1049.7a323.655,323.655,0,0,0,26.175,23.359A269.886,269.886,0,0,0,300.905,1093.433Z" transform="translate(-167.766 -861.573)" fill="#aad11c"/>
              </g>
              <g id="Grupo_61489" data-name="Grupo 61489" transform="translate(0 25.019)">
                <g id="Grupo_61480" data-name="Grupo 61480" transform="translate(113.002 99.691)">
                  <path id="Trazado_131266" data-name="Trazado 131266" d="M265.007,1065.6a.518.518,0,0,1-.176-.029.542.542,0,0,1-.338-.688c10.8-31.568,2.177-87.039,2.089-87.6a.541.541,0,1,1,1.069-.169c.089.559,8.75,56.294-2.133,88.117A.542.542,0,0,1,265.007,1065.6Z" transform="translate(-264.464 -976.664)" fill="#aad11c"/>
                </g>
                <g id="Grupo_61481" data-name="Grupo 61481" transform="translate(78.173 65.74)">
                  <path id="Trazado_131267" data-name="Trazado 131267" d="M232.864,1037.135a.542.542,0,0,1-.492-.769c17.043-36.919,7.555-89.866,7.456-90.4a.542.542,0,0,1,1.066-.2c.1.535,9.647,53.818-7.537,91.048A.543.543,0,0,1,232.864,1037.135Z" transform="translate(-232.322 -945.331)" fill="#aad11c"/>
                </g>
                <g id="Grupo_61482" data-name="Grupo 61482" transform="translate(47.466 46.004)">
                  <path id="Trazado_131268" data-name="Trazado 131268" d="M204.525,1001.21a.542.542,0,0,1-.451-.841c17.888-26.927,11.913-72.182,11.851-72.636a.541.541,0,1,1,1.073-.147c.064.457,6.091,46.12-12.021,73.383A.54.54,0,0,1,204.525,1001.21Z" transform="translate(-203.983 -927.118)" fill="#aad11c"/>
                </g>
                <g id="Grupo_61483" data-name="Grupo 61483" transform="translate(23.243 25.285)">
                  <path id="Trazado_131269" data-name="Trazado 131269" d="M182.17,958.136a.535.535,0,0,1-.339-.12.541.541,0,0,1-.081-.762c15.9-19.713,16.544-48.436,16.548-48.723a.543.543,0,0,1,.542-.533h.01a.54.54,0,0,1,.532.55c0,.292-.653,29.379-16.789,49.385A.541.541,0,0,1,182.17,958.136Z" transform="translate(-181.629 -907.997)" fill="#aad11c"/>
                </g>
                <g id="Grupo_61484" data-name="Grupo 61484" transform="translate(12.23)">
                  <path id="Trazado_131270" data-name="Trazado 131270" d="M172.007,928.378a.533.533,0,0,1-.3-.094.541.541,0,0,1-.144-.752c14.65-21.6,11.734-42.041,11.7-42.245a.542.542,0,1,1,1.071-.164c.031.208,3.009,21.07-11.877,43.016A.541.541,0,0,1,172.007,928.378Z" transform="translate(-171.466 -884.662)" fill="#aad11c"/>
                </g>
                <g id="Grupo_61485" data-name="Grupo 61485" transform="translate(0 23.84)">
                  <path id="Trazado_131271" data-name="Trazado 131271" d="M175.346,933.72a.529.529,0,0,1-.285-.082c-.148-.091-14.827-9.382-14.882-26.431a.542.542,0,0,1,.541-.544h0a.542.542,0,0,1,.542.541c.053,16.454,14.226,25.425,14.369,25.514a.542.542,0,0,1-.286,1Z" transform="translate(-160.179 -906.663)" fill="#aad11c"/>
                </g>
                <g id="Grupo_61486" data-name="Grupo 61486" transform="translate(1.801 70.503)">
                  <path id="Trazado_131272" data-name="Trazado 131272" d="M189.874,969.343c-2.515,0-17.331-.8-27.958-18.8a.542.542,0,1,1,.933-.55c11.234,19.03,27.162,18.269,27.325,18.26a.533.533,0,0,1,.574.507.54.54,0,0,1-.5.574C190.23,969.337,190.1,969.343,189.874,969.343Z" transform="translate(-161.842 -949.727)" fill="#aad11c"/>
                </g>
                <g id="Grupo_61487" data-name="Grupo 61487" transform="translate(15.714 117.134)">
                  <path id="Trazado_131273" data-name="Trazado 131273" d="M207.457,1007.544c-7.44,0-19.529-2.256-32.594-13.835a.542.542,0,0,1,.718-.811c20.808,18.442,38.96,12.754,39.14,12.7a.542.542,0,0,1,.34,1.028A27.16,27.16,0,0,1,207.457,1007.544Z" transform="translate(-174.681 -992.761)" fill="#aad11c"/>
                </g>
                <g id="Grupo_61488" data-name="Grupo 61488" transform="translate(45.302 158.261)">
                  <path id="Trazado_131274" data-name="Trazado 131274" d="M228.578,1038.353c-7.315,0-16.088-1.49-26.293-6.611a.542.542,0,0,1,.487-.969c21.492,10.785,39.188,4.781,39.372,4.719a.542.542,0,1,1,.351,1.025A47.817,47.817,0,0,1,228.578,1038.353Z" transform="translate(-201.987 -1030.716)" fill="#aad11c"/>
                </g>
              </g>
            </g>
          </g>
          <path id="Trazado_131275" data-name="Trazado 131275" d="M464.593,1014.537c-10.256,4.808-25.276,8.437-31.663,6.813q-1.6-.406-3.163-.7c-8.338-1.548-15.487,2.681-20.043,7.9a26.839,26.839,0,0,0-2.6,3.521c-.167-.142-.334-.288-.5-.427-3.528-2.951-6.883-5.175-9.8-5.928-9.611-2.486-20.441,2.564-25.67,10.863-4.357-4.223-8.132-5.26-12.034-4.61-3.763.627-14.493,5.139-21.679,11.493-4.944-6.961-17.347-10.733-21.9-11.493-3.9-.65-7.676.387-12.033,4.61-5.229-8.3-16.06-13.349-25.67-10.863-2.915.753-6.27,2.978-9.8,5.928-.166.139-.334.285-.5.427a26.839,26.839,0,0,0-2.6-3.521,25.774,25.774,0,0,0-7.351-5.879,21.655,21.655,0,0,0-2.549-1.135,18.975,18.975,0,0,0-10.143-.884q-1.564.291-3.163.7c-6.388,1.624-21.489,4.159-27.992,1.5-29.873-12.19-36.349-27.5-42.6-38.126a113.09,113.09,0,0,0,42.935,58.172c38.154,26.787,74.591,50.787,123.258,50.787A162.376,162.376,0,0,0,490.446,985.348C485.5,995.6,477.311,1008.577,464.593,1014.537Z" transform="translate(250.641 -724.326)" fill="#b8c693" style="mix-blend-mode: multiply;isolation: isolate"/>
          <g id="Grupo_61518" data-name="Grupo 61518" transform="translate(426.397 301.719)">
            <g id="Grupo_61504" data-name="Grupo 61504" transform="translate(0)">
              <g id="Grupo_61493" data-name="Grupo 61493" transform="translate(118.006 49.383)">
                <path id="Trazado_131276" data-name="Trazado 131276" d="M284.3,1095.138s21.379,13.022,31.386,6.036,11.263-18.662,11.349-23.9-10.4-10.918-15.876-8.08S284.3,1095.138,284.3,1095.138Z" transform="translate(-284.303 -1068.432)" fill="#eaa66e"/>
                <path id="Trazado_131277" data-name="Trazado 131277" d="M306.16,1089.263c2.86-6.433,7.147-16.321,12.508-14.3,3.523,1.331,6.38,5.07,7.931,7.484a38.592,38.592,0,0,0,.44-5.182c.087-5.242-10.4-10.918-15.876-8.08s-26.86,25.95-26.86,25.95a74.5,74.5,0,0,0,10.755,5.195C301.826,1099.606,303.718,1094.757,306.16,1089.263Z" transform="translate(-284.303 -1068.432)" fill="#efb686"/>
                <g id="Grupo_61492" data-name="Grupo 61492" transform="translate(20.885 5.621)">
                  <path id="Trazado_131278" data-name="Trazado 131278" d="M311.577,1073.619a17.234,17.234,0,0,0,8.981,3.641,1.323,1.323,0,0,1,1.167,1.651c-1.934,7.413-4.56,9.668-6.455,10.671-2.025,1.073-13.042-1.384-11.555-7.982A10.868,10.868,0,0,1,311.577,1073.619Z" transform="translate(-303.577 -1073.619)" fill="#f9c39b"/>
                  <path id="Trazado_131279" data-name="Trazado 131279" d="M304.474,1084.772c1.887,2.62,6.1,3.958,8.746,4.121A7.546,7.546,0,0,0,304.474,1084.772Z" transform="translate(-303.502 -1072.705)" fill="#ffdcc5"/>
                </g>
              </g>
              <g id="Grupo_61503" data-name="Grupo 61503">
                <g id="Grupo_61496" data-name="Grupo 61496" transform="translate(90.108 11.461)">
                  <g id="Grupo_61495" data-name="Grupo 61495">
                    <g id="Grupo_61494" data-name="Grupo 61494">
                      <path id="Trazado_131280" data-name="Trazado 131280" d="M258.557,1094.728s7.5,15.725,27.519,6.433,36.81-29.663,42.171-43.244-13.581-23.23-20.014-24.3-12.508,2.382-21.443,17.273S258.557,1094.728,258.557,1094.728Z" transform="translate(-258.557 -1033.436)" fill="#eaa66e"/>
                    </g>
                    <path id="Trazado_131281" data-name="Trazado 131281" d="M308.233,1033.616c-6.432-1.073-12.508,2.382-21.442,17.273s-28.234,43.839-28.234,43.839,2.163,13.393,21.705-2.421c11.719-9.482,16.016-22.337,22.271-35.56s15.367-9.292,21.264-3.422a10.885,10.885,0,0,1,3.142,7.549c.485-1.012.931-2,1.307-2.957C333.607,1044.337,314.666,1034.688,308.233,1033.616Z" transform="translate(-258.557 -1033.436)" fill="#efb686"/>
                    <path id="Trazado_131282" data-name="Trazado 131282" d="M296.693,1071.761s.178,3.813,9.227,5.792c3.437.859,10.643-3.075,17.644-17.527a1.376,1.376,0,0,0-.9-1.954c-3.9-.871-10.906-4.524-13.721-7.287a1.915,1.915,0,0,0-2.83.14C301.183,1056.927,294.875,1068.07,296.693,1071.761Z" transform="translate(-255.396 -1032.032)" fill="#f9c39b"/>
                    <path id="Trazado_131283" data-name="Trazado 131283" d="M296.693,1071.761s.178,3.813,9.227,5.792c3.437.859,10.643-3.075,17.644-17.527a1.376,1.376,0,0,0-.9-1.954c-3.9-.871-10.906-4.524-13.721-7.287a1.915,1.915,0,0,0-2.83.14C301.183,1056.927,294.875,1068.07,296.693,1071.761Z" transform="translate(-255.396 -1032.032)" fill="#f9c39b"/>
                    <path id="Trazado_131284" data-name="Trazado 131284" d="M297.233,1071.431c.9,1.291,3.11,3.169,8.615,4.373a4.85,4.85,0,0,0,2.246-.055C305.975,1071.571,301.683,1070.576,297.233,1071.431Z" transform="translate(-255.324 -1030.283)" fill="#ffdcc5"/>
                  </g>
                </g>
                <g id="Grupo_61499" data-name="Grupo 61499" transform="translate(43.445 4.751)">
                  <g id="Grupo_61498" data-name="Grupo 61498">
                    <g id="Grupo_61497" data-name="Grupo 61497">
                      <path id="Trazado_131285" data-name="Trazado 131285" d="M218.2,1075.768s-10.543,19.12,10.006,33.058,45.746-15.367,54.5-25.374,22.873-33.237,18.227-42.707-16.439-15.546-26.8-12.865-26.291,23.945-35.751,30.377S218.2,1075.768,218.2,1075.768Z" transform="translate(-215.494 -1027.243)" fill="#eaa66e"/>
                    </g>
                    <path id="Trazado_131286" data-name="Trazado 131286" d="M274.129,1027.879c-10.365,2.68-26.291,23.944-35.751,30.377s-20.18,17.512-20.18,17.512a26.212,26.212,0,0,0-2.574,14.018c.263.188.511.379.787.566,20.549,13.938,43.46-19.132,50.113-30.645,4.8-8.3,10.057-15.652,13.474-21.425,1.578-2.668,15.967.971,21.064,12.6,1-4.026,1.123-7.584-.13-10.138C296.286,1031.274,284.493,1025.2,274.129,1027.879Z" transform="translate(-215.494 -1027.243)" fill="#efb686"/>
                    <path id="Trazado_131287" data-name="Trazado 131287" d="M266.565,1061.209s1.192,8.093,13.3,9.54c4.895,0,8.577-4.173,14.875-18.386a1.4,1.4,0,0,0-.684-1.845c-3.487-1.616-11.95-6.17-15.4-9.226a2.28,2.28,0,0,0-3.309.289C270.789,1047.427,264.937,1057.745,266.565,1061.209Z" transform="translate(-211.249 -1026.117)" fill="#f9c39b"/>
                    <path id="Trazado_131288" data-name="Trazado 131288" d="M267.018,1061.113c1.016,2.389,4,6.711,12.321,7.855C276.077,1064.816,271.594,1061.576,267.018,1061.113Z" transform="translate(-211.188 -1024.412)" fill="#ffdcc5"/>
                  </g>
                </g>
                <g id="Grupo_61502" data-name="Grupo 61502">
                  <g id="Grupo_61501" data-name="Grupo 61501">
                    <g id="Grupo_61500" data-name="Grupo 61500">
                      <path id="Trazado_131289" data-name="Trazado 131289" d="M175.572,1045.4s-3.223,22.56,18.22,33.885,46.221-7.5,55.513-14.169,15.722-15.4,19.773-20.21-7.86-24.821-24.538-21.724-36.687,16.683-45.031,20.729S175.572,1045.4,175.572,1045.4Z" transform="translate(-175.4 -1022.858)" fill="#eaa66e"/>
                    </g>
                    <path id="Trazado_131290" data-name="Trazado 131290" d="M244.528,1023.182c-16.679,3.1-36.687,16.683-45.031,20.729s-23.939,1.489-23.939,1.489,9.363,20.988,26.042,14.555a257.162,257.162,0,0,0,40.115-20.252c13.723-8.71,24.416,0,26.332,6.43.353-.429.7-.844,1.017-1.227C273.118,1040.1,261.206,1020.085,244.528,1023.182Z" transform="translate(-175.387 -1022.858)" fill="#efb686"/>
                    <path id="Trazado_131291" data-name="Trazado 131291" d="M253.031,1037.844a74.656,74.656,0,0,0,7.31,8.063,1.638,1.638,0,0,1,.132,2.308c-9.281,10.424-10.758,14.668-19.587,12.98-9.173-1.753-8.7-12.117-5.122-15.572,2.527-2.442,9.232-6.454,12.943-8.593A3.369,3.369,0,0,1,253.031,1037.844Z" transform="translate(-170.554 -1021.712)" fill="#f9c39b"/>
                    <path id="Trazado_131292" data-name="Trazado 131292" d="M233.44,1051.924a8.576,8.576,0,0,0,7.018,7.877C239.55,1056.122,238.125,1053.039,233.44,1051.924Z" transform="translate(-170.549 -1020.429)" fill="#ffdcc5"/>
                  </g>
                </g>
              </g>
            </g>
            <g id="Grupo_61517" data-name="Grupo 61517" transform="translate(162.41)">
              <g id="Grupo_61506" data-name="Grupo 61506" transform="translate(0 49.383)">
                <path id="Trazado_131293" data-name="Trazado 131293" d="M368.019,1095.138s-21.38,13.022-31.386,6.036-11.263-18.662-11.349-23.9,10.4-10.918,15.876-8.08S368.019,1095.138,368.019,1095.138Z" transform="translate(-325.282 -1068.432)" fill="#eaa66e"/>
                <path id="Trazado_131294" data-name="Trazado 131294" d="M346.162,1089.263c-2.86-6.433-7.147-16.321-12.508-14.3-3.523,1.331-6.38,5.07-7.931,7.484a38.6,38.6,0,0,1-.44-5.182c-.087-5.242,10.4-10.918,15.876-8.08s26.86,25.95,26.86,25.95a74.5,74.5,0,0,1-10.755,5.195C350.495,1099.606,348.6,1094.757,346.162,1089.263Z" transform="translate(-325.282 -1068.432)" fill="#efb686"/>
                <g id="Grupo_61505" data-name="Grupo 61505" transform="translate(3.66 5.621)">
                  <path id="Trazado_131295" data-name="Trazado 131295" d="M338.851,1073.619a17.234,17.234,0,0,1-8.981,3.641,1.323,1.323,0,0,0-1.167,1.651c1.934,7.413,4.56,9.668,6.455,10.671,2.025,1.073,13.042-1.384,11.555-7.982A10.868,10.868,0,0,0,338.851,1073.619Z" transform="translate(-328.66 -1073.619)" fill="#f9c39b"/>
                  <path id="Trazado_131296" data-name="Trazado 131296" d="M345.226,1084.772c-1.887,2.62-6.1,3.958-8.746,4.121A7.546,7.546,0,0,1,345.226,1084.772Z" transform="translate(-328.006 -1072.705)" fill="#ffdcc5"/>
                </g>
              </g>
              <g id="Grupo_61516" data-name="Grupo 61516" transform="translate(0)">
                <g id="Grupo_61509" data-name="Grupo 61509" transform="translate(0 11.461)">
                  <g id="Grupo_61508" data-name="Grupo 61508">
                    <g id="Grupo_61507" data-name="Grupo 61507">
                      <path id="Trazado_131297" data-name="Trazado 131297" d="M395.917,1094.728s-7.5,15.725-27.519,6.433-36.81-29.663-42.171-43.244,13.581-23.23,20.013-24.3,12.509,2.382,21.443,17.273S395.917,1094.728,395.917,1094.728Z" transform="translate(-325.283 -1033.436)" fill="#eaa66e"/>
                    </g>
                    <path id="Trazado_131298" data-name="Trazado 131298" d="M346.24,1033.616c6.433-1.073,12.509,2.382,21.443,17.273s28.234,43.839,28.234,43.839-2.163,13.393-21.705-2.421c-11.719-9.482-16.016-22.337-22.271-35.56s-15.367-9.292-21.264-3.422a10.885,10.885,0,0,0-3.142,7.549c-.485-1.012-.931-2-1.307-2.957C320.865,1044.337,339.807,1034.688,346.24,1033.616Z" transform="translate(-325.283 -1033.436)" fill="#efb686"/>
                    <path id="Trazado_131299" data-name="Trazado 131299" d="M354.441,1071.761s-.179,3.813-9.227,5.792c-3.437.859-10.643-3.075-17.644-17.527a1.376,1.376,0,0,1,.9-1.954c3.9-.871,10.906-4.524,13.721-7.287a1.915,1.915,0,0,1,2.83.14C349.95,1056.927,356.258,1068.07,354.441,1071.761Z" transform="translate(-325.104 -1032.032)" fill="#f9c39b"/>
                    <path id="Trazado_131300" data-name="Trazado 131300" d="M354.441,1071.761s-.179,3.813-9.227,5.792c-3.437.859-10.643-3.075-17.644-17.527a1.376,1.376,0,0,1,.9-1.954c3.9-.871,10.906-4.524,13.721-7.287a1.915,1.915,0,0,1,2.83.14C349.95,1056.927,356.258,1068.07,354.441,1071.761Z" transform="translate(-325.104 -1032.032)" fill="#f9c39b"/>
                    <path id="Trazado_131301" data-name="Trazado 131301" d="M352.63,1071.431c-.9,1.291-3.11,3.169-8.614,4.373a4.85,4.85,0,0,1-2.246-.055C343.887,1071.571,348.18,1070.576,352.63,1071.431Z" transform="translate(-323.905 -1030.283)" fill="#ffdcc5"/>
                  </g>
                </g>
                <g id="Grupo_61512" data-name="Grupo 61512" transform="translate(30.942 4.751)">
                  <g id="Grupo_61511" data-name="Grupo 61511">
                    <g id="Grupo_61510" data-name="Grupo 61510">
                      <path id="Trazado_131302" data-name="Trazado 131302" d="M437.488,1075.768s10.543,19.12-10.006,33.058-45.746-15.367-54.5-25.374-22.873-33.237-18.227-42.707,16.439-15.546,26.8-12.865,26.291,23.945,35.751,30.377S437.488,1075.768,437.488,1075.768Z" transform="translate(-353.838 -1027.243)" fill="#eaa66e"/>
                    </g>
                    <path id="Trazado_131303" data-name="Trazado 131303" d="M381.557,1027.879c10.364,2.68,26.291,23.944,35.751,30.377s20.18,17.512,20.18,17.512a26.212,26.212,0,0,1,2.573,14.018c-.264.188-.511.379-.787.566-20.549,13.938-43.46-19.132-50.113-30.645-4.8-8.3-10.057-15.652-13.474-21.425-1.579-2.668-15.968.971-21.064,12.6-1-4.026-1.123-7.584.13-10.138C359.4,1031.274,371.192,1025.2,381.557,1027.879Z" transform="translate(-353.838 -1027.243)" fill="#efb686"/>
                    <path id="Trazado_131304" data-name="Trazado 131304" d="M384.664,1061.209s-1.192,8.093-13.3,9.54c-4.895,0-8.577-4.173-14.875-18.386a1.4,1.4,0,0,1,.684-1.845c3.487-1.616,11.95-6.17,15.4-9.226a2.28,2.28,0,0,1,3.309.289C380.44,1047.427,386.293,1057.745,384.664,1061.209Z" transform="translate(-353.627 -1026.117)" fill="#f9c39b"/>
                    <path id="Trazado_131305" data-name="Trazado 131305" d="M382.958,1061.113c-1.017,2.389-4,6.711-12.323,7.855C373.9,1064.816,378.382,1061.576,382.958,1061.113Z" transform="translate(-352.434 -1024.412)" fill="#ffdcc5"/>
                  </g>
                </g>
                <g id="Grupo_61515" data-name="Grupo 61515" transform="translate(66.265)">
                  <g id="Grupo_61514" data-name="Grupo 61514">
                    <g id="Grupo_61513" data-name="Grupo 61513">
                      <path id="Trazado_131306" data-name="Trazado 131306" d="M480.74,1045.4s3.223,22.56-18.22,33.885-46.221-7.5-55.513-14.169-15.722-15.4-19.774-20.21,7.861-24.821,24.539-21.724,36.687,16.683,45.031,20.729S480.74,1045.4,480.74,1045.4Z" transform="translate(-386.437 -1022.858)" fill="#eaa66e"/>
                    </g>
                    <path id="Trazado_131307" data-name="Trazado 131307" d="M411.771,1023.182c16.679,3.1,36.687,16.683,45.031,20.729s23.939,1.489,23.939,1.489-9.363,20.988-26.042,14.555a257.114,257.114,0,0,1-40.115-20.252c-13.723-8.71-24.416,0-26.332,6.43-.353-.429-.7-.844-1.019-1.227C383.181,1040.1,395.094,1020.085,411.771,1023.182Z" transform="translate(-386.437 -1022.858)" fill="#efb686"/>
                    <path id="Trazado_131308" data-name="Trazado 131308" d="M398.116,1037.844a74.771,74.771,0,0,1-7.31,8.063,1.638,1.638,0,0,0-.132,2.308c9.281,10.424,10.757,14.668,19.587,12.98,9.173-1.753,8.7-12.117,5.122-15.572-2.527-2.442-9.232-6.454-12.943-8.593A3.369,3.369,0,0,0,398.116,1037.844Z" transform="translate(-386.117 -1021.712)" fill="#f9c39b"/>
                    <path id="Trazado_131309" data-name="Trazado 131309" d="M416.126,1051.924a8.576,8.576,0,0,1-7.018,7.877C410.016,1056.122,411.44,1053.039,416.126,1051.924Z" transform="translate(-384.542 -1020.429)" fill="#ffdcc5"/>
                  </g>
                </g>
              </g>
            </g>
          </g>
        </g>
      </g>
    </g>
  </g>
</svg>
