<svg xmlns="http://www.w3.org/2000/svg" width="154.667" height="154.667" viewBox="0 0 154.667 154.667">
  <g id="Grupo_61394" data-name="Grupo 61394" transform="translate(-473 -4346.676)">
    <g id="Grupo_61389" data-name="Grupo 61389" transform="translate(473 4346.676)">
      <path id="Trazado_105094" data-name="Trazado 105094" d="M2682.54,6466.171q3.8,0,7.58.373t7.507,1.114q3.727.739,7.362,1.843t7.146,2.557q3.51,1.453,6.861,3.244t6.51,3.9q3.158,2.111,6.1,4.521t5.623,5.1q2.687,2.687,5.1,5.623t4.521,6.1q2.111,3.157,3.9,6.509t3.245,6.861q1.454,3.509,2.557,7.145t1.844,7.362q.741,3.727,1.114,7.506t.373,7.581q0,3.8-.373,7.58t-1.114,7.508q-.742,3.726-1.844,7.361t-2.557,7.146q-1.455,3.51-3.245,6.861t-3.9,6.51q-2.111,3.158-4.521,6.1t-5.1,5.623q-2.686,2.689-5.623,5.1t-6.1,4.521q-3.159,2.111-6.51,3.9t-6.861,3.244q-3.509,1.454-7.146,2.557t-7.362,1.844q-3.725.743-7.507,1.114t-7.58.373q-3.8,0-7.58-.373t-7.507-1.114q-3.725-.741-7.362-1.844t-7.146-2.557q-3.51-1.455-6.86-3.244t-6.51-3.9q-3.159-2.109-6.1-4.521t-5.624-5.1q-2.686-2.687-5.1-5.623t-4.521-6.1q-2.111-3.16-3.9-6.51t-3.244-6.861q-1.455-3.509-2.557-7.146t-1.844-7.361q-.741-3.727-1.113-7.508t-.372-7.58q0-3.8.372-7.581t1.113-7.506q.741-3.725,1.844-7.362t2.557-7.145q1.453-3.511,3.244-6.861t3.9-6.509q2.111-3.159,4.521-6.1t5.1-5.623q2.688-2.688,5.624-5.1t6.1-4.521q3.158-2.109,6.51-3.9t6.86-3.244q3.51-1.455,7.146-2.557t7.362-1.843q3.726-.743,7.507-1.114T2682.54,6466.171Z" transform="translate(-2605.207 -6466.171)" fill="#a0a603"/>
      <circle id="Elipse_1224" data-name="Elipse 1224" cx="72.641" cy="72.641" r="72.641" transform="translate(4.693 4.693)" fill="#fff"/>
      <path id="shutterstock_1802230447" d="M66.08,0A66.08,66.08,0,1,1,0,66.08,66.08,66.08,0,0,1,66.08,0Z" transform="translate(11.253 11.253)" fill="#aaaf31"/>
    </g>
    <g id="Grupo_61391" data-name="Grupo 61391" transform="translate(516.643 4258.542)">
      <path id="Trazado_131096" data-name="Trazado 131096" d="M33.615,192.717a34.258,34.258,0,1,1,16.192-64.457,1.569,1.569,0,1,1-1.486,2.765,31.121,31.121,0,1,0,11.762,11.059,1.571,1.571,0,0,1,2.669-1.657,34.269,34.269,0,0,1-29.138,52.289Z" transform="translate(0 1.918)" fill="#fff"/>
      <path id="Trazado_131097" data-name="Trazado 131097" d="M28.247,180.175a27.084,27.084,0,1,1,27.088-27.084A27.114,27.114,0,0,1,28.247,180.175Zm0-51.03A23.946,23.946,0,1,0,52.2,153.091,23.972,23.972,0,0,0,28.247,129.145Z" transform="translate(5.368 7.287)" fill="#fff"/>
      <path id="Trazado_131098" data-name="Trazado 131098" d="M23.01,167.945A20.089,20.089,0,1,1,43.1,147.857,20.11,20.11,0,0,1,23.01,167.945Zm0-37.039a16.95,16.95,0,1,0,16.95,16.95A16.968,16.968,0,0,0,23.01,130.906Z" transform="translate(10.606 12.521)" fill="#fff"/>
      <path id="Trazado_131099" data-name="Trazado 131099" d="M17.469,154.993a12.68,12.68,0,1,1,12.68-12.68A12.695,12.695,0,0,1,17.469,154.993Zm0-22.222a9.542,9.542,0,1,0,9.546,9.542A9.552,9.552,0,0,0,17.469,132.771Z" transform="translate(16.146 18.065)" fill="#fff"/>
      <path id="Trazado_131100" data-name="Trazado 131100" d="M7.685,162.547a5.969,5.969,0,0,1-5.943-6.455l1.343-16.12a1.568,1.568,0,1,1,3.126.258L4.869,156.35a2.831,2.831,0,0,0,2.816,3.059,2.831,2.831,0,0,0,2.562-1.641l5.22-11.329a1.568,1.568,0,1,1,2.848,1.311L13.1,159.079A5.977,5.977,0,0,1,7.685,162.547Z" transform="translate(7.033 44.511)" fill="#fff"/>
      <path id="Trazado_131101" data-name="Trazado 131101" d="M20.8,162.547a5.978,5.978,0,0,1-5.414-3.468l-5.22-11.329a1.57,1.57,0,1,1,2.852-1.311l5.22,11.329a2.827,2.827,0,0,0,2.562,1.641,2.825,2.825,0,0,0,2.812-3.059l-1.339-16.12a1.568,1.568,0,1,1,3.126-.258l1.339,16.12a5.963,5.963,0,0,1-5.939,6.455Z" transform="translate(31.712 44.511)" fill="#fff"/>
      <path id="Trazado_131102" data-name="Trazado 131102" d="M66.3,146.924H.926a1.569,1.569,0,0,1,0-3.138H66.3a1.569,1.569,0,1,1,0,3.138Z" transform="translate(0 60.133)" fill="#fff"/>
      <path id="Trazado_131103" data-name="Trazado 131103" d="M9.606,153.121A1.571,1.571,0,0,1,8.5,150.44l24.546-24.546a1.57,1.57,0,1,1,2.221,2.221L10.718,152.66A1.58,1.58,0,0,1,9.606,153.121Z" transform="translate(25.805 5.588)" fill="#fff"/>
      <path id="Trazado_131104" data-name="Trazado 131104" d="M15.026,138.716a1.567,1.567,0,0,1-1.49-1.084,12.106,12.106,0,0,1,2.6-11.937l1.5-1.633a1.57,1.57,0,0,1,2.312,2.125l-1.5,1.633a8.966,8.966,0,0,0-1.923,8.839,1.57,1.57,0,0,1-1.005,1.978A1.612,1.612,0,0,1,15.026,138.716Z" transform="translate(40.378 0)" fill="#fff"/>
      <path id="Trazado_131105" data-name="Trazado 131105" d="M17.9,133.051a12.039,12.039,0,0,1-3.742-.6,1.569,1.569,0,1,1,.973-2.983,8.966,8.966,0,0,0,8.839-1.923l1.633-1.5a1.57,1.57,0,0,1,2.125,2.312l-1.633,1.5A12.1,12.1,0,0,1,17.9,133.051Z" transform="translate(40.765 6.181)" fill="#fff"/>
    </g>
  </g>
</svg>
