<svg xmlns="http://www.w3.org/2000/svg" width="712.442" height="598.029" viewBox="0 0 712.442 598.029">
  <g id="Grupo_62159" data-name="Grupo 62159" transform="translate(-434.331 -3181.267)">
    <circle id="Elipse_1214" data-name="Elipse 1214" cx="7.783" cy="7.783" r="7.783" transform="translate(434.331 3763.274)" fill="#a0a603"/>
    <circle id="Elipse_1678" data-name="Elipse 1678" cx="7.783" cy="7.783" r="7.783" transform="translate(770.325 3763.274)" fill="#a0a603"/>
    <circle id="Elipse_1679" data-name="Elipse 1679" cx="7.783" cy="7.783" r="7.783" transform="translate(1131.208 3763.274)" fill="#a0a603"/>
    <circle id="Elipse_1680" data-name="Elipse 1680" cx="7.783" cy="7.783" r="7.783" transform="translate(1065.158 3181.267)" fill="#a0a603"/>
    <circle id="Elipse_1681" data-name="Elipse 1681" cx="7.783" cy="7.783" r="7.783" transform="translate(464.006 3181.267)" fill="#a0a603"/>
    <g id="Grupo_62158" data-name="Grupo 62158">
      <g id="Grupo_61180" data-name="Grupo 61180" transform="translate(464.006 3270.996)">
        <g id="Grupo_61121" data-name="Grupo 61121" transform="translate(0 45.602)">
          <g id="Grupo_61119" data-name="Grupo 61119" transform="translate(0 42.615)">
            <path id="Trazado_130752" data-name="Trazado 130752" d="M434.92,235.342h0a18.062,18.062,0,0,1,18.062-18.062h36.681a16.956,16.956,0,0,0,16.956-16.957h0a16.955,16.955,0,0,0-16.956-16.956H260.224a30.447,30.447,0,0,0-30.447,30.447h0a30.447,30.447,0,0,1-30.447,30.447H114.717a25.75,25.75,0,0,0-25.75,25.75h0a25.749,25.749,0,0,0,25.75,25.75h33.753a14.289,14.289,0,0,1,14.289,14.289h0a14.289,14.289,0,0,1-14.289,14.288H87.7a60.119,60.119,0,0,0-60.119,60.118h0A60.118,60.118,0,0,0,87.7,444.575h497.69a95.585,95.585,0,0,0,95.585-95.585h0A95.586,95.586,0,0,0,585.391,253.4H452.983A18.062,18.062,0,0,1,434.92,235.342Z" transform="translate(-27.582 -132.273)" fill="#c6e2f7"/>
            <path id="Trazado_130753" data-name="Trazado 130753" d="M324.649,163.228H449.793a16.617,16.617,0,0,0,16.618-16.618h0a16.618,16.618,0,0,0-16.618-16.619H324.649a16.618,16.618,0,0,0-16.618,16.619h0A16.617,16.617,0,0,0,324.649,163.228Z" transform="translate(-39.571 -129.991)" fill="#c6e2f7"/>
          </g>
          <path id="Trazado_130754" data-name="Trazado 130754" d="M184.9,265.515l-1.785.222a8.606,8.606,0,0,0-1.519-2.687l0-.034,1.1-1.433a.733.733,0,0,0-.127-1.022l-2.469-1.925a.724.724,0,0,0-1.017.124l-1.229,1.43a6.208,6.208,0,0,0-3.055-.781V259.4l-.078-1.8a.666.666,0,0,0-.773-.594l-3.068.383c-.4.05-.491.351-.441.748l.232,1.784a8.755,8.755,0,0,0-2.716,1.522h-.048l-1.44-1.1a.736.736,0,0,0-1.026.127l-1.927,2.47a.724.724,0,0,0,.124,1.017l1.426,1.171a7.236,7.236,0,0,0-.786,3h-.009l-1.787.2a.56.56,0,0,0-.54.692l.387,3.1a.608.608,0,0,0,.7.6l1.785-.223a8.42,8.42,0,0,0,1.514,2.652l0,.016-1.1,1.423a.727.727,0,0,0,.126,1.019l2.469,1.923a.724.724,0,0,0,1.017-.126l1.16-1.426a9.084,9.084,0,0,0,2.986.786v.008l.246,1.782c.05.4.27.73.666.681l3.111-.387a.778.778,0,0,0,.653-.844l-.4-1.768a5.392,5.392,0,0,0,2.445-1.493v.006l1.592,1.087a.832.832,0,0,0,1.1-.135l1.964-2.473a.723.723,0,0,0-.1-1.018l-1.421-1.22a6.217,6.217,0,0,0,.792-3.045h.009l1.795-.122c.4-.049.785-.349.735-.747L185.791,266C185.742,265.6,185.3,265.465,184.9,265.515Zm-12.226,7.9c-.046-.013-.091-.028-.136-.043q-.208-.07-.406-.159c-.066-.03-.131-.061-.2-.094s-.128-.067-.191-.1l-.094-.055a4.507,4.507,0,0,1-.969-.784c-.057-.06-.113-.123-.167-.188a4.507,4.507,0,0,1,.039-5.823c.071-.082.144-.162.22-.238l.077-.077c.053-.05.105-.1.16-.146a4.459,4.459,0,0,1,.522-.393c.061-.039.123-.078.187-.114a4.519,4.519,0,0,1,3.793-.332c.068.025.136.051.2.079.1.042.2.088.3.137.065.033.128.067.191.1l.093.056c.062.036.123.076.183.116.09.059.177.124.262.19.057.044.113.09.168.137a4.367,4.367,0,0,1,.389.376c.049.053.1.107.143.163s.092.113.135.17c.066.087.128.177.188.269a4.494,4.494,0,0,1,.683,1.883,4.542,4.542,0,0,1,0,1.134c-.01.074-.021.147-.034.22-.02.108-.044.216-.071.323-.018.072-.038.142-.06.212-.014.046-.03.093-.045.138-.033.092-.066.183-.1.272q-.042.1-.089.2c-.025.053-.051.1-.078.154s-.048.09-.073.134l-.055.094c-.037.061-.077.123-.117.183-.019.03-.04.059-.06.089-.042.058-.085.117-.129.173l-.067.085c-.092.111-.188.218-.29.321-.025.026-.051.051-.077.076-.052.051-.105.1-.16.147s-.11.094-.167.139l-.086.066c-.058.044-.117.086-.177.127a4.52,4.52,0,0,1-3.683.628C172.774,273.443,172.724,273.429,172.676,273.414Z" transform="translate(-33.326 -92.806)" fill="#fff"/>
          <path id="Trazado_130755" data-name="Trazado 130755" d="M373.655,202.414v-.1c0-4.862,3.324-8.88,8.235-8.88s8.136,4.019,8.136,8.782v.1c0,4.813-3.274,8.88-8.235,8.88C376.929,211.195,373.655,207.176,373.655,202.414Zm11.956,0v-.1c0-2.778-1.587-5.06-3.82-5.06-2.331,0-3.721,2.282-3.721,4.961v.1c0,2.828,1.588,5.061,3.82,5.061C384.222,207.375,385.611,205.092,385.611,202.414Zm-6.251,23.168,22.772-31.106a1.889,1.889,0,0,1,1.687-.893,1.948,1.948,0,0,1,1.984,1.935,2.243,2.243,0,0,1-.447,1.289l-22.772,31.107a2.033,2.033,0,0,1-1.736.893,1.906,1.906,0,0,1-1.936-1.935A2.246,2.246,0,0,1,379.36,225.582Zm15.281-5.408v-.1c0-4.862,3.324-8.88,8.235-8.88,4.862,0,8.137,4.019,8.137,8.782v.1c0,4.812-3.325,8.88-8.236,8.88C397.915,228.956,394.641,224.938,394.641,220.175Zm11.956,0v-.1c0-2.778-1.588-5.06-3.82-5.06-2.332,0-3.721,2.282-3.721,4.961v.1c0,2.829,1.588,5.061,3.82,5.061C405.208,225.136,406.6,222.854,406.6,220.175Z" transform="translate(-42.377 -90.088)" fill="#fff"/>
          <path id="Trazado_130756" data-name="Trazado 130756" d="M180.781,138.845l-5.156-.764a24.97,24.97,0,0,0-2.157-8.682l.031-.093,4.193-3.146a2.122,2.122,0,0,0,.438-2.955l-5.4-7.29a2.1,2.1,0,0,0-2.935-.44l-4.54,3.04c-2.3-1.914-3.482-3.191-7.924-4.554l0-.023,1.18-5.085a1.933,1.933,0,0,0-1.7-2.259l-8.865-1.31c-1.146-.17-1.643.6-1.813,1.746l-.738,5.161a25.423,25.423,0,0,0-8.763,2.144l-.134-.036-3.166-4.2a2.135,2.135,0,0,0-2.965-.439l-7.3,5.4a2.1,2.1,0,0,0-.443,2.934l3.073,4.377a21.009,21.009,0,0,0-4.52,7.759l-.024,0-5.147-.82a1.625,1.625,0,0,0-2.045,1.516l-1.327,8.954a1.764,1.764,0,0,0,1.492,2.22l5.158.76a24.405,24.405,0,0,0,2.171,8.58l-.023.042-4.189,3.12a2.108,2.108,0,0,0-.437,2.943l5.4,7.285a2.1,2.1,0,0,0,2.935.436l4.346-3.083a26.341,26.341,0,0,0,7.73,4.51l0,.024-.7,5.169c-.17,1.146.187,2.248,1.333,2.417l8.986,1.332a2.255,2.255,0,0,0,2.48-1.851l.267-5.243c3.353-.219,6.2-.961,7.986-2.272l0,.016,3.6,4.273a2.411,2.411,0,0,0,3.182.478l7.4-5.38a2.1,2.1,0,0,0,.5-2.924l-3.02-4.506c1.915-2.3,3.2-3.449,4.575-7.888l.023,0,5.106,1.056a2.19,2.19,0,0,0,2.631-1.515l1.316-8.895C183.062,139.736,181.926,139.015,180.781,138.845Zm-40.269,12.572c-.117-.074-.233-.149-.347-.226q-.524-.356-1.009-.759-.243-.2-.474-.414t-.454-.435c-.073-.075-.146-.149-.218-.226a13.165,13.165,0,0,1-2.1-2.941c-.112-.214-.218-.433-.319-.653a13.06,13.06,0,0,1,4.628-16.231q.391-.261.8-.495c.09-.052.182-.1.274-.152q.276-.149.56-.285a12.9,12.9,0,0,1,1.759-.691c.2-.063.4-.122.611-.174a13.088,13.088,0,0,1,10.847,2.014q.257.184.5.379c.248.2.487.4.72.612q.231.213.453.436c.074.074.146.149.218.225q.215.228.419.466.307.356.587.734.187.251.361.511a13.07,13.07,0,0,1,.794,1.352c.1.187.186.375.272.567s.167.385.245.581q.172.439.314.894a13.109,13.109,0,0,1-.44,8.954c-.084.2-.172.394-.265.588-.139.289-.289.571-.448.848-.105.184-.216.365-.33.543q-.115.178-.235.351-.24.347-.5.678c-.13.165-.265.326-.4.484-.109.126-.222.249-.336.37s-.2.213-.308.317l-.225.219q-.228.215-.466.419c-.079.068-.159.135-.24.2-.161.133-.326.261-.494.386-.083.062-.168.123-.254.184-.341.24-.694.465-1.057.672-.091.053-.183.1-.275.152-.184.1-.37.2-.559.285s-.381.177-.574.258c-.1.041-.194.08-.292.119-.2.078-.393.149-.593.217a13.085,13.085,0,0,1-10.771-1.1Q140.7,151.536,140.512,151.417Z" transform="translate(-31.217 -86.319)" fill="#c6eaf7"/>
          <path id="Trazado_130757" data-name="Trazado 130757" d="M496.114,314.223l-3.558-.526a17.238,17.238,0,0,0-1.489-5.993l.021-.064,2.894-2.171a1.465,1.465,0,0,0,.3-2.04l-3.728-5.032a1.448,1.448,0,0,0-2.026-.3l-3.134,2.1a12.426,12.426,0,0,0-5.469-3.143l0-.016.814-3.509a1.333,1.333,0,0,0-1.172-1.559l-6.119-.906c-.792-.117-1.134.414-1.251,1.205l-.509,3.563a17.536,17.536,0,0,0-6.049,1.48l-.092-.026-2.185-2.9a1.473,1.473,0,0,0-2.047-.3l-5.036,3.727a1.449,1.449,0,0,0-.305,2.026l2.121,3.02a14.486,14.486,0,0,0-3.121,5.356l-.016,0-3.552-.566A1.122,1.122,0,0,0,450,308.686l-.915,6.181a1.217,1.217,0,0,0,1.03,1.532l3.56.525a16.827,16.827,0,0,0,1.5,5.922l-.016.029-2.891,2.153a1.455,1.455,0,0,0-.3,2.031l3.728,5.027a1.448,1.448,0,0,0,2.026.3l3-2.128a18.2,18.2,0,0,0,5.335,3.113l0,.016-.48,3.568c-.117.791.129,1.552.92,1.668l6.2.919a1.555,1.555,0,0,0,1.712-1.277l.185-3.619a10.793,10.793,0,0,0,5.513-1.569l0,.011,2.484,2.949a1.666,1.666,0,0,0,2.2.33l5.111-3.713a1.449,1.449,0,0,0,.343-2.019l-2.085-3.11a12.454,12.454,0,0,0,3.158-5.444l.015,0,3.525.728a1.513,1.513,0,0,0,1.817-1.046l.908-6.14C497.688,314.838,496.905,314.34,496.114,314.223ZM468.32,322.9c-.08-.051-.16-.1-.239-.156q-.362-.246-.7-.524c-.112-.093-.221-.189-.327-.285s-.212-.2-.313-.3l-.15-.156a9,9,0,0,1-.794-.964,9.253,9.253,0,0,1-.654-1.065c-.078-.148-.15-.3-.22-.451a9.014,9.014,0,0,1,3.194-11.2q.27-.181.552-.342l.189-.105c.127-.068.257-.134.387-.2a9.034,9.034,0,0,1,1.215-.478c.139-.043.279-.083.421-.121a9.036,9.036,0,0,1,7.487,1.391q.178.126.348.261.256.2.5.423c.107.1.212.2.313.3.051.052.1.1.15.156q.149.157.29.321c.141.165.277.333.4.507q.129.174.25.353a9.362,9.362,0,0,1,.548.932c.065.129.127.259.188.392s.115.265.168.4q.119.3.217.617a9.051,9.051,0,0,1-.3,6.181c-.057.137-.119.272-.183.4q-.144.3-.309.586c-.073.127-.149.252-.228.374-.053.082-.107.163-.163.242-.11.16-.225.317-.346.468-.09.114-.182.226-.278.335-.076.086-.153.171-.232.255s-.141.148-.213.219c-.051.052-.1.1-.155.151-.105.1-.212.2-.322.29-.055.047-.11.093-.166.139-.111.091-.225.18-.341.265-.058.043-.117.086-.175.127-.236.166-.48.321-.729.464l-.19.105c-.127.069-.256.134-.387.2s-.262.123-.4.178c-.067.029-.134.056-.2.082-.135.054-.272.1-.409.15a9.035,9.035,0,0,1-7.435-.762C468.5,323.008,468.407,322.955,468.32,322.9Z" transform="translate(-45.601 -94.261)" fill="#fff"/>
          <path id="Trazado_130758" data-name="Trazado 130758" d="M508.746,276.6l-2.095.26a10.082,10.082,0,0,0-1.782-3.153l0-.039,1.3-1.682a.859.859,0,0,0-.149-1.2l-2.9-2.259a.85.85,0,0,0-1.193.146l-1.442,1.678a7.29,7.29,0,0,0-3.585-.917v-.01l-.091-2.112a.783.783,0,0,0-.907-.7l-3.6.45c-.466.058-.576.412-.519.878l.272,2.094a10.32,10.32,0,0,0-3.187,1.786h-.056l-1.69-1.293a.865.865,0,0,0-1.205.15l-2.261,2.9a.85.85,0,0,0,.145,1.193l1.673,1.374a8.5,8.5,0,0,0-.922,3.518h-.01l-2.1.237a.658.658,0,0,0-.634.814l.453,3.637a.715.715,0,0,0,.823.7l2.094-.262a9.87,9.87,0,0,0,1.778,3.111l0,.019-1.3,1.671a.854.854,0,0,0,.148,1.2l2.9,2.256a.849.849,0,0,0,1.192-.148l1.362-1.673a10.673,10.673,0,0,0,3.5.921v.01l.289,2.093c.057.465.317.857.782.8l3.65-.455a.913.913,0,0,0,.767-.991l-.464-2.074a6.337,6.337,0,0,0,2.87-1.753v.007l1.868,1.277a.977.977,0,0,0,1.293-.158l2.306-2.9A.849.849,0,0,0,508,286.8l-1.667-1.43a7.3,7.3,0,0,0,.93-3.573h.01l2.107-.142c.465-.058.92-.411.862-.876l-.452-3.614C509.733,276.7,509.212,276.542,508.746,276.6Zm-14.346,9.27-.16-.051c-.163-.055-.321-.117-.477-.187-.078-.035-.154-.072-.23-.11s-.15-.079-.224-.121l-.109-.064a5.294,5.294,0,0,1-1.137-.92c-.067-.072-.132-.145-.2-.22a5.288,5.288,0,0,1,.046-6.834c.083-.1.168-.19.258-.28l.09-.089c.061-.058.124-.116.188-.171a5.247,5.247,0,0,1,.612-.46c.072-.047.145-.092.219-.134a5.3,5.3,0,0,1,4.45-.391c.08.029.16.06.238.093.118.05.233.1.346.161q.113.059.224.121l.109.065c.073.043.145.089.214.136.105.07.209.145.308.223.067.052.132.105.2.16a5.5,5.5,0,0,1,.456.441c.057.062.113.126.167.191s.107.132.158.2c.078.1.15.207.22.315a5.309,5.309,0,0,1,.8,3.541c-.01.087-.024.173-.039.258q-.034.192-.083.379c-.021.083-.044.167-.07.248-.017.055-.035.108-.054.163-.037.107-.078.213-.122.319-.033.079-.068.156-.1.233-.03.06-.06.121-.091.181s-.057.105-.086.157c-.021.036-.042.074-.064.109-.044.073-.089.145-.136.214l-.072.1c-.049.07-.1.138-.151.2-.026.034-.053.067-.079.1q-.161.2-.34.377l-.09.089c-.061.058-.123.116-.188.172s-.129.11-.2.163l-.1.078c-.068.052-.137.1-.208.149a5.3,5.3,0,0,1-4.322.737C494.514,285.9,494.457,285.888,494.4,285.871Z" transform="translate(-47 -93.217)" fill="#fff"/>
          <path id="Trazado_130759" data-name="Trazado 130759" d="M580.029,108.574s-3.535-23.352-17.294-23.1S548.6,108.323,548.6,108.323s-4.166-20.45-18.683-17.925-16.031,21.586-16.031,21.586c-11.992-5.554-14.9,7.963-14.9,7.963h94.987C592.725,108.692,580.029,108.574,580.029,108.574Z" transform="translate(-47.735 -85.473)" fill="#c6eaf7"/>
          <path id="Trazado_130760" data-name="Trazado 130760" d="M122.323,204.365s-3.535-23.352-17.294-23.1-14.139,22.848-14.139,22.848-4.165-20.449-18.682-17.924-16.031,21.586-16.031,21.586c-11.992-5.555-14.9,7.962-14.9,7.962h94.987C135.019,204.483,122.323,204.365,122.323,204.365Z" transform="translate(-28.168 -89.568)" fill="#c6eaf7"/>
          <path id="Trazado_130761" data-name="Trazado 130761" d="M598.926,189h55.039s-2.948-17.468-14.322-11.039c0,0-1.731-15.577-16.567-15.825s-12.116,17.8-12.116,17.8S598.514,177.294,598.926,189Z" transform="translate(-52.007 -88.75)" fill="#c6eaf7"/>
          <g id="Grupo_61120" data-name="Grupo 61120" transform="translate(54.254 279.8)">
            <rect id="Rectángulo_18484" data-name="Rectángulo 18484" width="8.665" height="39.208" transform="translate(7.165 8.992)" fill="#fff"/>
            <rect id="Rectángulo_18485" data-name="Rectángulo 18485" width="8.665" height="29.649" transform="translate(25.368 18.551)" fill="#fff"/>
            <rect id="Rectángulo_18486" data-name="Rectángulo 18486" width="8.665" height="48.2" transform="translate(43.571)" fill="#2e2854"/>
            <line id="Línea_647" data-name="Línea 647" x2="59.401" transform="translate(0 48.2)" fill="none" stroke="#2e2854" stroke-linecap="round" stroke-linejoin="round" stroke-width="1.2"/>
          </g>
          <path id="Trazado_130762" data-name="Trazado 130762" d="M581.48,414.673H570.607a8.326,8.326,0,1,0,0,16.652h.027v3.528a.808.808,0,0,0,1.379.571l4.1-4.1h5.366a8.326,8.326,0,0,0,0-16.652Z" transform="translate(-50.441 -99.546)" fill="#fff"/>
          <path id="Trazado_130763" data-name="Trazado 130763" d="M450.527,179.24H439.654a8.326,8.326,0,1,0,0,16.652h.028v3.528a.808.808,0,0,0,1.379.571l4.1-4.1h5.365a8.326,8.326,0,0,0,0-16.652Z" transform="translate(-44.843 -89.481)" fill="#fff"/>
          <path id="Trazado_130764" data-name="Trazado 130764" d="M120.108,351.079H109.235a8.326,8.326,0,1,0,0,16.652h.028v3.528a.808.808,0,0,0,1.379.571l4.1-4.1h5.366a8.326,8.326,0,1,0,0-16.652Z" transform="translate(-30.717 -96.828)" fill="#fff"/>
        </g>
        <g id="Grupo_61122" data-name="Grupo 61122" transform="translate(155.799 13.041)">
          <path id="Trazado_130765" data-name="Trazado 130765" d="M401.875,84.733l-2.642,4.554a3.876,3.876,0,0,1-5.424,1.438,3.973,3.973,0,0,1-1.44-5.42l4.227-7.286c.039-.068.111-.027.152-.1-.03-.112-.03-.112.01-.181a4.083,4.083,0,0,1,5.422-1.443,9.071,9.071,0,1,0,9.1-15.688,8.954,8.954,0,0,0-8.959-.049,3.991,3.991,0,0,1-5.494-1.5,3.943,3.943,0,0,1,1.533-5.38,17.018,17.018,0,1,1,3.511,31.056Zm-8.9,15.337-.731,1.261a3.877,3.877,0,0,1-5.425,1.442,3.975,3.975,0,0,1-1.438-5.424l.731-1.261a4.025,4.025,0,0,1,5.42-1.44A3.922,3.922,0,0,1,392.976,100.07Z" transform="translate(-198.654 -51.457)" fill="#2e2854"/>
          <path id="Trazado_130766" data-name="Trazado 130766" d="M210.4,102.495l1.753,3.309a2.755,2.755,0,0,1-1.174,3.814,2.826,2.826,0,0,1-3.814-1.172l-2.8-5.295c-.026-.05.026-.077,0-.129-.079-.024-.079-.024-.105-.074a2.905,2.905,0,0,1,1.172-3.816,6.451,6.451,0,1,0-6.039-11.4,6.367,6.367,0,0,0-3.4,5.387,2.84,2.84,0,0,1-2.975,2.749,2.8,2.8,0,0,1-2.67-2.951,12.1,12.1,0,1,1,20.062,9.576Zm5.9,11.145.485.916a2.757,2.757,0,0,1-1.174,3.817,2.827,2.827,0,0,1-3.814-1.175l-.485-.916a2.863,2.863,0,0,1,1.172-3.813A2.79,2.79,0,0,1,216.308,113.64Z" transform="translate(-190.339 -52.734)" fill="#2e2854"/>
          <path id="Trazado_130767" data-name="Trazado 130767" d="M412.5,126.921l-2.835,2.447a2.756,2.756,0,0,1-3.98-.294,2.826,2.826,0,0,1,.293-3.978l4.535-3.914c.042-.037.08.007.125-.031.006-.083.006-.083.048-.12a2.9,2.9,0,0,1,3.98.291,6.452,6.452,0,1,0,9.767-8.43,6.369,6.369,0,0,0-6.011-2.116,2.84,2.84,0,0,1-3.344-2.287,2.8,2.8,0,0,1,2.281-3.26,12.1,12.1,0,1,1-4.86,21.692Zm-9.549,8.241-.785.678a2.756,2.756,0,0,1-3.981-.293,2.826,2.826,0,0,1,.294-3.98l.785-.677a2.863,2.863,0,0,1,3.978.292A2.79,2.79,0,0,1,402.952,135.162Z" transform="translate(-199.196 -53.747)" fill="#2e2854"/>
        </g>
        <g id="Grupo_61178" data-name="Grupo 61178" transform="translate(137.487 26.463)">
          <g id="Grupo_61144" data-name="Grupo 61144">
            <g id="Grupo_61123" data-name="Grupo 61123" transform="translate(37.46 165.389)">
              <path id="Trazado_130768" data-name="Trazado 130768" d="M227.4,254.818c35.63-20.006,80.029-16.291,80.029-16.291s43.566-2.481,73.647,13.725l18.212,51.577L383.908,395.9l.572,51.017H229.23V398.3l-18.888-90.417Z" transform="translate(-210.342 -238.255)" fill="#fccb6c"/>
              <path id="Trazado_130769" data-name="Trazado 130769" d="M288.26,409.712c15.977-34.335,16.229-49.744,16.229-49.744l-74.416,44.25v47.907h18.288A94.446,94.446,0,0,0,288.26,409.712Z" transform="translate(-211.186 -243.458)" fill="#ebb959"/>
              <line id="Línea_648" data-name="Línea 648" x2="0.573" y2="51.018" transform="translate(173.566 157.65)" fill="none" stroke="#2e2854" stroke-linecap="round" stroke-linejoin="round" stroke-width="1.2"/>
            </g>
            <g id="Grupo_61132" data-name="Grupo 61132" transform="translate(56.402)">
              <g id="Grupo_61124" data-name="Grupo 61124" transform="translate(63.611 142.05)">
                <path id="Trazado_130770" data-name="Trazado 130770" d="M297.561,213.873l-.979,28.613,29.223-.542-2.612-28.07Z" transform="translate(-296.582 -213.873)" fill="#ff98aa"/>
                <path id="Trazado_130771" data-name="Trazado 130771" d="M324.145,223.8l-.924-9.928H297.59l-.337,9.836C303.062,224.744,312.068,225.449,324.145,223.8Z" transform="translate(-296.61 -213.873)" fill="#ff8095"/>
              </g>
              <g id="Grupo_61130" data-name="Grupo 61130">
                <g id="Grupo_61125" data-name="Grupo 61125" transform="translate(12.246)">
                  <path id="Trazado_130772" data-name="Trazado 130772" d="M246.574,147.718s-14.657-44.948,14.767-52.75c0,0-1.352-19.217,24.6-26.756s40.775,2.25,50.636,8.487,25.933,12.328,28.517,24.793a37.711,37.711,0,0,1-.339,15.6s7.717,11.128-.384,25.169l-67.353,24.328-46.5-8.649Z" transform="translate(-242.923 -65.479)" fill="#2e2854"/>
                  <path id="Trazado_130773" data-name="Trazado 130773" d="M297.1,105.5s-17.575,1.537-35.9-9.84" transform="translate(-243.704 -66.769)" fill="none" stroke="#fff" stroke-linecap="round" stroke-linejoin="round" stroke-width="1.2"/>
                  <path id="Trazado_130774" data-name="Trazado 130774" d="M328.767,110.125s-1.521,8.048-7.922,11.245" transform="translate(-246.254 -67.387)" fill="none" stroke="#ff98aa" stroke-linecap="round" stroke-linejoin="round" stroke-width="1.2"/>
                  <path id="Trazado_130775" data-name="Trazado 130775" d="M371.1,118.354s-1.9,5.465-4.058,7.266" transform="translate(-248.229 -67.739)" fill="none" stroke="#fff" stroke-linecap="round" stroke-linejoin="round" stroke-width="1.2"/>
                </g>
                <path id="Trazado_130776" data-name="Trazado 130776" d="M256.029,148.307s1.7,8.385,4.237,8.355c3.1-.034,8.584-14.312,7.539-27.914,0,0,3.549,2.9,6.426,1.258s.145-11.745,11.621-14.418,18.383,6.707,29.747,5.435a38.513,38.513,0,0,0,19.2-8.09s5.387,18.828,24,18.178c0,0,21.633,79.291-42.29,82.675S256.029,148.307,256.029,148.307Z" transform="translate(-231.236 -67.507)" fill="#ff98aa"/>
                <g id="Grupo_61127" data-name="Grupo 61127" transform="translate(0 78.616)">
                  <path id="Trazado_130777" data-name="Trazado 130777" d="M255.375,149.556s-18.9-8.578-24.392,10.244c-5.688,19.5,18.4,35.367,33.067,19.607C264.05,179.407,257.478,171.211,255.375,149.556Z" transform="translate(-230.13 -147.605)" fill="#ff98aa"/>
                  <g id="Grupo_61126" data-name="Grupo 61126" transform="translate(5.77 9.932)">
                    <path id="Trazado_130778" data-name="Trazado 130778" d="M236.158,167.068s1.634-9.42,12.818-9.078" transform="translate(-236.158 -157.981)" fill="none" stroke="#2e2854" stroke-linecap="round" stroke-linejoin="round" stroke-width="1.2"/>
                    <path id="Trazado_130779" data-name="Trazado 130779" d="M247.976,171.1s-6.337-3.752-6.653-11.108" transform="translate(-236.379 -158.068)" fill="none" stroke="#2e2854" stroke-linecap="round" stroke-linejoin="round" stroke-width="1.2"/>
                  </g>
                </g>
                <path id="Trazado_130780" data-name="Trazado 130780" d="M362.044,142.585s10.836-9.664,17.469,2.93-2.884,31-15.119,28Z" transform="translate(-235.77 -68.624)" fill="#ff98aa"/>
                <g id="Grupo_61128" data-name="Grupo 61128" transform="translate(51.375 45.426)">
                  <path id="Trazado_130781" data-name="Trazado 130781" d="M322.413,152.617a32,32,0,0,1,6.924,8.97l-5.261,2.139" transform="translate(-285.451 -114.63)" fill="none" stroke="#2e2854" stroke-linecap="round" stroke-linejoin="round" stroke-width="1.2"/>
                  <path id="Trazado_130782" data-name="Trazado 130782" d="M283.8,150.894s5.223-13.672,23.9-13.851" transform="translate(-283.8 -113.964)" fill="none" stroke="#2e2854" stroke-linecap="round" stroke-linejoin="round" stroke-width="1.2"/>
                  <path id="Trazado_130783" data-name="Trazado 130783" d="M338.281,112.933a14.13,14.13,0,0,0,1.953,12.848" transform="translate(-286.097 -112.933)" fill="none" stroke="#2e2854" stroke-linecap="round" stroke-linejoin="round" stroke-width="1.2"/>
                  <path id="Trazado_130784" data-name="Trazado 130784" d="M302.016,154.558a1.689,1.689,0,1,1-1.809-1.848A1.842,1.842,0,0,1,302.016,154.558Z" transform="translate(-284.437 -114.633)" fill="#2e2854"/>
                  <path id="Trazado_130785" data-name="Trazado 130785" d="M350.276,154.558a1.689,1.689,0,1,1-1.809-1.848A1.842,1.842,0,0,1,350.276,154.558Z" transform="translate(-286.5 -114.633)" fill="#2e2854"/>
                  <path id="Trazado_130786" data-name="Trazado 130786" d="M333.018,146.554s12.148-4.426,21.948.21" transform="translate(-285.904 -114.289)" fill="none" stroke="#2e2854" stroke-linecap="round" stroke-linejoin="round" stroke-width="1.2"/>
                  <path id="Trazado_130787" data-name="Trazado 130787" d="M303.709,171.855a39.149,39.149,0,0,1,16.091,3.334" transform="translate(-284.651 -115.452)" fill="none" stroke="#2e2854" stroke-linecap="round" stroke-linejoin="round" stroke-width="1.2"/>
                </g>
                <g id="Grupo_61129" data-name="Grupo 61129" transform="translate(37.622 111.284)">
                  <path id="Trazado_130788" data-name="Trazado 130788" d="M363.192,184.978a10.281,10.281,0,1,0-9.107,17.189A45.97,45.97,0,0,0,363.192,184.978Z" transform="translate(-272.68 -181.733)" fill="#ff8095"/>
                  <path id="Trazado_130789" data-name="Trazado 130789" d="M269.432,197.162a47.03,47.03,0,0,0,11.061,10.885,10.284,10.284,0,1,0-11.061-10.885Z" transform="translate(-269.432 -181.98)" fill="#ff8095"/>
                </g>
              </g>
              <g id="Grupo_61131" data-name="Grupo 61131" transform="translate(47.926 155.557)">
                <path id="Trazado_130790" data-name="Trazado 130790" d="M296.36,229.13l14.691,13.726L301.268,263.6,280.2,239.177Z" transform="translate(-280.196 -228.032)" fill="#fff"/>
                <path id="Trazado_130791" data-name="Trazado 130791" d="M325.126,227.983l-12.7,14.825,12.689,20.748,17.9-24.051Z" transform="translate(-281.574 -227.983)" fill="#fff"/>
              </g>
            </g>
            <g id="Grupo_61138" data-name="Grupo 61138" transform="translate(204.462 179.387)">
              <g id="Grupo_61136" data-name="Grupo 61136" transform="translate(151.129 12.963)">
                <path id="Trazado_130792" data-name="Trazado 130792" d="M542.68,302.232l22.312,21.876s16.38-4.244,23.809-26.882c0,0-3.021-10.244-16.19-14.863l-15.128,5.068Z" transform="translate(-542.68 -267.1)" fill="#ff98aa"/>
                <g id="Grupo_61134" data-name="Grupo 61134" transform="translate(25.313)">
                  <path id="Trazado_130793" data-name="Trazado 130793" d="M576.336,285.133s-2.693,4.324-6.059,1.869,1.547-8.858,3.186-11.582,7.531-10.448,10.988-8.764.934,6.318.934,6.318,3.958-2.53,6.725-.557-1.881,9.6-1.881,9.6,2.505-1.786,4.325.268c2.279,2.573-2.108,8.051-2.108,8.051s4.7-1.5,3.157,3.869-6.773,9.264-8.674,7.97.1-4.961.1-4.961-2.952,4.087-5.206,2.3-.549-7.135-.549-7.135-2.837,2.088-4.87.161C574.347,290.591,576.336,285.133,576.336,285.133Z" transform="translate(-569.124 -266.419)" fill="#ff98aa"/>
                  <g id="Grupo_61133" data-name="Grupo 61133">
                    <path id="Trazado_130794" data-name="Trazado 130794" d="M576.658,285.426s4.266-7.878,9.049-12.159" transform="translate(-569.446 -266.711)" fill="none" stroke="#2e2854" stroke-linecap="round" stroke-linejoin="round" stroke-width="1.2"/>
                    <path id="Trazado_130795" data-name="Trazado 130795" d="M581.812,293.074a48.128,48.128,0,0,1,8.959-10.361" transform="translate(-569.666 -267.115)" fill="none" stroke="#2e2854" stroke-linecap="round" stroke-linejoin="round" stroke-width="1.2"/>
                    <path id="Trazado_130796" data-name="Trazado 130796" d="M587.824,298.282a43.869,43.869,0,0,1,5.421-6.878" transform="translate(-569.923 -267.487)" fill="none" stroke="#2e2854" stroke-linecap="round" stroke-linejoin="round" stroke-width="1.2"/>
                    <path id="Trazado_130797" data-name="Trazado 130797" d="M576.336,285.133s-2.693,4.324-6.059,1.869,1.547-8.858,3.186-11.582,7.531-10.448,10.988-8.764.934,6.318.934,6.318,3.958-2.53,6.725-.557-1.881,9.6-1.881,9.6,2.505-1.786,4.325.268c2.279,2.573-2.108,8.051-2.108,8.051s4.7-1.5,3.157,3.869-6.773,9.264-8.674,7.97.1-4.961.1-4.961-2.952,4.087-5.206,2.3-.549-7.135-.549-7.135-2.837,2.088-4.87.161C574.347,290.591,576.336,285.133,576.336,285.133Z" transform="translate(-569.124 -266.419)" fill="none" stroke="#2e2854" stroke-linecap="round" stroke-linejoin="round" stroke-width="1.2"/>
                  </g>
                </g>
                <g id="Grupo_61135" data-name="Grupo 61135" transform="translate(0 14.695)">
                  <path id="Trazado_130798" data-name="Trazado 130798" d="M542.68,302.206s5.006-10.884,5.878-14.584,1.2-5.442,9.577-5.768,14.8.217,15.128,3.047-5.442,5.333-11.972,4.354c0,0,11.429,14.693-2.611,27.644Z" transform="translate(-542.68 -281.77)" fill="#ff98aa"/>
                  <path id="Trazado_130799" data-name="Trazado 130799" d="M548.82,287.623c.87-3.7,1.2-5.442,9.577-5.768s14.8.217,15.128,3.047-5.442,5.333-11.972,4.354c0,0,9.295,11.949.822,23.8" transform="translate(-542.942 -281.77)" fill="none" stroke="#2e2854" stroke-linecap="round" stroke-linejoin="round" stroke-width="1.2"/>
                </g>
              </g>
              <path id="Trazado_130800" data-name="Trazado 130800" d="M534.608,309.126l6.53-8.054,29.821,24.379-8.489,10.013Z" transform="translate(-391.206 -254.937)" fill="#fff"/>
              <g id="Grupo_61137" data-name="Grupo 61137" transform="translate(0 0)">
                <path id="Trazado_130801" data-name="Trazado 130801" d="M562.134,333.39,528.5,302.833s-58.2,69.535-76.813,61.372c-22.2-9.736-8.815-65.954-51.262-103.177a64.092,64.092,0,0,0-11.9-8.151s-9.651,41.455,2.1,78.351l.733,65.3S461.813,482.4,562.134,333.39Z" transform="translate(-384.802 -252.877)" fill="#fccb6c"/>
                <path id="Trazado_130802" data-name="Trazado 130802" d="M539.291,369.355c-19.433,13.588-58.137,37.733-87,37.092-40.11-.888-60.934-30.811-60.934-30.811l.291,25.873S451.436,474.388,539.291,369.355Z" transform="translate(-385.082 -257.857)" fill="#ebb959"/>
                <path id="Trazado_130803" data-name="Trazado 130803" d="M390.894,334.727l.733,65.3s70.446,85.873,170.767-63.139" transform="translate(-385.062 -256.376)" fill="none" stroke="#2e2854" stroke-linecap="round" stroke-linejoin="round" stroke-width="1.2"/>
              </g>
            </g>
            <g id="Grupo_61143" data-name="Grupo 61143" transform="translate(0 181.953)">
              <g id="Grupo_61140" data-name="Grupo 61140" transform="translate(101.33 21.826)">
                <path id="Trazado_130804" data-name="Trazado 130804" d="M277.064,324.5c5.287-7.935,11.083-19.444,11.164-27.851s5.206-5.334,6.367-1.307a30.889,30.889,0,0,1,.735,10.448s8.734-10.557,11.564-16,5.551-12.408,9.252-11.319-1.416,18.72-9.36,29.713c0,0,7.291-9.034,10.013-14.258s4.68-11.319,8.272-9.577-1.524,17.305-10.122,28.624c0,0,6.585-7.836,9.768-11.918s5.232-9.437,7.51-7.917c2.222,1.481.19,8.965-4.376,16.459,0,0,1.274-2.093,3.07-1.031s-3.918,14.121-15.1,24.325l-9.06,13.387Z" transform="translate(-277.064 -278.358)" fill="#ff98aa"/>
                <g id="Grupo_61139" data-name="Grupo 61139" transform="translate(9.655)">
                  <path id="Trazado_130805" data-name="Trazado 130805" d="M329.8,310.992a49.271,49.271,0,0,1-7.215,9.254" transform="translate(-288.665 -279.754)" fill="none" stroke="#2e2854" stroke-linecap="round" stroke-linejoin="round" stroke-width="1.2"/>
                  <path id="Trazado_130806" data-name="Trazado 130806" d="M287.15,305.071a30.075,30.075,0,0,0,1.51-8.423c.081-8.408,5.207-5.334,6.367-1.307a30.89,30.89,0,0,1,.735,10.448s8.734-10.557,11.564-16,5.551-12.408,9.252-11.319-1.416,18.72-9.36,29.713c0,0,7.291-9.034,10.013-14.258s4.68-11.319,8.272-9.577-1.524,17.305-10.122,28.624c0,0,6.585-7.836,9.768-11.918s5.232-9.437,7.51-7.917c2.222,1.481.191,8.965-4.376,16.459,0,0,1.274-2.093,3.07-1.031s-3.918,14.121-15.1,24.325" transform="translate(-287.15 -278.358)" fill="none" stroke="#2e2854" stroke-linecap="round" stroke-linejoin="round" stroke-width="1.2"/>
                </g>
              </g>
              <path id="Trazado_130807" data-name="Trazado 130807" d="M269.455,332.281l6.367-8.326,34.61,22.2-6.53,10.448Z" transform="translate(-175.409 -258.482)" fill="#fff"/>
              <g id="Grupo_61142" data-name="Grupo 61142">
                <path id="Trazado_130808" data-name="Trazado 130808" d="M225.722,255.558c-13.921,7.817-26.5,19.255-34.577,35.95C162.413,350.934,162.413,427.99,206.492,445.3s86.362-65.14,99.259-89.791L264.938,327.1l-37.381,49.484s.049-25.649-2.128-43.934a166.468,166.468,0,0,0,4.9-36.569C230.545,276.924,225.722,255.558,225.722,255.558Z" transform="translate(-171.209 -255.558)" fill="#fccb6c"/>
                <path id="Trazado_130809" data-name="Trazado 130809" d="M297.977,376.285c-18.783,21.633-50.43,53.582-76.36,57.425-17.791,2.637-29.668.6-37.36-2.43a47.469,47.469,0,0,0,22.792,19.177C244.08,464.994,279.84,409.138,297.977,376.285Z" transform="translate(-171.767 -260.719)" fill="#ebb959"/>
                <g id="Grupo_61141" data-name="Grupo 61141" transform="translate(3.248 71.54)">
                  <path id="Trazado_130810" data-name="Trazado 130810" d="M229.979,380.025s.049-25.648-2.128-43.934" transform="translate(-176.878 -330.541)" fill="none" stroke="#2e2854" stroke-linecap="round" stroke-linejoin="round" stroke-width="1.2"/>
                  <path id="Trazado_130811" data-name="Trazado 130811" d="M266.827,330.293l-37.38,49.484L215.4,398.37" transform="translate(-176.346 -330.293)" fill="none" stroke="#2e2854" stroke-linecap="round" stroke-linejoin="round" stroke-width="1.2"/>
                  <path id="Trazado_130812" data-name="Trazado 130812" d="M174.6,408.237c4.846,19.661,15.241,34.928,32.035,41.522,44.078,17.3,86.362-65.14,99.259-89.791" transform="translate(-174.602 -331.561)" fill="none" stroke="#2e2854" stroke-linecap="round" stroke-linejoin="round" stroke-width="1.2"/>
                </g>
              </g>
            </g>
          </g>
          <g id="Grupo_61177" data-name="Grupo 61177" transform="translate(246.167 214.223)">
            <line id="Línea_649" data-name="Línea 649" y1="76.303" transform="translate(135.206)" fill="none" stroke="#2e2854" stroke-linecap="round" stroke-linejoin="round" stroke-width="1.2"/>
            <g id="Grupo_61145" data-name="Grupo 61145" transform="translate(27.747 55.204)">
              <path id="Trazado_130813" data-name="Trazado 130813" d="M667.49,346.963,459.126,383.7l1.02,5.788,208.365-36.74c1.183-.209,1.914-1.673,1.633-3.272S668.674,346.754,667.49,346.963Z" transform="translate(-457.432 -346.938)" fill="#2e2854"/>
              <path id="Trazado_130814" data-name="Trazado 130814" d="M461.7,387.859c-.282-1.6-1.47-2.724-2.654-2.516s-1.915,1.673-1.633,3.272,1.469,2.724,2.653,2.516S461.986,389.458,461.7,387.859Z" transform="translate(-457.357 -348.579)" fill="#4e448f"/>
            </g>
            <path id="Trazado_130815" data-name="Trazado 130815" d="M575.855,367.531a6.639,6.639,0,1,0-5.385,7.691A6.638,6.638,0,0,0,575.855,367.531Z" transform="translate(-434.112 -292.38)" fill="#4e448f"/>
            <g id="Grupo_61169" data-name="Grupo 61169" transform="translate(0 95.457)">
              <g id="Grupo_61167" data-name="Grupo 61167" transform="translate(0 10.44)">
                <g id="Grupo_61151" data-name="Grupo 61151" transform="translate(53.571 27.796)">
                  <g id="Grupo_61146" data-name="Grupo 61146" transform="translate(2.777)">
                    <rect id="Rectángulo_18487" data-name="Rectángulo 18487" width="19.945" height="4.189" fill="#f9b274"/>
                    <rect id="Rectángulo_18488" data-name="Rectángulo 18488" width="19.945" height="4.189" fill="none" stroke="#2e2854" stroke-linecap="round" stroke-linejoin="round" stroke-width="1.2"/>
                    <line id="Línea_650" data-name="Línea 650" y2="4.189" transform="translate(9.972)" fill="none" stroke="#2e2854" stroke-linecap="round" stroke-linejoin="round" stroke-width="1.2"/>
                    <line id="Línea_651" data-name="Línea 651" y2="4.189" transform="translate(7.782)" fill="none" stroke="#2e2854" stroke-linecap="round" stroke-linejoin="round" stroke-width="1.2"/>
                    <line id="Línea_652" data-name="Línea 652" y2="4.189" transform="translate(5.592)" fill="none" stroke="#2e2854" stroke-linecap="round" stroke-linejoin="round" stroke-width="1.2"/>
                    <line id="Línea_653" data-name="Línea 653" y2="4.189" transform="translate(3.402)" fill="none" stroke="#2e2854" stroke-linecap="round" stroke-linejoin="round" stroke-width="1.2"/>
                    <line id="Línea_654" data-name="Línea 654" y2="4.189" transform="translate(1.211)" fill="none" stroke="#2e2854" stroke-linecap="round" stroke-linejoin="round" stroke-width="1.2"/>
                    <line id="Línea_655" data-name="Línea 655" y2="4.189" transform="translate(18.733)" fill="none" stroke="#2e2854" stroke-linecap="round" stroke-linejoin="round" stroke-width="1.2"/>
                    <line id="Línea_656" data-name="Línea 656" y2="4.189" transform="translate(16.543)" fill="none" stroke="#2e2854" stroke-linecap="round" stroke-linejoin="round" stroke-width="1.2"/>
                    <line id="Línea_657" data-name="Línea 657" y2="4.189" transform="translate(14.353)" fill="none" stroke="#2e2854" stroke-linecap="round" stroke-linejoin="round" stroke-width="1.2"/>
                    <line id="Línea_658" data-name="Línea 658" y2="4.189" transform="translate(12.163)" fill="none" stroke="#2e2854" stroke-linecap="round" stroke-linejoin="round" stroke-width="1.2"/>
                  </g>
                  <g id="Grupo_61147" data-name="Grupo 61147" transform="translate(0 4.189)">
                    <rect id="Rectángulo_18489" data-name="Rectángulo 18489" width="19.945" height="4.189" fill="#f9b274"/>
                    <rect id="Rectángulo_18490" data-name="Rectángulo 18490" width="19.945" height="4.189" fill="none" stroke="#2e2854" stroke-linecap="round" stroke-linejoin="round" stroke-width="1.2"/>
                    <line id="Línea_659" data-name="Línea 659" y2="4.189" transform="translate(9.972)" fill="none" stroke="#2e2854" stroke-linecap="round" stroke-linejoin="round" stroke-width="1.2"/>
                    <line id="Línea_660" data-name="Línea 660" y2="4.189" transform="translate(7.782)" fill="none" stroke="#2e2854" stroke-linecap="round" stroke-linejoin="round" stroke-width="1.2"/>
                    <line id="Línea_661" data-name="Línea 661" y2="4.189" transform="translate(5.592)" fill="none" stroke="#2e2854" stroke-linecap="round" stroke-linejoin="round" stroke-width="1.2"/>
                    <line id="Línea_662" data-name="Línea 662" y2="4.189" transform="translate(3.402)" fill="none" stroke="#2e2854" stroke-linecap="round" stroke-linejoin="round" stroke-width="1.2"/>
                    <line id="Línea_663" data-name="Línea 663" y2="4.189" transform="translate(1.211)" fill="none" stroke="#2e2854" stroke-linecap="round" stroke-linejoin="round" stroke-width="1.2"/>
                    <line id="Línea_664" data-name="Línea 664" y2="4.189" transform="translate(18.733)" fill="none" stroke="#2e2854" stroke-linecap="round" stroke-linejoin="round" stroke-width="1.2"/>
                    <line id="Línea_665" data-name="Línea 665" y2="4.189" transform="translate(16.543)" fill="none" stroke="#2e2854" stroke-linecap="round" stroke-linejoin="round" stroke-width="1.2"/>
                    <line id="Línea_666" data-name="Línea 666" y2="4.189" transform="translate(14.353)" fill="none" stroke="#2e2854" stroke-linecap="round" stroke-linejoin="round" stroke-width="1.2"/>
                    <line id="Línea_667" data-name="Línea 667" y2="4.189" transform="translate(12.163)" fill="none" stroke="#2e2854" stroke-linecap="round" stroke-linejoin="round" stroke-width="1.2"/>
                  </g>
                  <g id="Grupo_61148" data-name="Grupo 61148" transform="translate(4.38 8.377)">
                    <rect id="Rectángulo_18491" data-name="Rectángulo 18491" width="19.945" height="4.189" fill="#f9b274"/>
                    <rect id="Rectángulo_18492" data-name="Rectángulo 18492" width="19.945" height="4.189" fill="none" stroke="#2e2854" stroke-linecap="round" stroke-linejoin="round" stroke-width="1.2"/>
                    <line id="Línea_668" data-name="Línea 668" y2="4.189" transform="translate(9.972)" fill="none" stroke="#2e2854" stroke-linecap="round" stroke-linejoin="round" stroke-width="1.2"/>
                    <line id="Línea_669" data-name="Línea 669" y2="4.189" transform="translate(7.782)" fill="none" stroke="#2e2854" stroke-linecap="round" stroke-linejoin="round" stroke-width="1.2"/>
                    <line id="Línea_670" data-name="Línea 670" y2="4.189" transform="translate(5.592)" fill="none" stroke="#2e2854" stroke-linecap="round" stroke-linejoin="round" stroke-width="1.2"/>
                    <line id="Línea_671" data-name="Línea 671" y2="4.189" transform="translate(3.402)" fill="none" stroke="#2e2854" stroke-linecap="round" stroke-linejoin="round" stroke-width="1.2"/>
                    <line id="Línea_672" data-name="Línea 672" y2="4.189" transform="translate(1.211)" fill="none" stroke="#2e2854" stroke-linecap="round" stroke-linejoin="round" stroke-width="1.2"/>
                    <line id="Línea_673" data-name="Línea 673" y2="4.189" transform="translate(18.733)" fill="none" stroke="#2e2854" stroke-linecap="round" stroke-linejoin="round" stroke-width="1.2"/>
                    <line id="Línea_674" data-name="Línea 674" y2="4.189" transform="translate(16.543)" fill="none" stroke="#2e2854" stroke-linecap="round" stroke-linejoin="round" stroke-width="1.2"/>
                    <line id="Línea_675" data-name="Línea 675" y2="4.189" transform="translate(14.353)" fill="none" stroke="#2e2854" stroke-linecap="round" stroke-linejoin="round" stroke-width="1.2"/>
                    <line id="Línea_676" data-name="Línea 676" y2="4.189" transform="translate(12.163)" fill="none" stroke="#2e2854" stroke-linecap="round" stroke-linejoin="round" stroke-width="1.2"/>
                  </g>
                  <g id="Grupo_61149" data-name="Grupo 61149" transform="translate(0.246 12.566)">
                    <rect id="Rectángulo_18493" data-name="Rectángulo 18493" width="19.945" height="4.189" fill="#f9b274"/>
                    <rect id="Rectángulo_18494" data-name="Rectángulo 18494" width="19.945" height="4.189" fill="none" stroke="#2e2854" stroke-linecap="round" stroke-linejoin="round" stroke-width="1.2"/>
                    <line id="Línea_677" data-name="Línea 677" y2="4.189" transform="translate(9.972)" fill="none" stroke="#2e2854" stroke-linecap="round" stroke-linejoin="round" stroke-width="1.2"/>
                    <line id="Línea_678" data-name="Línea 678" y2="4.189" transform="translate(7.782)" fill="none" stroke="#2e2854" stroke-linecap="round" stroke-linejoin="round" stroke-width="1.2"/>
                    <line id="Línea_679" data-name="Línea 679" y2="4.189" transform="translate(5.592)" fill="none" stroke="#2e2854" stroke-linecap="round" stroke-linejoin="round" stroke-width="1.2"/>
                    <line id="Línea_680" data-name="Línea 680" y2="4.189" transform="translate(3.402)" fill="none" stroke="#2e2854" stroke-linecap="round" stroke-linejoin="round" stroke-width="1.2"/>
                    <line id="Línea_681" data-name="Línea 681" y2="4.189" transform="translate(1.211)" fill="none" stroke="#2e2854" stroke-linecap="round" stroke-linejoin="round" stroke-width="1.2"/>
                    <line id="Línea_682" data-name="Línea 682" y2="4.189" transform="translate(18.733)" fill="none" stroke="#2e2854" stroke-linecap="round" stroke-linejoin="round" stroke-width="1.2"/>
                    <line id="Línea_683" data-name="Línea 683" y2="4.189" transform="translate(16.543)" fill="none" stroke="#2e2854" stroke-linecap="round" stroke-linejoin="round" stroke-width="1.2"/>
                    <line id="Línea_684" data-name="Línea 684" y2="4.189" transform="translate(14.353)" fill="none" stroke="#2e2854" stroke-linecap="round" stroke-linejoin="round" stroke-width="1.2"/>
                    <line id="Línea_685" data-name="Línea 685" y2="4.189" transform="translate(12.163)" fill="none" stroke="#2e2854" stroke-linecap="round" stroke-linejoin="round" stroke-width="1.2"/>
                  </g>
                  <g id="Grupo_61150" data-name="Grupo 61150" transform="translate(2.19 16.762)">
                    <rect id="Rectángulo_18495" data-name="Rectángulo 18495" width="19.945" height="4.189" fill="#f9b274"/>
                    <rect id="Rectángulo_18496" data-name="Rectángulo 18496" width="19.945" height="4.189" fill="none" stroke="#2e2854" stroke-linecap="round" stroke-linejoin="round" stroke-width="1.2"/>
                    <line id="Línea_686" data-name="Línea 686" y2="4.189" transform="translate(9.972)" fill="none" stroke="#2e2854" stroke-linecap="round" stroke-linejoin="round" stroke-width="1.2"/>
                    <line id="Línea_687" data-name="Línea 687" y2="4.189" transform="translate(7.782)" fill="none" stroke="#2e2854" stroke-linecap="round" stroke-linejoin="round" stroke-width="1.2"/>
                    <line id="Línea_688" data-name="Línea 688" y2="4.189" transform="translate(5.592)" fill="none" stroke="#2e2854" stroke-linecap="round" stroke-linejoin="round" stroke-width="1.2"/>
                    <line id="Línea_689" data-name="Línea 689" y2="4.189" transform="translate(3.402)" fill="none" stroke="#2e2854" stroke-linecap="round" stroke-linejoin="round" stroke-width="1.2"/>
                    <line id="Línea_690" data-name="Línea 690" y2="4.189" transform="translate(1.212)" fill="none" stroke="#2e2854" stroke-linecap="round" stroke-linejoin="round" stroke-width="1.2"/>
                    <line id="Línea_691" data-name="Línea 691" y2="4.189" transform="translate(18.733)" fill="none" stroke="#2e2854" stroke-linecap="round" stroke-linejoin="round" stroke-width="1.2"/>
                    <line id="Línea_692" data-name="Línea 692" y2="4.189" transform="translate(16.543)" fill="none" stroke="#2e2854" stroke-linecap="round" stroke-linejoin="round" stroke-width="1.2"/>
                    <line id="Línea_693" data-name="Línea 693" y2="4.189" transform="translate(14.353)" fill="none" stroke="#2e2854" stroke-linecap="round" stroke-linejoin="round" stroke-width="1.2"/>
                    <line id="Línea_694" data-name="Línea 694" y2="4.189" transform="translate(12.163)" fill="none" stroke="#2e2854" stroke-linecap="round" stroke-linejoin="round" stroke-width="1.2"/>
                  </g>
                </g>
                <g id="Grupo_61157" data-name="Grupo 61157" transform="translate(10.415 32.876)">
                  <g id="Grupo_61152" data-name="Grupo 61152" transform="translate(2.777)">
                    <rect id="Rectángulo_18497" data-name="Rectángulo 18497" width="19.945" height="4.189" fill="#f9b274"/>
                    <rect id="Rectángulo_18498" data-name="Rectángulo 18498" width="19.945" height="4.189" fill="none" stroke="#2e2854" stroke-linecap="round" stroke-linejoin="round" stroke-width="1.2"/>
                    <line id="Línea_695" data-name="Línea 695" y2="4.189" transform="translate(9.972)" fill="none" stroke="#2e2854" stroke-linecap="round" stroke-linejoin="round" stroke-width="1.2"/>
                    <line id="Línea_696" data-name="Línea 696" y2="4.189" transform="translate(7.782)" fill="none" stroke="#2e2854" stroke-linecap="round" stroke-linejoin="round" stroke-width="1.2"/>
                    <line id="Línea_697" data-name="Línea 697" y2="4.189" transform="translate(5.592)" fill="none" stroke="#2e2854" stroke-linecap="round" stroke-linejoin="round" stroke-width="1.2"/>
                    <line id="Línea_698" data-name="Línea 698" y2="4.189" transform="translate(3.402)" fill="none" stroke="#2e2854" stroke-linecap="round" stroke-linejoin="round" stroke-width="1.2"/>
                    <line id="Línea_699" data-name="Línea 699" y2="4.189" transform="translate(1.211)" fill="none" stroke="#2e2854" stroke-linecap="round" stroke-linejoin="round" stroke-width="1.2"/>
                    <line id="Línea_700" data-name="Línea 700" y2="4.189" transform="translate(18.733)" fill="none" stroke="#2e2854" stroke-linecap="round" stroke-linejoin="round" stroke-width="1.2"/>
                    <line id="Línea_701" data-name="Línea 701" y2="4.189" transform="translate(16.543)" fill="none" stroke="#2e2854" stroke-linecap="round" stroke-linejoin="round" stroke-width="1.2"/>
                    <line id="Línea_702" data-name="Línea 702" y2="4.189" transform="translate(14.353)" fill="none" stroke="#2e2854" stroke-linecap="round" stroke-linejoin="round" stroke-width="1.2"/>
                    <line id="Línea_703" data-name="Línea 703" y2="4.189" transform="translate(12.163)" fill="none" stroke="#2e2854" stroke-linecap="round" stroke-linejoin="round" stroke-width="1.2"/>
                  </g>
                  <g id="Grupo_61153" data-name="Grupo 61153" transform="translate(0 4.189)">
                    <rect id="Rectángulo_18499" data-name="Rectángulo 18499" width="19.945" height="4.189" fill="#f9b274"/>
                    <rect id="Rectángulo_18500" data-name="Rectángulo 18500" width="19.945" height="4.189" fill="none" stroke="#2e2854" stroke-linecap="round" stroke-linejoin="round" stroke-width="1.2"/>
                    <line id="Línea_704" data-name="Línea 704" y2="4.189" transform="translate(9.972)" fill="none" stroke="#2e2854" stroke-linecap="round" stroke-linejoin="round" stroke-width="1.2"/>
                    <line id="Línea_705" data-name="Línea 705" y2="4.189" transform="translate(7.782)" fill="none" stroke="#2e2854" stroke-linecap="round" stroke-linejoin="round" stroke-width="1.2"/>
                    <line id="Línea_706" data-name="Línea 706" y2="4.189" transform="translate(5.592)" fill="none" stroke="#2e2854" stroke-linecap="round" stroke-linejoin="round" stroke-width="1.2"/>
                    <line id="Línea_707" data-name="Línea 707" y2="4.189" transform="translate(3.402)" fill="none" stroke="#2e2854" stroke-linecap="round" stroke-linejoin="round" stroke-width="1.2"/>
                    <line id="Línea_708" data-name="Línea 708" y2="4.189" transform="translate(1.211)" fill="none" stroke="#2e2854" stroke-linecap="round" stroke-linejoin="round" stroke-width="1.2"/>
                    <line id="Línea_709" data-name="Línea 709" y2="4.189" transform="translate(18.733)" fill="none" stroke="#2e2854" stroke-linecap="round" stroke-linejoin="round" stroke-width="1.2"/>
                    <line id="Línea_710" data-name="Línea 710" y2="4.189" transform="translate(16.543)" fill="none" stroke="#2e2854" stroke-linecap="round" stroke-linejoin="round" stroke-width="1.2"/>
                    <line id="Línea_711" data-name="Línea 711" y2="4.189" transform="translate(14.353)" fill="none" stroke="#2e2854" stroke-linecap="round" stroke-linejoin="round" stroke-width="1.2"/>
                    <line id="Línea_712" data-name="Línea 712" y2="4.189" transform="translate(12.163)" fill="none" stroke="#2e2854" stroke-linecap="round" stroke-linejoin="round" stroke-width="1.2"/>
                  </g>
                  <g id="Grupo_61154" data-name="Grupo 61154" transform="translate(4.38 8.377)">
                    <rect id="Rectángulo_18501" data-name="Rectángulo 18501" width="19.945" height="4.189" fill="#f9b274"/>
                    <rect id="Rectángulo_18502" data-name="Rectángulo 18502" width="19.945" height="4.189" fill="none" stroke="#2e2854" stroke-linecap="round" stroke-linejoin="round" stroke-width="1.2"/>
                    <line id="Línea_713" data-name="Línea 713" y2="4.189" transform="translate(9.972)" fill="none" stroke="#2e2854" stroke-linecap="round" stroke-linejoin="round" stroke-width="1.2"/>
                    <line id="Línea_714" data-name="Línea 714" y2="4.189" transform="translate(7.782)" fill="none" stroke="#2e2854" stroke-linecap="round" stroke-linejoin="round" stroke-width="1.2"/>
                    <line id="Línea_715" data-name="Línea 715" y2="4.189" transform="translate(5.592)" fill="none" stroke="#2e2854" stroke-linecap="round" stroke-linejoin="round" stroke-width="1.2"/>
                    <line id="Línea_716" data-name="Línea 716" y2="4.189" transform="translate(3.402)" fill="none" stroke="#2e2854" stroke-linecap="round" stroke-linejoin="round" stroke-width="1.2"/>
                    <line id="Línea_717" data-name="Línea 717" y2="4.189" transform="translate(1.211)" fill="none" stroke="#2e2854" stroke-linecap="round" stroke-linejoin="round" stroke-width="1.2"/>
                    <line id="Línea_718" data-name="Línea 718" y2="4.189" transform="translate(18.733)" fill="none" stroke="#2e2854" stroke-linecap="round" stroke-linejoin="round" stroke-width="1.2"/>
                    <line id="Línea_719" data-name="Línea 719" y2="4.189" transform="translate(16.543)" fill="none" stroke="#2e2854" stroke-linecap="round" stroke-linejoin="round" stroke-width="1.2"/>
                    <line id="Línea_720" data-name="Línea 720" y2="4.189" transform="translate(14.353)" fill="none" stroke="#2e2854" stroke-linecap="round" stroke-linejoin="round" stroke-width="1.2"/>
                    <line id="Línea_721" data-name="Línea 721" y2="4.189" transform="translate(12.163)" fill="none" stroke="#2e2854" stroke-linecap="round" stroke-linejoin="round" stroke-width="1.2"/>
                  </g>
                  <g id="Grupo_61155" data-name="Grupo 61155" transform="translate(0.246 12.566)">
                    <rect id="Rectángulo_18503" data-name="Rectángulo 18503" width="19.945" height="4.189" fill="#f9b274"/>
                    <rect id="Rectángulo_18504" data-name="Rectángulo 18504" width="19.945" height="4.189" fill="none" stroke="#2e2854" stroke-linecap="round" stroke-linejoin="round" stroke-width="1.2"/>
                    <line id="Línea_722" data-name="Línea 722" y2="4.189" transform="translate(9.972)" fill="none" stroke="#2e2854" stroke-linecap="round" stroke-linejoin="round" stroke-width="1.2"/>
                    <line id="Línea_723" data-name="Línea 723" y2="4.189" transform="translate(7.782)" fill="none" stroke="#2e2854" stroke-linecap="round" stroke-linejoin="round" stroke-width="1.2"/>
                    <line id="Línea_724" data-name="Línea 724" y2="4.189" transform="translate(5.592)" fill="none" stroke="#2e2854" stroke-linecap="round" stroke-linejoin="round" stroke-width="1.2"/>
                    <line id="Línea_725" data-name="Línea 725" y2="4.189" transform="translate(3.402)" fill="none" stroke="#2e2854" stroke-linecap="round" stroke-linejoin="round" stroke-width="1.2"/>
                    <line id="Línea_726" data-name="Línea 726" y2="4.189" transform="translate(1.211)" fill="none" stroke="#2e2854" stroke-linecap="round" stroke-linejoin="round" stroke-width="1.2"/>
                    <line id="Línea_727" data-name="Línea 727" y2="4.189" transform="translate(18.733)" fill="none" stroke="#2e2854" stroke-linecap="round" stroke-linejoin="round" stroke-width="1.2"/>
                    <line id="Línea_728" data-name="Línea 728" y2="4.189" transform="translate(16.543)" fill="none" stroke="#2e2854" stroke-linecap="round" stroke-linejoin="round" stroke-width="1.2"/>
                    <line id="Línea_729" data-name="Línea 729" y2="4.189" transform="translate(14.353)" fill="none" stroke="#2e2854" stroke-linecap="round" stroke-linejoin="round" stroke-width="1.2"/>
                    <line id="Línea_730" data-name="Línea 730" y2="4.189" transform="translate(12.163)" fill="none" stroke="#2e2854" stroke-linecap="round" stroke-linejoin="round" stroke-width="1.2"/>
                  </g>
                  <g id="Grupo_61156" data-name="Grupo 61156" transform="translate(2.19 16.762)">
                    <rect id="Rectángulo_18505" data-name="Rectángulo 18505" width="19.945" height="4.189" fill="#f9b274"/>
                    <rect id="Rectángulo_18506" data-name="Rectángulo 18506" width="19.945" height="4.189" fill="none" stroke="#2e2854" stroke-linecap="round" stroke-linejoin="round" stroke-width="1.2"/>
                    <line id="Línea_731" data-name="Línea 731" y2="4.189" transform="translate(9.972)" fill="none" stroke="#2e2854" stroke-linecap="round" stroke-linejoin="round" stroke-width="1.2"/>
                    <line id="Línea_732" data-name="Línea 732" y2="4.189" transform="translate(7.782)" fill="none" stroke="#2e2854" stroke-linecap="round" stroke-linejoin="round" stroke-width="1.2"/>
                    <line id="Línea_733" data-name="Línea 733" y2="4.189" transform="translate(5.592)" fill="none" stroke="#2e2854" stroke-linecap="round" stroke-linejoin="round" stroke-width="1.2"/>
                    <line id="Línea_734" data-name="Línea 734" y2="4.189" transform="translate(3.402)" fill="none" stroke="#2e2854" stroke-linecap="round" stroke-linejoin="round" stroke-width="1.2"/>
                    <line id="Línea_735" data-name="Línea 735" y2="4.189" transform="translate(1.211)" fill="none" stroke="#2e2854" stroke-linecap="round" stroke-linejoin="round" stroke-width="1.2"/>
                    <line id="Línea_736" data-name="Línea 736" y2="4.189" transform="translate(18.733)" fill="none" stroke="#2e2854" stroke-linecap="round" stroke-linejoin="round" stroke-width="1.2"/>
                    <line id="Línea_737" data-name="Línea 737" y2="4.189" transform="translate(16.543)" fill="none" stroke="#2e2854" stroke-linecap="round" stroke-linejoin="round" stroke-width="1.2"/>
                    <line id="Línea_738" data-name="Línea 738" y2="4.189" transform="translate(14.353)" fill="none" stroke="#2e2854" stroke-linecap="round" stroke-linejoin="round" stroke-width="1.2"/>
                    <line id="Línea_739" data-name="Línea 739" y2="4.189" transform="translate(12.163)" fill="none" stroke="#2e2854" stroke-linecap="round" stroke-linejoin="round" stroke-width="1.2"/>
                  </g>
                </g>
                <g id="Grupo_61166" data-name="Grupo 61166" transform="translate(22.495 18.715)">
                  <g id="Grupo_61159" data-name="Grupo 61159" transform="translate(5.982 0)">
                    <circle id="Elipse_1673" data-name="Elipse 1673" cx="8.791" cy="8.791" r="8.791" transform="translate(0 12.432) rotate(-45)" fill="#fccb6c"/>
                    <circle id="Elipse_1674" data-name="Elipse 1674" cx="6.505" cy="6.505" r="6.505" transform="translate(5.927 5.927)" fill="none" stroke="#2e2854" stroke-linecap="round" stroke-linejoin="round" stroke-width="1.2"/>
                    <g id="Grupo_61158" data-name="Grupo 61158" transform="translate(9.301 7.733)">
                      <path id="Trazado_130816" data-name="Trazado 130816" d="M470.831,427.524a.464.464,0,0,1,.467.466v.238a3.97,3.97,0,0,1,1.682.6.583.583,0,0,1,.325.522.6.6,0,0,1-.608.6.619.619,0,0,1-.325-.1,3.952,3.952,0,0,0-1.118-.478v2.084c1.649.413,2.355,1.074,2.355,2.235,0,1.195-.932,1.986-2.311,2.117v.651a.463.463,0,0,1-.467.466.472.472,0,0,1-.478-.466v-.673a4.7,4.7,0,0,1-2.225-.847.6.6,0,0,1-.293-.521.6.6,0,0,1,.955-.477,3.845,3.845,0,0,0,1.605.727v-2.138c-1.584-.413-2.322-1.009-2.322-2.235a2.182,2.182,0,0,1,2.279-2.073v-.228A.473.473,0,0,1,470.831,427.524Zm-.435,3.7V429.3c-.694.064-1.041.434-1.041.91C469.355,430.671,469.562,430.953,470.4,431.225Zm.858,1.509v1.975c.695-.076,1.075-.423,1.075-.944C472.329,433.288,472.09,432.994,471.254,432.733Z" transform="translate(-467.836 -427.524)" fill="#ebb959"/>
                    </g>
                  </g>
                  <g id="Grupo_61161" data-name="Grupo 61161" transform="translate(25.764 19.283)">
                    <circle id="Elipse_1675" data-name="Elipse 1675" cx="8.791" cy="8.791" r="8.791" fill="#fccb6c"/>
                    <circle id="Elipse_1676" data-name="Elipse 1676" cx="6.505" cy="6.505" r="6.505" transform="translate(2.286 2.286)" fill="none" stroke="#2e2854" stroke-linecap="round" stroke-linejoin="round" stroke-width="1.2"/>
                    <g id="Grupo_61160" data-name="Grupo 61160" transform="translate(5.66 4.092)">
                      <path id="Trazado_130817" data-name="Trazado 130817" d="M487.693,443.864a.463.463,0,0,1,.466.466v.239a3.96,3.96,0,0,1,1.683.6.583.583,0,0,1,.325.522.6.6,0,0,1-.608.6.619.619,0,0,1-.325-.1,3.963,3.963,0,0,0-1.118-.478v2.084c1.649.413,2.355,1.074,2.355,2.235,0,1.195-.933,1.986-2.312,2.117v.651a.462.462,0,0,1-.466.466.472.472,0,0,1-.478-.466v-.673a4.682,4.682,0,0,1-2.225-.847.6.6,0,0,1-.293-.521.6.6,0,0,1,.954-.477,3.843,3.843,0,0,0,1.606.727v-2.138c-1.584-.413-2.322-1.009-2.322-2.235a2.182,2.182,0,0,1,2.279-2.073v-.228A.473.473,0,0,1,487.693,443.864Zm-.435,3.7v-1.92c-.694.064-1.041.434-1.041.91C486.217,447.011,486.423,447.293,487.259,447.565Zm.858,1.509v1.975c.694-.076,1.075-.423,1.075-.944C489.191,449.628,488.952,449.334,488.116,449.073Z" transform="translate(-484.698 -443.864)" fill="#ebb959"/>
                    </g>
                  </g>
                  <g id="Grupo_61163" data-name="Grupo 61163" transform="translate(0 13.928)">
                    <path id="Trazado_130818" data-name="Trazado 130818" d="M468.619,446.526a8.791,8.791,0,1,0-11.695,4.219A8.791,8.791,0,0,0,468.619,446.526Z" transform="translate(-451.87 -433.995)" fill="#fccb6c"/>
                    <path id="Trazado_130819" data-name="Trazado 130819" d="M466.652,445.657A6.505,6.505,0,1,0,458,448.778,6.506,6.506,0,0,0,466.652,445.657Z" transform="translate(-451.972 -434.098)" fill="none" stroke="#2e2854" stroke-linecap="round" stroke-linejoin="round" stroke-width="1.2"/>
                    <g id="Grupo_61162" data-name="Grupo 61162" transform="translate(4.966 4.436)">
                      <path id="Trazado_130820" data-name="Trazado 130820" d="M462.76,438.676a.464.464,0,0,1,.224.62l-.1.216a3.946,3.946,0,0,1,1.268,1.256.581.581,0,0,1,.073.611.6.6,0,0,1-.8.28.618.618,0,0,1-.253-.227,3.936,3.936,0,0,0-.81-.908l-.885,1.887c1.317,1.074,1.674,1.973,1.18,3.024a2.224,2.224,0,0,1-2.992.933l-.277.589a.462.462,0,0,1-.62.224.473.473,0,0,1-.234-.625l.286-.609a4.7,4.7,0,0,1-1.653-1.713.6.6,0,0,1-.044-.6.6.6,0,0,1,1.067-.026,3.851,3.851,0,0,0,1.145,1.341l.909-1.936c-1.259-1.047-1.672-1.9-1.152-3.011a2.182,2.182,0,0,1,2.945-.907l.1-.206A.473.473,0,0,1,462.76,438.676Zm-1.967,3.165.817-1.738c-.657-.236-1.128-.051-1.331.382C460.086,440.9,460.153,441.239,460.793,441.841Zm.135,1.731-.84,1.786c.661.228,1.154.075,1.375-.4C461.665,444.529,461.573,444.161,460.928,443.571Z" transform="translate(-457.058 -438.63)" fill="#ebb959"/>
                    </g>
                  </g>
                  <g id="Grupo_61165" data-name="Grupo 61165" transform="translate(13.956 14.651)">
                    <path id="Trazado_130821" data-name="Trazado 130821" d="M483.2,447.282A8.791,8.791,0,1,0,471.5,451.5,8.791,8.791,0,0,0,483.2,447.282Z" transform="translate(-466.449 -434.751)" fill="#fccb6c"/>
                    <path id="Trazado_130822" data-name="Trazado 130822" d="M481.231,446.412a6.505,6.505,0,1,0-8.654,3.122A6.5,6.5,0,0,0,481.231,446.412Z" transform="translate(-466.551 -434.853)" fill="none" stroke="#2e2854" stroke-linecap="round" stroke-linejoin="round" stroke-width="1.2"/>
                    <g id="Grupo_61164" data-name="Grupo 61164" transform="translate(4.967 4.436)">
                      <path id="Trazado_130823" data-name="Trazado 130823" d="M477.339,439.431a.463.463,0,0,1,.224.621l-.1.215a3.969,3.969,0,0,1,1.269,1.256.583.583,0,0,1,.073.611.6.6,0,0,1-.8.28.617.617,0,0,1-.254-.226,3.938,3.938,0,0,0-.809-.907l-.886,1.886c1.317,1.075,1.675,1.974,1.181,3.025a2.224,2.224,0,0,1-2.992.932l-.277.589a.463.463,0,0,1-.621.224.472.472,0,0,1-.234-.625l.285-.609a4.7,4.7,0,0,1-1.653-1.713.6.6,0,0,1-.043-.6.589.589,0,0,1,.794-.287.594.594,0,0,1,.274.261,3.837,3.837,0,0,0,1.145,1.34l.908-1.935c-1.258-1.047-1.672-1.9-1.151-3.012a2.18,2.18,0,0,1,2.944-.907l.1-.207A.471.471,0,0,1,477.339,439.431Zm-1.966,3.165.817-1.737c-.657-.237-1.128-.051-1.331.381C474.666,441.652,474.732,441.994,475.373,442.6Zm.134,1.731-.84,1.787c.661.227,1.153.074,1.374-.4C476.244,445.285,476.153,444.917,475.507,444.326Z" transform="translate(-471.638 -439.385)" fill="#ebb959"/>
                    </g>
                  </g>
                </g>
                <path id="Trazado_130824" data-name="Trazado 130824" d="M506.626,422.863s8.824-3.184,5.76-9.961-6.085,6.106,1.9,2.549,2.977-9.768,2.977-9.768" transform="translate(-431.716 -400.142)" fill="none" stroke="#2e2854" stroke-linecap="round" stroke-linejoin="round" stroke-width="1.2"/>
                <path id="Trazado_130825" data-name="Trazado 130825" d="M428.37,399.895s6.451.408,7.624,6.174-2.541,6.858-3.812,4.749,6.549-3.72,9.285.995a9.489,9.489,0,0,1,0,9.211" transform="translate(-428.37 -399.895)" fill="none" stroke="#2e2854" stroke-linecap="round" stroke-linejoin="round" stroke-width="1.2"/>
              </g>
              <g id="Grupo_61168" data-name="Grupo 61168" transform="translate(19.796)">
                <line id="Línea_740" data-name="Línea 740" x1="23.708" y2="57.276" fill="none" stroke="#2e2854" stroke-linecap="round" stroke-linejoin="round" stroke-width="1.2"/>
                <line id="Línea_741" data-name="Línea 741" x2="23.708" y2="57.276" transform="translate(23.708)" fill="none" stroke="#2e2854" stroke-linecap="round" stroke-linejoin="round" stroke-width="1.2"/>
              </g>
              <path id="Trazado_130826" data-name="Trazado 130826" d="M433.764,448.823a39.34,39.34,0,0,0,76.681,0Z" transform="translate(-428.601 -391.547)" fill="#4e448f"/>
            </g>
            <g id="Grupo_61176" data-name="Grupo 61176" transform="translate(175.762 47.495)">
              <g id="Grupo_61174" data-name="Grupo 61174">
                <g id="Grupo_61171" data-name="Grupo 61171" transform="translate(22.582 35.448)">
                  <g id="Grupo_61170" data-name="Grupo 61170" transform="translate(0.861 3.824)">
                    <path id="Trazado_130827" data-name="Trazado 130827" d="M661.188,384.614c-3.383,2.637.7,4.925,2.836,2.786S663.443,382.856,661.188,384.614Z" transform="translate(-637.472 -380.087)" fill="#5f9e82"/>
                    <path id="Trazado_130828" data-name="Trazado 130828" d="M659.068,416.9c-1.045-6.716-10.822-6.194-12.762-9.627s4.4-3.657,8.284-5.6,4.4-9.179-1.418-11.941a12.013,12.013,0,0,1-6.438-8.6,26.663,26.663,0,0,0-10.264,14.915c1.865,2.94,1.214,6.34,2.073,10.7a13.725,13.725,0,0,1-.651,6.818,26.7,26.7,0,0,0,16.857,14.773C657.187,424.507,659.718,421.077,659.068,416.9Z" transform="translate(-636.471 -379.964)" fill="#5f9e82"/>
                    <path id="Trazado_130829" data-name="Trazado 130829" d="M675.185,383.932c-2.761,1.268-7.089,1.866-7.313,4.4s1.29,7.911,4.75,7.537,2.862-4.179,5.848-4.254c2.3-.057,6.148,4.176,10.967,4.659a26.682,26.682,0,0,0-12.091-16.366C677.236,381.676,676.716,383.229,675.185,383.932Z" transform="translate(-637.813 -379.912)" fill="#5f9e82"/>
                    <path id="Trazado_130830" data-name="Trazado 130830" d="M690.192,403.636c0-.1-.007-.2-.008-.307a12.373,12.373,0,0,1-4.287-.8,17.472,17.472,0,0,0-12.015-.448c-4.03,1.343-8.7,7.239-6.066,13.806,1.869,4.661,7.746,5.117,10.923,9.628A26.6,26.6,0,0,0,690.192,403.636Z" transform="translate(-637.778 -380.823)" fill="#5f9e82"/>
                    <path id="Trazado_130831" data-name="Trazado 130831" d="M673.083,429.591c-4.807-3.179-8.137-.784-10.1,1.82.131,0,.261.011.393.011A26.564,26.564,0,0,0,673.083,429.591Z" transform="translate(-637.605 -381.971)" fill="#5f9e82"/>
                  </g>
                  <circle id="Elipse_1677" data-name="Elipse 1677" cx="26.637" cy="26.637" r="26.637" fill="none" stroke="#2e2854" stroke-linecap="round" stroke-linejoin="round" stroke-width="1.2"/>
                </g>
                <g id="Grupo_61172" data-name="Grupo 61172" transform="translate(55.879 25.731)">
                  <path id="Trazado_130832" data-name="Trazado 130832" d="M695.066,383.637s-7.458-9.545,3.153-17.871C698.219,365.766,707.176,377.754,695.066,383.637Z" transform="translate(-671.303 -365.766)" fill="#87c699"/>
                  <path id="Trazado_130833" data-name="Trazado 130833" d="M686.11,396.841s7.265,8.4,17.4-1.092C703.514,395.749,693.293,389.055,686.11,396.841Z" transform="translate(-671.029 -366.933)" fill="#87c699"/>
                  <path id="Trazado_130834" data-name="Trazado 130834" d="M679.235,404.223s-10.533-.954-8.655-12.832C670.58,391.391,680.708,393.587,679.235,404.223Z" transform="translate(-670.356 -366.861)" fill="#87c699"/>
                  <path id="Trazado_130835" data-name="Trazado 130835" d="M677.74,416.795s-2.612-13.161,8-20.866,11.428-24.193,11.428-24.193" transform="translate(-670.659 -366.021)" fill="none" stroke="#2e2854" stroke-linecap="round" stroke-linejoin="round" stroke-width="1.2"/>
                </g>
                <g id="Grupo_61173" data-name="Grupo 61173" transform="translate(0 45.311)">
                  <path id="Trazado_130836" data-name="Trazado 130836" d="M621.472,400.584s2.86-10.679-9.14-14.364C612.332,386.22,609.231,400.924,621.472,400.584Z" transform="translate(-611.982 -386.22)" fill="#87c699"/>
                  <path id="Trazado_130837" data-name="Trazado 130837" d="M631.043,405.116s-7.592-7.7,0-15.047C631.043,390.069,637.753,396.061,631.043,405.116Z" transform="translate(-612.652 -386.385)" fill="#87c699"/>
                  <path id="Trazado_130838" data-name="Trazado 130838" d="M617.209,395.271A19.415,19.415,0,0,0,630.6,405.338c9.632,1.85,13.391,6.217,13.714,12.462" transform="translate(-612.205 -386.607)" fill="none" stroke="#2e2854" stroke-linecap="round" stroke-linejoin="round" stroke-width="1.2"/>
                </g>
                <path id="Trazado_130839" data-name="Trazado 130839" d="M637.291,374.321s-7.795-5.218-11.436,1.267,8.525,1.28.923-3.045-9.63,3.393-9.63,3.393" transform="translate(-612.202 -340.268)" fill="none" stroke="#2e2854" stroke-linecap="round" stroke-linejoin="round" stroke-width="1.2"/>
                <path id="Trazado_130840" data-name="Trazado 130840" d="M708.35,407.324s7.795-5.218,11.436,1.268-8.525,1.28-.924-3.046,9.631,3.394,9.631,3.394" transform="translate(-616.101 -341.679)" fill="none" stroke="#2e2854" stroke-linecap="round" stroke-linejoin="round" stroke-width="1.2"/>
                <path id="Trazado_130841" data-name="Trazado 130841" d="M691.366,359.922s-2.455-5.979,2.217-9.556,7.278-.716,5.938,1.35-6.21-4.261-3.168-8.785a9.492,9.492,0,0,1,8.282-4.03" transform="translate(-615.348 -338.885)" fill="none" stroke="#2e2854" stroke-linecap="round" stroke-linejoin="round" stroke-width="1.2"/>
              </g>
              <g id="Grupo_61175" data-name="Grupo 61175" transform="translate(26.314 15.82)">
                <line id="Línea_742" data-name="Línea 742" x1="23.708" y2="57.276" fill="none" stroke="#2e2854" stroke-linecap="round" stroke-linejoin="round" stroke-width="1.2"/>
                <line id="Línea_743" data-name="Línea 743" x2="23.708" y2="57.276" transform="translate(23.708)" fill="none" stroke="#2e2854" stroke-linecap="round" stroke-linejoin="round" stroke-width="1.2"/>
              </g>
              <path id="Trazado_130842" data-name="Trazado 130842" d="M624.185,415.246a39.34,39.34,0,0,0,76.681,0Z" transform="translate(-612.503 -342.15)" fill="#4e448f"/>
            </g>
          </g>
        </g>
        <g id="Grupo_61179" data-name="Grupo 61179" transform="translate(27.169 0)">
          <path id="Trazado_130843" data-name="Trazado 130843" d="M548.462,219.353a4.914,4.914,0,1,0,4.914-4.915A4.913,4.913,0,0,0,548.462,219.353Z" transform="translate(-77.019 -45.384)" fill="none" stroke="#2e2854" stroke-linecap="round" stroke-linejoin="round" stroke-width="1.2"/>
          <path id="Trazado_130844" data-name="Trazado 130844" d="M668.4,109.728a4.914,4.914,0,1,0,4.914-4.915A4.913,4.913,0,0,0,668.4,109.728Z" transform="translate(-82.146 -40.697)" fill="none" stroke="#2e2854" stroke-linecap="round" stroke-linejoin="round" stroke-width="1.2"/>
          <path id="Trazado_130845" data-name="Trazado 130845" d="M537.547,438.4a4.914,4.914,0,1,0,4.914-4.914A4.913,4.913,0,0,0,537.547,438.4Z" transform="translate(-76.552 -54.748)" fill="none" stroke="#2e2854" stroke-linecap="round" stroke-linejoin="round" stroke-width="1.2"/>
          <path id="Trazado_130846" data-name="Trazado 130846" d="M55.964,296.1a4.914,4.914,0,1,0,4.915-4.914A4.914,4.914,0,0,0,55.964,296.1Z" transform="translate(-55.964 -48.665)" fill="none" stroke="#2e2854" stroke-linecap="round" stroke-linejoin="round" stroke-width="1.2"/>
          <path id="Trazado_130847" data-name="Trazado 130847" d="M182.129,42.748a4.914,4.914,0,1,0,4.914-4.914A4.913,4.913,0,0,0,182.129,42.748Z" transform="translate(-61.358 -37.834)" fill="none" stroke="#2e2854" stroke-linecap="round" stroke-linejoin="round" stroke-width="1.2"/>
          <path id="Trazado_130848" data-name="Trazado 130848" d="M463.494,63.339a4.914,4.914,0,1,0,4.914-4.914A4.913,4.913,0,0,0,463.494,63.339Z" transform="translate(-73.386 -38.714)" fill="none" stroke="#2e2854" stroke-linecap="round" stroke-linejoin="round" stroke-width="1.2"/>
          <line id="Línea_744" data-name="Línea 744" transform="translate(481.113 16.294)" fill="none" stroke="#2e2854" stroke-linecap="round" stroke-linejoin="round" stroke-width="2"/>
          <line id="Línea_745" data-name="Línea 745" transform="translate(38.747 89.456)" fill="none" stroke="#2e2854" stroke-linecap="round" stroke-linejoin="round" stroke-width="2"/>
          <line id="Línea_746" data-name="Línea 746" transform="translate(140.393 154.534)" fill="none" stroke="#2e2854" stroke-linecap="round" stroke-linejoin="round" stroke-width="2"/>
          <line id="Línea_747" data-name="Línea 747" transform="translate(19.674 50.294)" fill="none" stroke="#2e2854" stroke-linecap="round" stroke-linejoin="round" stroke-width="2"/>
          <line id="Línea_748" data-name="Línea 748" transform="translate(427.186 121.454)" fill="none" stroke="#2e2854" stroke-linecap="round" stroke-linejoin="round" stroke-width="2"/>
          <line id="Línea_749" data-name="Línea 749" transform="translate(344.592 382.234)" fill="none" stroke="#2e2854" stroke-linecap="round" stroke-linejoin="round" stroke-width="2"/>
          <line id="Línea_750" data-name="Línea 750" transform="translate(550.801 183.118)" fill="none" stroke="#2e2854" stroke-linecap="round" stroke-linejoin="round" stroke-width="2"/>
          <line id="Línea_751" data-name="Línea 751" transform="translate(180.13 34.068)" fill="none" stroke="#2e2854" stroke-linecap="round" stroke-linejoin="round" stroke-width="2"/>
          <line id="Línea_752" data-name="Línea 752" transform="translate(571.018 43.896)" fill="none" stroke="#2e2854" stroke-linecap="round" stroke-linejoin="round" stroke-width="2"/>
          <line id="Línea_753" data-name="Línea 753" transform="translate(4.914 368.939)" fill="none" stroke="#2e2854" stroke-linecap="round" stroke-linejoin="round" stroke-width="2"/>
          <line id="Línea_754" data-name="Línea 754" transform="translate(283.47 7.438)" fill="none" stroke="#2e2854" stroke-linecap="round" stroke-linejoin="round" stroke-width="2"/>
          <line id="Línea_755" data-name="Línea 755" transform="translate(356.735 205.849)" fill="none" stroke="#2e2854" stroke-linecap="round" stroke-linejoin="round" stroke-width="2"/>
          <line id="Línea_756" data-name="Línea 756" transform="translate(190.709 189.705)" fill="none" stroke="#2e2854" stroke-linecap="round" stroke-linejoin="round" stroke-width="2"/>
          <line id="Línea_757" data-name="Línea 757" transform="translate(471.286 288.328)" fill="none" stroke="#2e2854" stroke-linecap="round" stroke-linejoin="round" stroke-width="2"/>
          <line id="Línea_758" data-name="Línea 758" transform="translate(507.483 333.493)" fill="none" stroke="#2e2854" stroke-linecap="round" stroke-linejoin="round" stroke-width="2"/>
          <line id="Línea_759" data-name="Línea 759" transform="translate(61.171 295.809)" fill="none" stroke="#2e2854" stroke-linecap="round" stroke-linejoin="round" stroke-width="2"/>
          <line id="Línea_760" data-name="Línea 760" transform="translate(584.924 261.255)" fill="none" stroke="#2e2854" stroke-linecap="round" stroke-linejoin="round" stroke-width="2"/>
        </g>
      </g>
      <path id="Trazado_130854" data-name="Trazado 130854" d="M-54.266,1350H-105v219.21" transform="translate(546.989 2210.086)" fill="none" stroke="#a0a603" stroke-width="1" stroke-dasharray="2"/>
      <path id="Trazado_130856" data-name="Trazado 130856" d="M93.629,1569.21H-105V1350" transform="translate(575.706 1838.673)" fill="none" stroke="#a0a603" stroke-width="1" stroke-dasharray="2"/>
      <path id="Trazado_130857" data-name="Trazado 130857" d="M-105,1578.783H31.408V1350" transform="translate(1041.887 1838.673)" fill="none" stroke="#a0a603" stroke-width="1" stroke-dasharray="2"/>
      <path id="Trazado_130855" data-name="Trazado 130855" d="M-105,1350h23.357v219.21" transform="translate(1220.509 2210.086)" fill="none" stroke="#a0a603" stroke-width="1" stroke-dasharray="2"/>
      <line id="Línea_761" data-name="Línea 761" y1="99.554" transform="translate(778.462 3669.69)" fill="none" stroke="#a0a603" stroke-width="1" stroke-dasharray="2"/>
    </g>
  </g>
</svg>
