<svg xmlns="http://www.w3.org/2000/svg" width="347.497" height="216.468" viewBox="0 0 347.497 216.468">
  <g id="Grupo_62111" data-name="Grupo 62111" transform="translate(-3347.775 -646.271)">
    <g id="Grupo_58313" data-name="Grupo 58313" transform="translate(3421.339 646.44)">
      <path id="Trazado_117194" data-name="Trazado 117194" d="M3586.813,816.927c3.636-7.781,5.578-16.243,3.465-24.337C3579.9,809.351,3581.824,815.46,3586.813,816.927Z" transform="translate(-3401.388 -634.033)" fill="#a0a603" opacity="0.5"/>
      <path id="Trazado_117195" data-name="Trazado 117195" d="M3552.95,842.86h0Z" transform="translate(-3403.92 -629.765)" fill="#a0a603" opacity="0.5"/>
      <path id="Trazado_117196" data-name="Trazado 117196" d="M3542.22,819.251c-17.855-20.762-13.955-38.773.6-39.861,4.827-30.3,64.853-113.723-12.666-130.456-84.547-18.25-40.3,69.188-53.135,82.988-14.429,15.514-60.056-25.753-41.6,40.006,14.479,51.6-8.276,26.628-16.775,42.944-10.623,20.4,9.843,44.663,9.843,44.663h134.8S3557.144,836.6,3542.22,819.251Z" transform="translate(-3415.582 -646.44)" fill="#a0a603" opacity="0.5"/>
    </g>
    <g id="Grupo_58327" data-name="Grupo 58327" transform="translate(3396.839 646.832)">
      <g id="Grupo_58313-2" data-name="Grupo 58313" transform="translate(25.21 3.406)" opacity="0.5">
        <path id="Trazado_117196-2" data-name="Trazado 117196" d="M3419.216,664.249c1.85-.137,4.158-2.966,4.158-2.966s-2.209-2.5-4.059-2.351a3.082,3.082,0,0,0-3.079,2.886C3416.215,663.286,3417.367,664.387,3419.216,664.249Z" transform="translate(-3416.237 -649.178)" fill="#a0a603"/>
        <path id="Trazado_117197" data-name="Trazado 117197" d="M3428.582,654.934c.2,2.7,2.773,5.466,2.773,5.466s2.089-3.831,1.89-6.532-1.369-4.185-2.657-3.889S3428.383,652.231,3428.582,654.934Z" transform="translate(-3415.191 -649.941)" fill="#a0a603"/>
        <path id="Trazado_117198" data-name="Trazado 117198" d="M3439.259,658.754c-.91,3.87,1.21,9.556,1.21,9.556s4.34-3.765,5.253-7.634.044-6.766-1.737-7.3S3440.171,654.884,3439.259,658.754Z" transform="translate(-3414.301 -649.656)" fill="#a0a603"/>
        <path id="Trazado_117199" data-name="Trazado 117199" d="M3450.245,665.479c-2.644,3.773-2.883,11.854-2.883,11.854s6.218-1.134,8.862-4.907,2.988-7.733,1.336-9.656S3452.887,661.705,3450.245,665.479Z" transform="translate(-3413.594 -648.936)" fill="#a0a603"/>
        <path id="Trazado_117200" data-name="Trazado 117200" d="M3459.272,679.343c-3.279,1.233-6.532,7.369-6.532,7.369s4.766,3.12,8.047,1.887,5.034-4.092,4.616-6.649S3462.556,678.112,3459.272,679.343Z" transform="translate(-3413.138 -647.485)" fill="#a0a603"/>
        <path id="Trazado_117201" data-name="Trazado 117201" d="M3462.627,695.208c-2.427-.524-5.974,1.933-5.974,1.933s2.379,3.737,4.806,4.26,4.23-.529,4.555-2.238S3465.054,695.733,3462.627,695.208Z" transform="translate(-3412.806 -646.104)" fill="#a0a603"/>
        <path id="Trazado_117202" data-name="Trazado 117202" d="M3425.165,672.2c2.208-.6,4.592-4.472,4.592-4.472s-3.011-2.4-5.219-1.8a4.083,4.083,0,0,0-3.3,4.123C3421.407,671.784,3422.955,672.8,3425.165,672.2Z" transform="translate(-3415.813 -648.592)" fill="#a0a603"/>
        <path id="Trazado_117203" data-name="Trazado 117203" d="M3432.516,681.578c2.68-1.9,4.573-7.913,4.573-7.913s-4.654-1.38-7.334.518-3.77,4.763-3.006,6.8S3429.835,683.477,3432.516,681.578Z" transform="translate(-3415.365 -647.968)" fill="#a0a603"/>
        <path id="Trazado_117204" data-name="Trazado 117204" d="M3442.058,694.276c2.367-3.186,2.742-10.2,2.742-10.2s-5.4.758-7.769,3.95-2.749,6.618-1.361,8.345S3439.691,697.463,3442.058,694.276Z" transform="translate(-3414.656 -647.043)" fill="#a0a603"/>
        <path id="Trazado_117205" data-name="Trazado 117205" d="M3449.51,702.3c.851-2.461-.137-6.471-.137-6.471s-3.071,2-3.922,4.459-.486,4.479.635,5.034S3448.658,704.765,3449.51,702.3Z" transform="translate(-3413.797 -646.044)" fill="#a0a603"/>
        <path id="Trazado_117206" data-name="Trazado 117206" d="M3463.548,771.438l.7-.108a268.819,268.819,0,0,0-.126-28.849c-.868-15.064-3.458-36.344-10.881-52.161s-14.646-23.116-19.389-26.445c-5.185-3.635-8.743-2.579-8.743-2.579.032,0,3.389-.129,8.432,3.426,4.665,3.289,11.766,10.491,19.094,26.115,7.355,15.678,9.927,36.815,10.788,51.786A266.264,266.264,0,0,1,3463.548,771.438Z" transform="translate(-3415.483 -648.989)" fill="#bdebfd" stroke="#a0a603" stroke-miterlimit="10" stroke-width="1"/>
      </g>
      <g id="Grupo_58315" data-name="Grupo 58315" transform="translate(141.244 56.634)">
        <path id="Trazado_117207" data-name="Trazado 117207" d="M3556.172,855.073s-6.142-22.936-21.067-40.284c-18.941-22.023-13.406-40.961,3.363-39.877,18.655,1.205,21.184,5.876,24.821-6.928s2.727-68.9,41.375-68.981,10,74.413-6.365,100.021-5.456,27.742,3.183,25.6,16.823,6.744,13.185,16.37a29.43,29.43,0,0,1-11.139,14.072Z" transform="translate(-3523.191 -699.003)" fill="#a0a603" opacity="0.5"/>
        <g id="Grupo_58314" data-name="Grupo 58314" transform="translate(37.53 0.277)">
          <path id="Trazado_117208" data-name="Trazado 117208" d="M3572.4,793.071c-1.917-6.885-8.355-14.026-14.212-19.391-.132.226-.267.434-.4.634,6.061,5.565,12.657,13,14.1,20-3.934,9.438-6.585,18.266-6.585,26.1a155.967,155.967,0,0,0,3.939,34.635h.82a155.5,155.5,0,0,1-3.951-34.635,53.741,53.741,0,0,1,2.851-15.92c1.281-.915,16.676-11.741,32.6-16.416.145-.283.29-.564.434-.852-14.6,4.123-28.874,13.51-32.661,16.115,3.412-10.336,9.113-21.673,15.018-33.422q.358-.714.719-1.431a118.124,118.124,0,0,0,26.94-4.382c.1-.27.2-.54.294-.809a117.472,117.472,0,0,1-26.878,4.484q1.544-3.079,3.081-6.175c2.062-.242,15.992-1.953,26.207-5.345.09-.282.178-.564.268-.846-9.547,3.255-22.938,5.052-26.11,5.447,5.554-11.276,10.733-22.657,13.612-33.473,1.883-.074,11.782-.759,18.5-6.9-.016-.326-.039-.651-.061-.976-6.292,6.219-15.974,7.063-18.26,7.176.143-.553.291-1.108.423-1.658,2.791-11.817,3.535-20,3.354-25.638-.268-.05-.542-.093-.819-.136.2,5.562-.517,13.729-3.329,25.637a110.419,110.419,0,0,1-4.492,14.157c-2.749-.808-20-6.255-27.255-17.3-.123.282-.244.565-.362.849,7.58,10.91,24.591,16.286,27.362,17.1-3.858,9.884-8.948,20.024-13.935,29.943C3579.546,777.709,3575.59,785.578,3572.4,793.071Z" transform="translate(-3557.784 -699.258)" fill="#bdebfd" stroke="#a0a603" stroke-miterlimit="10" stroke-width="1" opacity="0.5"/>
          <path id="Trazado_117209" data-name="Trazado 117209" d="M3575.36,845.322c1.193-5.56,5.022-21.047,12.462-30.986a4.93,4.93,0,0,1-.6-.47c-7.625,10.133-11.509,25.945-12.684,31.457Z" transform="translate(-3556.361 -689.528)" fill="#69d3fd"/>
          <path id="Trazado_117210" data-name="Trazado 117210" d="M3606.825,817.565c-.192-.181-.387-.355-.588-.521a60.016,60.016,0,0,0-9.244,6.374,54.5,54.5,0,0,0-8.231,8.462,27.427,27.427,0,0,1,1.972-16.549c-.276-.026-.542-.062-.812-.108a28.028,28.028,0,0,0-1.8,17.5,50.927,50.927,0,0,0-6.871,12.484h.841a51.457,51.457,0,0,1,13.516-19.594,37.7,37.7,0,0,0,7.96.892,22.956,22.956,0,0,0,7.02-.992c-.019-.248-.043-.5-.074-.74-5.375,1.823-12.152.693-14.266.261.427-.377.858-.751,1.307-1.123A58.1,58.1,0,0,1,3606.825,817.565Z" transform="translate(-3555.791 -689.413)" fill="#69d3fd" stroke="#a0a603" stroke-miterlimit="10" stroke-width="1" opacity="0.5"/>
        </g>
      </g>
      <g id="Grupo_58318" data-name="Grupo 58318" transform="translate(26.537)">
        <path id="Trazado_117218" data-name="Trazado 117218" d="M3417.46,814.559q.013-.614.051-1.226c8.6,2.539,17.175.579,19.756-.132a83.024,83.024,0,0,0-12.624-15.555,10.882,10.882,0,0,1,1.071-.6c8.143,7.791,14.57,17.921,19.493,27.91-.282-5.533-1.8-19.037-9.742-30.206q.62-.151,1.2-.35c10.185,14.634,9.8,32.927,9.791,33.151h0a178.124,178.124,0,0,1,7.691,19.42h-1.25a156.112,156.112,0,0,0-14.965-32.725,42.01,42.01,0,0,1-11.21,1.534A34.131,34.131,0,0,1,3417.46,814.559Z" transform="translate(-3417.46 -634.27)" fill="#84dafd"/>
        <path id="Trazado_117219" data-name="Trazado 117219" d="M3468.769,804.724c-2.671-.127-14.489-1.128-29.077-8.941a10.258,10.258,0,0,0,.363-1.159c14.074,7.594,25.529,8.725,28.513,8.9-.953-5.642-2.1-11.309-3.488-16.829-2.66-.3-15.335-2-25.943-8.253q-.159-.8-.338-1.627c10.046,6.225,22.553,8.2,25.96,8.638-3.978-15.4-9.823-29.575-18.4-38.965a95.832,95.832,0,0,1-12-16.686,8.7,8.7,0,0,1,.851-.9,95.219,95.219,0,0,0,12.036,16.782c5.784,6.33,10.336,14.8,13.923,24.335.641-7.5,1.968-30.207-4.061-42.186l1.438.231c6.917,14.882,3.736,43.136,3.57,44.561,9.344,26.6,11.608,60.5,12.09,80.007h-1.194A358.321,358.321,0,0,0,3468.769,804.724Z" transform="translate(-3416.026 -639.922)" fill="#84dafd" stroke="#a0a603" stroke-miterlimit="10" stroke-width="1" opacity="0.5"/>
        <path id="Trazado_117221" data-name="Trazado 117221" d="M3500.942,859.505c0-7.335.147-15.561.568-24.428h-.025c-.109-.749-9.791-67.564-37.033-99.377.506-.005,1.005-.024,1.5-.059,22.566,27.064,32.97,77.6,35.851,93.991a420.644,420.644,0,0,1,6.933-56.212c-.156-.217-.357-.51-.646-.935-7.842-11.574-20.461-29.242-32.358-41.769a8.7,8.7,0,0,0,.558-1.13c12.061,12.62,24.844,30.5,32.772,42.2q1.377-6.807,3.05-13.622a248.482,248.482,0,0,0,6.851-52.78c-3.993-.017-25.678-.5-43.712-8.462-.044-.452-.085-.9-.126-1.357,17.957,8.143,39.981,8.6,43.87,8.622.193-8.525,0-16.677-.434-24.285-3.61-1.209-27.175-9.316-40.013-18.86.181-.362.366-.724.562-1.076,12.113,9.042,34.646,17.033,39.382,18.651-.759-12.368-2.145-23.231-3.537-31.818.407.04.813.079,1.226.125a323.624,323.624,0,0,1,4.006,43.755c16.2-2.083,32.674-11.843,42.962-19.044.181.357.372.711.542,1.074-10.433,7.286-27.083,17.1-43.476,19.172a265.855,265.855,0,0,1-4.954,57.755c4.933-1.568,27.8-9.161,43.8-19.962-.237.651-.477,1.309-.719,1.963-16.9,11-40.062,18.325-43.365,19.336q-.782,3.733-1.7,7.475a372.2,372.2,0,0,0-8.622,50.711c3.164-4.4,12.452-14.545,35.833-24.8a9.583,9.583,0,0,0,.224,1.21c-28.1,12.418-35.541,24.8-36.321,26.223-1.736,17.819-2.256,34.271-2.248,47.7Z" transform="translate(-3413.471 -646.801)" fill="#bdebfd" stroke="#a0a603" stroke-miterlimit="10" stroke-width="1" opacity="0.5"/>
      </g>
      <g id="Grupo_58326" data-name="Grupo 58326" transform="translate(0 96.258)">
        <path id="Trazado_117249" data-name="Trazado 117249" d="M3434.065,851.971s.693-17.648-17.4-30.435-29.812-27.69-20.256-31.019,20.3,4.818,23.068.355c4.374-7.063-30.811-38.575-11.809-52.818s42.826,35.593,38.423,53.017c-5.9,23.342-5.011,37.825-.858,37.825s6.123-4.464,9.456.542-14.449,22.532-14.449,22.532Z" transform="translate(-3393 -735.526)" fill="#a0a603" opacity="0.5"/>
        <g id="Grupo_58325" data-name="Grupo 58325" transform="translate(1.38 2.998)">
          <path id="Trazado_117250" data-name="Trazado 117250" d="M3437.506,851.736a58.684,58.684,0,0,0-1.819-27.569,63.027,63.027,0,0,1-2.65-12.787,30.471,30.471,0,0,1,9.49-9.138c.032-.182.066-.362.1-.542a31.688,31.688,0,0,0-9.674,8.95c-.512-4.819-.7-9.758-.878-14.612-.127-3.407-.252-6.734-.48-9.953.441.03,1.338.078,2.531.078a38.161,38.161,0,0,0,6.906-.6c1.327-.249,2.9-.6,4.484-.976-.008-.132-.013-.266-.021-.4-1.618.387-3.228.749-4.578,1a39.586,39.586,0,0,1-9.351.5q-.115-1.57-.269-3.1a30.4,30.4,0,0,0,10.658-2.5c.976-.488,1.926-1.021,2.827-1.559-.026-.146-.055-.292-.082-.434-.954.577-1.976,1.153-3.02,1.674a29.7,29.7,0,0,1-10.424,2.432,61.46,61.46,0,0,0-1.663-9.459c-1.085-4.06-3.58-8.722-6.631-13.365.925-.542,5.594-3.459,7.682-7.786.5-1.026.944-2.083,1.342-3.108q-.171-.243-.344-.482c-.434,1.136-.925,2.318-1.476,3.464-1.992,4.124-6.393,6.944-7.436,7.563a176.513,176.513,0,0,0-16.707-20.75c-.119.1-.243.194-.357.294,5.474,5.916,15.5,17.41,20.7,27.5-.566.3-2.917,1.353-8.182,1.231-3.495-.08-8.679-1.627-12.549-2.96.091.177.182.354.274.531,3.836,1.3,8.788,2.737,12.25,2.821.3.008.581.011.857.01,4.576,0,6.794-.881,7.536-1.258a34.091,34.091,0,0,1,2.545,6.382c1.866,6.952,2.159,14.863,2.47,23.228q.059,1.608.124,3.226c-2.9-4-8.486-7.332-12.962-9.537a2.861,2.861,0,0,1-.109.412c4.665,2.312,10.468,5.835,13.106,10.035.351,8.278.976,16.633,3.465,24.084a58.394,58.394,0,0,1,1.8,27.467Z" transform="translate(-3393.307 -738.29)" fill="#bdebfd" stroke="#a0a603" stroke-miterlimit="10" stroke-width="1" opacity="0.5"/>
          <path id="Trazado_117251" data-name="Trazado 117251" d="M3444.814,826.2a22.985,22.985,0,0,1,4.945-5.533,3.975,3.975,0,0,0-.35-.279,22.823,22.823,0,0,0-6.482,8.321c-.563,1.267-1.219,2.721-1.9,4.231a24.336,24.336,0,0,1-.171-11.438,2.1,2.1,0,0,1-.434-.307,24.73,24.73,0,0,0,.283,12.46c-2,4.385-4.176,9.08-5.119,11.109h.543c1.373-2.953,5.061-10.905,7.295-15.939a4.675,4.675,0,0,1,7.55-2.6c.048-.127.093-.251.134-.374A19.845,19.845,0,0,0,3444.814,826.2Z" transform="translate(-3390.765 -731.32)" fill="#8cddfd"/>
          <path id="Trazado_117252" data-name="Trazado 117252" d="M3436.734,847.6a33.875,33.875,0,0,0,.265-17.341c-3.074-13.561-10.563-25.144-22.257-34.438a43.22,43.22,0,0,0-20.05-8.871,4.768,4.768,0,0,0-.42.326,42.653,42.653,0,0,1,20.1,8.81c.247.2.483.4.725.6-2.312.027-10.662.4-16.9,4.205l.271.326c6.7-4.115,15.954-4.156,17.1-4.142a69.421,69.421,0,0,1,6.184,5.786c-1.684.628-9.764,3.759-14,7.486l.345.293c4.209-3.719,12.545-6.936,13.953-7.464a58.925,58.925,0,0,1,11.67,18.264,58.928,58.928,0,0,0-13.822-1.69c.148.125.3.252.44.379a62.25,62.25,0,0,1,13.561,1.763c.188.48.374.957.548,1.441-1.814-.418-8.41-1.843-12.218-1.458.121.118.243.238.362.356,3.98-.289,10.918,1.289,12.01,1.545a59.31,59.31,0,0,1,1.9,6.553,33.546,33.546,0,0,1-.282,17.269Z" transform="translate(-3394.272 -734.158)" fill="#8cddfd" stroke="#a0a603" stroke-miterlimit="10" stroke-width="1" opacity="0.5"/>
        </g>
      </g>
    </g>
    <g id="Grupo_60072" data-name="Grupo 60072" transform="translate(3347.775 765.156)">
      <g id="Grupo_60070" data-name="Grupo 60070">
        <g id="Grupo_60068" data-name="Grupo 60068">
          <path id="Trazado_118167" data-name="Trazado 118167" d="M3372.962,813.586s11.869-15.757,9.466-20.086-6.611,6.431-6.611,6.431,7.513-28.69,3.605-30.794-6.461,12.119-6.461,12.119-.3-24.239-5.109-25.352-.9,21.831-.9,21.831-1.388-11.815-4.375-12.308-1.334,23.886-1.334,23.886-2.854-15.972-7.062-16.714,1.2,22.384,1.2,22.384-3.306-9.559-6.761-9.541,4.809,21.29,4.809,21.29-1.5-4.329-3.681-4.2,2.854,11.058,2.854,11.058Z" transform="translate(-3347.775 -755.866)" fill="#559222"/>
        </g>
        <g id="Grupo_60069" data-name="Grupo 60069" transform="translate(0.112 0.002)">
          <path id="Trazado_118168" data-name="Trazado 118168" d="M3357.874,810.782h2.627c-.565-10.708-5.081-24-7.768-31.087q-.044-.474-.076-.931c2.634,6.829,7.522,20.83,8.112,32.016h.74c.721-11.21-5.642-31.252-7.951-38.088a.83.83,0,0,1,.246-.094c2.3,6.811,8.69,26.917,7.971,38.182h2.5c1.146-9.384-1.827-26.8-3.489-35.394q.007-.651.019-1.3c1.589,8.035,4.94,26.789,3.739,36.689h.61c1.56-14.986-2.031-37.691-3.283-44.905a1.319,1.319,0,0,1,.217-.282c1.212,6.932,4.9,30,3.331,45.187h3.615c2.652-19.372-1.085-49.226-1.844-54.867a1.2,1.2,0,0,1,.262-.046c.749,5.587,4.5,35.49,1.844,54.911h1.417a211.1,211.1,0,0,1,8.1-41.835,1.645,1.645,0,0,1,.26.05,210.883,210.883,0,0,0-8.092,41.784h.5a143.387,143.387,0,0,1,8.911-34.5c-.027.3-.054.612-.088.928a143.4,143.4,0,0,0-8.556,33.573h1.4a78.337,78.337,0,0,1,9.151-17.467,2.013,2.013,0,0,1,.114.181c.01.02.015.041.025.06a78.138,78.138,0,0,0-9.012,17.223h1.527c-1.175,1.7-2.006,2.8-2.006,2.8h-20.36s-.55-1.193-1.208-2.8h2.381a35.924,35.924,0,0,0-4.557-7.565,1.3,1.3,0,0,1,.072-.315,36.264,36.264,0,0,1,4.766,7.88h3.555c-2.019-9.156-7.082-19.61-9.715-24.671a1.382,1.382,0,0,1,.129-.309C3350.623,790.79,3355.825,801.46,3357.874,810.782Z" transform="translate(-3347.879 -755.868)" fill="#4f8a21"/>
        </g>
      </g>
      <g id="Grupo_60071" data-name="Grupo 60071" transform="translate(0.121 54.836)">
        <path id="Trazado_118169" data-name="Trazado 118169" d="M3347.887,806.411h29.854l-5.926,41.949h-18Z" transform="translate(-3347.887 -806.411)" fill="#232323"/>
      </g>
    </g>
    <g id="Grupo_60200" data-name="Grupo 60200" transform="translate(3385.375 693.819)">
      <g id="Grupo_60079" data-name="Grupo 60079" transform="translate(91.076 17.392)">
        <g id="Grupo_60076" data-name="Grupo 60076">
          <g id="Grupo_60075" data-name="Grupo 60075" transform="translate(7.084 7.009)">
            <path id="Trazado_118170" data-name="Trazado 118170" d="M3495.842,766.974c2.78,3.573,2.224,16.165,2.224,28.107,0,10.669-3.551,43.551-4.308,50.432h9.438c-.064-4.789-.3-21.718-.542-26.273-.278-5.322.325-12.932,1.436-14.507s3.708-5.765,3.708-5.765-4.54,5.024-4.818,3.406.092-13.533-.185-19.936-1.946-16.717-2.224-21.349-1.807-18.118-1.736-19.159,2.293-2.016,2.155-5.583,1.251-5.652,2.224-7.645,1.322-7.2,1.322-7.2-.487,4.379-2.363,6.811-2.433,6.742-2.433,8.131-1.853,3.289-2.317,2.41-3.8-6.742-4.934-9.453-.651-4.564-.834-6.046a13.816,13.816,0,0,0-1.726-3.95,15.931,15.931,0,0,0,1.008-3.73c-.116-.753-.613-2.455-.613-2.455a22.46,22.46,0,0,1,.29,2.328,11.747,11.747,0,0,1-1.112,3.383s-.977-1.112-2.271-2.5a51.692,51.692,0,0,0-4.448-3.819s8.2,7.71,7.505,11.915,2.642,10.947,5,15.917,2.5,20.329,1.53,21.926-3.568-.718-6.9-3.406-4.327-4.653-5.838-9.171c-2.223-6.648-11.166-15.015-11.166-15.015s9.2,9.883,10.345,17.98C3484.146,759.1,3493.056,763.4,3495.842,766.974Z" transform="translate(-3472.912 -712.603)" fill="#754c24"/>
            <path id="Trazado_118171" data-name="Trazado 118171" d="M3501.067,800.881c-.278-1.619.092-13.533-.186-19.936s-1.945-16.715-2.224-21.349-1.807-18.118-1.736-19.159,2.293-2.016,2.155-5.583a11.08,11.08,0,0,1,.8-4.686h0c-1.918,2.994-.867,6.074-1.9,7.741s-1.327.626-1.766,1.993,1.111,7.811.977,13.46,1.75,18.047,2.41,22.6.347,12.857-.035,18.384,1.354,8.93.695,9.209-.66-.589-.66-.589a8.566,8.566,0,0,0,.108,2.4c.243,1.356-.313,2.884-1.077,7.125s-.7,15.22-.976,21.128a37.728,37.728,0,0,1-2.278,10.4h5.92c-.064-4.788-.3-21.716-.542-26.273-.278-5.323.325-12.932,1.436-14.507s3.708-5.765,3.708-5.765S3501.344,802.5,3501.067,800.881Z" transform="translate(-3471.005 -711.112)" fill="#694320"/>
          </g>
          <path id="Trazado_118172" data-name="Trazado 118172" d="M3475,708.181c-.387.012-.388.374-.048.542,3.038,1.5,2.91,5.709,8.308,5.435.2-.01.542-.434.542-.6C3483.875,708.584,3478.874,708.058,3475,708.181Z" transform="translate(-3465.676 -705.97)" fill="#638524"/>
          <path id="Trazado_118173" data-name="Trazado 118173" d="M3490.549,709.344a7.023,7.023,0,0,0-3.158-3.168c-.228-.092-.319.01-.233.261.961,2.821-.1,5.622,1.946,8.085,0,.006.013.009.019.015a.325.325,0,0,0,.441.135.34.34,0,0,0,.113-.1C3491.608,712.4,3491.361,711.1,3490.549,709.344Z" transform="translate(-3464.621 -706.142)" fill="#638524"/>
          <path id="Trazado_118174" data-name="Trazado 118174" d="M3474.795,741.763a7.015,7.015,0,0,0-3.338,2.978c-.108.217-.009.319.248.247,2.871-.8,5.608.408,8.179-1.5.008,0,.01-.012.018-.017a.326.326,0,0,0,.158-.432.33.33,0,0,0-.093-.117C3477.906,740.875,3476.6,741.05,3474.795,741.763Z" transform="translate(-3465.955 -703.16)" fill="#638524"/>
          <path id="Trazado_118175" data-name="Trazado 118175" d="M3502.28,712.856a.389.389,0,0,0-.718.194c-.086,3.49-3.046,5.491.082,10.306.049.075.24.448.651.051C3505.944,719.918,3504.9,716.3,3502.28,712.856Z" transform="translate(-3463.51 -705.588)" fill="#638524"/>
          <path id="Trazado_118176" data-name="Trazado 118176" d="M3509.995,733.85a.39.39,0,0,0-.236-.706c-3.489.109-5.656-2.725-10.281.673-.071.052-.434.265-.013.656C3503.154,737.913,3506.7,736.664,3509.995,733.85Z" transform="translate(-3463.591 -703.935)" fill="#638524"/>
          <path id="Trazado_118177" data-name="Trazado 118177" d="M3466.663,728.362a.263.263,0,0,0-.28.246.256.256,0,0,0,.053.177c.99,1.241,1.474,2.87,2.821,3.779a13.029,13.029,0,0,0,4.381,1.338c.217.051.261-.123.255-.4C3473.769,728.517,3469.939,728.62,3466.663,728.362Z" transform="translate(-3466.382 -704.256)" fill="#638524"/>
          <path id="Trazado_118178" data-name="Trazado 118178" d="M3477.816,730.258a.237.237,0,0,0-.42.1c-.243,1.41-1.048,2.7-.858,4.149a11.683,11.683,0,0,0,1.717,3.743c.1.179.237.1.42-.067C3481.954,735.127,3479.6,732.615,3477.816,730.258Z" transform="translate(-3465.523 -704.103)" fill="#638524"/>
        </g>
        <g id="Grupo_60078" data-name="Grupo 60078" transform="translate(15.252 119.045)">
          <g id="Grupo_60077" data-name="Grupo 60077" transform="translate(6.646)">
            <path id="Trazado_118179" data-name="Trazado 118179" d="M3486.567,821.678s.684-2.651,2.16-3.007a8.388,8.388,0,0,0,2.735-.984,4.161,4.161,0,0,1,2.488-.766,5.39,5.39,0,0,0,2.953-.325c.792-.464.928-.93,2.432-.629a16.347,16.347,0,0,0,3.61.382c1.968.083,2.706.356,3.336.9s2.35,1.312,2.705,2S3486.567,821.678,3486.567,821.678Z" transform="translate(-3486.567 -815.871)" fill="#764a3a"/>
            <path id="Trazado_118180" data-name="Trazado 118180" d="M3490.011,818.835a.122.122,0,0,1-.12.12.12.12,0,1,1,.12-.12Z" transform="translate(-3486.295 -815.63)" fill="#815240"/>
            <path id="Trazado_118181" data-name="Trazado 118181" d="M3491.39,819.55a.083.083,0,0,1-.084.084.084.084,0,1,1,.084-.084Z" transform="translate(-3486.171 -815.566)" fill="#815240"/>
            <circle id="Elipse_4235" data-name="Elipse 4235" cx="0.127" cy="0.127" r="0.127" transform="translate(5.912 1.925)" fill="#815240"/>
            <path id="Trazado_118182" data-name="Trazado 118182" d="M3493.687,817.465a.116.116,0,1,1-.116-.116h0A.116.116,0,0,1,3493.687,817.465Z" transform="translate(-3485.982 -815.746)" fill="#815240"/>
            <path id="Trazado_118183" data-name="Trazado 118183" d="M3493.766,819.091a.156.156,0,1,1-.156-.156.156.156,0,0,1,.156.156Z" transform="translate(-3485.982 -815.611)" fill="#815240"/>
            <path id="Trazado_118184" data-name="Trazado 118184" d="M3492.175,818.857a.145.145,0,1,1-.146-.145h0a.145.145,0,0,1,.144.144Z" transform="translate(-3486.115 -815.63)" fill="#815240"/>
            <path id="Trazado_118185" data-name="Trazado 118185" d="M3495.455,817.544a.088.088,0,1,1-.087-.088.087.087,0,0,1,.087.088Z" transform="translate(-3485.827 -815.737)" fill="#815240"/>
            <path id="Trazado_118186" data-name="Trazado 118186" d="M3494.938,819.289a.129.129,0,0,1-.256.012.124.124,0,0,1,.112-.134h.023A.123.123,0,0,1,3494.938,819.289Z" transform="translate(-3485.878 -815.591)" fill="#815240"/>
            <path id="Trazado_118187" data-name="Trazado 118187" d="M3496.048,819.227a.061.061,0,1,1-.123,0,.061.061,0,1,1,.123,0Z" transform="translate(-3485.772 -815.592)" fill="#815240"/>
            <path id="Trazado_118188" data-name="Trazado 118188" d="M3497.518,816.451a.141.141,0,1,1-.282,0,.139.139,0,0,1,.141-.14.141.141,0,0,1,.141.141Z" transform="translate(-3485.661 -815.834)" fill="#815240"/>
            <path id="Trazado_118189" data-name="Trazado 118189" d="M3499.984,817.179a.2.2,0,1,1-.2-.2.2.2,0,0,1,.2.2Z" transform="translate(-3485.462 -815.777)" fill="#815240"/>
            <path id="Trazado_118190" data-name="Trazado 118190" d="M3496.839,818.4a.253.253,0,1,1-.253-.253h0A.254.254,0,0,1,3496.839,818.4Z" transform="translate(-3485.738 -815.678)" fill="#815240"/>
            <path id="Trazado_118191" data-name="Trazado 118191" d="M3498.882,818.636a.09.09,0,0,1-.18,0,.089.089,0,0,1,.088-.09h0a.09.09,0,0,1,.09.09Z" transform="translate(-3485.537 -815.644)" fill="#815240"/>
            <path id="Trazado_118192" data-name="Trazado 118192" d="M3501.362,817.51a.16.16,0,1,1-.16-.161h0A.161.161,0,0,1,3501.362,817.51Z" transform="translate(-3485.338 -815.746)" fill="#815240"/>
            <path id="Trazado_118193" data-name="Trazado 118193" d="M3502.021,816.98a.217.217,0,1,1-.218-.217.218.218,0,0,1,.218.217Z" transform="translate(-3485.292 -815.796)" fill="#815240"/>
            <path id="Trazado_118194" data-name="Trazado 118194" d="M3498.72,817.529a.235.235,0,1,1-.236-.237.235.235,0,0,1,.236.237Z" transform="translate(-3485.575 -815.751)" fill="#815240"/>
            <path id="Trazado_118195" data-name="Trazado 118195" d="M3500.459,818.474a.035.035,0,0,1-.035.036.033.033,0,0,1-.035-.034.035.035,0,0,1,.034-.036h0A.037.037,0,0,1,3500.459,818.474Z" transform="translate(-3485.393 -815.653)" fill="#815240"/>
            <path id="Trazado_118196" data-name="Trazado 118196" d="M3502.763,817.748a.184.184,0,1,1-.185-.184.184.184,0,0,1,.185.184Z" transform="translate(-3485.223 -815.727)" fill="#815240"/>
            <path id="Trazado_118197" data-name="Trazado 118197" d="M3503.508,816.879a.116.116,0,1,1-.116-.116h0A.116.116,0,0,1,3503.508,816.879Z" transform="translate(-3485.149 -815.796)" fill="#815240"/>
            <path id="Trazado_118198" data-name="Trazado 118198" d="M3488.351,819.537a.257.257,0,1,1-.259-.258.258.258,0,0,1,.259.258Z" transform="translate(-3486.459 -815.582)" fill="#815240"/>
            <path id="Trazado_118199" data-name="Trazado 118199" d="M3497.41,819.371a.2.2,0,0,1-.408,0,.2.2,0,0,1,.408,0Z" transform="translate(-3485.681 -815.591)" fill="#815240"/>
            <path id="Trazado_118200" data-name="Trazado 118200" d="M3496.924,817.223a.142.142,0,0,1-.144.143.144.144,0,1,1,.144-.143Z" transform="translate(-3485.712 -815.769)" fill="#815240"/>
            <circle id="Elipse_4236" data-name="Elipse 4236" cx="0.184" cy="0.184" r="0.184" transform="translate(7 2.472)" fill="#815240"/>
            <path id="Trazado_118201" data-name="Trazado 118201" d="M3491.435,818.009a.108.108,0,0,1-.11.109.108.108,0,0,1,0-.217.109.109,0,0,1,.11.108Z" transform="translate(-3486.172 -815.699)" fill="#815240"/>
            <path id="Trazado_118202" data-name="Trazado 118202" d="M3489.561,819.808a.187.187,0,1,1-.188-.187h0a.186.186,0,0,1,.185.187Z" transform="translate(-3486.345 -815.553)" fill="#815240"/>
          </g>
          <path id="Trazado_118203" data-name="Trazado 118203" d="M3484.79,824.379s-.434,7.655-1.858,11.484-4.374,8.116-.766,10.73,14,.535,20.342.976,9.187.679,12.25-.976-1.64-15.105-2.3-17.073.651-8.34-.325-8.708-9.843,1.929-15.749,2.694S3484.79,824.379,3484.79,824.379Z" transform="translate(-3480.441 -815.455)" fill="#a47c52"/>
          <path id="Trazado_118204" data-name="Trazado 118204" d="M3506.045,842.281c-5.339-.3-14.084,1.11-17.122-.657s-.552-4.665.644-7.256,1.564-7.766,1.564-7.766,4.787-.074,9.758-.591c3.735-.389,8.872-1.363,11.549-1.717.108-1.774.163-3.307-.3-3.483-.984-.368-9.842,1.929-15.749,2.694s-11.594.874-11.594.874-.434,7.655-1.858,11.484-4.374,8.116-.766,10.73,14,.535,20.342.976,9.187.679,12.25-.976c1.018-.549,1.177-2.4.915-4.7C3513.329,842.711,3510.906,842.553,3506.045,842.281Z" transform="translate(-3480.441 -815.455)" fill="#97724c"/>
          <path id="Trazado_118205" data-name="Trazado 118205" d="M3502.639,824.846a20.092,20.092,0,0,1-5.182,1.759c-5.551,1.253-3.551,6.066-3.551,6.066s.593-2.659,2.431-3.6c1.478-.759,3.255-.839,4.041-1.557,0,0-.155.593-2.1,1.247a4.2,4.2,0,0,0-3.159,3.959c1.636,0,4.543-.256,6.292-1.861A5.317,5.317,0,0,0,3502.639,824.846Z" transform="translate(-3479.327 -815.109)" fill="#63b353"/>
          <path id="Trazado_118206" data-name="Trazado 118206" d="M3485.527,820.652a2.328,2.328,0,0,0-2.077,2.521c.255,1.751-1.021,2.789,1.567,3.056s5.686-.781,7.948-.474,6.415-.445,8.494-.919a24.3,24.3,0,0,1,5.8-.357c1.384.029,4.812.089,5.688-1.068s1.02-5.578-2.334-5.845-8.02,1.929-12.194,2.4S3489.073,820.345,3485.527,820.652Z" transform="translate(-3480.194 -815.729)" fill="#b38559"/>
          <path id="Trazado_118207" data-name="Trazado 118207" d="M3484.582,823.583c.618-1.137,3.555.457,5.741,0a24.253,24.253,0,0,1,7.574-.36c2.761.313-.247.7-3.746.868s-3.39.792-5.769.72S3484.146,824.384,3484.582,823.583Z" transform="translate(-3480.095 -815.259)" fill="#a47c52"/>
          <path id="Trazado_118208" data-name="Trazado 118208" d="M3511.013,820.975c-.914-1.07-4.541.816-7.412.585a40.5,40.5,0,0,0-9.813.412c-3.532.592.388.668,4.924.479s4.457.444,7.52.13S3511.657,821.729,3511.013,820.975Z" transform="translate(-3479.423 -815.466)" fill="#a47c52"/>
        </g>
      </g>
      <g id="Grupo_60151" data-name="Grupo 60151" transform="translate(38.23 43.184)">
        <g id="Grupo_60148" data-name="Grupo 60148">
          <g id="Grupo_60108" data-name="Grupo 60108" transform="translate(0 4.567)">
            <g id="Grupo_60083" data-name="Grupo 60083" transform="translate(44.269 1.42)">
              <g id="Grupo_60082" data-name="Grupo 60082">
                <g id="Grupo_60081" data-name="Grupo 60081">
                  <g id="Grupo_60080" data-name="Grupo 60080">
                    <path id="Trazado_118209" data-name="Trazado 118209" d="M3460.87,735.468a6.839,6.839,0,0,1,3.775.712.326.326,0,0,1,.154.434.279.279,0,0,1-.046.07,6.839,6.839,0,0,1-3.182,2.155,3.423,3.423,0,0,1-3-.958.325.325,0,0,1-.07-.34A3.43,3.43,0,0,1,3460.87,735.468Z" transform="translate(-3458.477 -735.435)" fill="#5a9a25"/>
                  </g>
                </g>
              </g>
            </g>
            <g id="Grupo_60087" data-name="Grupo 60087" transform="translate(22.572)">
              <g id="Grupo_60086" data-name="Grupo 60086">
                <g id="Grupo_60085" data-name="Grupo 60085">
                  <g id="Grupo_60084" data-name="Grupo 60084">
                    <path id="Trazado_118210" data-name="Trazado 118210" d="M3438.834,739.645a9.223,9.223,0,0,1,.036-5.2.445.445,0,0,1,.551-.3.437.437,0,0,1,.1.043,9.244,9.244,0,0,1,3.635,3.714,4.637,4.637,0,0,1-.549,4.231.447.447,0,0,1-.434.176A4.632,4.632,0,0,1,3438.834,739.645Z" transform="translate(-3438.478 -734.126)" fill="#5a9a25"/>
                  </g>
                </g>
              </g>
            </g>
            <g id="Grupo_60091" data-name="Grupo 60091" transform="translate(30.78 4.093)">
              <g id="Grupo_60090" data-name="Grupo 60090">
                <g id="Grupo_60089" data-name="Grupo 60089">
                  <g id="Grupo_60088" data-name="Grupo 60088">
                    <path id="Trazado_118211" data-name="Trazado 118211" d="M3446.906,739.106a5.992,5.992,0,0,1,3.138-1.206.289.289,0,0,1,.312.264.306.306,0,0,1,0,.062,6,6,0,0,1-1.379,3.067,3,3,0,0,1-2.677.667.285.285,0,0,1-.208-.216A3,3,0,0,1,3446.906,739.106Z" transform="translate(-3446.043 -737.898)" fill="#5a9a25"/>
                  </g>
                </g>
              </g>
            </g>
            <g id="Grupo_60095" data-name="Grupo 60095" transform="translate(5.958 0.086)">
              <g id="Grupo_60094" data-name="Grupo 60094">
                <g id="Grupo_60093" data-name="Grupo 60093">
                  <g id="Grupo_60092" data-name="Grupo 60092">
                    <path id="Trazado_118212" data-name="Trazado 118212" d="M3425.6,737.753a6.826,6.826,0,0,1-2.41-2.993.324.324,0,0,1,.168-.427.284.284,0,0,1,.079-.024,6.84,6.84,0,0,1,3.82.425,3.436,3.436,0,0,1,1.664,2.679.325.325,0,0,1-.167.3A3.426,3.426,0,0,1,3425.6,737.753Z" transform="translate(-3423.163 -734.205)" fill="#5a9a25"/>
                  </g>
                </g>
              </g>
            </g>
            <g id="Grupo_60099" data-name="Grupo 60099" transform="translate(0 0.953)">
              <g id="Grupo_60098" data-name="Grupo 60098">
                <g id="Grupo_60097" data-name="Grupo 60097">
                  <g id="Grupo_60096" data-name="Grupo 60096">
                    <path id="Trazado_118213" data-name="Trazado 118213" d="M3419.345,740.39a9.222,9.222,0,0,1-1.673-4.921.443.443,0,0,1,.424-.464.526.526,0,0,1,.1.007,9.25,9.25,0,0,1,4.653,2.314,4.635,4.635,0,0,1,.868,4.175.446.446,0,0,1-.354.309A4.632,4.632,0,0,1,3419.345,740.39Z" transform="translate(-3417.672 -735.004)" fill="#5a9a25"/>
                  </g>
                </g>
              </g>
            </g>
            <g id="Grupo_60103" data-name="Grupo 60103" transform="translate(27.303 1.83)">
              <g id="Grupo_60102" data-name="Grupo 60102">
                <g id="Grupo_60101" data-name="Grupo 60101">
                  <g id="Grupo_60100" data-name="Grupo 60100">
                    <path id="Trazado_118214" data-name="Trazado 118214" d="M3443.128,738.008a5.971,5.971,0,0,1,2.568-2.17.289.289,0,0,1,.382.146.338.338,0,0,1,.02.061,6,6,0,0,1-.3,3.349,3,3,0,0,1-2.309,1.509.285.285,0,0,1-.27-.14A3,3,0,0,1,3443.128,738.008Z" transform="translate(-3442.838 -735.813)" fill="#5a9a25"/>
                  </g>
                </g>
              </g>
            </g>
            <g id="Grupo_60107" data-name="Grupo 60107" transform="translate(0.002 10.745)">
              <g id="Grupo_60106" data-name="Grupo 60106">
                <g id="Grupo_60105" data-name="Grupo 60105">
                  <g id="Grupo_60104" data-name="Grupo 60104">
                    <path id="Trazado_118215" data-name="Trazado 118215" d="M3421.026,747.034a5.966,5.966,0,0,1-3.221-.965.287.287,0,0,1-.086-.4.329.329,0,0,1,.04-.05,5.986,5.986,0,0,1,2.965-1.585,3,3,0,0,1,2.527,1.108.289.289,0,0,1,.029.3A3,3,0,0,1,3421.026,747.034Z" transform="translate(-3417.673 -744.03)" fill="#5a9a25"/>
                  </g>
                </g>
              </g>
            </g>
          </g>
          <g id="Grupo_60145" data-name="Grupo 60145" transform="translate(2.306)">
            <g id="Grupo_60112" data-name="Grupo 60112" transform="translate(40.838 12.446)">
              <g id="Grupo_60111" data-name="Grupo 60111">
                <g id="Grupo_60110" data-name="Grupo 60110">
                  <g id="Grupo_60109" data-name="Grupo 60109">
                    <path id="Trazado_118216" data-name="Trazado 118216" d="M3459.422,741.413a5.642,5.642,0,0,1,3.111.6.277.277,0,0,1,.143.188.27.27,0,0,1-.059.229,5.611,5.611,0,0,1-2.632,1.764,2.825,2.825,0,0,1-2.474-.8.27.27,0,0,1-.056-.281A2.83,2.83,0,0,1,3459.422,741.413Z" transform="translate(-3457.439 -741.388)" fill="#5a9a25"/>
                  </g>
                </g>
              </g>
            </g>
            <g id="Grupo_60116" data-name="Grupo 60116" transform="translate(16.973 10.158)">
              <g id="Grupo_60115" data-name="Grupo 60115">
                <g id="Grupo_60114" data-name="Grupo 60114">
                  <g id="Grupo_60113" data-name="Grupo 60113">
                    <path id="Trazado_118217" data-name="Trazado 118217" d="M3435.443,741.426a4.119,4.119,0,0,1,1.031-2.082.2.2,0,0,1,.28-.013.153.153,0,0,1,.031.036,4.131,4.131,0,0,1,.735,2.2,2.076,2.076,0,0,1-1.048,1.593.2.2,0,0,1-.21-.014A2.075,2.075,0,0,1,3435.443,741.426Z" transform="translate(-3435.442 -739.28)" fill="#5a9a25"/>
                  </g>
                </g>
              </g>
            </g>
            <g id="Grupo_60120" data-name="Grupo 60120" transform="translate(40.922 3.996)">
              <g id="Grupo_60119" data-name="Grupo 60119">
                <g id="Grupo_60118" data-name="Grupo 60118">
                  <g id="Grupo_60117" data-name="Grupo 60117">
                    <path id="Trazado_118218" data-name="Trazado 118218" d="M3457.518,735.746a4.137,4.137,0,0,1,1.032-2.082.2.2,0,0,1,.282-.012.185.185,0,0,1,.029.034,4.145,4.145,0,0,1,.735,2.2,2.076,2.076,0,0,1-1.049,1.593.2.2,0,0,1-.211-.013A2.075,2.075,0,0,1,3457.518,735.746Z" transform="translate(-3457.517 -733.599)" fill="#5a9a25"/>
                  </g>
                </g>
              </g>
            </g>
            <g id="Grupo_60124" data-name="Grupo 60124" transform="translate(34.074)">
              <g id="Grupo_60123" data-name="Grupo 60123">
                <g id="Grupo_60122" data-name="Grupo 60122">
                  <g id="Grupo_60121" data-name="Grupo 60121">
                    <path id="Trazado_118219" data-name="Trazado 118219" d="M3451.206,734.227a7.628,7.628,0,0,1,1.126-4.136.368.368,0,0,1,.506-.122.424.424,0,0,1,.065.05,7.637,7.637,0,0,1,2.113,3.729,3.823,3.823,0,0,1-1.331,3.255.366.366,0,0,1-.384.048A3.817,3.817,0,0,1,3451.206,734.227Z" transform="translate(-3451.205 -729.916)" fill="#5a9a25"/>
                  </g>
                </g>
              </g>
            </g>
            <g id="Grupo_60128" data-name="Grupo 60128" transform="translate(0 18.591)">
              <g id="Grupo_60127" data-name="Grupo 60127">
                <g id="Grupo_60126" data-name="Grupo 60126">
                  <g id="Grupo_60125" data-name="Grupo 60125">
                    <path id="Trazado_118220" data-name="Trazado 118220" d="M3421.007,747.427a4.938,4.938,0,0,1,2.756-.3.24.24,0,0,1,.194.276.249.249,0,0,1-.016.05,4.932,4.932,0,0,1-1.746,2.154,2.468,2.468,0,0,1-2.279-.034.234.234,0,0,1-.119-.217A2.473,2.473,0,0,1,3421.007,747.427Z" transform="translate(-3419.797 -747.052)" fill="#5a9a25"/>
                  </g>
                </g>
              </g>
            </g>
            <g id="Grupo_60132" data-name="Grupo 60132" transform="translate(9.791 2.368)">
              <g id="Grupo_60131" data-name="Grupo 60131">
                <g id="Grupo_60130" data-name="Grupo 60130">
                  <g id="Grupo_60129" data-name="Grupo 60129">
                    <path id="Trazado_118221" data-name="Trazado 118221" d="M3428.822,735.067a5.63,5.63,0,0,1,1.333-2.875.27.27,0,0,1,.381-.028.253.253,0,0,1,.043.047,5.63,5.63,0,0,1,1.08,2.98,2.817,2.817,0,0,1-1.374,2.207.27.27,0,0,1-.286-.012A2.818,2.818,0,0,1,3428.822,735.067Z" transform="translate(-3428.822 -732.099)" fill="#5a9a25"/>
                  </g>
                </g>
              </g>
            </g>
            <g id="Grupo_60136" data-name="Grupo 60136" transform="translate(30.045 13.936)">
              <g id="Grupo_60135" data-name="Grupo 60135">
                <g id="Grupo_60134" data-name="Grupo 60134">
                  <g id="Grupo_60133" data-name="Grupo 60133">
                    <path id="Trazado_118222" data-name="Trazado 118222" d="M3449.243,747.094a7.619,7.619,0,0,1-1.749-3.914.368.368,0,0,1,.314-.414.413.413,0,0,1,.083,0,7.626,7.626,0,0,1,4,1.546,3.824,3.824,0,0,1,1.032,3.363.367.367,0,0,1-.267.28A3.819,3.819,0,0,1,3449.243,747.094Z" transform="translate(-3447.491 -742.762)" fill="#5a9a25"/>
                  </g>
                </g>
              </g>
            </g>
            <g id="Grupo_60140" data-name="Grupo 60140" transform="translate(15.106 6.214)">
              <g id="Grupo_60139" data-name="Grupo 60139">
                <g id="Grupo_60138" data-name="Grupo 60138">
                  <g id="Grupo_60137" data-name="Grupo 60137">
                    <path id="Trazado_118223" data-name="Trazado 118223" d="M3433.871,737.652a4.92,4.92,0,0,1,1.944-1.978.236.236,0,0,1,.323.091.234.234,0,0,1,.02.049,4.918,4.918,0,0,1,.013,2.772,2.474,2.474,0,0,1-1.78,1.41.241.241,0,0,1-.232-.094A2.473,2.473,0,0,1,3433.871,737.652Z" transform="translate(-3433.721 -735.644)" fill="#5a9a25"/>
                  </g>
                </g>
              </g>
            </g>
            <g id="Grupo_60144" data-name="Grupo 60144" transform="translate(13.767 14.935)">
              <g id="Grupo_60143" data-name="Grupo 60143">
                <g id="Grupo_60142" data-name="Grupo 60142">
                  <g id="Grupo_60141" data-name="Grupo 60141">
                    <path id="Trazado_118224" data-name="Trazado 118224" d="M3435.333,746.146a4.928,4.928,0,0,1-2.719-.543.235.235,0,0,1-.124-.165.239.239,0,0,1,.052-.2,4.928,4.928,0,0,1,2.315-1.526,2.469,2.469,0,0,1,2.159.717.239.239,0,0,1,.046.246A2.471,2.471,0,0,1,3435.333,746.146Z" transform="translate(-3432.486 -743.682)" fill="#5a9a25"/>
                  </g>
                </g>
              </g>
            </g>
          </g>
          <g id="Grupo_60147" data-name="Grupo 60147" transform="translate(5.019 7.167)">
            <path id="Trazado_118225" data-name="Trazado 118225" d="M3422.645,740.651a20.421,20.421,0,0,0,2.792,6.085c1.757,2.232,2.712,2.137,2.7,3.158s-.69,3.495-1.707,2.534a15.953,15.953,0,0,1-3.425-6.232,15.065,15.065,0,0,1-.682-5.474A.393.393,0,0,1,3422.645,740.651Z" transform="translate(-3422.298 -736.172)" fill="#614b3d"/>
            <path id="Trazado_118226" data-name="Trazado 118226" d="M3446.672,741.641a7.385,7.385,0,0,1-2.37,1.545c-1.152.356-1.5.043-1.713.441s-.475,1.547.12,1.469a5.742,5.742,0,0,0,2.645-1.42,5.849,5.849,0,0,0,1.425-1.916A.219.219,0,0,0,3446.672,741.641Z" transform="translate(-3420.596 -736.087)" fill="#614b3d"/>
            <path id="Trazado_118227" data-name="Trazado 118227" d="M3461.537,737.443a.345.345,0,0,0-.275-.077,17.514,17.514,0,0,1-2.63,5.171,9.891,9.891,0,0,1-1.411,1.368,39.648,39.648,0,0,0-1.194-6.906.607.607,0,0,0-.565-.476.547.547,0,0,0-.492.6.343.343,0,0,0,.006.051c.361,2.971,1.385,15.324-5.695,21.163-1.9,1.57-4.316-.808-5.116-3.558-1.138-3.906.319-10.238,1.085-13.066a1.09,1.09,0,0,0-.669-1.39,1.139,1.139,0,0,0-.241-.055.957.957,0,0,0-.86.631,48.433,48.433,0,0,0-2.187,6.721,7.528,7.528,0,0,1-1.464-.977,13.5,13.5,0,0,1-2.718-3.779.291.291,0,0,0-.217.109,10.39,10.39,0,0,0,1.165,3.713,11.255,11.255,0,0,0,2.707,3.434,28.887,28.887,0,0,0-.434,4.166c-.18,6.852,5.467,16.781,3.424,18.459s-5.4-.14-11.052-7.832c-3.2-4.357-3.119-12.885-2.45-19.463a9.9,9.9,0,0,0,4.932-6.066.287.287,0,0,0-.184-.137,11.762,11.762,0,0,1-3.037,2.99,6.662,6.662,0,0,1-1.4.6c.21-1.593.434-2.983.625-4.048a1.826,1.826,0,0,0-1.322-2.22,1.665,1.665,0,0,0-.266-.047,1.025,1.025,0,0,0-.954.83,112.388,112.388,0,0,0-2.783,20.705c-.721,13.7,9.365,19.523,16.1,29.227,4.014,5.787-6.76,39.625-6.76,39.625H3453s2.962-26.227.841-34.174c-2.942-11.023-4.326-25.821-.482-31.324a24.6,24.6,0,0,0,3.991-13.833.7.7,0,0,0,.226-.134,13.611,13.611,0,0,0,3.185-5.269A13.032,13.032,0,0,0,3461.537,737.443Z" transform="translate(-3421.999 -736.522)" fill="#735947"/>
            <path id="Trazado_118228" data-name="Trazado 118228" d="M3435.631,768.716c-.925-1.062-1.926-2.323-3.013-3.8-3.2-4.357-3.119-12.884-2.451-19.462a9.9,9.9,0,0,0,4.932-6.066.283.283,0,0,0-.183-.138,11.762,11.762,0,0,1-3.038,2.99,6.654,6.654,0,0,1-1.4.6c.21-1.592.434-2.981.625-4.048a1.825,1.825,0,0,0-1.322-2.22,1.683,1.683,0,0,0-.266-.047,1.026,1.026,0,0,0-.955.83,89.942,89.942,0,0,0-1.771,9.668,15.515,15.515,0,0,1,2.062,5.976c.3,3.957,1.245,12.357,6.784,15.718Z" transform="translate(-3421.917 -736.522)" fill="#614b3d"/>
            <path id="Trazado_118229" data-name="Trazado 118229" d="M3441.9,745.858c-.1,2.16-.313,7.855,1.686,10.337a7.7,7.7,0,0,1-.73-1.708c-1.138-3.906.319-10.238,1.085-13.067a1.09,1.09,0,0,0-.67-1.39,1.121,1.121,0,0,0-.24-.055.955.955,0,0,0-.86.631c-.232.565-.592,1.48-.988,2.634A5.8,5.8,0,0,1,3441.9,745.858Z" transform="translate(-3420.695 -736.229)" fill="#614b3d"/>
            <path id="Trazado_118230" data-name="Trazado 118230" d="M3460.03,737.443a.344.344,0,0,0-.274-.077,17.528,17.528,0,0,1-2.628,5.176,9.851,9.851,0,0,1-1.41,1.368,39.666,39.666,0,0,0-1.193-6.906.609.609,0,0,0-.565-.476.536.536,0,0,0-.485.65,38.846,38.846,0,0,1,0,9.049,12.778,12.778,0,0,1,1.193,3.858c.186,2.55-4.6,10.24-6.532,14.129s-1.335,14.691.372,21.517,1.627,34.652,0,35.6-.743-12.7-3.638-12.7c-2.318,0-.926,13.069-.278,18.282h6.906s2.961-26.227.84-34.174c-2.94-11.023-4.324-25.82-.481-31.324a24.592,24.592,0,0,0,3.991-13.832.668.668,0,0,0,.226-.133,13.63,13.63,0,0,0,3.186-5.269A13.019,13.019,0,0,0,3460.03,737.443Z" transform="translate(-3420.491 -736.522)" fill="#614b3d"/>
            <g id="Grupo_60146" data-name="Grupo 60146" transform="translate(17.119 54.582)">
              <path id="Trazado_118231" data-name="Trazado 118231" d="M3439.519,820.987a109.415,109.415,0,0,1-1.212-14.685c-.076.3-.153.6-.23.9a105.589,105.589,0,0,0,1.173,13.778Z" transform="translate(-3438.077 -785.18)" fill="#614b3d"/>
              <path id="Trazado_118232" data-name="Trazado 118232" d="M3439.68,800.542q-.15.679-.3,1.356a154.548,154.548,0,0,0,1.432,19.578h.271A152.348,152.348,0,0,1,3439.68,800.542Z" transform="translate(-3437.967 -785.669)" fill="#614b3d"/>
              <path id="Trazado_118233" data-name="Trazado 118233" d="M3447.626,806.7c-.658-2.621-1.56-6.211-3.005-6.694a1.412,1.412,0,0,0-1.47.542c-2.487,2.572-1.139,15.532-.409,21.221h.272c-.713-5.612-2.061-18.54.313-20.99.434-.451.836-.608,1.223-.479,1.3.434,2.219,4.077,2.821,6.486.463,1.844.68,2.661.988,2.727a.208.208,0,0,0,.224-.116c.395-.662-.315-6.3-2.061-9.683-1-1.932-2.147-2.821-3.411-2.646a1.55,1.55,0,0,0-1.066.782c-2.342,3.638-.552,19.168.063,23.917h.269c-.594-4.64-2.379-20.225-.12-23.733a1.284,1.284,0,0,1,.885-.662c1.628-.229,2.8,1.639,3.507,3.246,1.492,3.416,1.98,8.013,1.736,8.571A12.243,12.243,0,0,1,3447.626,806.7Z" transform="translate(-3437.84 -785.965)" fill="#614b3d"/>
              <path id="Trazado_118234" data-name="Trazado 118234" d="M3442.921,786.88a8.614,8.614,0,0,0-1.4-.032c0,.1,0,.2.008.306a8.485,8.485,0,0,1,1.368.033c5.658.576,8.075,13.682,8.191,14.328l-.99,9.576c-.217-4.841-1.135-17.317-4.691-20.448a2.534,2.534,0,0,0-2.532-.6,3,3,0,0,0-1.558,1.223c-.022.2-.044.4-.066.6a3.047,3.047,0,0,1,1.691-1.528,2.315,2.315,0,0,1,2.306.55c4.244,3.735,4.65,21.934,4.654,22.118l.264.015,1.188-11.493v-.047C3451.255,800.905,3448.89,787.492,3442.921,786.88Z" transform="translate(-3437.807 -786.833)" fill="#614b3d"/>
            </g>
          </g>
        </g>
        <g id="Grupo_60150" data-name="Grupo 60150" transform="translate(5.931 88.319)">
          <g id="Grupo_60149" data-name="Grupo 60149" transform="translate(7.179)">
            <path id="Trazado_118235" data-name="Trazado 118235" d="M3455.4,817.968s-.781-3.038-2.47-3.439a9.552,9.552,0,0,1-3.127-1.126,4.768,4.768,0,0,0-2.846-.875,6.155,6.155,0,0,1-3.377-.375c-.906-.532-1.062-1.063-2.782-.718a18.814,18.814,0,0,1-4.123.434c-2.253.093-3.1.407-3.816,1.032s-2.689,1.5-3.1,2.278S3455.4,817.968,3455.4,817.968Z" transform="translate(-3429.756 -811.324)" fill="#764a3a"/>
            <path id="Trazado_118236" data-name="Trazado 118236" d="M3449.475,814.713a.137.137,0,1,0,.138-.137h0A.136.136,0,0,0,3449.475,814.713Z" transform="translate(-3428.082 -811.048)" fill="#815240"/>
            <path id="Trazado_118237" data-name="Trazado 118237" d="M3447.889,815.534a.1.1,0,1,0,.191,0,.1.1,0,0,0-.1-.1h0A.1.1,0,0,0,3447.889,815.534Z" transform="translate(-3428.216 -810.975)" fill="#815240"/>
            <path id="Trazado_118238" data-name="Trazado 118238" d="M3446.885,813.5a.146.146,0,1,0,.147-.145h0a.145.145,0,0,0-.146.144Z" transform="translate(-3428.301 -811.151)" fill="#815240"/>
            <path id="Trazado_118239" data-name="Trazado 118239" d="M3445.269,813.149a.133.133,0,1,0,.134-.133h0a.132.132,0,0,0-.133.132Z" transform="translate(-3428.439 -811.18)" fill="#815240"/>
            <path id="Trazado_118240" data-name="Trazado 118240" d="M3445.185,815.008a.179.179,0,1,0,.179-.179.178.178,0,0,0-.179.179Z" transform="translate(-3428.446 -811.026)" fill="#815240"/>
            <path id="Trazado_118241" data-name="Trazado 118241" d="M3447,814.74a.166.166,0,1,0,.167-.164h0a.164.164,0,0,0-.165.164Z" transform="translate(-3428.292 -811.048)" fill="#815240"/>
            <path id="Trazado_118242" data-name="Trazado 118242" d="M3443.242,813.24a.1.1,0,0,0,.1.1.1.1,0,1,0-.1-.1Z" transform="translate(-3428.611 -811.17)" fill="#815240"/>
            <circle id="Elipse_4237" data-name="Elipse 4237" cx="0.141" cy="0.141" r="0.141" transform="translate(15.28 4.091)" fill="#815240"/>
            <path id="Trazado_118243" data-name="Trazado 118243" d="M3442.557,815.165a.071.071,0,1,0,.141,0,.071.071,0,0,0-.07-.07h0a.069.069,0,0,0-.071.068Z" transform="translate(-3428.669 -811.004)" fill="#815240"/>
            <path id="Trazado_118244" data-name="Trazado 118244" d="M3440.891,811.989a.161.161,0,1,0,.323,0,.163.163,0,0,0-.162-.162h0A.161.161,0,0,0,3440.891,811.989Z" transform="translate(-3428.811 -811.281)" fill="#815240"/>
            <path id="Trazado_118245" data-name="Trazado 118245" d="M3438.083,812.822a.231.231,0,0,0,.462,0,.233.233,0,0,0-.23-.232h0A.23.23,0,0,0,3438.083,812.822Z" transform="translate(-3429.048 -811.216)" fill="#815240"/>
            <path id="Trazado_118246" data-name="Trazado 118246" d="M3441.688,814.221a.29.29,0,1,0,.29-.29h0a.288.288,0,0,0-.289.289Z" transform="translate(-3428.743 -811.103)" fill="#815240"/>
            <path id="Trazado_118247" data-name="Trazado 118247" d="M3439.322,814.488a.1.1,0,1,0,.109-.1.1.1,0,0,0-.109.1Z" transform="translate(-3428.944 -811.064)" fill="#815240"/>
            <path id="Trazado_118248" data-name="Trazado 118248" d="M3436.5,813.2a.183.183,0,1,0,.184-.184.182.182,0,0,0-.184.184Z" transform="translate(-3429.183 -811.18)" fill="#815240"/>
            <path id="Trazado_118249" data-name="Trazado 118249" d="M3435.755,812.6a.248.248,0,1,0,.249-.248.248.248,0,0,0-.249.248Z" transform="translate(-3429.246 -811.237)" fill="#815240"/>
            <path id="Trazado_118250" data-name="Trazado 118250" d="M3439.534,813.221a.27.27,0,1,0,.27-.27.27.27,0,0,0-.27.27Z" transform="translate(-3428.925 -811.186)" fill="#815240"/>
            <circle id="Elipse_4238" data-name="Elipse 4238" cx="0.039" cy="0.039" r="0.039" transform="translate(8.411 3.189)" fill="#815240"/>
            <path id="Trazado_118251" data-name="Trazado 118251" d="M3434.9,813.47a.212.212,0,1,0,.211-.212.212.212,0,0,0-.211.212Z" transform="translate(-3429.319 -811.16)" fill="#815240"/>
            <path id="Trazado_118252" data-name="Trazado 118252" d="M3434.037,812.478a.132.132,0,1,0,.264,0,.132.132,0,0,0-.264,0Z" transform="translate(-3429.392 -811.237)" fill="#815240"/>
            <path id="Trazado_118253" data-name="Trazado 118253" d="M3451.392,815.517a.294.294,0,1,0,.294-.294h0A.294.294,0,0,0,3451.392,815.517Z" transform="translate(-3427.918 -810.993)" fill="#815240"/>
            <path id="Trazado_118254" data-name="Trazado 118254" d="M3441.025,815.328a.234.234,0,1,0,.234-.234.233.233,0,0,0-.234.234Z" transform="translate(-3428.799 -811.004)" fill="#815240"/>
            <path id="Trazado_118255" data-name="Trazado 118255" d="M3441.571,812.871a.165.165,0,1,0,.165-.165.165.165,0,0,0-.165.165Z" transform="translate(-3428.753 -811.206)" fill="#815240"/>
            <path id="Trazado_118256" data-name="Trazado 118256" d="M3445.623,814.143a.212.212,0,1,0,.212-.211h0a.211.211,0,0,0-.21.21Z" transform="translate(-3428.408 -811.103)" fill="#815240"/>
            <path id="Trazado_118257" data-name="Trazado 118257" d="M3447.842,813.773a.121.121,0,1,0,.122-.123.121.121,0,0,0-.122.123Z" transform="translate(-3428.22 -811.126)" fill="#815240"/>
            <path id="Trazado_118258" data-name="Trazado 118258" d="M3450,815.827a.217.217,0,1,0,.217-.217h0A.217.217,0,0,0,3450,815.827Z" transform="translate(-3428.037 -810.96)" fill="#815240"/>
          </g>
          <path id="Trazado_118259" data-name="Trazado 118259" d="M3458.585,821.058s.5,8.755,2.125,13.127,5,9.282.874,12.27-16.01.612-23.263,1.113-10.507.776-14.009-1.113,1.875-17.274,2.625-19.528-.75-9.539.375-9.959,11.256,2.206,18.009,3.081S3458.585,821.058,3458.585,821.058Z" transform="translate(-3423.139 -810.849)" fill="#97724c"/>
          <path id="Trazado_118260" data-name="Trazado 118260" d="M3434.28,841.53c6.1-.338,16.106,1.268,19.58-.753s.632-5.339-.738-8.3-1.789-8.882-1.789-8.882-5.474-.085-11.159-.677c-4.271-.445-10.147-1.558-13.207-1.964-.129-2.027-.187-3.781.348-3.982,1.126-.421,11.257,2.206,18.01,3.081s13.257,1,13.257,1,.5,8.755,2.125,13.127,5,9.282.875,12.27-16.009.612-23.263,1.112-10.507.777-14.009-1.112c-1.164-.628-1.346-2.746-1.044-5.376C3425.948,842.022,3428.716,841.839,3434.28,841.53Z" transform="translate(-3423.138 -810.848)" fill="#a47c52"/>
          <path id="Trazado_118261" data-name="Trazado 118261" d="M3445.737,823.208a22.96,22.96,0,0,1-5.926,2.012c-6.349,1.431-4.062,6.937-4.062,6.937s.678-3.038,2.781-4.115c1.69-.869,3.729-.96,4.622-1.78,0,0-.178.678-2.4,1.426a4.8,4.8,0,0,0-3.613,4.526c1.871,0,5.2-.293,7.193-2.129A6.091,6.091,0,0,0,3445.737,823.208Z" transform="translate(-3422.102 -810.315)" fill="#63b353"/>
          <path id="Trazado_118262" data-name="Trazado 118262" d="M3457.275,816.794a2.666,2.666,0,0,1,2.377,2.885c-.293,2,1.167,3.19-1.793,3.5s-6.5-.893-9.088-.542-7.338-.509-9.715-1.051a27.768,27.768,0,0,0-6.63-.407c-1.584.034-5.5.1-6.509-1.222s-1.166-6.379,2.668-6.684,9.174,2.206,13.945,2.748S3453.222,816.442,3457.275,816.794Z" transform="translate(-3422.955 -811.161)" fill="#b38559"/>
          <path id="Trazado_118263" data-name="Trazado 118263" d="M3456.955,820.145c-.708-1.3-4.065.522-6.567,0a27.7,27.7,0,0,0-8.66-.412c-3.159.357.281.8,4.283.988s3.877.906,6.6.823S3457.454,821.062,3456.955,820.145Z" transform="translate(-3421.665 -810.624)" fill="#a47c52"/>
          <path id="Trazado_118264" data-name="Trazado 118264" d="M3427.105,817.163c1.046-1.224,5.194.934,8.476.668a46.331,46.331,0,0,1,11.222.472c4.04.677-.445.759-5.631.548s-5.1.507-8.6.148S3426.37,818.026,3427.105,817.163Z" transform="translate(-3422.812 -810.86)" fill="#a47c52"/>
        </g>
      </g>
      <g id="Grupo_60156" data-name="Grupo 60156" transform="translate(0 84.929)">
        <g id="Grupo_60153" data-name="Grupo 60153">
          <g id="Grupo_60152" data-name="Grupo 60152">
            <path id="Trazado_118265" data-name="Trazado 118265" d="M3399.45,829.566V823.1a36.27,36.27,0,0,1-17.016-1.379s9.915-2.76,11.5-10.523c0,0-3.291,2.627-9.808-.687,0,0,7.682-6.329,10.844-12.653,0,0-3.471,2.462-7.205-1.193,0,0,5.74-.385,8.327-12.748,0,0,1.519-6.292,3.737-15.521,0,0,1.437,19.834,10.923,28.6,0,0-3.593,2.443-6.611-.144,0,0,6.78,11.6,13.248,13.033,0,0-5.2,4.646-10.373,1.34,0,0,4.577,8.631,13.057,9.493,0,0-5.526,5.685-16.45,2.953v5.893Z" transform="translate(-3382.433 -768.394)" fill="#638524"/>
          </g>
        </g>
        <g id="Grupo_60155" data-name="Grupo 60155" transform="translate(3.029 51.241)">
          <g id="Grupo_60154" data-name="Grupo 60154" transform="translate(6.265)">
            <path id="Trazado_118266" data-name="Trazado 118266" d="M3413.432,821.432s-.684-2.653-2.16-3.007a8.365,8.365,0,0,1-2.734-.984,4.157,4.157,0,0,0-2.489-.766,5.391,5.391,0,0,1-2.953-.325c-.792-.464-.929-.93-2.433-.629a16.346,16.346,0,0,1-3.609.383c-1.968.081-2.707.356-3.336.9s-2.351,1.313-2.712,2S3413.432,821.432,3413.432,821.432Z" transform="translate(-3391 -815.625)" fill="#764a3a"/>
            <path id="Trazado_118267" data-name="Trazado 118267" d="M3408.253,818.592a.12.12,0,1,0,.12-.12.12.12,0,0,0-.12.12Z" transform="translate(-3389.535 -815.383)" fill="#815240"/>
            <path id="Trazado_118268" data-name="Trazado 118268" d="M3406.866,819.3a.084.084,0,0,0,.084.085.084.084,0,0,0,0-.168h0A.083.083,0,0,0,3406.866,819.3Z" transform="translate(-3389.653 -815.32)" fill="#815240"/>
            <circle id="Elipse_4239" data-name="Elipse 4239" cx="0.127" cy="0.127" r="0.127" transform="translate(16.266 1.926)" fill="#815240"/>
            <path id="Trazado_118269" data-name="Trazado 118269" d="M3404.575,817.219a.115.115,0,0,0,.116.116.116.116,0,1,0,0-.232h0A.115.115,0,0,0,3404.575,817.219Z" transform="translate(-3389.848 -815.5)" fill="#815240"/>
            <path id="Trazado_118270" data-name="Trazado 118270" d="M3404.5,818.846a.156.156,0,1,0,.157-.157.156.156,0,0,0-.157.157Z" transform="translate(-3389.854 -815.365)" fill="#815240"/>
            <path id="Trazado_118271" data-name="Trazado 118271" d="M3406.092,818.611a.144.144,0,1,0,.144-.144.143.143,0,0,0-.144.144Z" transform="translate(-3389.719 -815.384)" fill="#815240"/>
            <path id="Trazado_118272" data-name="Trazado 118272" d="M3402.8,817.3a.088.088,0,0,0,.176,0,.09.09,0,0,0-.088-.088.089.089,0,0,0-.088.088Z" transform="translate(-3389.998 -815.491)" fill="#815240"/>
            <path id="Trazado_118273" data-name="Trazado 118273" d="M3403.327,819.044a.121.121,0,0,0,.124.121.123.123,0,1,0-.124-.123Z" transform="translate(-3389.953 -815.346)" fill="#815240"/>
            <path id="Trazado_118274" data-name="Trazado 118274" d="M3402.205,818.982a.061.061,0,0,0,.062.062.062.062,0,1,0-.062-.062Z" transform="translate(-3390.049 -815.346)" fill="#815240"/>
            <path id="Trazado_118275" data-name="Trazado 118275" d="M3400.747,816.21a.141.141,0,1,0,.141-.141h0A.142.142,0,0,0,3400.747,816.21Z" transform="translate(-3390.173 -815.588)" fill="#815240"/>
            <path id="Trazado_118276" data-name="Trazado 118276" d="M3398.287,816.934a.2.2,0,1,0,.2-.2.2.2,0,0,0-.2.2Z" transform="translate(-3390.381 -815.531)" fill="#815240"/>
            <path id="Trazado_118277" data-name="Trazado 118277" d="M3401.443,818.157a.253.253,0,1,0,.253-.253h0A.254.254,0,0,0,3401.443,818.157Z" transform="translate(-3390.114 -815.432)" fill="#815240"/>
            <path id="Trazado_118278" data-name="Trazado 118278" d="M3399.373,818.391a.09.09,0,1,0,.09-.09.09.09,0,0,0-.09.09Z" transform="translate(-3390.29 -815.398)" fill="#815240"/>
            <path id="Trazado_118279" data-name="Trazado 118279" d="M3396.908,817.265a.16.16,0,1,0,.32,0,.159.159,0,0,0-.159-.161h0A.16.16,0,0,0,3396.908,817.265Z" transform="translate(-3390.499 -815.5)" fill="#815240"/>
            <path id="Trazado_118280" data-name="Trazado 118280" d="M3396.255,816.736a.217.217,0,1,0,.217-.217h0A.216.216,0,0,0,3396.255,816.736Z" transform="translate(-3390.554 -815.549)" fill="#815240"/>
            <path id="Trazado_118281" data-name="Trazado 118281" d="M3399.561,817.283a.237.237,0,0,0,.473,0,.238.238,0,0,0-.236-.238h0A.236.236,0,0,0,3399.561,817.283Z" transform="translate(-3390.273 -815.504)" fill="#815240"/>
            <path id="Trazado_118282" data-name="Trazado 118282" d="M3397.79,818.228a.034.034,0,0,0,.033.034h0a.035.035,0,0,0,.028-.04.037.037,0,0,0-.028-.028.034.034,0,0,0-.033.034Z" transform="translate(-3390.424 -815.407)" fill="#815240"/>
            <circle id="Elipse_4240" data-name="Elipse 4240" cx="0.184" cy="0.184" r="0.184" transform="translate(4.892 1.837)" fill="#815240"/>
            <path id="Trazado_118283" data-name="Trazado 118283" d="M3394.754,816.635a.116.116,0,1,0,.116-.117h0A.118.118,0,0,0,3394.754,816.635Z" transform="translate(-3390.681 -815.549)" fill="#815240"/>
            <path id="Trazado_118284" data-name="Trazado 118284" d="M3409.929,819.291a.257.257,0,1,0,.257-.257.257.257,0,0,0-.257.257Z" transform="translate(-3389.393 -815.336)" fill="#815240"/>
            <path id="Trazado_118285" data-name="Trazado 118285" d="M3400.865,819.125a.205.205,0,0,0,.41,0,.206.206,0,0,0-.2-.206h0A.2.2,0,0,0,3400.865,819.125Z" transform="translate(-3390.162 -815.345)" fill="#815240"/>
            <path id="Trazado_118286" data-name="Trazado 118286" d="M3401.342,816.977a.144.144,0,1,0,.145-.144.144.144,0,0,0-.145.144Z" transform="translate(-3390.122 -815.523)" fill="#815240"/>
            <circle id="Elipse_4241" data-name="Elipse 4241" cx="0.184" cy="0.184" r="0.184" transform="translate(15.062 2.473)" fill="#815240"/>
            <path id="Trazado_118287" data-name="Trazado 118287" d="M3406.825,817.769a.108.108,0,1,0,.108-.107.107.107,0,0,0-.108.107Z" transform="translate(-3389.657 -815.452)" fill="#815240"/>
            <path id="Trazado_118288" data-name="Trazado 118288" d="M3408.712,819.561a.187.187,0,1,0,.187-.187.187.187,0,0,0-.187.187Z" transform="translate(-3389.496 -815.307)" fill="#815240"/>
          </g>
          <path id="Trazado_118289" data-name="Trazado 118289" d="M3416.219,824.137s.433,7.655,1.858,11.483,4.375,8.116.767,10.73-14,.536-20.342.976-9.187.679-12.25-.976,1.641-15.1,2.3-17.072-.656-8.34.326-8.709,9.843,1.928,15.75,2.694S3416.219,824.137,3416.219,824.137Z" transform="translate(-3385.225 -815.209)" fill="#97724c"/>
          <path id="Trazado_118290" data-name="Trazado 118290" d="M3394.964,842.038c5.339-.3,14.083,1.109,17.122-.657s.552-4.665-.645-7.257-1.563-7.766-1.563-7.766-4.788-.075-9.758-.591c-3.734-.389-8.872-1.363-11.548-1.717-.109-1.772-.163-3.307.3-3.481.984-.369,9.842,1.928,15.748,2.694s11.593.875,11.593.875.434,7.655,1.859,11.484,4.375,8.116.766,10.729-14,.536-20.342.976-9.185.68-12.249-.976c-1.016-.548-1.176-2.4-.912-4.7C3387.681,842.466,3390.1,842.306,3394.964,842.038Z" transform="translate(-3385.225 -815.209)" fill="#a47c52"/>
          <path id="Trazado_118291" data-name="Trazado 118291" d="M3404.984,826.016a20.122,20.122,0,0,1-5.181,1.758c-5.552,1.253-3.552,6.066-3.552,6.066s.594-2.659,2.433-3.6c1.477-.759,3.255-.84,4.041-1.557,0,0-.154.592-2.1,1.247a4.2,4.2,0,0,0-3.159,3.958c1.637,0,4.543-.255,6.292-1.862A5.323,5.323,0,0,0,3404.984,826.016Z" transform="translate(-3384.319 -814.743)" fill="#63b353"/>
          <path id="Trazado_118292" data-name="Trazado 118292" d="M3415.072,820.406a2.328,2.328,0,0,1,2.079,2.521c-.256,1.75,1.021,2.789-1.568,3.056s-5.686-.781-7.947-.475-6.416-.445-8.494-.92a24.267,24.267,0,0,0-5.8-.356c-1.386.029-4.813.089-5.687-1.069s-1.021-5.578,2.331-5.843,8.021,1.928,12.195,2.4S3411.527,820.1,3415.072,820.406Z" transform="translate(-3385.063 -815.483)" fill="#b38559"/>
          <path id="Trazado_118293" data-name="Trazado 118293" d="M3414.794,823.338c-.619-1.136-3.554.457-5.741,0a24.219,24.219,0,0,0-7.573-.36c-2.761.311.246.7,3.746.869s3.39.791,5.769.719S3415.23,824.139,3414.794,823.338Z" transform="translate(-3383.937 -815.013)" fill="#a47c52"/>
          <path id="Trazado_118294" data-name="Trazado 118294" d="M3388.695,820.73c.914-1.07,4.541.816,7.412.585a40.536,40.536,0,0,1,9.812.413c3.534.591-.388.668-4.923.478s-4.457.444-7.52.129S3388.049,821.484,3388.695,820.73Z" transform="translate(-3384.94 -815.22)" fill="#a47c52"/>
        </g>
      </g>
      <g id="Grupo_60199" data-name="Grupo 60199" transform="translate(146.662)">
        <g id="Grupo_60182" data-name="Grupo 60182">
          <g id="Grupo_60163" data-name="Grupo 60163" transform="translate(3.463)">
            <g id="Grupo_60157" data-name="Grupo 60157" transform="translate(13.029 24.369)">
              <path id="Trazado_118295" data-name="Trazado 118295" d="M3542.088,743.435c3.454,9.336,11.087,22.777,13.32,25.152.448.475,1.532-.109,1.38-.759-.264-1.122-5.827-15.785-9.25-26.826C3546.375,737.251,3540.792,739.93,3542.088,743.435Z" transform="translate(-3532.05 -710.314)" fill="#fdb56e"/>
              <path id="Trazado_118296" data-name="Trazado 118296" d="M3536.565,712.939c-2.5.525-3.891,3.228-3.263,6.125,2.151,9.929,7.279,21.967,9.578,26.734,1.562,3.241,5.93,1.193,5.554-1.763a223.208,223.208,0,0,0-5.356-25.876C3541.922,713.781,3538.608,712.514,3536.565,712.939Z" transform="translate(-3532.792 -712.549)" fill="#fdb56e"/>
              <path id="Trazado_118297" data-name="Trazado 118297" d="M3556.516,764.658c.779.581,1.528,1.36,1.935,1.663s1.576,1.136,1.469,1.472-2.176-.977-2.271-.911.623.907,1.177,1.41c.6.543,2.4,1.8,2.322,2.26s-2.647.3-4.432-.835a10.162,10.162,0,0,1-2.865-4.2C3553.784,764.955,3554.706,763.3,3556.516,764.658Z" transform="translate(-3531.035 -708.196)" fill="#fdb56e"/>
              <path id="Trazado_118298" data-name="Trazado 118298" d="M3536.869,732.095a12.613,12.613,0,0,0,4.283-.248,13.685,13.685,0,0,0,4.841-2.3s-1.534-10.39-3.271-13.427c-1.139-1.994-2.9-4.029-6.246-3.449s-3.813,4.436-3.618,5.781S3536.869,732.095,3536.869,732.095Z" transform="translate(-3532.82 -712.573)" fill="#f4f4f0"/>
            </g>
            <g id="Grupo_60159" data-name="Grupo 60159" transform="translate(8.503 64.45)">
              <path id="Trazado_118299" data-name="Trazado 118299" d="M3548.536,751.5c5.374,19.381,4.642,38.2,3.893,49.168-.5,7.275-10.821,10.523-12.476.651-4.131-24.7-10.718-28.041-11.292-38.313C3528.087,752.618,3547.014,746.007,3548.536,751.5Z" transform="translate(-3528.648 -749.518)" fill="#fdb56e"/>
              <g id="Grupo_60158" data-name="Grupo 60158" transform="translate(11.637 46.962)">
                <path id="Trazado_118300" data-name="Trazado 118300" d="M3550.737,845.5H3542.1s-.51-2.13.656-3.146c.5-.434,1.736-.924,3.94.2C3548.622,843.525,3551.055,843.834,3550.737,845.5Z" transform="translate(-3539.153 -788.641)" fill="#360e2c"/>
                <path id="Trazado_118301" data-name="Trazado 118301" d="M3551.587,796.4c0,4.035-3.7,42.268-6.131,50.193-.2.639-2.287.672-2.352-.009-.611-6.349-2.849-36.165-3.7-47.16C3538.688,790.187,3551.582,792.047,3551.587,796.4Z" transform="translate(-3539.375 -792.805)" fill="#fdb56e"/>
                <path id="Trazado_118302" data-name="Trazado 118302" d="M3547.181,842.843a6.266,6.266,0,0,1-.882-.678c-.359-.349-.906-.74-1.431-.3s-1.208,1.119-1.589,1.063.248.569,1.68.646A3.005,3.005,0,0,0,3547.181,842.843Z" transform="translate(-3539.052 -788.657)" fill="#360e2c"/>
              </g>
            </g>
            <g id="Grupo_60161" data-name="Grupo 60161" transform="translate(6.467 63.809)">
              <path id="Trazado_118303" data-name="Trazado 118303" d="M3538.341,845.5h-8.634s-.51-2.13.656-3.146c.5-.434,1.736-.924,3.94.2C3536.228,843.525,3538.667,843.834,3538.341,845.5Z" transform="translate(-3526.532 -741.037)" fill="#360e2c"/>
              <g id="Grupo_60160" data-name="Grupo 60160">
                <path id="Trazado_118304" data-name="Trazado 118304" d="M3544.188,797.581c-.652,4.144-8.517,41.1-11.349,48.889-.228.627-2.319.553-2.349-.128-.29-6.37.676-37.279.908-48.306C3531.566,790.192,3544.862,793.282,3544.188,797.581Z" transform="translate(-3526.461 -745.168)" fill="#fdc68e"/>
                <path id="Trazado_118305" data-name="Trazado 118305" d="M3547.858,753.989c.558,14.264-.726,36.872-3.406,47.532-1.78,7.073-12.4,9.492-12.787-.515-.922-23.694-5.561-30.208-4.814-38.558C3528.548,743.5,3547.635,748.3,3547.858,753.989Z" transform="translate(-3526.771 -748.927)" fill="#fdc68e"/>
              </g>
              <path id="Trazado_118306" data-name="Trazado 118306" d="M3534.788,842.843a6.325,6.325,0,0,1-.882-.678c-.359-.349-.906-.74-1.431-.3s-1.21,1.119-1.589,1.063.247.569,1.679.646A3.006,3.006,0,0,0,3534.788,842.843Z" transform="translate(-3526.431 -741.054)" fill="#360e2c"/>
            </g>
            <path id="Trazado_118307" data-name="Trazado 118307" d="M3533.247,749.36s-6.8,4.842-7.052,13.306,3.346,25.564,3.527,31.54-2.144,12.894-1.811,13.307a25.089,25.089,0,0,0,9.777,3.014c4.448.332,3.226,1,7.377,1.217s8.409-3.209,8.409-3.209,1.193-21.634.36-33.254-5.151-25.233-5.151-25.233Z" transform="translate(-3520.355 -685.081)" fill="#f4911e"/>
            <path id="Trazado_118308" data-name="Trazado 118308" d="M3544.268,700.473s3.255-1.86,3.086-5.065-3.114-3.245-4.276-3.68-3.8-2.692-8.679-.989-6.008,4.393-5.552,7.123.343,6.016-.949,7.4-3.728,2.575-2.537,7.681c.622,2.67-11.283,8.111,1.118,12.741,7.844,2.929,16.708-4.014,17.377-6.344s-4.466-6.913-3.348-9.842,1.619-3.8,1.619-5.818S3544.268,700.473,3544.268,700.473Z" transform="translate(-3520.811 -690.111)" fill="#360e2c"/>
            <path id="Trazado_118309" data-name="Trazado 118309" d="M3536.271,710.828c1.377.326,4.2,2.082,7.072,5.517,1.924,2.305,7.184,9.656,7.47,13.4.217,2.779-1.87,4.715-1.83,7.153.039,2.512.325,18.464.325,18.464-.259,3.754-20.332,2.6-18.251-1.169,1.365-2.471,1.608-19.784-.246-25.663-1.938-6.143-4.774-13.727-2.794-15.935C3529.4,711.056,3533.043,710.052,3536.271,710.828Z" transform="translate(-3520.256 -688.375)" fill="#f5eddc"/>
            <path id="Trazado_118310" data-name="Trazado 118310" d="M3536.524,702.636s.513,6.1.882,8.55c.209,1.391.8,3.689.374,3.99-.8.571-3.842-1.091-4.665-2.979-.627-1.443.062-11.391.062-11.391Z" transform="translate(-3519.788 -689.203)" fill="#fdb56e"/>
            <g id="Grupo_60162" data-name="Grupo 60162" transform="translate(12.335 7.321)">
              <path id="Trazado_118311" data-name="Trazado 118311" d="M3544.308,696.859s2.368,12.437-2.88,13.73c-7.646,1.883-8.091-9.534-8.091-9.534s1.742-1.882,5.651-1.635C3543.043,699.678,3544.308,696.859,3544.308,696.859Z" transform="translate(-3532.082 -696.859)" fill="#fdc68e"/>
              <path id="Trazado_118312" data-name="Trazado 118312" d="M3532.3,701.5c.339,1.234.877,2.431,1.871,2.294.859-.118.529-3.352-.108-4.033C3532.8,698.4,3531.837,699.825,3532.3,701.5Z" transform="translate(-3532.18 -696.659)" fill="#fdc68e"/>
            </g>
          </g>
          <g id="Grupo_60179" data-name="Grupo 60179" transform="translate(8.806 65.511)">
            <g id="Grupo_60166" data-name="Grupo 60166" transform="translate(7.127 42.635)">
              <g id="Grupo_60165" data-name="Grupo 60165" transform="translate(8.038 55.367)">
                <path id="Trazado_118313" data-name="Trazado 118313" d="M3547.144,845.447h-7.335s-.434-1.736.557-2.558c.428-.356,1.473-.752,3.35.159C3545.35,843.842,3547.419,844.095,3547.144,845.447Z" transform="translate(-3539.714 -840.687)" fill="#360e2c"/>
                <g id="Grupo_60164" data-name="Grupo 60164" transform="translate(0.698)">
                  <path id="Trazado_118314" data-name="Trazado 118314" d="M3541.43,840.859a2.4,2.4,0,0,1,1.13.086c-.1.681-.108,1.567-.208,2.1-.085.484-1.6.247-1.7-.166-.133-.542-.138-.977-.291-1.759A5.163,5.163,0,0,1,3541.43,840.859Z" transform="translate(-3540.357 -840.828)" fill="#fdb56e"/>
                </g>
                <path id="Trazado_118315" data-name="Trazado 118315" d="M3540.967,843.4c.827-.152.918-.861,1.274-.911.392-.054.324.027,1.794.751.334.164-.6.462-1.339.462S3540.655,843.459,3540.967,843.4Z" transform="translate(-3539.612 -840.688)" fill="#360e2c"/>
              </g>
              <path id="Trazado_118316" data-name="Trazado 118316" d="M3533.72,792.557c-.749,2.4-1.953,4.707-1.15,8.45.916,4.283,4.123,18.607,4.627,21.323s3.023,23.172,3.217,23.723,5.3.474,5.394-.125c.1-.636-.125-12.962-.389-25.7-.268-12.9-.573-26.221-.61-28.265C3544.748,788.518,3534.668,789.522,3533.72,792.557Z" transform="translate(-3532.304 -789.794)" fill="#21307a"/>
            </g>
            <g id="Grupo_60169" data-name="Grupo 60169" transform="translate(4.608 41.449)">
              <g id="Grupo_60168" data-name="Grupo 60168">
                <g id="Grupo_60167" data-name="Grupo 60167">
                  <path id="Trazado_118317" data-name="Trazado 118317" d="M3530.756,788.7c1.607.427,3.385.816,5.27,1.141a37.061,37.061,0,0,0,7.625.667c-.736,4.909-1.12,9.547-6.549,9.6-7.609.086-7.772-6.368-6.555-10.578C3530.625,789.269,3530.693,788.994,3530.756,788.7Z" transform="translate(-3529.982 -788.701)" fill="#1a4e9e"/>
                </g>
              </g>
            </g>
            <g id="Grupo_60172" data-name="Grupo 60172" transform="translate(1.491 42.069)">
              <g id="Grupo_60171" data-name="Grupo 60171" transform="translate(2.026 55.922)">
                <path id="Trazado_118318" data-name="Trazado 118318" d="M3535.447,845.455h-6.388s-.376-1.736.486-2.558c.372-.356,1.411-.916,3.038,0C3534.011,843.686,3535.686,844.1,3535.447,845.455Z" transform="translate(-3528.977 -840.684)" fill="#360e2c"/>
                <g id="Grupo_60170" data-name="Grupo 60170" transform="translate(1.072)">
                  <path id="Trazado_118319" data-name="Trazado 118319" d="M3531.124,840.829a2.265,2.265,0,0,1,1.085.318c-.222.7-.361,1.31-.555,1.853-.176.49-1.663.239-1.682-.216-.026-.6.051-1.056.05-1.9A4.8,4.8,0,0,1,3531.124,840.829Z" transform="translate(-3529.966 -840.818)" fill="#fdb56e"/>
                </g>
                <path id="Trazado_118320" data-name="Trazado 118320" d="M3530.191,842.98c.413.127.6-.573,1.342-.573s.34.2,1.811.918c.335.165-1.066.383-1.811.383S3529.833,842.869,3530.191,842.98Z" transform="translate(-3528.881 -840.683)" fill="#360e2c"/>
              </g>
              <path id="Trazado_118321" data-name="Trazado 118321" d="M3529.789,790.069c-1.175,2.262-2.774,4.34-2.675,8.245.109,4.462,1.278,20.576,1.274,23.392s.915,23.662,1,24.25c.086.572,4.647.928,4.852.347.222-.63,1.559-12.461,3.261-24.41,1.654-11.594,3.131-23.362,2.744-25.3C3539.46,792.656,3531.269,787.213,3529.789,790.069Z" transform="translate(-3527.11 -789.272)" fill="#1a4e9e"/>
            </g>
            <g id="Grupo_60174" data-name="Grupo 60174" transform="translate(9.703 16.555)">
              <path id="Trazado_118322" data-name="Trazado 118322" d="M3553.082,782.753c-2.6-3.242-8.99-14.538-14.15-16.364-2.668-.943-5.465,2.712-3.7,6.251,2.29,4.6,13.741,14.043,15.771,14.444C3553.576,787.6,3554.343,784.328,3553.082,782.753Z" transform="translate(-3534.679 -765.714)" fill="#e34545"/>
              <path id="Trazado_118323" data-name="Trazado 118323" d="M3556.015,769.513c-.73,1.873-5.227,8.128-7.854,11.317-1.7,2.061,2.169,7.833,4.057,4.978,2.627-3.985,5.8-15.524,5.676-16.027a1,1,0,0,0-1.88-.267Z" transform="translate(-3533.57 -765.483)" fill="#e34545"/>
              <g id="Grupo_60173" data-name="Grupo 60173" transform="translate(22.345)">
                <path id="Trazado_118324" data-name="Trazado 118324" d="M3555.517,768.665c-.78,1,.529,2.193,1.085,2.062a3.78,3.78,0,0,0,2.146-1.384,5.153,5.153,0,0,0,.407-2.905c-.227-.5-.683-1.01-1.085-.412C3557.014,767.62,3556.1,767.916,3555.517,768.665Z" transform="translate(-3555.275 -765.755)" fill="#fdc68e"/>
              </g>
            </g>
            <g id="Grupo_60175" data-name="Grupo 60175" transform="translate(0.227 8.066)">
              <path id="Trazado_118325" data-name="Trazado 118325" d="M3536.4,765.018c1.591.486,4.728,1.43,6.655,4.148s1.858,6.25,1.7,12.281,1.967,16.223,1.059,17.054c-5.083,4.647-19.167,1.871-18.889-.382.668-5.424,1.093-20.071-.524-24.581a6.51,6.51,0,0,1,3.659-8.447c.1-.038.2-.074.294-.109A10.413,10.413,0,0,1,3536.4,765.018Z" transform="translate(-3525.944 -757.368)" fill="#e35151"/>
              <path id="Trazado_118326" data-name="Trazado 118326" d="M3534.549,764.748c-.339-.1-1.174-.332-1.519-.038-.472.407,1.692,3.625,4.2,3.489s-.416-2.5-1.138-2.888A8.559,8.559,0,0,0,3534.549,764.748Z" transform="translate(-3525.348 -757.367)" fill="#e34545"/>
              <path id="Trazado_118327" data-name="Trazado 118327" d="M3538.545,761.1s-.315,1.912-.5,3.4c-.273,2.2-.289,3.166-.55,3.335-1.442.938-4.286-2.061-4.2-2.576.387-2.266,1.709-7.328,1.709-7.328Z" transform="translate(-3525.32 -757.93)" fill="#fdb56e"/>
            </g>
            <g id="Grupo_60177" data-name="Grupo 60177" transform="translate(4.662)">
              <path id="Trazado_118328" data-name="Trazado 118328" d="M3538.484,758.9s4.708-.659,5.773-4.091c1.152-3.707-1.963-5.1-4.187-3.881-2.388,1.3-4.99-.506-7.141.868-3.466,2.216-3.758,6.087-1.221,9.773a3.642,3.642,0,0,0,4.517.91A20.65,20.65,0,0,0,3538.484,758.9Z" transform="translate(-3530.032 -750.495)" fill="#360e2c"/>
              <g id="Grupo_60176" data-name="Grupo 60176" transform="translate(1.958 5.084)">
                <path id="Trazado_118329" data-name="Trazado 118329" d="M3542.429,755.41s2.97,9.02-.8,11.055c-1.694.914-4.323-.207-5.566-1.166a8.027,8.027,0,0,1-2.484-3.727s-1.489.141-1.724-2c-.23-2.088,1.638-.925,1.638-.925s.06.642.346.669c1.175.109,2.609-2.124,3.5-3.051C3539.03,754.514,3542.429,755.41,3542.429,755.41Z" transform="translate(-3531.837 -755.181)" fill="#fdc68e"/>
              </g>
            </g>
            <g id="Grupo_60178" data-name="Grupo 60178" transform="translate(0 16.944)">
              <path id="Trazado_118330" data-name="Trazado 118330" d="M3558.553,779.224c-.49.24-.874.9-1.823.937-1.237.053-2.352-1.5-1.3-2.085a11.149,11.149,0,0,1,3.146-1.165c.557,0,2.621.71,2.41,1.627C3560.936,778.762,3559.147,778.933,3558.553,779.224Z" transform="translate(-3523.25 -765.196)" fill="#fdb56e"/>
              <path id="Trazado_118331" data-name="Trazado 118331" d="M3541.987,778.213a87.69,87.69,0,0,1-9.97-9.994c-3.623-4.705-6.209-.473-6.279,2.5-.187,7.833,12.782,12.486,14.852,12.533C3543.213,783.3,3543.6,779.516,3541.987,778.213Z" transform="translate(-3525.735 -766.113)" fill="#f56363"/>
              <path id="Trazado_118332" data-name="Trazado 118332" d="M3556.438,778.191c-2.089.23-11.7.32-15.854-1.217-2.2-.816-4.363,4.622-1.749,5.248,4.773,1.143,17.511-2.107,17.969-2.351C3557.648,779.417,3557.378,778.082,3556.438,778.191Z" transform="translate(-3524.725 -765.198)" fill="#f56363"/>
            </g>
          </g>
          <g id="Grupo_60181" data-name="Grupo 60181" transform="translate(0 22.623)">
            <g id="Grupo_60180" data-name="Grupo 60180" transform="translate(0 0.17)">
              <path id="Trazado_118333" data-name="Trazado 118333" d="M3533.831,711.908c-1.894-1.713-4.693-.464-6.127,2.131-4.916,8.9-9.135,21.216-10.038,26.43-.515,2.979,3.31,4.719,4.97,2.248,1.616-2.405,5.029-9.125,11.036-21.234C3535.685,717.423,3535.522,713.438,3533.831,711.908Z" transform="translate(-3517.618 -711.12)" fill="#fdc68e"/>
              <path id="Trazado_118334" data-name="Trazado 118334" d="M3517.693,739.563c1.787,9.121,8.859,25.162,11.283,27.822.482.532,1.64-.23,1.447-.942-.335-1.235-4.076-15.148-6.42-27.946C3523.21,734.2,3517.085,736.454,3517.693,739.563Z" transform="translate(-3517.615 -708.998)" fill="#fdc68e"/>
            </g>
            <path id="Trazado_118335" data-name="Trazado 118335" d="M3530.313,764.449a10.525,10.525,0,0,1,2.1,2.109c.72,1.193-.249,4.508-1.064,4.627-.463.068-1.027-2.435-2-3.4-.846-.843-1.864-1.548-1.241-2.991a1.353,1.353,0,0,1,2.2-.345Z" transform="translate(-3516.744 -706.459)" fill="#fdc68e"/>
            <path id="Trazado_118336" data-name="Trazado 118336" d="M3520.109,729.74s.624,1.328,3.2,2.407,4.439.83,4.9.542,5.788-10.057,6.728-13.957,0-6.232-1.353-7.206-3.484-.706-5.1.976C3525.326,715.771,3520.109,729.74,3520.109,729.74Z" transform="translate(-3517.407 -710.964)" fill="#f4f4f0"/>
          </g>
        </g>
        <g id="Grupo_60187" data-name="Grupo 60187" transform="translate(47.808 38.398)">
          <g id="Grupo_60184" data-name="Grupo 60184" transform="translate(5.591)">
            <g id="Grupo_60183" data-name="Grupo 60183" transform="translate(6.29 5.598)">
              <path id="Trazado_118337" data-name="Trazado 118337" d="M3579.571,774.075c-2.22,2.852-1.777,12.91-1.777,22.44,0,8.519,2.836,34.772,3.439,40.265H3573.7c.05-3.823.241-17.339.433-20.977.218-4.25-.257-10.324-1.148-11.582s.666-.592.889-1.884-.074-10.8.147-15.918,1.554-13.344,1.777-17.047,1.443-14.464,1.386-15.3-1.831-1.609-1.719-4.458-1-4.513-1.776-6.1-1.054-5.75-1.054-5.75a13.067,13.067,0,0,0,1.886,5.439,12.8,12.8,0,0,1,1.943,6.492c0,1.109,1.48,2.627,1.85,1.924s3.038-5.382,3.94-7.547.518-3.644.665-4.828a10.981,10.981,0,0,1,1.378-3.154,12.7,12.7,0,0,1-.805-2.978c.091-.6.491-1.96.491-1.96a17.635,17.635,0,0,0-.231,1.858,9.344,9.344,0,0,0,.887,2.7s.776-.887,1.812-2a41.3,41.3,0,0,1,3.551-3.049s-6.547,6.156-5.992,9.513-2.108,8.739-4,12.707-2,16.23-1.221,17.507,2.848-.573,5.513-2.719,3.454-3.715,4.665-7.323c1.776-5.308,8.916-11.987,8.916-11.987s-7.344,7.891-8.258,14.354C3588.9,767.787,3581.789,771.223,3579.571,774.075Z" transform="translate(-3572.637 -730.665)" fill="#754c24"/>
              <path id="Trazado_118338" data-name="Trazado 118338" d="M3573.866,801.146c.217-1.292-.075-10.8.147-15.917s1.555-13.344,1.776-17.047,1.443-14.464,1.388-15.3-1.83-1.609-1.72-4.458a8.851,8.851,0,0,0-.64-3.742h0c1.532,2.387.7,4.853,1.519,6.184s1.059.5,1.41,1.59-.887,6.233-.777,10.746-1.4,14.41-1.923,18.044-.277,10.265.027,14.676-1.085,7.131-.553,7.352.526-.471.526-.471a6.852,6.852,0,0,1-.084,1.914c-.194,1.085.249,2.3.859,5.687s.555,12.151.778,16.869a30.08,30.08,0,0,0,1.817,8.308h-4.727c.052-3.823.241-17.339.434-20.977.217-4.251-.259-10.325-1.149-11.583S3573.644,802.441,3573.866,801.146Z" transform="translate(-3572.632 -729.475)" fill="#694320"/>
            </g>
            <path id="Trazado_118339" data-name="Trazado 118339" d="M3594.8,727.134c.309.01.311.3.039.434-2.426,1.2-2.323,4.555-6.633,4.34-.157-.008-.434-.344-.434-.475C3587.717,727.455,3591.705,727.034,3594.8,727.134Z" transform="translate(-3565.062 -725.368)" fill="#638524"/>
            <path id="Trazado_118340" data-name="Trazado 118340" d="M3582.068,728.061a5.6,5.6,0,0,1,2.521-2.529c.182-.075.255.006.186.208-.768,2.253.078,4.488-1.553,6.454l-.015.012a.263.263,0,0,1-.359.1.273.273,0,0,1-.084-.074C3581.221,730.5,3581.42,729.467,3582.068,728.061Z" transform="translate(-3565.587 -725.505)" fill="#638524"/>
            <path id="Trazado_118341" data-name="Trazado 118341" d="M3586.1,752.737a5.591,5.591,0,0,1,.881-3.46c.117-.157.222-.125.266.085.488,2.328,2.354,3.821,1.953,6.346l-.005.017a.266.266,0,0,1-.262.269.252.252,0,0,1-.105-.021C3586.62,755.269,3586.26,754.277,3586.1,752.737Z" transform="translate(-3565.205 -723.495)" fill="#638524"/>
            <path id="Trazado_118342" data-name="Trazado 118342" d="M3594.936,753.945a5.6,5.6,0,0,1,2.666,2.378c.084.177.007.254-.2.2-2.291-.641-4.477.325-6.531-1.193-.006,0-.008-.01-.014-.014a.264.264,0,0,1-.051-.439C3592.45,753.235,3593.5,753.375,3594.936,753.945Z" transform="translate(-3564.812 -723.123)" fill="#638524"/>
            <path id="Trazado_118343" data-name="Trazado 118343" d="M3593.126,760.231a5.607,5.607,0,0,1,1.228,3.353c-.009.2-.108.228-.268.08-1.719-1.647-4.1-1.823-5.2-4.132v-.018a.264.264,0,0,1,.062-.367.267.267,0,0,1,.1-.044C3591.268,758.433,3592.125,759.052,3593.126,760.231Z" transform="translate(-3564.971 -722.676)" fill="#638524"/>
            <path id="Trazado_118344" data-name="Trazado 118344" d="M3572.729,730.865a.31.31,0,0,1,.573.155c.07,2.787,2.433,4.385-.066,8.227-.039.058-.192.358-.522.04C3569.8,736.5,3570.636,733.617,3572.729,730.865Z" transform="translate(-3566.5 -725.062)" fill="#638524"/>
            <path id="Trazado_118345" data-name="Trazado 118345" d="M3566.97,747.628a.311.311,0,0,1,.188-.564c2.786.091,4.516-2.177,8.208.537.057.042.346.217.011.525C3572.433,750.871,3569.6,749.874,3566.97,747.628Z" transform="translate(-3566.839 -723.743)" fill="#638524"/>
            <path id="Trazado_118346" data-name="Trazado 118346" d="M3568.2,791.988a.312.312,0,0,1,.55-.226c1.754,2.17,4.6,1.989,4.967,6.557,0,.07.067.4-.39.352C3569.323,798.241,3568.221,795.446,3568.2,791.988Z" transform="translate(-3566.724 -719.889)" fill="#638524"/>
            <path id="Trazado_118347" data-name="Trazado 118347" d="M3601.356,743.246a.21.21,0,0,1,.181.337c-.791.991-1.176,2.292-2.248,3.017a10.4,10.4,0,0,1-3.5,1.068c-.176.041-.208-.1-.2-.318C3595.684,743.37,3598.742,743.452,3601.356,743.246Z" transform="translate(-3564.398 -723.999)" fill="#638524"/>
            <path id="Trazado_118348" data-name="Trazado 118348" d="M3589.319,738.928a.211.211,0,0,1,.188.231.205.205,0,0,1-.065.132c-.944.846-1.54,2.061-2.712,2.6a10.405,10.405,0,0,1-3.627.476c-.18.011-.188-.131-.147-.348C3583.7,738.116,3586.705,738.7,3589.319,738.928Z" transform="translate(-3565.473 -724.379)" fill="#638524"/>
            <path id="Trazado_118349" data-name="Trazado 118349" d="M3592.215,744.759a.19.19,0,0,1,.266-.034.2.2,0,0,1,.07.113c.195,1.123.837,2.159.685,3.312a9.369,9.369,0,0,1-1.37,2.989c-.077.142-.19.081-.338-.054C3588.916,748.646,3590.8,746.641,3592.215,744.759Z" transform="translate(-3564.854 -723.876)" fill="#638524"/>
          </g>
          <g id="Grupo_60186" data-name="Grupo 60186" transform="translate(0 98.038)">
            <g id="Grupo_60185" data-name="Grupo 60185" transform="translate(6.648)">
              <path id="Trazado_118350" data-name="Trazado 118350" d="M3567.813,821.678s.684-2.651,2.16-3.007a8.37,8.37,0,0,0,2.735-.984,4.163,4.163,0,0,1,2.487-.766,5.392,5.392,0,0,0,2.954-.325c.793-.464.929-.93,2.433-.629a16.4,16.4,0,0,0,3.608.382c1.968.083,2.712.356,3.336.9s2.353,1.312,2.713,2S3567.813,821.678,3567.813,821.678Z" transform="translate(-3567.813 -815.871)" fill="#764a3a"/>
              <path id="Trazado_118351" data-name="Trazado 118351" d="M3571.255,818.835a.12.12,0,0,1-.241,0,.12.12,0,0,1,.12-.12h0A.12.12,0,0,1,3571.255,818.835Z" transform="translate(-3567.542 -815.63)" fill="#815240"/>
              <path id="Trazado_118352" data-name="Trazado 118352" d="M3572.638,819.55a.084.084,0,1,1-.085-.084A.085.085,0,0,1,3572.638,819.55Z" transform="translate(-3567.418 -815.566)" fill="#815240"/>
              <circle id="Elipse_4242" data-name="Elipse 4242" cx="0.127" cy="0.127" r="0.127" transform="translate(5.912 1.925)" fill="#815240"/>
              <path id="Trazado_118353" data-name="Trazado 118353" d="M3574.932,817.465a.116.116,0,1,1-.116-.116h0a.117.117,0,0,1,.116.114Z" transform="translate(-3567.228 -815.746)" fill="#815240"/>
              <path id="Trazado_118354" data-name="Trazado 118354" d="M3575.012,819.091a.157.157,0,1,1-.157-.156.157.157,0,0,1,.157.156Z" transform="translate(-3567.228 -815.611)" fill="#815240"/>
              <path id="Trazado_118355" data-name="Trazado 118355" d="M3573.421,818.857a.144.144,0,1,1-.144-.145h0A.146.146,0,0,1,3573.421,818.857Z" transform="translate(-3567.361 -815.63)" fill="#815240"/>
              <path id="Trazado_118356" data-name="Trazado 118356" d="M3576.7,817.544a.089.089,0,0,1-.089.089.089.089,0,0,1-.088-.089.088.088,0,0,1,.088-.088A.088.088,0,0,1,3576.7,817.544Z" transform="translate(-3567.074 -815.737)" fill="#815240"/>
              <path id="Trazado_118357" data-name="Trazado 118357" d="M3576.182,819.289a.121.121,0,0,1-.123.122.123.123,0,1,1,.123-.122Z" transform="translate(-3567.124 -815.592)" fill="#815240"/>
              <path id="Trazado_118358" data-name="Trazado 118358" d="M3577.294,819.227a.062.062,0,1,1-.124,0,.062.062,0,0,1,.124,0Z" transform="translate(-3567.018 -815.592)" fill="#815240"/>
              <path id="Trazado_118359" data-name="Trazado 118359" d="M3578.764,816.451a.141.141,0,1,1-.282,0,.141.141,0,0,1,.282,0Z" transform="translate(-3566.907 -815.834)" fill="#815240"/>
              <path id="Trazado_118360" data-name="Trazado 118360" d="M3581.232,817.179a.2.2,0,1,1-.2-.2.2.2,0,0,1,.2.2Z" transform="translate(-3566.708 -815.777)" fill="#815240"/>
              <path id="Trazado_118361" data-name="Trazado 118361" d="M3578.084,818.4a.253.253,0,1,1-.253-.253h0A.254.254,0,0,1,3578.084,818.4Z" transform="translate(-3566.984 -815.678)" fill="#815240"/>
              <path id="Trazado_118362" data-name="Trazado 118362" d="M3580.127,818.636a.09.09,0,1,1-.09-.09.09.09,0,0,1,.09.09Z" transform="translate(-3566.783 -815.644)" fill="#815240"/>
              <path id="Trazado_118363" data-name="Trazado 118363" d="M3582.606,817.51a.16.16,0,1,1-.16-.161h0A.161.161,0,0,1,3582.606,817.51Z" transform="translate(-3566.585 -815.746)" fill="#815240"/>
              <path id="Trazado_118364" data-name="Trazado 118364" d="M3583.267,816.98a.217.217,0,1,1-.218-.217.218.218,0,0,1,.218.217Z" transform="translate(-3566.538 -815.796)" fill="#815240"/>
              <path id="Trazado_118365" data-name="Trazado 118365" d="M3579.966,817.529a.235.235,0,1,1-.236-.237.235.235,0,0,1,.236.237Z" transform="translate(-3566.821 -815.751)" fill="#815240"/>
              <path id="Trazado_118366" data-name="Trazado 118366" d="M3581.7,818.474a.034.034,0,1,1-.067,0,.034.034,0,0,1,.034-.034h0A.034.034,0,0,1,3581.7,818.474Z" transform="translate(-3566.639 -815.653)" fill="#815240"/>
              <path id="Trazado_118367" data-name="Trazado 118367" d="M3584.01,817.748a.184.184,0,1,1-.186-.184A.185.185,0,0,1,3584.01,817.748Z" transform="translate(-3566.469 -815.727)" fill="#815240"/>
              <path id="Trazado_118368" data-name="Trazado 118368" d="M3584.754,816.879a.116.116,0,1,1-.116-.116h0A.116.116,0,0,1,3584.754,816.879Z" transform="translate(-3566.395 -815.796)" fill="#815240"/>
              <path id="Trazado_118369" data-name="Trazado 118369" d="M3569.6,819.537a.257.257,0,1,1-.257-.258.256.256,0,0,1,.257.258Z" transform="translate(-3567.705 -815.582)" fill="#815240"/>
              <path id="Trazado_118370" data-name="Trazado 118370" d="M3578.656,819.371a.2.2,0,1,1-.2-.205h0A.2.2,0,0,1,3578.656,819.371Z" transform="translate(-3566.927 -815.591)" fill="#815240"/>
              <path id="Trazado_118371" data-name="Trazado 118371" d="M3578.169,817.223a.144.144,0,1,1-.144-.145.146.146,0,0,1,.144.145Z" transform="translate(-3566.958 -815.769)" fill="#815240"/>
              <circle id="Elipse_4243" data-name="Elipse 4243" cx="0.184" cy="0.184" r="0.184" transform="translate(6.999 2.472)" fill="#815240"/>
              <path id="Trazado_118372" data-name="Trazado 118372" d="M3572.682,818.009a.108.108,0,1,1-.108-.108.108.108,0,0,1,.108.108Z" transform="translate(-3567.418 -815.699)" fill="#815240"/>
              <path id="Trazado_118373" data-name="Trazado 118373" d="M3570.8,819.808a.187.187,0,1,1-.187-.187h0a.186.186,0,0,1,.186.187Z" transform="translate(-3567.591 -815.553)" fill="#815240"/>
            </g>
            <path id="Trazado_118374" data-name="Trazado 118374" d="M3566.038,824.379s-.434,7.655-1.86,11.484-4.374,8.116-.764,10.73,14,.535,20.342.976,9.186.679,12.249-.976-1.64-15.105-2.3-17.073.651-8.34-.325-8.708-9.843,1.929-15.748,2.694S3566.038,824.379,3566.038,824.379Z" transform="translate(-3561.686 -815.455)" fill="#a47c52"/>
            <path id="Trazado_118375" data-name="Trazado 118375" d="M3587.29,842.281c-5.339-.3-14.084,1.11-17.122-.657s-.552-4.665.642-7.256,1.566-7.766,1.566-7.766,4.786-.074,9.757-.591c3.734-.389,8.873-1.363,11.547-1.717.11-1.774.164-3.307-.3-3.483-.985-.368-9.845,1.929-15.748,2.694s-11.594.874-11.594.874-.433,7.655-1.859,11.484-4.375,8.116-.765,10.73,13.994.535,20.342.976,9.184.679,12.248-.976c1.018-.549,1.177-2.4.912-4.7C3594.576,842.711,3592.156,842.553,3587.29,842.281Z" transform="translate(-3561.686 -815.455)" fill="#97724c"/>
            <path id="Trazado_118376" data-name="Trazado 118376" d="M3583.884,824.846a20.082,20.082,0,0,1-5.182,1.759c-5.552,1.253-3.551,6.066-3.551,6.066s.592-2.659,2.431-3.6c1.478-.759,3.255-.839,4.042-1.557,0,0-.155.593-2.1,1.247a4.2,4.2,0,0,0-3.158,3.959c1.636,0,4.542-.256,6.292-1.861A5.326,5.326,0,0,0,3583.884,824.846Z" transform="translate(-3560.572 -815.109)" fill="#63b353"/>
            <path id="Trazado_118377" data-name="Trazado 118377" d="M3566.774,820.652a2.328,2.328,0,0,0-2.079,2.521c.255,1.751-1.021,2.789,1.567,3.056s5.688-.78,7.949-.474,6.416-.445,8.494-.919a24.3,24.3,0,0,1,5.8-.357c1.383.029,4.812.089,5.687-1.068s1.021-5.578-2.333-5.845-8.021,1.929-12.2,2.4S3570.318,820.345,3566.774,820.652Z" transform="translate(-3561.438 -815.729)" fill="#b38559"/>
            <path id="Trazado_118378" data-name="Trazado 118378" d="M3565.826,823.583c.619-1.137,3.554.457,5.741,0a24.246,24.246,0,0,1,7.573-.36c2.762.313-.246.7-3.745.868s-3.39.792-5.769.72S3565.391,824.384,3565.826,823.583Z" transform="translate(-3561.34 -815.259)" fill="#a47c52"/>
            <path id="Trazado_118379" data-name="Trazado 118379" d="M3592.26,820.975c-.915-1.07-4.542.816-7.412.585a40.5,40.5,0,0,0-9.813.412c-3.532.592.388.668,4.924.479s4.457.444,7.52.13S3592.9,821.729,3592.26,820.975Z" transform="translate(-3560.668 -815.466)" fill="#a47c52"/>
          </g>
        </g>
        <g id="Grupo_60198" data-name="Grupo 60198" transform="translate(80.603 2.678)">
          <g id="Grupo_60188" data-name="Grupo 60188" transform="translate(52.32 23.953)">
            <path id="Trazado_118380" data-name="Trazado 118380" d="M3650.215,760.938c.526-.705,1.4-.515,2.177-1.831,1.017-1.712-.345-4.485-1.969-3.435-.271.176-3.458,2.294-4.049,3.581-.233.508.23,3.882,1.691,4.279.359.1,2.155.293,3.871-1.89C3652.5,760.928,3649.795,761.5,3650.215,760.938Z" transform="translate(-3639.615 -711.196)" fill="#fdb56e"/>
            <path id="Trazado_118381" data-name="Trazado 118381" d="M3663.131,739.733c-2.388-1.633-13.386-7.328-18.653-11.9-9.771-8.482-.977-16.273,6.184-11.934,11.16,6.762,18.541,16.176,19.573,19.343C3671.546,739.262,3665.889,741.619,3663.131,739.733Z" transform="translate(-3640.139 -714.658)" fill="#2bb3d9"/>
            <path id="Trazado_118382" data-name="Trazado 118382" d="M3650.586,757.083c1.915-2.79,8.222-15.988,10.009-22.482,1-3.646,9.656-3.472,8.947.8-1.253,7.581-16.154,23.015-16.847,23.48C3651.413,759.737,3649.725,758.339,3650.586,757.083Z" transform="translate(-3639.272 -713.184)" fill="#2bb3d9"/>
          </g>
          <g id="Grupo_60191" data-name="Grupo 60191" transform="translate(46.181 66.455)">
            <g id="Grupo_60190" data-name="Grupo 60190" transform="translate(6.64 90.747)">
              <path id="Trazado_118383" data-name="Trazado 118383" d="M3648.388,841.167c-.641.2-.76-1.682-1.9-1.489s-.715.878-2.991,2.048c-.519.267,1.654.622,2.8.622S3648.944,840.99,3648.388,841.167Z" transform="translate(-3640.362 -837.295)" fill="#360e2c"/>
              <path id="Trazado_118384" data-name="Trazado 118384" d="M3640.637,845.132h9.9s.585-2.8-.753-4.144c-.576-.576-2.181-1.484-4.713-.009C3642.861,842.265,3640.266,842.939,3640.637,845.132Z" transform="translate(-3640.601 -837.252)" fill="#360e2c"/>
              <g id="Grupo_60189" data-name="Grupo 60189" transform="translate(5.989)">
                <path id="Trazado_118385" data-name="Trazado 118385" d="M3647.876,837.523a3.4,3.4,0,0,0-1.754.181c.119,1.171.093,1.819.217,2.738.109.83,2.5,1.25,2.668.537.227-.944.253-1.693.522-3.038A7.047,7.047,0,0,0,3647.876,837.523Z" transform="translate(-3646.121 -837.48)" fill="#fdb56e"/>
              </g>
            </g>
            <path id="Trazado_118386" data-name="Trazado 118386" d="M3651.46,755.118c1.891,3.641,4.467,6.99,4.308,13.268-.181,7.184-2.953,33.362-2.947,37.893s-.579,37.863-.721,38.8c-.139.919-7.485,1.493-7.811.558-.358-1.016-3.4-19.827-6.145-39.067-2.661-18.668-4.146-37.847-3.521-40.964C3635.89,759.283,3649.07,750.517,3651.46,755.118Z" transform="translate(-3634.481 -753.834)" fill="#21307a"/>
          </g>
          <g id="Grupo_60194" data-name="Grupo 60194" transform="translate(28.389 67.909)">
            <g id="Grupo_60193" data-name="Grupo 60193" transform="translate(0 89.294)">
              <path id="Trazado_118387" data-name="Trazado 118387" d="M3625.87,841.167c-.64.2-.759-1.682-1.894-1.489s-.713.878-2.991,2.048c-.519.267,1.655.622,2.8.622S3626.425,840.99,3625.87,841.167Z" transform="translate(-3617.841 -837.295)" fill="#360e2c"/>
              <path id="Trazado_118388" data-name="Trazado 118388" d="M3618.116,845.132h9.9s.585-2.8-.752-4.144c-.575-.576-2.18-1.484-4.715-.009C3620.341,842.265,3617.75,842.939,3618.116,845.132Z" transform="translate(-3618.081 -837.252)" fill="#360e2c"/>
              <g id="Grupo_60192" data-name="Grupo 60192" transform="translate(5.987)">
                <path id="Trazado_118389" data-name="Trazado 118389" d="M3625.352,837.523a3.4,3.4,0,0,0-1.753.181c.119,1.171.093,1.819.217,2.738.108.83,2.5,1.25,2.667.537.226-.944.253-1.693.522-3.039A7.092,7.092,0,0,0,3625.352,837.523Z" transform="translate(-3623.599 -837.48)" fill="#fdb56e"/>
              </g>
            </g>
            <path id="Trazado_118390" data-name="Trazado 118390" d="M3648.369,759.719a27.475,27.475,0,0,1-.969,14.5c-2.2,6.7-11.264,29.325-12.539,33.584s-5.206,36.98-5.611,37.829c-.391.825-8.507.82-8.56-.153-.055-1.036-1.185-26.514.612-42.988,2.041-18.686,4.882-36.407,6.712-43.923C3629.33,753.174,3647.375,754.7,3648.369,759.719Z" transform="translate(-3617.894 -755.174)" fill="#1a4e9e"/>
          </g>
          <path id="Trazado_118391" data-name="Trazado 118391" d="M3644.734,705.382s.21,6.5.573,9.755c.062.543-.985.706-3.057.409-2.17-.311-3.753-.03-4.449-.643-.371-.325.8-4.423.495-10.265C3638.232,703.393,3644.734,705.382,3644.734,705.382Z" transform="translate(-3588.024 -691.591)" fill="#fdb56e"/>
          <g id="Grupo_60195" data-name="Grupo 60195" transform="translate(40.998)">
            <path id="Trazado_118392" data-name="Trazado 118392" d="M3639.7,702.371s3.178,11.244-3.461,10.712c-3.756-.3-5.328-13.278-3.363-15.246C3634.076,696.63,3639.7,702.371,3639.7,702.371Z" transform="translate(-3629.506 -692.147)" fill="#fdc68e"/>
            <path id="Trazado_118393" data-name="Trazado 118393" d="M3639.01,702.593a35.946,35.946,0,0,1-7.636-2.676c-2.428-1.453-1.953-4.426-.218-4.924s.335-2.158,3.2-2.269,2.684.719,4.654.14,5.1-.333,6.426,1.328,1.194,1.769,2.02,2.628,1.494,4.1.217,6.916-.36,3.712-1.328,4.622-5.711,2.1-6.382-.3A36.765,36.765,0,0,1,3639.01,702.593Z" transform="translate(-3629.703 -692.579)" fill="#360e2c"/>
            <path id="Trazado_118394" data-name="Trazado 118394" d="M3637.719,703.344c.169,1.223.583,2.24,1.348,2.135s1.223-.984,1.182-2.419c-.036-1.234-.478-2.2-1.656-1.747C3637.87,701.591,3637.55,702.121,3637.719,703.344Z" transform="translate(-3629.027 -691.848)" fill="#fdc68e"/>
          </g>
          <g id="Grupo_60196" data-name="Grupo 60196" transform="translate(36.767 21.222)">
            <path id="Trazado_118395" data-name="Trazado 118395" d="M3637.192,713.8s-.021-1.245,3.838-1.556,4.213.166,4.44.6a8.5,8.5,0,0,1,.394,1.805Z" transform="translate(-3624.837 -712.14)" fill="#2bb3d9"/>
            <path id="Trazado_118396" data-name="Trazado 118396" d="M3654.067,718.571c3.1,6.159,2.735,14.244,1.468,23.737s.263,20.335.593,23.281c.612,5.424-30.594,2.656-29.672-1.369,3.087-13.517-2.688-37.091.166-43.765C3631.088,710.005,3651.025,712.532,3654.067,718.571Z" transform="translate(-3625.804 -712.04)" fill="#02c6fd"/>
          </g>
          <g id="Grupo_60197" data-name="Grupo 60197" transform="translate(0 24.433)">
            <path id="Trazado_118397" data-name="Trazado 118397" d="M3595.439,755.964c.866-.136,1.36.609,2.837.21,1.923-.515,2.886-3.451.988-3.833-.317-.063-4.076-.774-5.4-.265-.522.2-2.547,2.939-1.779,4.243.189.327,1.338,1.717,4.089,1.352C3597.077,757.553,3594.746,756.073,3595.439,755.964Z" transform="translate(-3591.914 -711.977)" fill="#fdb56e"/>
            <path id="Trazado_118398" data-name="Trazado 118398" d="M3619.218,748.409c.413-2.928,4.222-20.136,7.039-26.516,5.229-11.834,15.3-6.849,12.65,4.562a70.393,70.393,0,0,1-11.522,25.567C3624.845,755.4,3618.462,753.818,3619.218,748.409Z" transform="translate(-3589.601 -715.101)" fill="#2bcffd"/>
            <path id="Trazado_118399" data-name="Trazado 118399" d="M3599.475,752.994c3.32-.659,17.05-5.7,22.867-9.1,3.264-1.908,9.33,4.26,5.841,6.822-6.193,4.551-27.636,5.188-28.458,5.034C3598.213,755.47,3597.982,753.291,3599.475,752.994Z" transform="translate(-3591.358 -712.687)" fill="#2bcffd"/>
          </g>
        </g>
      </g>
    </g>
  </g>
</svg>
