<svg xmlns="http://www.w3.org/2000/svg" width="1030" height="503" viewBox="0 0 1030 503">
  <g id="Grupo_62168" data-name="Grupo 62168" transform="translate(-285 -1833)">
    <g id="Grupo_61933" data-name="Grupo 61933" transform="translate(-111.733 -870.842)">
      <text id="Deducciones_en_el_impuesto_de_IVA._" data-name="Deducciones en el impuesto de IVA. " transform="translate(1066.406 2785.591)" fill="#12263f" font-size="16" font-family="Roboto-Regular, Roboto"><tspan x="1.115" y="17">Deducciones en el impuesto de </tspan><tspan x="194.279" y="41">IVA. </tspan></text>
      <text id="Deducciones_en_el_impuesto_de_IVA._2" data-name="Deducciones en el impuesto de IVA. " transform="translate(1066.406 2913.974)" fill="#12263f" font-size="16" font-family="Roboto-Regular, Roboto"><tspan x="1.115" y="17">Deducciones en el impuesto de </tspan><tspan x="194.279" y="41">IVA. </tspan></text>
      <text id="Exención_del_Impuesto_Predial_por_Conservación._" data-name="Exención del Impuesto Predial por Conservación. " transform="translate(1066.406 3044.411)" fill="#12263f" font-size="16" font-family="Roboto-Regular, Roboto"><tspan x="8.497" y="17">Exención del Impuesto Predial </tspan><tspan x="93.99" y="41">por Conservación. </tspan></text>
      <path id="Trazado_137863" data-name="Trazado 137863" d="M-105,1416.143H282.2V1350" transform="translate(1039.531 1421.829)" fill="none" stroke="#a0a603" stroke-width="1" stroke-dasharray="2"/>
      <g id="Grupo_61932" data-name="Grupo 61932" transform="translate(481.733 2763.157)">
        <g id="Grupo_61930" data-name="Grupo 61930" transform="translate(0 0)">
          <path id="Trazado_130752" data-name="Trazado 130752" d="M395.279,239.132h0c0-10.7,7.3-19.38,16.3-19.38h33.111c8.453,0,15.306-8.146,15.306-18.193h0c0-10.048-6.852-18.192-15.306-18.192H237.584c-15.18,0-27.484,14.626-27.484,32.668h0c0,18.042-12.306,32.668-27.484,32.668H106.237c-12.838,0-23.244,12.37-23.244,27.628h0c0,15.259,10.406,27.628,23.244,27.628H136.7c7.124,0,12.9,6.864,12.9,15.331h0c0,8.466-5.775,15.33-12.9,15.33H81.85c-29.972,0-54.268,28.879-54.268,64.5h0c0,35.624,24.3,64.5,54.268,64.5H531.107c47.653,0,86.283-45.916,86.283-102.556h0c0-56.64-38.63-102.557-86.283-102.557H411.584C402.579,258.512,395.279,249.835,395.279,239.132Z" transform="translate(-27.582 -128.547)" fill="#c6e2f7"/>
          <path id="Trazado_130753" data-name="Trazado 130753" d="M325.861,165.652H460.132a17.829,17.829,0,0,0,17.83-17.83h0a17.83,17.83,0,0,0-17.83-17.831H325.861a17.83,17.83,0,0,0-17.83,17.831h0A17.829,17.829,0,0,0,325.861,165.652Z" transform="translate(-80.321 -129.991)" fill="#c6e2f7"/>
        </g>
        <g id="Grupo_61929" data-name="Grupo 61929" transform="translate(79.357 53.24)">
          <g id="Grupo_61928" data-name="Grupo 61928" transform="translate(0 0)">
            <g id="Grupo_61906" data-name="Grupo 61906" transform="translate(0 177.664)">
              <g id="Grupo_61904" data-name="Grupo 61904" transform="translate(0 25.181)">
                <path id="Trazado_137831" data-name="Trazado 137831" d="M465.325,384.57c-.081-12.9-92.017-22.778-205.345-22.067S54.847,374.245,54.928,387.142c.03,4.8-.03,21.178,0,25.995.081,12.9,92.017,22.777,205.345,22.066s205.133-11.742,205.052-24.64C465.294,405.759,465.355,389.386,465.325,384.57Z" transform="translate(-54.919 -362.466)" fill="#e0dbd5"/>
                <path id="Trazado_137832" data-name="Trazado 137832" d="M465.327,384.57c.081,12.9-91.724,23.929-205.052,24.64S55.011,400.04,54.93,387.142s91.724-23.929,205.051-24.64S465.246,371.671,465.327,384.57Z" transform="translate(-54.921 -362.466)" fill="#f5f1f0"/>
              </g>
              <g id="Grupo_61905" data-name="Grupo 61905" transform="translate(25.868)">
                <path id="Trazado_137833" data-name="Trazado 137833" d="M445,351.207c-.071-11.272-80.417-19.906-179.459-19.285s-179.274,10.262-179.2,21.534c.026,4.2-.026,18.508,0,22.718.071,11.272,80.418,19.906,179.46,19.285S445.07,385.2,445,373.925C444.973,369.725,445.026,355.417,445,351.207Z" transform="translate(-86.329 -331.891)" fill="#e0dbd5"/>
                <path id="Trazado_137834" data-name="Trazado 137834" d="M445,351.207c.07,11.272-80.162,20.914-179.2,21.535s-179.389-8.013-179.46-19.285,80.162-20.913,179.2-21.534S444.93,339.935,445,351.207Z" transform="translate(-86.33 -331.891)" fill="#f5f1f0"/>
              </g>
            </g>
            <g id="Grupo_61914" data-name="Grupo 61914" transform="translate(286.06 44.453)">
              <g id="Grupo_61908" data-name="Grupo 61908">
                <g id="Grupo_61907" data-name="Grupo 61907" transform="translate(7.747)">
                  <path id="Trazado_137835" data-name="Trazado 137835" d="M378.22,280.942s15.014,7.786,22.663-.76-1.958-13.231,4.977-23.286,18.889-10.547,19.393-22.481-10.536-7.69-2.041-20.947-.223-47.786-13.767-42.848-4.767,36.728-7.847,41.142-12.247,2.476-12.433,11.182,6.318,18.8.464,24.9S372.782,267.636,378.22,280.942Z" transform="translate(-376.752 -170.14)" fill="#8eb57d"/>
                </g>
                <path id="Trazado_137836" data-name="Trazado 137836" d="M367.345,293.182s42.068-31.005,48.695-96.562" transform="translate(-367.345 -174.812)" fill="none" stroke="#b4cc8d" stroke-miterlimit="10" stroke-width="1"/>
              </g>
              <g id="Grupo_61910" data-name="Grupo 61910" transform="translate(2.784 103.688)">
                <g id="Grupo_61909" data-name="Grupo 61909" transform="translate(2.927)">
                  <path id="Trazado_137837" data-name="Trazado 137837" d="M374.279,321.183s1.606,9.953,8.414,10.578,5.638-5.637,12.914-5.89,11.758,5.3,17.65,1.3-.061-7.776,9.3-8.418,22.795-17.081,15.62-21.811S418.905,307.7,415.7,307.8s-5.536-4.983-9.769-1.98-6.755,9.7-11.752,9.066S378.716,313.852,374.279,321.183Z" transform="translate(-374.279 -296.041)" fill="#8eb57d"/>
                </g>
                <path id="Trazado_137838" data-name="Trazado 137838" d="M370.725,321.351s27.539,5.918,61.135-16.708" transform="translate(-370.725 -297.559)" fill="none" stroke="#b4cc8d" stroke-miterlimit="10" stroke-width="1"/>
              </g>
              <g id="Grupo_61913" data-name="Grupo 61913" transform="translate(4.019 49.83)">
                <g id="Grupo_61912" data-name="Grupo 61912">
                  <g id="Grupo_61911" data-name="Grupo 61911" transform="translate(4.781)">
                    <path id="Trazado_137839" data-name="Trazado 137839" d="M378.091,307.49s9.62,9.5,17.482,4.783,1.638-10.565,9.312-16.6,16.918-3.58,20.127-12.573-6.224-8.366,3.4-16.475,11.14-36.536-.368-35.972-12.333,26.913-15.73,29.554-9.935-1.009-12.138,5.594.373,15.848-5.539,19.117S377.088,296.044,378.091,307.49Z" transform="translate(-378.03 -230.645)" fill="#b4cc8d"/>
                  </g>
                  <path id="Trazado_137840" data-name="Trazado 137840" d="M372.225,310.755s35.094-15.408,53.533-66.5" transform="translate(-372.225 -233.047)" fill="none" stroke="#8eb57d" stroke-miterlimit="10" stroke-width="1"/>
                </g>
                <path id="Trazado_137841" data-name="Trazado 137841" d="M399.164,306.188c2.592-7.779,11.486-13.745,18.067-16.216s5.538-6.038,5.317-13.13c-.216-6.907,13.579-22.485,14.3-23.3-.843,6.857-3.438,13.748-7.441,17.122-9.624,8.11-.191,7.483-3.4,16.475s-12.453,6.537-20.127,12.573-1.449,11.886-9.312,16.6c-4.409,2.644-9.371.818-12.879-1.3L383.68,315S396.573,313.966,399.164,306.188Z" transform="translate(-374.246 -234.685)" fill="#8eb57d"/>
              </g>
            </g>
            <g id="Grupo_61922" data-name="Grupo 61922" transform="translate(76.878 40.626)">
              <g id="Grupo_61916" data-name="Grupo 61916" transform="translate(7.554)">
                <g id="Grupo_61915" data-name="Grupo 61915">
                  <path id="Trazado_137842" data-name="Trazado 137842" d="M174.575,278.982s-15.089,9.521-23.89,1.217.88-14.082-7.3-24.035S122.588,246.759,121,234.259s10.392-9.022.282-22.2-4.017-50.25,10.659-46.266,8.278,38.184,11.909,42.549,13.095,1.513,14.065,10.648-4.969,20.324,1.728,26.211S179.109,264.511,174.575,278.982Z" transform="translate(-116.285 -165.493)" fill="#8eb57d"/>
                </g>
                <path id="Trazado_137843" data-name="Trazado 137843" d="M186.837,291.141s-46.98-28.849-59.778-97.171" transform="translate(-118.186 -170.518)" fill="none" stroke="#b4cc8d" stroke-miterlimit="10" stroke-width="1"/>
              </g>
              <g id="Grupo_61918" data-name="Grupo 61918" transform="translate(0 111.085)">
                <g id="Grupo_61917" data-name="Grupo 61917">
                  <path id="Trazado_137844" data-name="Trazado 137844" d="M178.246,321.418s-.8,10.605-7.9,11.868-6.428-5.424-14.1-5.042-11.889,6.613-18.438,2.934-.628-8.179-10.528-8.022-25.48-15.928-18.36-21.538,21.218,9.6,24.6,9.415,5.375-5.73,10.093-2.95,7.964,9.6,13.161,8.484S172.93,314.107,178.246,321.418Z" transform="translate(-107.113 -300.376)" fill="#8eb57d"/>
                </g>
                <path id="Trazado_137845" data-name="Trazado 137845" d="M182.989,321.29s-28.422,8.671-65.751-12.125" transform="translate(-108.899 -301.927)" fill="none" stroke="#b4cc8d" stroke-miterlimit="10" stroke-width="1"/>
              </g>
              <g id="Grupo_61921" data-name="Grupo 61921" transform="translate(0.879 53.812)">
                <g id="Grupo_61920" data-name="Grupo 61920">
                  <g id="Grupo_61919" data-name="Grupo 61919">
                    <path id="Trazado_137846" data-name="Trazado 137846" d="M174.931,307.163s-9.267,10.841-17.95,6.584-2.662-10.96-11.265-16.621-18.1-2.258-22.276-11.425,5.8-9.347-5.04-17.016-14.962-37.414-2.813-37.846,15.359,27.193,19.163,29.666,10.355-1.944,13.258,4.8,1.018,16.692,7.523,19.6S174.967,295.043,174.931,307.163Z" transform="translate(-108.18 -230.834)" fill="#b4cc8d"/>
                  </g>
                  <path id="Trazado_137847" data-name="Trazado 137847" d="M182.182,310.14S143.921,297.065,119.992,245" transform="translate(-110.264 -233.334)" fill="none" stroke="#8eb57d" stroke-miterlimit="10" stroke-width="1"/>
                </g>
                <path id="Trazado_137848" data-name="Trazado 137848" d="M153.539,307.729c-3.415-7.947-13.3-13.426-20.434-15.438s-6.359-5.854-6.757-13.329c-.388-7.279-16.274-22.428-17.107-23.217,1.5,7.132,4.837,14.145,9.346,17.335,10.838,7.669.866,7.849,5.04,17.016s13.672,5.764,22.276,11.425,2.581,12.365,11.266,16.621c4.87,2.387,9.923.026,13.422-2.509l.009-.022S156.955,315.676,153.539,307.729Z" transform="translate(-108.367 -235.229)" fill="#8eb57d"/>
              </g>
            </g>
            <path id="Trazado_137849" data-name="Trazado 137849" d="M458.848,352.4c.016,2.508-17.22,4.65-38.5,4.782s-38.539-1.791-38.554-4.3,17.221-4.649,38.5-4.782S458.832,349.89,458.848,352.4Z" transform="translate(-112.593 -157.085)" fill="#6c467a" opacity="0.16" style="mix-blend-mode: multiply;isolation: isolate"/>
            <g id="Grupo_61924" data-name="Grupo 61924" transform="translate(133.094)">
              <path id="Trazado_137850" data-name="Trazado 137850" d="M331.933,65.04H180.9l-14.26,11.019V264.684h151.03l14.26-11.019Z" transform="translate(-166.643 -65.04)" fill="#f5f1f0"/>
              <path id="Trazado_137851" data-name="Trazado 137851" d="M180.9,65.04l-14.26,11.019V264.685h151.03l14.26-11.019V65.04ZM329.787,255.321l-12.114,9.363L168.79,262.091V78.366l13.89-10.733H329.787Z" transform="translate(-166.643 -65.04)" fill="#87b5ed"/>
              <path id="Trazado_137852" data-name="Trazado 137852" d="M183.614,69.163l.425-.33h-2.275l-10.89,8.44h2.008l-.1.078.235-.078h.134l.1-.077c11.292-3.709,10.784-8.35,10.784-8.35Z" transform="translate(-167.997 -66.253)" fill="#6d91d9"/>
              <g id="Grupo_61923" data-name="Grupo 61923" transform="translate(0 11.019)">
                <rect id="Rectángulo_18664" data-name="Rectángulo 18664" width="151.03" height="188.625" transform="translate(0)" fill="#a0a603"/>
                <rect id="Rectángulo_18665" data-name="Rectángulo 18665" width="96.296" height="70.239" transform="translate(29.247 39.047)" fill="#6d91d9" opacity="0.23" style="mix-blend-mode: multiply;isolation: isolate"/>
                <rect id="Rectángulo_18666" data-name="Rectángulo 18666" width="90.073" height="59.213" transform="translate(32.358 44.746)" fill="#fff"/>
                <rect id="Rectángulo_18667" data-name="Rectángulo 18667" width="4.2" height="188.625" transform="translate(2.878)" fill="#6d91d9"/>
                <path id="Trazado_137853" data-name="Trazado 137853" d="M317.673,259.26c-97.9-40.615-134.754-135.87-146.6-178.018h-4.425V269.867h151.03Z" transform="translate(-166.643 -81.242)" fill="#6d91d9" opacity="0.08" style="mix-blend-mode: multiply;isolation: isolate"/>
              </g>
              <path id="Trazado_137854" data-name="Trazado 137854" d="M390.886,267.294l-2.372,1.75V80.419l2.372-1.75Z" transform="translate(-237.613 -69.399)" fill="#6c467a" opacity="0.16" style="mix-blend-mode: multiply;isolation: isolate"/>
            </g>
            <path id="Trazado_137855" data-name="Trazado 137855" d="M187.746,318.36l50.106,8.2v35.578l-52.972-8.5Z" transform="translate(-77.849 -151.839)" fill="#5e4940"/>
            <g id="Grupo_61927" data-name="Grupo 61927" transform="translate(45.357 162.208)">
              <path id="Trazado_137856" data-name="Trazado 137856" d="M241.239,336.506a9.934,9.934,0,0,0-6.518-3.832,8.783,8.783,0,0,0-2.075,0,8.7,8.7,0,0,0-1.936-.48,8.809,8.809,0,0,0-2.6.081,10.643,10.643,0,0,0-2.752-.362l-14.658-2.4c.055-.059.105-.125.161-.184l-19.323-3.179c-.054.065-.1.135-.158.2l-12.643-2.07a11.253,11.253,0,0,0-4.939-2.279c-4.215-.785-8.451.975-11.74,4.388h0a20.6,20.6,0,0,0-3.521,5.012l-.042.082q-.335.668-.629,1.372l-.071.168q-.282.687-.526,1.4c-.023.067-.044.134-.066.2-.159.481-.306.971-.437,1.471-.014.054-.026.109-.04.163-.133.523-.254,1.054-.355,1.6q-.178.955-.279,1.9a23.165,23.165,0,0,0,.329,7.212q.178.845.418,1.653c1.28,4.3,3.877,7.737,7.336,9.4a10.953,10.953,0,0,0,2.75.9c.33.062.661.1.992.133.074.007.148.013.222.018.332.025.663.037.994.031h.011c.335-.006.669-.032,1-.068l.156-.017c.34-.042.679-.1,1.016-.17h0l.015,0a10.692,10.692,0,0,0,2.042.3h0l.342.054-58.408,51.613a13.217,13.217,0,0,0,5.368,22.82h0c33.921,4.02,46.077-8.136,46.077-8.136L175.35,400l-15.739-.935,6.939-8.449,10.79.72,8.29-22.342,5.217-7.034,31.308,5.023a10.645,10.645,0,0,0,3.2.514c.226,0,.446-.03.67-.044.163.03.327.058.493.077a7.757,7.757,0,0,0,1.022.05,9.9,9.9,0,0,0,1.013-.068,8.809,8.809,0,0,0,.936.292h0a8.007,8.007,0,0,0,1.025.2l.013,0a8.645,8.645,0,0,0,1.127.057c.03,0,.059,0,.089,0a9.017,9.017,0,0,0,1.064-.09l.134-.018a9.517,9.517,0,0,0,1.02-.222l.156-.043a9.932,9.932,0,0,0,.985-.347l.158-.067c.324-.139.644-.295.959-.468l.146-.082c.284-.162.567-.334.842-.522.032-.021.063-.046.1-.068l.119-.086c.314-.224.623-.462.924-.72l.073-.066c.315-.273.623-.56.922-.866.169-.173.334-.351.5-.535.217-.245.427-.5.635-.764l.153-.2c.357-.467.7-.957,1.024-1.475.049-.079.095-.161.143-.24l.018-.03c.082-.136.164-.27.244-.409a21.908,21.908,0,0,0,1.4-2.963q.3-.787.556-1.617a24.876,24.876,0,0,0,.633-2.57q.169-.883.278-1.8t.151-1.813q.043-.9.021-1.776A19.4,19.4,0,0,0,241.239,336.506Z" transform="translate(-110.12 -314.657)" fill="#6d91d9" opacity="0.23" style="mix-blend-mode: multiply;isolation: isolate"/>
              <g id="Grupo_61926" data-name="Grupo 61926" transform="translate(0 0)">
                <ellipse id="Elipse_1834" data-name="Elipse 1834" cx="18.777" cy="14.231" rx="18.777" ry="14.231" transform="translate(42.221 36.92) rotate(-79.455)" fill="#785f54"/>
                <ellipse id="Elipse_1835" data-name="Elipse 1835" cx="13.638" cy="17.789" rx="13.638" ry="17.789" transform="translate(101.007 12.516)" fill="#5e4940"/>
                <ellipse id="Elipse_1836" data-name="Elipse 1836" cx="13.638" cy="17.789" rx="13.638" ry="17.789" transform="translate(49.617 4.214)" fill="#5e4940"/>
                <path id="Trazado_137857" data-name="Trazado 137857" d="M187.746,318.36l50.106,8.2v35.578l-52.972-8.5Z" transform="translate(-123.206 -314.047)" fill="#5e4940"/>
                <path id="Trazado_137858" data-name="Trazado 137858" d="M225.874,324.5l-19.323-3.179A31.713,31.713,0,0,0,200,334.682a30.081,30.081,0,0,0,2.966,21.931l17.6,2.838a30.463,30.463,0,0,1-2.2-20.526A31.4,31.4,0,0,1,225.874,324.5Z" transform="translate(-125.726 -314.569)" fill="#ffc182"/>
                <g id="Grupo_61925" data-name="Grupo 61925" transform="translate(105.425 11.815)">
                  <path id="Trazado_137859" data-name="Trazado 137859" d="M256.587,329.124a8.763,8.763,0,0,0-2.036.017,8.726,8.726,0,0,0-1.975-.493c-6.792-.805-13.236,6.45-14.393,16.207s3.411,18.318,10.2,19.123a8.763,8.763,0,0,0,2.036-.017,8.729,8.729,0,0,0,1.975.492c6.792.805,13.236-6.45,14.393-16.207S263.379,329.93,256.587,329.124Z" transform="translate(-238.004 -327.666)" fill="#5e4940"/>
                  <ellipse id="Elipse_1837" data-name="Elipse 1837" cx="17.789" cy="12.385" rx="17.789" ry="12.385" transform="translate(2.095 35.33) rotate(-83.238)" fill="#917366"/>
                </g>
                <path id="Trazado_137860" data-name="Trazado 137860" d="M231.761,335.043s-2.767,4.151-5.93,5.139-45.658-5.93-50.4-9.092-3.162-8.894-3.162-8.894l-1.237-.582a22.46,22.46,0,0,0-5.688,11.468c-1.9,10.195,2.827,19.625,10.554,21.064a11.118,11.118,0,0,0,4.393-.074,10.655,10.655,0,0,0,2.058.3l51.983,8.34v-.19a8.113,8.113,0,0,0,3.2.207,8.831,8.831,0,0,0,.937.292,7.853,7.853,0,0,0,1.025.2l.013,0c3.184.378,6.291-1.016,8.813-3.608.169-.173.334-.351.5-.534A17.693,17.693,0,0,0,250.2,357.3a20.988,20.988,0,0,0,2.061-3.92C235.4,363.735,231.761,335.043,231.761,335.043Z" transform="translate(-119.685 -314.621)" fill="#6d91d9" opacity="0.32" style="mix-blend-mode: multiply;isolation: isolate"/>
                <path id="Trazado_137861" data-name="Trazado 137861" d="M198.647,349.48c0-2.991-2.965-5.416-6.621-5.416a7.1,7.1,0,0,0-5.51,2.413l-.025-.012L114.589,410a13.217,13.217,0,0,0,5.368,22.82h0a13.216,13.216,0,0,0,13.366-4.291l63.462-75.294A4.934,4.934,0,0,0,198.647,349.48Z" transform="translate(-109.993 -318.582)" fill="#5e4940"/>
                <path id="Trazado_137862" data-name="Trazado 137862" d="M173.443,374.779c.738-2.329-.415-4.289-2.767-3.736a13.524,13.524,0,0,0-5.926,3.913l-32.263,28.188c-7.558,6.514-16.655,15.556-6.985,18.018h0a12.338,12.338,0,0,0,12.476-4.005l33.129-39.1A12.219,12.219,0,0,0,173.443,374.779Z" transform="translate(-111.991 -323.325)" fill="#735f4e"/>
              </g>
            </g>
          </g>
        </g>
      </g>
      <circle id="Elipse_1838" data-name="Elipse 1838" cx="8.35" cy="8.35" r="8.35" transform="translate(906.184 2830.025)" fill="#a0a603"/>
      <circle id="Elipse_1839" data-name="Elipse 1839" cx="8.35" cy="8.35" r="8.35" transform="translate(1058.189 2958.408)" fill="#a0a603"/>
      <circle id="Elipse_1840" data-name="Elipse 1840" cx="8.35" cy="8.35" r="8.35" transform="translate(995.538 3088.845)" fill="#a0a603"/>
      <path id="Trazado_137864" data-name="Trazado 137864" d="M-105,1416.143H149.985V1350" transform="translate(1171.749 1550.211)" fill="none" stroke="#a0a603" stroke-width="1" stroke-dasharray="2"/>
      <path id="Trazado_137865" data-name="Trazado 137865" d="M-105,1416.143H204.495V1350" transform="translate(1117.239 1680.648)" fill="none" stroke="#a0a603" stroke-width="1" stroke-dasharray="2"/>
    </g>
    <rect id="Rectángulo_18709" data-name="Rectángulo 18709" width="1030" height="503" transform="translate(285 1833)" fill="none"/>
  </g>
</svg>
