<svg xmlns="http://www.w3.org/2000/svg" width="161.854" height="161.858" viewBox="0 0 161.854 161.858">
  <g id="Grupo_61121" data-name="Grupo 61121" transform="translate(-908.781 -750.386)">
    <g id="Grupo_57997" data-name="Grupo 57997">
      <path id="Trazado_116716" data-name="Trazado 116716" d="M1069.735,834.99h-.031a.848.848,0,0,1-.817-.878h0c.034-.949.051-1.91.051-2.856,0-2.078-.083-4.181-.247-6.249a.848.848,0,1,1,1.691-.134c.168,2.112.253,4.26.253,6.383,0,.967-.017,1.948-.052,2.917A.849.849,0,0,1,1069.735,834.99Zm-1.458-18.319a.85.85,0,0,1-.832-.684,78.95,78.95,0,0,0-2.281-8.815.848.848,0,0,1,1.615-.519,80.536,80.536,0,0,1,2.331,9.005.848.848,0,0,1-.667,1A.835.835,0,0,1,1068.277,816.671Zm-5.621-17.49a.849.849,0,0,1-.773-.5,79.769,79.769,0,0,0-4.233-8.059.849.849,0,1,1,1.43-.916c.009.014.017.028.025.042a81.279,81.279,0,0,1,4.323,8.231.848.848,0,0,1-.772,1.2Zm-9.459-15.752a.846.846,0,0,1-.673-.332,80.361,80.361,0,0,0-5.95-6.9.849.849,0,1,1,1.186-1.216l.034.036a82.019,82.019,0,0,1,6.076,7.042.848.848,0,0,1-.673,1.365Zm-12.782-13.21a.852.852,0,0,1-.538-.192,79.591,79.591,0,0,0-7.36-5.368.849.849,0,0,1,.92-1.426,81.31,81.31,0,0,1,7.517,5.482.848.848,0,0,1-.539,1.5Zm-15.453-9.957a.836.836,0,0,1-.374-.088,78.78,78.78,0,0,0-8.4-3.538.849.849,0,0,1,.567-1.6,80.406,80.406,0,0,1,8.577,3.614.849.849,0,0,1-.375,1.611Zm-17.322-6.146a.869.869,0,0,1-.19-.021,79.983,79.983,0,0,0-8.978-1.521.848.848,0,0,1,.188-1.686,81.7,81.7,0,0,1,9.169,1.552.849.849,0,0,1-.189,1.676Zm-27.456-1.473a.848.848,0,0,1-.1-1.691,80.743,80.743,0,0,1,9.286-.566h0a.85.85,0,0,1,0,1.7,79.152,79.152,0,0,0-9.091.554c-.031,0-.063.005-.095.005Z" fill="#6f7302"/>
    </g>
    <g id="Grupo_57998" data-name="Grupo 57998">
      <path id="Trazado_116717" data-name="Trazado 116717" d="M930.229,885.719a.848.848,0,0,1-.631-.281,81.968,81.968,0,0,1-5.817-7.259.849.849,0,0,1,1.383-.984,80.407,80.407,0,0,0,5.7,7.108.849.849,0,0,1-.63,1.416Zm-10.657-14.974a.851.851,0,0,1-.744-.439,81.593,81.593,0,0,1-4.02-8.388.848.848,0,1,1,1.57-.644,79.5,79.5,0,0,0,3.936,8.212.849.849,0,0,1-.742,1.259Zm-6.978-17a.849.849,0,0,1-.817-.619,80.51,80.51,0,0,1-1.994-9.084.849.849,0,0,1,1.676-.267,78.975,78.975,0,0,0,1.952,8.892.849.849,0,0,1-.587,1.047.889.889,0,0,1-.23.03ZM909.7,835.6a.849.849,0,0,1-.847-.813c-.048-1.13-.072-2.278-.072-3.412,0-1.953.072-3.934.214-5.889a.849.849,0,0,1,1.693.123c-.139,1.914-.21,3.854-.21,5.766,0,1.11.024,2.234.071,3.34a.849.849,0,0,1-.812.884Zm1.331-18.334a.859.859,0,0,1-.159-.014.849.849,0,0,1-.676-.992,81.218,81.218,0,0,1,2.248-9.028.848.848,0,0,1,1.62.5,79.683,79.683,0,0,0-2.2,8.839.848.848,0,0,1-.833.694Zm5.459-17.551a.85.85,0,0,1-.776-1.192,80.706,80.706,0,0,1,4.252-8.275.849.849,0,0,1,1.462.862,79.114,79.114,0,0,0-4.162,8.1.848.848,0,0,1-.776.507Zm9.327-15.835a.849.849,0,0,1-.676-1.361,81.546,81.546,0,0,1,6.03-7.082.849.849,0,0,1,1.227,1.173,79.38,79.38,0,0,0-5.9,6.933.845.845,0,0,1-.681.336Z" fill="#6f7302"/>
    </g>
    <g id="Grupo_57999" data-name="Grupo 57999">
      <path id="Trazado_116718" data-name="Trazado 116718" d="M989.787,912.244c-1.678,0-3.386-.054-5.078-.16a.848.848,0,0,1,.106-1.693c1.656.1,3.329.155,4.972.155,1.374,0,2.765-.036,4.136-.107a.848.848,0,1,1,.089,1.694C992.612,912.207,991.19,912.244,989.787,912.244Zm-14.165-1.252a.847.847,0,0,1-.15-.013,80.977,80.977,0,0,1-9.05-2.154.849.849,0,0,1,.487-1.626,79.451,79.451,0,0,0,8.861,2.109.849.849,0,0,1-.148,1.684Z" fill="#6f7302"/>
    </g>
    <g id="Grupo_58000" data-name="Grupo 58000">
      <path id="Trazado_116719" data-name="Trazado 116719" d="M1020.127,906.252a.849.849,0,0,1-.323-1.634,79.1,79.1,0,0,0,8.209-3.943.849.849,0,1,1,.864,1.462l-.042.023a81.085,81.085,0,0,1-8.386,4.028A.845.845,0,0,1,1020.127,906.252Zm16.084-8.9a.848.848,0,0,1-.494-1.539,79.989,79.989,0,0,0,6.89-5.521l.208-.187a.848.848,0,0,1,1.137,1.259h0l-.212.191a81.467,81.467,0,0,1-7.037,5.639.836.836,0,0,1-.492.16Zm13.644-12.316a.849.849,0,0,1-.637-1.41,79.474,79.474,0,0,0,5.615-7.171.848.848,0,1,1,1.394.967h0a81.087,81.087,0,0,1-5.735,7.326A.848.848,0,0,1,1049.855,885.036Z" fill="#6f7302"/>
    </g>
    <circle id="Elipse_4200" data-name="Elipse 4200" cx="58.793" cy="58.793" r="58.793" transform="translate(930.915 772.523)" fill="#fff" opacity="0.5" style="isolation: isolate"/>
    <g id="Grupo_61131" data-name="Grupo 61131">
      <g id="Grupo_61130" data-name="Grupo 61130">
        <g id="Grupo_61128" data-name="Grupo 61128">
          <path id="Trazado_130753" data-name="Trazado 130753" d="M951.857,793.475c20.169-20.169,48.1-19.711,67.641-4.765.749.573,4.061,3.465,4.683,4.158q1.041.933,2.041,1.932a52.159,52.159,0,0,1,4.372,4.963c3.433-3.362,6.378-7.2,10.187-9.954a66.61,66.61,0,0,0-4.539-5.029,65.82,65.82,0,0,0-101.3,83.057c4.1-2.317,8.626-4.224,12.432-6.953-16.065-23.307-15.071-47.851,4.487-67.409Z" fill="#5d9af0"/>
          <path id="Trazado_130754" data-name="Trazado 130754" d="M1022.249,790.827a51.649,51.649,0,0,0-77.636,67.781l.785-.725a51.652,51.652,0,0,1,78.783-65.015q-.933-1.041-1.932-2.041Z" fill="#3384e5"/>
          <path id="Trazado_130755" data-name="Trazado 130755" d="M1042.764,792.364l-12.17,7.4a51.651,51.651,0,0,1-77.413,68.078c-.435-.436-1.877-2.014-2.981-3.268l3.071-8.438-20.379-3.526a1.987,1.987,0,0,0-2.325,1.957v20.671l.008,0,8.777-1.535q.907,1.077,1.868,2.123c28.336,27.468,68.66,25.745,93.7.707,21.876-21.877,24.379-52.759,7.846-84.172Z" fill="#ffce3b"/>
          <g id="Grupo_61127" data-name="Grupo 61127">
            <path id="Trazado_130756" data-name="Trazado 130756" d="M948.537,862.535c.129.178.26.356.391.534.194.264.686.839,1.272,1.505l5.574-4.692a1.987,1.987,0,0,0-.941-3.477l-1.562-.27-4.407,3.71A1.989,1.989,0,0,0,948.537,862.535Z" fill="#eab736"/>
            <path id="Trazado_130757" data-name="Trazado 130757" d="M937.835,871.836a1.988,1.988,0,0,0-2.849-.308l-4.411,3.713-.008,0v1.6a1.987,1.987,0,0,0,3.266,1.519l5.521-4.647Q938.574,872.781,937.835,871.836Z" fill="#eab736"/>
            <path id="Trazado_130758" data-name="Trazado 130758" d="M1042.764,792.364c-.27.332-.515.63-.725.879A65.824,65.824,0,0,1,941.22,875.829q.947,1.031,1.941,2.031a65.823,65.823,0,0,0,99.6-85.5Z" fill="#eab736"/>
          </g>
          <path id="Trazado_130759" data-name="Trazado 130759" d="M1047.207,804.208a73.5,73.5,0,0,0-2.846-18.847l-19.518,16.431c-.009.008,10.211,5.657,17.627,5.906C1045.1,807.786,1047.206,805.9,1047.207,804.208Z" fill="#5d9af0"/>
          <path id="Trazado_130760" data-name="Trazado 130760" d="M1045.6,784.32l-1.237,1.041v17.448a1.987,1.987,0,0,1-2.325,1.958l-17.193-2.975-1.211,1.023a1.985,1.985,0,0,0,.966,3.452l21.941,3.8a1.987,1.987,0,0,0,2.325-1.958V785.839a1.987,1.987,0,0,0-3.266-1.519Z" fill="#3384e5"/>
          <path id="Trazado_130761" data-name="Trazado 130761" d="M1011.762,831.187c0-11.463-10.921-28.475-20.1-37.751a4.081,4.081,0,0,0-1.931-1.032c-3.391,0-24.679,25.082-24.679,41.757a21.78,21.78,0,0,0,3.064,11.914c5.163,5.207,13.226,6.392,18.967,6.392,11.878,0,24.678-4.6,24.678-21.28Z" fill="#acd980"/>
          <path id="Trazado_130762" data-name="Trazado 130762" d="M991.663,793.435c7.391,8.53,17.45,23.965,17.45,35.429,0,16.676-12.8,21.28-24.679,21.28-5.74,0-11.7-1.076-16.318-4.069,4.5,7.1,13.286,9.366,21.616,9.366,11.879,0,24.678-4.6,24.678-21.28,0-14.672-16.477-35.848-22.747-40.726Z" fill="#9cd169"/>
        </g>
        <g id="Grupo_61129" data-name="Grupo 61129">
          <path id="Trazado_130763" data-name="Trazado 130763" d="M1050.85,801.989V785.84a3.973,3.973,0,0,0-6.531-3.04l-4.018,3.383c-.858-.96-1.746-1.9-2.654-2.808a67.822,67.822,0,0,0-113.464,30.447,68.224,68.224,0,0,0-.233,34.1,1.986,1.986,0,1,0,3.853-.969,63.8,63.8,0,0,1,16.763-60.765,63.831,63.831,0,0,1,90.271,0c1.3,1.3,2.551,2.662,3.727,4.058a1.987,1.987,0,0,0,2.8.239l5.514-4.642v22.267l-21.941-3.8,5.586-4.7a1.987,1.987,0,0,0,.24-2.8c-.99-1.175-2.045-2.323-3.135-3.414a53.645,53.645,0,0,0-87.492,58.451l-6.905-1.2a3.973,3.973,0,0,0-4.65,3.915v22.267a3.973,3.973,0,0,0,6.532,3.039l4.019-3.383c.849.949,1.727,1.878,2.626,2.776a67.844,67.844,0,0,0,89.573,5.585,1.986,1.986,0,1,0-2.443-3.133,63.874,63.874,0,0,1-84.321-5.261c-1.288-1.287-2.533-2.642-3.7-4.027a1.985,1.985,0,0,0-2.8-.238l-5.515,4.642V854.566l21.941,3.8-5.585,4.7a1.988,1.988,0,0,0-.24,2.8c.981,1.163,2.027,2.3,3.107,3.38a53.643,53.643,0,0,0,87.5-58.421l6.921,1.2a3.96,3.96,0,0,0,3.235-.875,4.033,4.033,0,0,0,.621-.659,63.866,63.866,0,0,1-15.219,65.969,1.986,1.986,0,1,0,2.809,2.809,67.824,67.824,0,0,0,13.2-77.276Zm-26.032,64.447a49.663,49.663,0,0,1-70.232,0q-.8-.8-1.567-1.639l4.034-3.4a3.974,3.974,0,0,0-1.882-6.955l-10.328-1.787a49.67,49.67,0,0,1,79.975-56.456c.542.543,1.076,1.1,1.595,1.67l-4.035,3.4a3.973,3.973,0,0,0,1.881,6.955l10.315,1.785a49.6,49.6,0,0,1-9.756,56.426Z" fill="#6f7302"/>
          <path id="Trazado_130764" data-name="Trazado 130764" d="M996.461,795.218c-4.544-4.8-6.075-4.8-6.729-4.8s-2.185,0-6.729,4.8a91.411,91.411,0,0,0-8.519,10.685c-4.264,6.2-11.417,18.116-11.417,28.258,0,8.288,2.941,14.521,8.742,18.528,4.962,3.426,11.1,4.484,15.936,4.695V869.2a1.987,1.987,0,0,0,3.973,0V845.925l14.581-14.58a1.986,1.986,0,0,0-2.809-2.809l-11.771,11.771v-15.67l8.4-8.4a1.986,1.986,0,0,0-2.809-2.809l-5.591,5.591V803.787a1.987,1.987,0,1,0-3.973,0v15.232l-5.591-5.591a1.986,1.986,0,0,0-2.809,2.809l8.4,8.4v15.67l-11.772-11.771a1.986,1.986,0,0,0-2.809,2.809l14.581,14.58v7.482c-4.247-.2-9.527-1.12-13.678-3.987-4.663-3.221-7.028-8.355-7.028-15.259,0-8.787,6.377-19.568,10.178-25.212,5.514-8.188,10.792-13.482,12.515-14.462,1.723.98,7,6.274,12.515,14.462,3.8,5.645,10.177,16.425,10.177,25.212,0,10.2-5.089,16.446-15.126,18.557a1.987,1.987,0,1,0,.818,3.888c5.385-1.133,9.682-3.386,12.771-6.7,3.656-3.921,5.51-9.219,5.51-15.747,0-10.142-7.153-22.057-11.417-28.258a91.522,91.522,0,0,0-8.52-10.685Z" fill="#6f7302"/>
        </g>
      </g>
    </g>
  </g>
</svg>
