<svg xmlns="http://www.w3.org/2000/svg" width="72.574" height="72.574" viewBox="0 0 72.574 72.574">
  <g id="Grupo_62160" data-name="Grupo 62160" transform="translate(-413.961 -8026.01)">
    <g id="Grupo_61401" data-name="Grupo 61401" transform="translate(413.961 8026.01)">
      <path id="Trazado_5390" data-name="Trazado 5390" d="M1907.8,6466.171q1.783,0,3.557.174t3.522.522q1.749.348,3.454.866t3.353,1.2q1.647.683,3.219,1.522t3.054,1.831q1.482.99,2.86,2.122t2.638,2.392q1.26,1.26,2.391,2.638t2.121,2.86q.99,1.483,1.831,3.055t1.522,3.22q.682,1.646,1.2,3.353t.865,3.454q.348,1.749.523,3.522t.175,3.558q0,1.783-.175,3.556t-.523,3.523q-.348,1.748-.865,3.454t-1.2,3.353q-.682,1.647-1.522,3.219t-1.831,3.055q-.991,1.481-2.121,2.86t-2.391,2.639q-1.26,1.261-2.638,2.392t-2.86,2.122q-1.483.99-3.054,1.831t-3.219,1.521q-1.647.683-3.353,1.2t-3.454.865q-1.748.348-3.522.523t-3.557.175q-1.782,0-3.557-.175t-3.522-.523q-1.748-.348-3.454-.865t-3.352-1.2q-1.648-.683-3.219-1.521t-3.055-1.831q-1.482-.991-2.86-2.122t-2.639-2.392q-1.261-1.261-2.392-2.639t-2.121-2.86q-.99-1.482-1.831-3.055t-1.522-3.219q-.682-1.647-1.2-3.353t-.865-3.454q-.348-1.748-.522-3.523t-.175-3.556q0-1.783.175-3.558t.522-3.522q.348-1.748.865-3.454t1.2-3.353q.682-1.647,1.522-3.22t1.831-3.055q.99-1.482,2.121-2.86t2.392-2.638q1.26-1.261,2.639-2.392t2.86-2.122q1.482-.99,3.055-1.831t3.219-1.522q1.647-.683,3.352-1.2t3.454-.866q1.749-.348,3.522-.522T1907.8,6466.171Z" transform="translate(-1871.517 -6466.171)" fill="#a0a603"/>
      <path id="Trazado_89795" data-name="Trazado 89795" d="M34.085,0A34.085,34.085,0,1,1,0,34.085,34.044,34.044,0,0,1,34.085,0Z" transform="translate(2.202 2.202)" fill="#fff"/>
      <circle id="Elipse_120" data-name="Elipse 120" cx="31.007" cy="31.007" r="31.007" transform="translate(5.28 5.28)" fill="#aaaf31"/>
    </g>
    <text id="_1." data-name="1." transform="translate(437.248 8040.838)" fill="#fff" font-size="29" font-family="SegoeUI-Bold, Segoe UI" font-weight="700"><tspan x="0.73" y="31">1.</tspan></text>
  </g>
</svg>
